<?xml version="1.0" encoding="UTF-8" standalone="no"?>
<!-- Created with Inkscape (http://www.inkscape.org/) -->

<svg
   xmlns:dc="http://purl.org/dc/elements/1.1/"
   xmlns:cc="http://creativecommons.org/ns#"
   xmlns:rdf="http://www.w3.org/1999/02/22-rdf-syntax-ns#"
   xmlns:svg="http://www.w3.org/2000/svg"
   xmlns="http://www.w3.org/2000/svg"
   xmlns:sodipodi="http://sodipodi.sourceforge.net/DTD/sodipodi-0.dtd"
   xmlns:inkscape="http://www.inkscape.org/namespaces/inkscape"
   width="143.89511mm"
   height="120.43368mm"
   viewBox="0 0 143.89511 120.43368"
   version="1.1"
   id="svg2510"
   inkscape:version="0.92.5 (2060ec1f9f, 2020-04-08)"
   sodipodi:docname="action-pattern.svg">
  <defs
     id="defs2504" />
  <sodipodi:namedview
     id="base"
     pagecolor="#ffffff"
     bordercolor="#666666"
     borderopacity="1.0"
     inkscape:pageopacity="0.0"
     inkscape:pageshadow="2"
     inkscape:zoom="0.22627417"
     inkscape:cx="-592.11963"
     inkscape:cy="469.07233"
     inkscape:document-units="mm"
     inkscape:current-layer="layer1"
     showgrid="false"
     fit-margin-top="15"
     fit-margin-left="15"
     fit-margin-right="15"
     fit-margin-bottom="15"
     inkscape:window-width="1920"
     inkscape:window-height="1016"
     inkscape:window-x="0"
     inkscape:window-y="27"
     inkscape:window-maximized="1" />
  <metadata
     id="metadata2507">
    <rdf:RDF>
      <cc:Work
         rdf:about="">
        <dc:format>image/svg+xml</dc:format>
        <dc:type
           rdf:resource="http://purl.org/dc/dcmitype/StillImage" />
        <dc:title></dc:title>
      </cc:Work>
    </rdf:RDF>
  </metadata>
  <g
     inkscape:label="Calque 1"
     inkscape:groupmode="layer"
     id="layer1"
     transform="translate(-43.669821,-124.09503)">
    <g
       transform="matrix(0.47998695,0,0,0.47998695,110.75594,78.215764)"
       id="use8261"
       inkscape:label="Calque 1"
       inkscape:tile-x0="15.76052"
       inkscape:tile-y0="10.412567">
      <path
         inkscape:connector-curvature="0"
         id="path8309"
         d="m -105.35559,198.93504 c -0.80308,-0.43575 -1.52468,-1.62879 -1.52468,-2.52082 0,-0.31901 2.32172,-7.74482 5.15938,-16.50181 3.19477,-9.85904 5.159375,-16.32542 5.159375,-16.98179 0,-2.00301 -1.431113,-2.73974 -5.322035,-2.73974 -2.98292,0 -3.95089,-0.33257 -4.59536,-1.57884 -0.5467,-1.0572 -0.5024,-2.08865 0.13459,-3.13344 0.6931,-1.13681 1.94275,-1.63772 4.08576,-1.63772 h 1.72829 v -2.35768 c 0,-2.87665 0.61264,-5.03406 1.9449,-6.84896 1.742872,-2.37426 4.486216,-3.75794 7.450653,-3.75794 h 1.716953 v -1.0845 c 0,-2.28599 1.295225,-3.678 3.422269,-3.678 1.684642,0 2.675205,1.04654 2.890782,3.05413 l 0.16924,1.57607 22.423437,0.0676 22.42344,0.0676 v -1.20525 c 0,-2.18494 1.15209,-3.56023 2.98243,-3.56023 2.12002,0 3.36757,1.3691 3.36757,3.69566 v 1.06684 h 1.99751 c 2.30005,0 3.35207,0.42038 3.95114,1.57884 0.58714,1.13541 0.59226,14.48242 0.006,15.61615 -0.69114,1.33653 -1.33058,1.59042 -4.00552,1.59042 h -2.43107 l -0.60505,1.24987 c -0.77932,1.60985 -2.46283,3.28401 -4.24765,4.22405 l -1.41222,0.74379 -6.48229,0.0823 c -3.56526,0.0453 -6.56277,0.16432 -6.66114,0.26458 -0.0984,0.10027 -0.54486,1.78965 -0.99221,3.75418 -0.4582,2.01223 -1.17419,4.30819 -1.63974,5.25818 -1.57204,3.20785 -5.05394,5.87449 -8.64545,6.62116 -0.80379,0.16711 -4.22469,0.2915 -8.01679,0.2915 -7.275356,0 -7.802051,-0.0971 -8.568314,-1.57884 -0.220744,-0.42687 -0.401354,-1.13784 -0.401354,-1.57992 0,-1.44997 2.401038,-12.28785 3.029363,-13.67404 0.846565,-1.86767 2.216335,-3.29808 4.175685,-4.36057 l 1.65849,-0.89934 15.34584,-0.13229 c 11.99348,-0.10339 15.47897,-0.20823 15.9553,-0.47991 0.81374,-0.46412 1.63728,-1.85858 1.6385,-2.77438 5.3e-4,-0.40741 0.1789,-1.08479 0.39635,-1.50529 0.67532,-1.30592 1.34874,-1.59042 3.76455,-1.59042 h 2.19009 v -3.175 -3.175 h -30.17181 c -27.581765,0 -30.228953,0.0374 -30.837484,0.43616 -1.078071,0.70638 -1.432375,1.70782 -1.432375,4.04861 v 2.12981 h 5.829332 c 6.258394,0 7.188158,0.15663 8.025424,1.352 0.693931,0.99072 0.800077,2.18796 0.289396,3.26414 -0.736748,1.55258 -1.378979,1.73386 -6.142707,1.73386 h -4.195665 l 0.108694,2.3151 0.108696,2.31511 -4.525126,13.93812 c -2.48882,7.66596 -4.525129,14.00604 -4.525129,14.08906 0,0.083 2.768205,0.14978 6.151565,0.14836 5.887286,-0.002 6.208395,-0.0291 7.474479,-0.61994 1.249299,-0.583 3.307292,-2.50348 3.307292,-3.0863 0,-0.46229 1.680837,-1.31624 2.592827,-1.31727 1.776568,-0.002 3.228006,1.37152 3.228006,3.05474 0,2.56124 -4.194177,6.57589 -8.144724,7.79609 -1.561013,0.48215 -2.452979,0.52439 -10.867002,0.51467 -7.591543,-0.009 -9.290843,-0.0781 -9.890683,-0.40358 z m 42.059684,-23.5388 c 1.50487,-0.62878 2.6694,-1.63818 3.28963,-2.85142 0.58704,-1.14832 1.83416,-6.15551 1.59315,-6.39652 -0.19564,-0.19564 -6.66297,-0.16951 -6.66297,0.0269 0,0.0899 0.37048,0.58547 0.8233,1.10119 0.74358,0.84689 0.81091,1.0665 0.69544,2.26818 -0.17028,1.77214 -1.25131,2.8176 -2.91198,2.81613 -1.43769,-0.001 -2.4643,-0.63921 -3.75746,-2.3349 -0.56901,-0.74614 -1.07589,-1.3153 -1.12639,-1.2648 -0.12855,0.12856 -1.39583,6.16099 -1.39583,6.64438 0,0.58511 8.04948,0.57731 9.45311,-0.009 z"
         style="fill:#000000;stroke-width:0.26458335" />
    </g>
    <g
       transform="matrix(-0.47998695,0,0,-0.47998695,46.503634,290.80425)"
       id="use8263"
       inkscape:label="Calque 1"
       inkscape:tile-x0="15.76052"
       inkscape:tile-y0="10.412567">
      <path
         inkscape:connector-curvature="0"
         id="path8313"
         d="m -105.35559,198.93504 c -0.80308,-0.43575 -1.52468,-1.62879 -1.52468,-2.52082 0,-0.31901 2.32172,-7.74482 5.15938,-16.50181 3.19477,-9.85904 5.159375,-16.32542 5.159375,-16.98179 0,-2.00301 -1.431113,-2.73974 -5.322035,-2.73974 -2.98292,0 -3.95089,-0.33257 -4.59536,-1.57884 -0.5467,-1.0572 -0.5024,-2.08865 0.13459,-3.13344 0.6931,-1.13681 1.94275,-1.63772 4.08576,-1.63772 h 1.72829 v -2.35768 c 0,-2.87665 0.61264,-5.03406 1.9449,-6.84896 1.742872,-2.37426 4.486216,-3.75794 7.450653,-3.75794 h 1.716953 v -1.0845 c 0,-2.28599 1.295225,-3.678 3.422269,-3.678 1.684642,0 2.675205,1.04654 2.890782,3.05413 l 0.16924,1.57607 22.423437,0.0676 22.42344,0.0676 v -1.20525 c 0,-2.18494 1.15209,-3.56023 2.98243,-3.56023 2.12002,0 3.36757,1.3691 3.36757,3.69566 v 1.06684 h 1.99751 c 2.30005,0 3.35207,0.42038 3.95114,1.57884 0.58714,1.13541 0.59226,14.48242 0.006,15.61615 -0.69114,1.33653 -1.33058,1.59042 -4.00552,1.59042 h -2.43107 l -0.60505,1.24987 c -0.77932,1.60985 -2.46283,3.28401 -4.24765,4.22405 l -1.41222,0.74379 -6.48229,0.0823 c -3.56526,0.0453 -6.56277,0.16432 -6.66114,0.26458 -0.0984,0.10027 -0.54486,1.78965 -0.99221,3.75418 -0.4582,2.01223 -1.17419,4.30819 -1.63974,5.25818 -1.57204,3.20785 -5.05394,5.87449 -8.64545,6.62116 -0.80379,0.16711 -4.22469,0.2915 -8.01679,0.2915 -7.275356,0 -7.802051,-0.0971 -8.568314,-1.57884 -0.220744,-0.42687 -0.401354,-1.13784 -0.401354,-1.57992 0,-1.44997 2.401038,-12.28785 3.029363,-13.67404 0.846565,-1.86767 2.216335,-3.29808 4.175685,-4.36057 l 1.65849,-0.89934 15.34584,-0.13229 c 11.99348,-0.10339 15.47897,-0.20823 15.9553,-0.47991 0.81374,-0.46412 1.63728,-1.85858 1.6385,-2.77438 5.3e-4,-0.40741 0.1789,-1.08479 0.39635,-1.50529 0.67532,-1.30592 1.34874,-1.59042 3.76455,-1.59042 h 2.19009 v -3.175 -3.175 h -30.17181 c -27.581765,0 -30.228953,0.0374 -30.837484,0.43616 -1.078071,0.70638 -1.432375,1.70782 -1.432375,4.04861 v 2.12981 h 5.829332 c 6.258394,0 7.188158,0.15663 8.025424,1.352 0.693931,0.99072 0.800077,2.18796 0.289396,3.26414 -0.736748,1.55258 -1.378979,1.73386 -6.142707,1.73386 h -4.195665 l 0.108694,2.3151 0.108696,2.31511 -4.525126,13.93812 c -2.48882,7.66596 -4.525129,14.00604 -4.525129,14.08906 0,0.083 2.768205,0.14978 6.151565,0.14836 5.887286,-0.002 6.208395,-0.0291 7.474479,-0.61994 1.249299,-0.583 3.307292,-2.50348 3.307292,-3.0863 0,-0.46229 1.680837,-1.31624 2.592827,-1.31727 1.776568,-0.002 3.228006,1.37152 3.228006,3.05474 0,2.56124 -4.194177,6.57589 -8.144724,7.79609 -1.561013,0.48215 -2.452979,0.52439 -10.867002,0.51467 -7.591543,-0.009 -9.290843,-0.0781 -9.890683,-0.40358 z m 42.059684,-23.5388 c 1.50487,-0.62878 2.6694,-1.63818 3.28963,-2.85142 0.58704,-1.14832 1.83416,-6.15551 1.59315,-6.39652 -0.19564,-0.19564 -6.66297,-0.16951 -6.66297,0.0269 0,0.0899 0.37048,0.58547 0.8233,1.10119 0.74358,0.84689 0.81091,1.0665 0.69544,2.26818 -0.17028,1.77214 -1.25131,2.8176 -2.91198,2.81613 -1.43769,-0.001 -2.4643,-0.63921 -3.75746,-2.3349 -0.56901,-0.74614 -1.07589,-1.3153 -1.12639,-1.2648 -0.12855,0.12856 -1.39583,6.16099 -1.39583,6.64438 0,0.58511 8.04948,0.57731 9.45311,-0.009 z"
         style="fill:#000000;stroke-width:0.26458335" />
    </g>
    <g
       transform="matrix(0.47998695,0,0,-0.47998695,183.80543,234.77549)"
       id="use8269"
       inkscape:label="Calque 1"
       inkscape:tile-x0="15.76052"
       inkscape:tile-y0="10.412567">
      <path
         inkscape:connector-curvature="0"
         id="path8325"
         d="m -105.35559,198.93504 c -0.80308,-0.43575 -1.52468,-1.62879 -1.52468,-2.52082 0,-0.31901 2.32172,-7.74482 5.15938,-16.50181 3.19477,-9.85904 5.159375,-16.32542 5.159375,-16.98179 0,-2.00301 -1.431113,-2.73974 -5.322035,-2.73974 -2.98292,0 -3.95089,-0.33257 -4.59536,-1.57884 -0.5467,-1.0572 -0.5024,-2.08865 0.13459,-3.13344 0.6931,-1.13681 1.94275,-1.63772 4.08576,-1.63772 h 1.72829 v -2.35768 c 0,-2.87665 0.61264,-5.03406 1.9449,-6.84896 1.742872,-2.37426 4.486216,-3.75794 7.450653,-3.75794 h 1.716953 v -1.0845 c 0,-2.28599 1.295225,-3.678 3.422269,-3.678 1.684642,0 2.675205,1.04654 2.890782,3.05413 l 0.16924,1.57607 22.423437,0.0676 22.42344,0.0676 v -1.20525 c 0,-2.18494 1.15209,-3.56023 2.98243,-3.56023 2.12002,0 3.36757,1.3691 3.36757,3.69566 v 1.06684 h 1.99751 c 2.30005,0 3.35207,0.42038 3.95114,1.57884 0.58714,1.13541 0.59226,14.48242 0.006,15.61615 -0.69114,1.33653 -1.33058,1.59042 -4.00552,1.59042 h -2.43107 l -0.60505,1.24987 c -0.77932,1.60985 -2.46283,3.28401 -4.24765,4.22405 l -1.41222,0.74379 -6.48229,0.0823 c -3.56526,0.0453 -6.56277,0.16432 -6.66114,0.26458 -0.0984,0.10027 -0.54486,1.78965 -0.99221,3.75418 -0.4582,2.01223 -1.17419,4.30819 -1.63974,5.25818 -1.57204,3.20785 -5.05394,5.87449 -8.64545,6.62116 -0.80379,0.16711 -4.22469,0.2915 -8.01679,0.2915 -7.275356,0 -7.802051,-0.0971 -8.568314,-1.57884 -0.220744,-0.42687 -0.401354,-1.13784 -0.401354,-1.57992 0,-1.44997 2.401038,-12.28785 3.029363,-13.67404 0.846565,-1.86767 2.216335,-3.29808 4.175685,-4.36057 l 1.65849,-0.89934 15.34584,-0.13229 c 11.99348,-0.10339 15.47897,-0.20823 15.9553,-0.47991 0.81374,-0.46412 1.63728,-1.85858 1.6385,-2.77438 5.3e-4,-0.40741 0.1789,-1.08479 0.39635,-1.50529 0.67532,-1.30592 1.34874,-1.59042 3.76455,-1.59042 h 2.19009 v -3.175 -3.175 h -30.17181 c -27.581765,0 -30.228953,0.0374 -30.837484,0.43616 -1.078071,0.70638 -1.432375,1.70782 -1.432375,4.04861 v 2.12981 h 5.829332 c 6.258394,0 7.188158,0.15663 8.025424,1.352 0.693931,0.99072 0.800077,2.18796 0.289396,3.26414 -0.736748,1.55258 -1.378979,1.73386 -6.142707,1.73386 h -4.195665 l 0.108694,2.3151 0.108696,2.31511 -4.525126,13.93812 c -2.48882,7.66596 -4.525129,14.00604 -4.525129,14.08906 0,0.083 2.768205,0.14978 6.151565,0.14836 5.887286,-0.002 6.208395,-0.0291 7.474479,-0.61994 1.249299,-0.583 3.307292,-2.50348 3.307292,-3.0863 0,-0.46229 1.680837,-1.31624 2.592827,-1.31727 1.776568,-0.002 3.228006,1.37152 3.228006,3.05474 0,2.56124 -4.194177,6.57589 -8.144724,7.79609 -1.561013,0.48215 -2.452979,0.52439 -10.867002,0.51467 -7.591543,-0.009 -9.290843,-0.0781 -9.890683,-0.40358 z m 42.059684,-23.5388 c 1.50487,-0.62878 2.6694,-1.63818 3.28963,-2.85142 0.58704,-1.14832 1.83416,-6.15551 1.59315,-6.39652 -0.19564,-0.19564 -6.66297,-0.16951 -6.66297,0.0269 0,0.0899 0.37048,0.58547 0.8233,1.10119 0.74358,0.84689 0.81091,1.0665 0.69544,2.26818 -0.17028,1.77214 -1.25131,2.8176 -2.91198,2.81613 -1.43769,-0.001 -2.4643,-0.63921 -3.75746,-2.3349 -0.56901,-0.74614 -1.07589,-1.3153 -1.12639,-1.2648 -0.12855,0.12856 -1.39583,6.16099 -1.39583,6.64438 0,0.58511 8.04948,0.57731 9.45311,-0.009 z"
         style="fill:#000000;stroke-width:0.26458335" />
    </g>
    <g
       transform="matrix(-0.47998695,0,0,0.47998695,121.26379,133.84825)"
       id="use8271"
       inkscape:label="Calque 1"
       inkscape:tile-x0="15.76052"
       inkscape:tile-y0="10.412567">
      <path
         inkscape:connector-curvature="0"
         id="path8329"
         d="m -105.35559,198.93504 c -0.80308,-0.43575 -1.52468,-1.62879 -1.52468,-2.52082 0,-0.31901 2.32172,-7.74482 5.15938,-16.50181 3.19477,-9.85904 5.159375,-16.32542 5.159375,-16.98179 0,-2.00301 -1.431113,-2.73974 -5.322035,-2.73974 -2.98292,0 -3.95089,-0.33257 -4.59536,-1.57884 -0.5467,-1.0572 -0.5024,-2.08865 0.13459,-3.13344 0.6931,-1.13681 1.94275,-1.63772 4.08576,-1.63772 h 1.72829 v -2.35768 c 0,-2.87665 0.61264,-5.03406 1.9449,-6.84896 1.742872,-2.37426 4.486216,-3.75794 7.450653,-3.75794 h 1.716953 v -1.0845 c 0,-2.28599 1.295225,-3.678 3.422269,-3.678 1.684642,0 2.675205,1.04654 2.890782,3.05413 l 0.16924,1.57607 22.423437,0.0676 22.42344,0.0676 v -1.20525 c 0,-2.18494 1.15209,-3.56023 2.98243,-3.56023 2.12002,0 3.36757,1.3691 3.36757,3.69566 v 1.06684 h 1.99751 c 2.30005,0 3.35207,0.42038 3.95114,1.57884 0.58714,1.13541 0.59226,14.48242 0.006,15.61615 -0.69114,1.33653 -1.33058,1.59042 -4.00552,1.59042 h -2.43107 l -0.60505,1.24987 c -0.77932,1.60985 -2.46283,3.28401 -4.24765,4.22405 l -1.41222,0.74379 -6.48229,0.0823 c -3.56526,0.0453 -6.56277,0.16432 -6.66114,0.26458 -0.0984,0.10027 -0.54486,1.78965 -0.99221,3.75418 -0.4582,2.01223 -1.17419,4.30819 -1.63974,5.25818 -1.57204,3.20785 -5.05394,5.87449 -8.64545,6.62116 -0.80379,0.16711 -4.22469,0.2915 -8.01679,0.2915 -7.275356,0 -7.802051,-0.0971 -8.568314,-1.57884 -0.220744,-0.42687 -0.401354,-1.13784 -0.401354,-1.57992 0,-1.44997 2.401038,-12.28785 3.029363,-13.67404 0.846565,-1.86767 2.216335,-3.29808 4.175685,-4.36057 l 1.65849,-0.89934 15.34584,-0.13229 c 11.99348,-0.10339 15.47897,-0.20823 15.9553,-0.47991 0.81374,-0.46412 1.63728,-1.85858 1.6385,-2.77438 5.3e-4,-0.40741 0.1789,-1.08479 0.39635,-1.50529 0.67532,-1.30592 1.34874,-1.59042 3.76455,-1.59042 h 2.19009 v -3.175 -3.175 h -30.17181 c -27.581765,0 -30.228953,0.0374 -30.837484,0.43616 -1.078071,0.70638 -1.432375,1.70782 -1.432375,4.04861 v 2.12981 h 5.829332 c 6.258394,0 7.188158,0.15663 8.025424,1.352 0.693931,0.99072 0.800077,2.18796 0.289396,3.26414 -0.736748,1.55258 -1.378979,1.73386 -6.142707,1.73386 h -4.195665 l 0.108694,2.3151 0.108696,2.31511 -4.525126,13.93812 c -2.48882,7.66596 -4.525129,14.00604 -4.525129,14.08906 0,0.083 2.768205,0.14978 6.151565,0.14836 5.887286,-0.002 6.208395,-0.0291 7.474479,-0.61994 1.249299,-0.583 3.307292,-2.50348 3.307292,-3.0863 0,-0.46229 1.680837,-1.31624 2.592827,-1.31727 1.776568,-0.002 3.228006,1.37152 3.228006,3.05474 0,2.56124 -4.194177,6.57589 -8.144724,7.79609 -1.561013,0.48215 -2.452979,0.52439 -10.867002,0.51467 -7.591543,-0.009 -9.290843,-0.0781 -9.890683,-0.40358 z m 42.059684,-23.5388 c 1.50487,-0.62878 2.6694,-1.63818 3.28963,-2.85142 0.58704,-1.14832 1.83416,-6.15551 1.59315,-6.39652 -0.19564,-0.19564 -6.66297,-0.16951 -6.66297,0.0269 0,0.0899 0.37048,0.58547 0.8233,1.10119 0.74358,0.84689 0.81091,1.0665 0.69544,2.26818 -0.17028,1.77214 -1.25131,2.8176 -2.91198,2.81613 -1.43769,-0.001 -2.4643,-0.63921 -3.75746,-2.3349 -0.56901,-0.74614 -1.07589,-1.3153 -1.12639,-1.2648 -0.12855,0.12856 -1.39583,6.16099 -1.39583,6.64438 0,0.58511 8.04948,0.57731 9.45311,-0.009 z"
         style="fill:#000000;stroke-width:0.26458335" />
    </g>
  </g>
</svg>
