<?xml version="1.0" encoding="UTF-8" standalone="no"?>
<!-- Created with Inkscape (http://www.inkscape.org/) -->

<svg
   xmlns:dc="http://purl.org/dc/elements/1.1/"
   xmlns:cc="http://creativecommons.org/ns#"
   xmlns:rdf="http://www.w3.org/1999/02/22-rdf-syntax-ns#"
   xmlns:svg="http://www.w3.org/2000/svg"
   xmlns="http://www.w3.org/2000/svg"
   xmlns:sodipodi="http://sodipodi.sourceforge.net/DTD/sodipodi-0.dtd"
   xmlns:inkscape="http://www.inkscape.org/namespaces/inkscape"
   width="117.07085mm"
   height="144.6806mm"
   viewBox="0 0 117.07085 144.6806"
   version="1.1"
   id="svg8430"
   inkscape:version="0.92.5 (2060ec1f9f, 2020-04-08)"
   sodipodi:docname="adventure-pattern.svg">
  <defs
     id="defs8424" />
  <sodipodi:namedview
     id="base"
     pagecolor="#ffffff"
     bordercolor="#666666"
     borderopacity="1.0"
     inkscape:pageopacity="0.0"
     inkscape:pageshadow="2"
     inkscape:zoom="0.35"
     inkscape:cx="-478.81496"
     inkscape:cy="105.17291"
     inkscape:document-units="mm"
     inkscape:current-layer="layer1"
     showgrid="false"
     fit-margin-top="15"
     fit-margin-left="15"
     fit-margin-right="15"
     fit-margin-bottom="15"
     inkscape:window-width="1920"
     inkscape:window-height="1016"
     inkscape:window-x="0"
     inkscape:window-y="27"
     inkscape:window-maximized="1" />
  <metadata
     id="metadata8427">
    <rdf:RDF>
      <cc:Work
         rdf:about="">
        <dc:format>image/svg+xml</dc:format>
        <dc:type
           rdf:resource="http://purl.org/dc/dcmitype/StillImage" />
        <dc:title></dc:title>
      </cc:Work>
    </rdf:RDF>
  </metadata>
  <g
     inkscape:label="Calque 1"
     inkscape:groupmode="layer"
     id="layer1"
     transform="translate(22.769382,31.457583)">
    <path
       inkscape:tile-y0="1.7492381"
       inkscape:tile-x0="80.856234"
       id="use9673"
       d="m 7.3719497,-15.173379 c -1.998054,0 -3.666781,0.520216 -4.783164,1.581817 -0.806689,0.767109 -1.125432,1.546394 -1.18753,2.867525 -0.02249,0.480931 -0.03019,0.7977032 0.0063,1.0857207 0.0363,0.2880122 0.130466,0.5350774 0.252175,0.7735967 0.423889,0.8310006 1.183349,1.3083883 2.15593,1.3787278 l 0.248047,0.019632 v 0.4139274 0.4842087 l -0.501756,0.1173056 c -1.247536,0.2951692 -2.753598,0.9269386 -3.99616,1.6660495 -0.691066,0.4110885 -1.44362,0.9669754 -2.039144,1.4763936 -0.297762,0.2547117 -0.555122,0.4964747 -0.751893,0.7131367 -0.0984,0.1083389 -0.181795,0.2083594 -0.252174,0.3162591 -0.07041,0.1078997 -0.153988,0.2056474 -0.153988,0.4475163 0,0.3310308 0.136393,0.5697035 0.300752,0.7772135 0.164333,0.2075101 0.353298,0.4314984 0.761709,0.4314984 0.165365,0 0.204602,-0.036192 0.253735,-0.058393 0.04908,-0.022199 0.08837,-0.043614 0.12917,-0.068212 0.08162,-0.049101 0.165417,-0.1093655 0.261488,-0.1798346 0.192167,-0.1409416 0.421957,-0.3263537 0.656299,-0.5312338 1.652561,-1.4448314 3.726497,-2.5032229 5.843561,-2.9827643 1.374245,-0.3112903 4.0156872,-0.3307186 5.3149232,-0.046508 1.7949341,0.392639 3.4547181,1.0981637 4.9433691,2.0996143 0.876935,0.5899282 2.64967,2.3756779 3.230298,3.2535468 0.150231,0.2271898 0.30816,0.4493207 0.445453,0.6309704 0.137292,0.1816418 0.195552,0.2864379 0.374648,0.4299479 0.06551,0.052488 0.12626,0.1017244 0.220663,0.1539955 0.0944,0.052268 0.244607,0.1030922 0.392747,0.094051 0.296228,-0.018071 0.419391,-0.1464151 0.589624,-0.2656178 0.139965,-0.098049 0.278871,-0.226957 0.369491,-0.4082442 0.09059,-0.1812792 0.113056,-0.4008331 0.08215,-0.5901452 -0.06181,-0.3786293 -0.261276,-0.6932744 -0.560678,-1.1348137 -1.22518,-1.8068899 -2.890942,-3.3965145 -4.730458,-4.5077354 -1.185492,-0.7161107 -3.091868,-1.5159117 -4.259686,-1.7694011 l -0.309033,-0.066146 v -0.4805892 -0.4159964 l 0.248047,-0.017568 c 0.972608,-0.0703 1.732518,-0.5498227 2.15646,-1.3807943 0.121682,-0.2384901 0.215873,-0.485566 0.252174,-0.7735967 0.0363,-0.2880386 0.02818,-0.6052772 0.0056,-1.0862362 -0.0621,-1.321112 -0.380788,-2.09989 -1.187529,-2.86701 -1.014174,-0.964411 -2.5244951,-1.422858 -4.2829433,-1.509469 v -0.07235 z m 0.217064,2.174028 c 1.5254812,0.0417 2.9153113,0.618337 3.3300193,1.326019 0.20701,0.353301 0.226854,0.452347 0.226854,1.115176 0,0.498761 -0.068,0.7512445 -0.111628,0.8185545 -0.039,0.0601 -0.125545,0.09529 -0.359145,0.1328103 -0.0029,-0.1820201 -0.02461,-0.3632227 -0.06459,-0.5333018 -0.04299,-0.183121 -0.08591,-0.342996 -0.210847,-0.521414 h -0.0026 c -0.05331,-0.0759 -0.159888,-0.217628 -0.322475,-0.306959 -0.1625601,-0.0893 -0.3259131,-0.117933 -0.5234781,-0.138494 -0.395155,-0.0411 -0.993563,-0.03927 -2.1797172,-0.03927 -1.186127,0 -1.786096,-0.0019 -2.181251,0.03927 -0.197564,0.0205 -0.360865,0.04912 -0.523478,0.138494 -0.162613,0.0894 -0.269187,0.230968 -0.322474,0.306959 h -0.0026 c -0.239025,0.341539 -0.269425,0.6779888 -0.271304,1.0526467 -0.139435,-0.02249 -0.301572,-0.040915 -0.337952,-0.089916 -0.05421,-0.0732 -0.136948,-0.3460327 -0.136948,-0.8924527 0,-0.87068 0.203147,-1.277991 0.740515,-1.628841 0.831692,-0.543 2.06547,-0.81174 3.252021,-0.779281 z m -1.30638,4.0721024 h 1.089316 1.0883102 v 1.0035566 1.0061416 l -1.0898452,0.00212 -1.087781,0.00413 V -7.917442 Z m 1.115165,5.7262659 c -1.711907,0.005 -2.079122,0.047019 -2.998258,0.32453 -2.031233,0.6132989 -3.464534,1.4448499 -4.958874,2.8747588 -1.598639,1.5297811 -2.683616,3.3963186 -3.257682,5.5975911 -0.378725,1.4521286 -0.375311,3.8093491 0.0026,5.3066518 0.557054,2.21978 1.500769,3.861443 3.17037,5.521627 1.739661,1.729896 3.732344,2.787965 6.036839,3.193603 3.6577322,0.643818 7.3074213,-0.453075 10.0040283,-3.006016 0.448257,-0.424357 0.972608,-1.027337 1.398376,-1.572514 0.212883,-0.27259 0.399468,-0.528212 0.541046,-0.74776 0.0708,-0.109773 0.129037,-0.208669 0.177774,-0.306957 0.04868,-0.09829 0.107473,-0.163023 0.107473,-0.382404 0,-0.16637 -0.03651,-0.204735 -0.0589,-0.2558 -0.02249,-0.05107 -0.04458,-0.09387 -0.0703,-0.136943 -0.05128,-0.08614 -0.113162,-0.173103 -0.183435,-0.259932 -0.224314,-0.276997 -0.618331,-0.431911 -0.96274,-0.353467 -0.344408,0.07844 -0.600974,0.319902 -0.781341,0.625284 -0.0703,0.119015 -0.368644,0.542534 -0.603594,0.839743 l -0.115226,0.146243 c -0.216535,-0.203184 -0.433308,-0.376984 -0.730197,-0.425812 -0.318399,-0.05237 -0.646297,0.09261 -0.86143,0.287321 -0.09181,0.08306 -0.184415,0.175226 -0.257863,0.312642 -0.0735,0.137417 -0.109299,0.329722 -0.08218,0.494028 0.05421,0.328607 0.228706,0.509728 0.441325,0.75189 0.01932,0.02209 0.01164,0.01606 0.02739,0.03514 -0.0462,0.02281 -0.168725,0.142775 -0.609256,0.435634 -1.25177,0.832173 -2.724521,1.381086 -4.2069811,1.566312 l -0.09975,0.01188 c -0.01826,-0.430165 -0.114485,-0.832419 -0.4392352,-1.082103 -0.175895,-0.135237 -0.419576,-0.209138 -0.65061,-0.181901 -0.231061,0.02724 -0.434578,0.14007 -0.603594,0.293005 -0.272071,0.246258 -0.332476,0.602755 -0.341577,0.966866 -0.09001,-0.01646 -0.303186,-0.03302 -0.90641,-0.15813 -1.453541,-0.301509 -3.040644,-1.047335 -3.996134,-1.853634 l 0.01746,-0.01913 c 0.211984,-0.241429 0.382508,-0.402751 0.447517,-0.725021 0.03252,-0.161134 0,-0.353018 -0.06252,-0.486276 -0.06339,-0.133254 -0.14134,-0.221064 -0.218598,-0.30644 -0.207989,-0.229814 -0.554567,-0.39008 -0.881089,-0.343649 -0.304615,0.04332 -0.537713,0.218887 -0.763773,0.429432 l -0.17979,-0.224793 c -0.897308,-1.129213 -1.677406,-3.041465 -1.878436,-4.6503617 l -0.01032,-0.07597 c 0.319246,-0.0011 0.594043,-0.01672 0.859367,-0.179834 0.27262703,-0.167606 0.420132,-0.525677 0.420132,-0.80667 0,-0.280995 -0.14750497,-0.6406145 -0.420132,-0.8082201 -0.265324,-0.1631182 -0.540121,-0.1787816 -0.859367,-0.179832 l 0.01032,-0.074414 c 0.118375,-0.9473116 0.4581,-2.1348753 0.829918,-2.9197195 0.18830403,-0.3974835 0.457333,-0.8710797 0.716757,-1.2733072 0.21463,-0.3327559 0.395102,-0.5496666 0.513662,-0.6836781 0.227965,0.2245148 0.482732,0.4080642 0.802534,0.4356312 0.343085,0.02957 0.697944,-0.1643195 0.890905,-0.4397666 v -0.00212 c 0.059,-0.08423 0.114115,-0.1574906 0.167957,-0.2733701 0.05379,-0.1158796 0.09369,-0.3042418 0.05839,-0.4687041 -0.0707,-0.3289194 -0.232251,-0.4427855 -0.431509,-0.6697266 -0.02461,-0.028099 -0.01878,-0.022066 -0.0372,-0.044958 0.03389,-0.010001 0.119644,-0.1066562 0.498157,-0.3632861 0.721995,-0.4895294 1.563979,-0.9175591 2.302722,-1.1740885 0.339116,-0.1177608 0.826399,-0.2490947 1.269682,-0.3457152 0.367321,-0.0801 0.643335,-0.1121833 0.822167,-0.1286748 0,0.2062004 0.0026,0.3890116 0.08371,0.5860124 0.08559,0.2088488 0.259662,0.3699854 0.410316,0.4687041 0.137318,0.090001 0.28694,0.2072216 0.548798,0.2072216 0.261832,0 0.409443,-0.1172607 0.546735,-0.2072216 0.150654,-0.0987 0.3247502,-0.2598553 0.4103162,-0.4687041 0.07879,-0.1923997 0.08107,-0.3723561 0.08215,-0.5725769 1.173163,0.059002 3.3671141,0.8733129 4.7558061,1.8908421 l 0.146236,0.107487 -0.0056,0.00775 c -0.216641,0.2395194 -0.383672,0.3546581 -0.465084,0.683678 -0.0408,0.1648355 -0.0058,0.3614077 0.04908,0.4826583 0.0545,0.1212506 0.113638,0.197522 0.173646,0.2831861 0.192934,0.2754842 0.547793,0.4708949 0.890905,0.4413171 0.319802,-0.02757 0.572532,-0.2111296 0.80047,-0.4356312 0.11856,0.1340062 0.299032,0.3509222 0.513662,0.6836781 0.259424,0.4022249 0.53049,0.8758158 0.71882,1.2733073 0.371819,0.7848441 0.71001,1.9729291 0.828358,2.9202353 l 0.0098,0.073898 c -0.31922,0.00106 -0.592006,0.016589 -0.857303,0.179832 -0.272601,0.1677458 -0.420132,0.5279651 -0.420132,0.8087361 0,0.280773 0.147531,0.638924 0.420132,0.80667 0.265297,0.163247 0.538083,0.178265 0.857303,0.179318 l -0.0098,0.07235 c -0.0377,0.302244 -0.16084,0.9396437 -0.26199,1.3379027 -0.05749,0.226716 -0.10414,0.447035 -0.132821,0.633037 -0.01429,0.093 -0.02461,0.1754 -0.02945,0.255799 -0.005,0.0804 -0.04101,0.116115 0.03926,0.326078 0.114988,0.299603 0.328877,0.438623 0.5452,0.535368 0.216297,0.09674 0.461407,0.158348 0.751893,0.06615 0.28112,-0.08922 0.42635,-0.285636 0.538983,-0.476456 0.112659,-0.190823 0.194707,-0.40685 0.267679,-0.652159 0.145995,-0.490611 0.246855,-1.101521 0.308503,-1.7678497 0.123322,-1.332651 0.09295,-2.8648954 -0.201004,-3.9920045 C 17.609174,1.3023743 14.505929,-1.7861096 10.115513,-2.9917603 9.4962289,-3.1618212 8.8754639,-3.2054431 7.4004377,-3.2005324 Z m -11.654578,2.3383585 -0.02275,0.00619 c -0.290222,0.024765 -0.573961,0.1950931 -0.77978,0.4211637 -0.22688,0.2492005 -0.434287,0.5808372 -0.711068,1.0609157 -1.276218,2.2135941 -1.879812,4.2893139 -1.980247,6.8140553 -0.08189,2.0603718 0.100144,3.6032515 0.628914,5.2678965 1.681851,5.29423 6.084941,9.250849 11.523319,10.353373 1.645444,0.333584 4.1686422,0.336648 5.8399623,0.0098 6.251232,-1.222325 11.056778,-6.144654 12.103126,-12.402344 0.407881,-2.4392277 0.129698,-5.8140858 -0.706941,-7.6052198 -0.09178,-0.1964319 -0.18362,-0.3771873 -0.37465,-0.5255471 -0.191029,-0.1483625 -0.436774,-0.1896534 -0.627353,-0.1896534 -0.195712,0 -0.391557,0.026406 -0.581872,0.125058 -0.190315,0.098639 -0.354092,0.2890282 -0.42582,0.4904079 -0.143457,0.4027619 -0.04808,0.7772638 0.103346,1.2459202 0.500301,1.5479104 0.607986,2.43137 0.543137,4.4746595 -0.05181,1.6345297 -0.10287,2.0439567 -0.365363,2.9372907 -1.690422,5.752634 -6.646306,9.507945 -12.5366983,9.507945 -5.896425,0 -10.80143,-3.708784 -12.549108,-9.509496 -0.305435,-1.013806 -0.310542,-1.117925 -0.318321,-3.3398477 -0.0069,-2.0924312 0.01323,-2.3909897 0.24392,-3.2266762 0.364146,-1.3200803 0.896646,-2.5594442 1.521857,-3.5625749 0.326787,-0.5243195 0.536786,-0.9028112 0.564303,-1.3379025 0.01376,-0.2175378 -0.04958,-0.4741096 -0.207222,-0.6562884 -0.157638,-0.1821815 -0.362267,-0.2707243 -0.560176,-0.3203946 -0.07998,-0.020188 -0.166422,-0.035309 -0.257862,-0.037208 z M 9.8622609,2.107739 c 0,0 -0.111601,0.011404 -0.146262,0.021696 -0.03458,0.010292 -0.05823,0.021484 -0.07802,0.031006 -0.03961,0.01905 -0.06109,0.033803 -0.08009,0.047024 -0.03802,0.026458 -0.06114,0.045963 -0.08424,0.066662 -0.04609,0.041391 -0.08983,0.08514 -0.140547,0.1384935 -0.101362,0.1066958 -0.228097,0.2487506 -0.378804,0.423746 -0.30136,0.3499909 -0.6943192,0.8268309 -1.1115672,1.3513383 -0.446855,0.5617448 -0.84209,1.0411301 -1.138423,1.3813128 -0.148167,0.17009 -0.271701,0.3068452 -0.359145,0.3963564 -0.04371,0.044762 -0.07969,0.077335 -0.09819,0.093536 -0.01852,0.016192 -0.04659,0.01561 0.0527,-0.02739 -0.313505,0.1356942 -0.527341,0.3566689 -0.747766,0.6077161 -0.220027,0.2506213 -0.413676,0.5077989 -0.517789,0.8221716 -0.111099,0.3314546 -0.116126,0.6910626 -0.0894,1.0722876 0.02619,0.372388 -0.03331,0.814821 -0.363273,2.3905497 -0.271939,1.298588 -0.412115,1.967191 -0.465085,2.384867 -0.02651,0.208841 -0.04278,0.360526 0.0042,0.548804 0.0468,0.188278 0.216376,0.367721 0.292999,0.423749 0.09141,0.06683 0.24564,0.205298 0.521415,0.207222 0.275801,0.0019 0.472096,-0.144907 0.63873,-0.299207 0.333296,-0.308602 0.742368,-0.838867 1.589564,-1.912028 0.430848,-0.545777 0.793697,-0.986197 1.064525,-1.295013 0.1354132,-0.154406 0.2486292,-0.275905 0.3302262,-0.357082 0.0816,-0.08118 0.164624,-0.127849 0.08784,-0.08785 0.282839,-0.147307 0.511572,-0.369049 0.724508,-0.6175317 0.212329,-0.247781 0.393674,-0.505797 0.49403,-0.808221 0.115121,-0.34318 0.107739,-0.680484 0.08215,-1.044897 -0.02619,-0.3719676 0.03881,-0.84064 0.4041241,-2.5998413 0.124751,-0.6006518 0.237834,-1.1703685 0.320384,-1.6055869 0.0413,-0.2176092 0.07377,-0.4008015 0.09766,-0.5410518 0.01191,-0.07013 0.02223,-0.1280451 0.02947,-0.1777656 0.0069,-0.049721 0.01349,-0.066953 0.01349,-0.1560645 0,-0.544695 -0.465534,-0.8790146 -0.9487691,-0.8790146 z M 7.4443127,7.5864741 c 0.245269,0.00265 0.471699,0.1130776 0.593752,0.3105762 0.224393,0.363058 0.160205,0.704104 -0.228415,0.994254 -0.03519,0.02627 -0.166423,0.08151 -0.302816,0.0956 -0.136366,0.0141 -0.277151,-0.01185 -0.324009,-0.03307 -0.43852,-0.198515 -0.5765,-0.653029 -0.314695,-1.080556 0.114803,-0.1875183 0.331073,-0.2893909 0.576183,-0.2868042 z"
       style="fill:#000000;stroke:none;stroke-width:0.99826652;stroke-miterlimit:4;stroke-dasharray:none;stroke-opacity:1"
       inkscape:connector-curvature="0" />
    <path
       inkscape:tile-y0="1.7492381"
       inkscape:tile-x0="80.856234"
       id="use9675"
       d="m 8.8641312,92.265831 c 1.9980538,0 3.6667808,-0.520216 4.7831638,-1.581817 0.806689,-0.767109 1.125432,-1.546394 1.18753,-2.867525 0.02249,-0.48093 0.03019,-0.797703 -0.0063,-1.08572 -0.0363,-0.288013 -0.130466,-0.535078 -0.252175,-0.773597 -0.423889,-0.831001 -1.183349,-1.308388 -2.15593,-1.378728 l -0.248047,-0.01963 v -0.413927 -0.484209 l 0.501756,-0.117306 c 1.247536,-0.295169 2.753598,-0.926938 3.99616,-1.666049 0.691066,-0.411089 1.44362,-0.966975 2.039144,-1.476394 0.297762,-0.254711 0.555122,-0.496474 0.751893,-0.713136 0.0984,-0.108339 0.181795,-0.20836 0.252174,-0.31626 0.07041,-0.107899 0.153988,-0.205647 0.153988,-0.447516 0,-0.331031 -0.136393,-0.569703 -0.300752,-0.777213 -0.164333,-0.20751 -0.353298,-0.431499 -0.761709,-0.431499 -0.165365,0 -0.204602,0.03619 -0.253735,0.05839 -0.04908,0.0222 -0.08837,0.04361 -0.12917,0.06821 -0.08162,0.0491 -0.165417,0.109366 -0.261488,0.179835 -0.192167,0.140941 -0.421957,0.326354 -0.656299,0.531234 -1.652561,1.444831 -3.726497,2.503223 -5.843561,2.982764 -1.374245,0.31129 -4.015687,0.330719 -5.314923,0.04651 -1.794934,-0.392639 -3.454718,-1.098164 -4.943369,-2.099614 -0.876935,-0.589929 -2.64967,-2.375678 -3.230298,-3.253547 -0.150231,-0.22719 -0.30816,-0.449321 -0.445453,-0.630971 -0.137292,-0.181641 -0.195552,-0.286437 -0.374648,-0.429947 -0.06551,-0.05249 -0.12626,-0.101725 -0.220663,-0.153996 -0.0944,-0.05227 -0.244607,-0.103092 -0.392747,-0.09405 -0.296228,0.01807 -0.419391,0.146415 -0.589624,0.265618 -0.139965,0.09805 -0.278871,0.226957 -0.369491,0.408244 -0.09059,0.181279 -0.113056,0.400833 -0.08215,0.590145 0.06181,0.37863 0.261276,0.693275 0.560678,1.134814 1.22518,1.80689 2.890942,3.396514 4.730458,4.507735 1.185492,0.716111 3.091868,1.515912 4.259686,1.769401 l 0.309033,0.06615 v 0.480589 0.415996 l -0.248047,0.01757 c -0.972608,0.0703 -1.732518,0.549823 -2.15646,1.380794 -0.121682,0.23849 -0.215873,0.485566 -0.252174,0.773597 -0.0363,0.288039 -0.02818,0.605277 -0.0056,1.086237 0.0621,1.321112 0.380788,2.099889 1.187529,2.867009 1.014174,0.964411 2.524495,1.422858 4.2829432,1.509469 v 0.07235 z M 8.6470672,90.091803 C 7.121586,90.050103 5.731756,89.473466 5.317048,88.765785 5.110038,88.412484 5.090194,88.313438 5.090194,87.650609 c 0,-0.498761 0.068,-0.751245 0.111628,-0.818555 0.039,-0.0601 0.125545,-0.09529 0.359145,-0.132811 0.0029,0.182021 0.02461,0.363223 0.06459,0.533303 0.04299,0.18312 0.08591,0.342995 0.210847,0.521414 h 0.0026 c 0.05331,0.0759 0.159888,0.217628 0.322475,0.306959 0.16256,0.0893 0.325913,0.117933 0.523478,0.138494 0.395155,0.0411 0.993563,0.03927 2.1797172,0.03927 1.1861268,0 1.7860958,0.0019 2.1812508,-0.03927 0.197564,-0.0205 0.360865,-0.04912 0.523478,-0.138494 0.162613,-0.0894 0.269187,-0.230968 0.322474,-0.306959 h 0.0026 c 0.239025,-0.34154 0.269425,-0.67799 0.271304,-1.052647 0.139435,0.02249 0.301572,0.04091 0.337952,0.08992 0.05421,0.0732 0.136948,0.346032 0.136948,0.892453 0,0.87068 -0.203147,1.27799 -0.740515,1.628841 -0.831692,0.542999 -2.0654698,0.811739 -3.2520208,0.77928 z m 1.30638,-4.072102 H 8.8641312 7.775821 v -1.003557 -1.006141 l 1.0898452,-0.0021 1.087781,-0.0041 v 1.006141 z m -1.115165,-5.726266 c 1.7119068,-0.005 2.0791218,-0.04702 2.9982578,-0.32453 2.031233,-0.613299 3.464534,-1.44485 4.958874,-2.874759 1.598639,-1.529781 2.683616,-3.396318 3.257682,-5.597591 0.378725,-1.452129 0.375311,-3.809349 -0.0026,-5.306652 -0.557054,-2.21978 -1.500769,-3.861443 -3.17037,-5.521627 -1.739661,-1.729896 -3.732344,-2.787965 -6.036839,-3.193603 -3.657732,-0.643818 -7.307421,0.453075 -10.004028,3.006016 -0.448257,0.424357 -0.972608,1.027337 -1.398376,1.572514 -0.212883,0.27259 -0.399468,0.528212 -0.541046,0.74776 -0.0708,0.109773 -0.129037,0.208669 -0.177774,0.306957 -0.04868,0.09829 -0.107473,0.163023 -0.107473,0.382404 0,0.16637 0.03651,0.204735 0.0589,0.2558 0.02249,0.05107 0.04458,0.09387 0.0703,0.136943 0.05128,0.08614 0.113162,0.173103 0.183435,0.259932 0.224314,0.276997 0.618331,0.431911 0.96274,0.353467 0.344408,-0.07844 0.600974,-0.319902 0.781341,-0.625284 0.0703,-0.119015 0.368644,-0.542534 0.603594,-0.839743 l 0.115226,-0.146243 c 0.216535,0.203184 0.433308,0.376984 0.730197,0.425812 0.318399,0.05237 0.646297,-0.09261 0.86143,-0.287321 0.09181,-0.08306 0.184415,-0.175226 0.257863,-0.312642 0.0735,-0.137417 0.109299,-0.329722 0.08218,-0.494028 -0.05421,-0.328607 -0.228706,-0.509728 -0.441325,-0.75189 -0.01932,-0.02209 -0.01164,-0.01606 -0.02739,-0.03514 0.0462,-0.02281 0.168725,-0.142775 0.609256,-0.435634 1.25177,-0.832173 2.724521,-1.381086 4.206981,-1.566312 l 0.09975,-0.01188 c 0.01826,0.430165 0.114485,0.832419 0.4392352,1.082103 0.175895,0.135237 0.419576,0.209138 0.65061,0.181901 0.231061,-0.02724 0.434578,-0.14007 0.603594,-0.293005 0.272071,-0.246258 0.332476,-0.602755 0.341577,-0.966866 0.09001,0.01646 0.3031858,0.03302 0.9064098,0.15813 1.453541,0.301509 3.040644,1.047335 3.996134,1.853634 l -0.01746,0.01913 c -0.211984,0.241429 -0.382508,0.402751 -0.447517,0.725021 -0.03252,0.161134 0,0.353018 0.06252,0.486276 0.06339,0.133254 0.14134,0.221064 0.218598,0.30644 0.207989,0.229814 0.554567,0.39008 0.881089,0.343649 0.304615,-0.04332 0.537713,-0.218887 0.763773,-0.429432 l 0.17979,0.224793 c 0.897308,1.129213 1.677406,3.041465 1.878436,4.650362 l 0.01032,0.07597 c -0.319246,0.0011 -0.594043,0.01672 -0.859367,0.179834 -0.272627,0.167606 -0.420132,0.525677 -0.420132,0.80667 0,0.280995 0.147505,0.640614 0.420132,0.80822 0.265324,0.163118 0.540121,0.178782 0.859367,0.179832 l -0.01032,0.07441 c -0.118375,0.947312 -0.4581,2.134875 -0.829918,2.91972 -0.188304,0.397483 -0.457333,0.871079 -0.716757,1.273307 -0.21463,0.332756 -0.395102,0.549666 -0.513662,0.683678 -0.227965,-0.224515 -0.482732,-0.408064 -0.802534,-0.435631 -0.343085,-0.02957 -0.697944,0.164319 -0.890905,0.439766 v 0.0021 c -0.059,0.08423 -0.114115,0.157491 -0.167957,0.27337 -0.05379,0.11588 -0.09369,0.304242 -0.05839,0.468704 0.0707,0.32892 0.232251,0.442786 0.431509,0.669727 0.02461,0.0281 0.01878,0.02207 0.0372,0.04496 -0.03389,0.01 -0.119644,0.106656 -0.498157,0.363286 -0.721995,0.48953 -1.563979,0.917559 -2.302722,1.174089 -0.339116,0.11776 -0.826399,0.249094 -1.269682,0.345715 -0.367321,0.0801 -0.643335,0.112183 -0.8221668,0.128675 0,-0.206201 -0.0026,-0.389012 -0.08371,-0.586013 -0.08559,-0.208849 -0.259662,-0.369985 -0.410316,-0.468704 -0.137318,-0.09 -0.28694,-0.207221 -0.548798,-0.207221 -0.261832,0 -0.409443,0.11726 -0.546735,0.207221 -0.150654,0.0987 -0.3247502,0.259855 -0.4103162,0.468704 -0.07879,0.1924 -0.08107,0.372356 -0.08215,0.572577 -1.173163,-0.059 -3.367114,-0.873313 -4.755806,-1.890842 l -0.146236,-0.107487 0.0056,-0.0078 C 3.059889,75.975687 3.22692,75.860548 3.308332,75.531528 3.349132,75.366693 3.314132,75.17012 3.259252,75.04887 3.204752,74.927619 3.145614,74.851348 3.085606,74.765684 2.892672,74.4902 2.537813,74.294789 2.194701,74.324367 1.874899,74.351937 1.622169,74.535496 1.394231,74.759998 1.275671,74.625992 1.095199,74.409076 0.880569,74.07632 0.621145,73.674095 0.350079,73.200504 0.161749,72.803012 -0.21007,72.018168 -0.548261,70.830083 -0.666609,69.882777 l -0.0098,-0.0739 c 0.31922,-0.0011 0.592006,-0.01659 0.857303,-0.179832 0.272601,-0.167746 0.420132,-0.527965 0.420132,-0.808736 0,-0.280773 -0.147531,-0.638924 -0.420132,-0.80667 -0.265297,-0.163247 -0.538083,-0.178265 -0.857303,-0.179318 l 0.0098,-0.07235 c 0.0377,-0.302244 0.16084,-0.939644 0.26199,-1.337903 0.05749,-0.226716 0.10414,-0.447035 0.132821,-0.633037 0.01429,-0.093 0.02461,-0.1754 0.02945,-0.255799 0.005,-0.0804 0.04101,-0.116115 -0.03926,-0.326078 -0.114988,-0.299603 -0.328877,-0.438623 -0.5452,-0.535368 -0.216297,-0.09674 -0.461407,-0.158348 -0.751893,-0.06615 -0.28112,0.08922 -0.42635,0.285636 -0.538983,0.476456 -0.112659,0.190823 -0.194707,0.40685 -0.267679,0.652159 -0.145995,0.490611 -0.246855,1.101521 -0.308503,1.76785 -0.123322,1.332651 -0.09295,2.864895 0.201004,3.992004 1.119769,4.293971 4.223014,7.382455 8.61343,8.588106 0.619284,0.17006 1.240049,0.213682 2.7150752,0.208772 z m 11.6545778,-2.338359 0.02275,-0.0062 c 0.290222,-0.02477 0.573961,-0.195093 0.77978,-0.421163 0.22688,-0.249201 0.434287,-0.580837 0.711068,-1.060916 1.276218,-2.213594 1.879812,-4.289314 1.980247,-6.814055 C 24.068595,67.59238 23.886561,66.0495 23.357791,64.384855 21.67594,59.090625 17.27285,55.134006 11.834472,54.031482 10.189028,53.697898 7.66583,53.694834 5.99451,54.021682 c -6.251232,1.222325 -11.056778,6.144654 -12.103126,12.402344 -0.407881,2.439228 -0.129698,5.814086 0.706941,7.60522 0.09178,0.196432 0.18362,0.377187 0.37465,0.525547 0.191029,0.148363 0.436774,0.189654 0.627353,0.189654 0.195712,0 0.391557,-0.02641 0.581872,-0.125058 0.190315,-0.09864 0.354092,-0.289029 0.42582,-0.490408 0.143457,-0.402762 0.04808,-0.777264 -0.103346,-1.245921 -0.500301,-1.54791 -0.607986,-2.43137 -0.543137,-4.474659 0.05181,-1.63453 0.10287,-2.043957 0.365363,-2.937291 1.690422,-5.752634 6.646306,-9.507945 12.5366982,-9.507945 5.8964248,0 10.8014298,3.708784 12.5491078,9.509496 0.305435,1.013806 0.310542,1.117925 0.318321,3.339848 0.0069,2.092431 -0.01323,2.39099 -0.24392,3.226676 -0.364146,1.32008 -0.896646,2.559444 -1.521857,3.562575 -0.326787,0.52432 -0.536786,0.902811 -0.564303,1.337903 -0.01376,0.217537 0.04958,0.474109 0.207222,0.656288 0.157638,0.182181 0.362267,0.270724 0.560176,0.320395 0.07998,0.02019 0.166422,0.03531 0.257862,0.03721 z M 6.37382,74.984713 c 0,0 0.111601,-0.0114 0.146262,-0.0217 0.03458,-0.01029 0.05823,-0.02148 0.07802,-0.03101 0.03961,-0.01905 0.06109,-0.0338 0.08009,-0.04702 0.03802,-0.02646 0.06114,-0.04596 0.08424,-0.06666 0.04609,-0.04139 0.08983,-0.08514 0.140547,-0.138493 0.101362,-0.106696 0.228097,-0.248751 0.378804,-0.423746 0.30136,-0.349991 0.6943192,-0.826831 1.1115672,-1.351339 0.446855,-0.561744 0.84209,-1.04113 1.138423,-1.381312 0.148167,-0.17009 0.271701,-0.306846 0.359145,-0.396357 0.04371,-0.04476 0.07969,-0.07733 0.09819,-0.09354 0.01852,-0.01619 0.04659,-0.01561 -0.0527,0.02739 0.3135048,-0.135694 0.5273408,-0.356669 0.7477658,-0.607716 0.220027,-0.250621 0.413676,-0.507799 0.517789,-0.822171 0.111099,-0.331455 0.116126,-0.691063 0.0894,-1.072288 -0.02619,-0.372388 0.03331,-0.814821 0.363273,-2.39055 0.271939,-1.298588 0.412115,-1.967191 0.465085,-2.384867 0.02651,-0.208841 0.04278,-0.360526 -0.0042,-0.548804 -0.0468,-0.188278 -0.216376,-0.367721 -0.292999,-0.423749 -0.09141,-0.06683 -0.24564,-0.205298 -0.521415,-0.207222 -0.275801,-0.0019 -0.472096,0.144907 -0.63873,0.299207 -0.333296,0.308602 -0.7423678,0.838867 -1.5895638,1.912028 -0.430848,0.545777 -0.793697,0.986197 -1.064525,1.295013 -0.1354132,0.154406 -0.2486292,0.275905 -0.3302262,0.357082 -0.0816,0.08118 -0.164624,0.127849 -0.08784,0.08785 -0.282839,0.147307 -0.511572,0.369049 -0.724508,0.617532 -0.212329,0.247781 -0.393674,0.505797 -0.49403,0.808221 -0.115121,0.34318 -0.107739,0.680484 -0.08215,1.044897 0.02619,0.371968 -0.03881,0.84064 -0.404124,2.599841 -0.124751,0.600652 -0.237834,1.170369 -0.320384,1.605587 -0.0413,0.217609 -0.07377,0.400802 -0.09766,0.541052 -0.01191,0.07013 -0.02223,0.128045 -0.02947,0.177766 -0.0069,0.04972 -0.01349,0.06695 -0.01349,0.156064 0,0.544695 0.465534,0.879015 0.948769,0.879015 z m 2.4179482,-5.478735 c -0.245269,-0.0027 -0.471699,-0.113077 -0.593752,-0.310576 -0.224393,-0.363058 -0.160205,-0.704104 0.228415,-0.994254 0.03519,-0.02627 0.166423,-0.08151 0.302816,-0.0956 0.136366,-0.0141 0.277151,0.01185 0.324009,0.03307 0.43852,0.198515 0.5765,0.653029 0.314695,1.080556 -0.114803,0.187518 -0.331073,0.289391 -0.576183,0.286804 z"
       style="fill:#000000;stroke:none;stroke-width:0.99826652;stroke-miterlimit:4;stroke-dasharray:none;stroke-opacity:1"
       inkscape:connector-curvature="0" />
    <path
       inkscape:tile-y0="1.7492381"
       inkscape:tile-x0="80.856234"
       id="use9677"
       d="m 64.143349,22.029351 c -1.998054,0 -3.666781,-0.520216 -4.783164,-1.581817 -0.806689,-0.767109 -1.125432,-1.546394 -1.18753,-2.867525 -0.02249,-0.48093 -0.03019,-0.797703 0.0063,-1.08572 0.0363,-0.288012 0.130466,-0.535078 0.252175,-0.773597 0.423889,-0.831001 1.183349,-1.308388 2.15593,-1.378728 l 0.248047,-0.01963 v -0.413927 -0.484209 l -0.501756,-0.117305 c -1.247536,-0.29517 -2.753598,-0.926939 -3.99616,-1.66605 -0.691066,-0.411088 -1.44362,-0.966975 -2.039144,-1.476394 C 54.000285,9.9097357 53.742925,9.6679727 53.546154,9.4513107 53.447754,9.3429718 53.364359,9.2429513 53.29398,9.1350516 53.22357,9.0271519 53.139992,8.9294042 53.139992,8.6875353 c 0,-0.3310308 0.136393,-0.5697035 0.300752,-0.7772135 0.164333,-0.2075101 0.353298,-0.4314984 0.761709,-0.4314984 0.165365,0 0.204602,0.036192 0.253735,0.058393 0.04908,0.022199 0.08837,0.043614 0.12917,0.068212 0.08162,0.049101 0.165417,0.1093655 0.261488,0.1798346 0.192167,0.1409416 0.421957,0.3263537 0.656299,0.5312338 1.652561,1.4448314 3.726497,2.5032232 5.843561,2.9827642 1.374245,0.31129 4.015687,0.330719 5.314923,0.04651 1.794934,-0.392639 3.454718,-1.098164 4.943369,-2.0996142 0.876935,-0.5899282 2.64967,-2.3756779 3.230298,-3.2535468 0.150231,-0.2271898 0.30816,-0.4493207 0.445453,-0.6309704 0.137292,-0.1816418 0.195552,-0.2864379 0.374648,-0.4299479 0.06551,-0.052488 0.12626,-0.1017244 0.220663,-0.1539955 0.0944,-0.052268 0.244607,-0.1030922 0.392747,-0.094051 0.296228,0.018071 0.419391,0.1464151 0.589624,0.2656178 0.139965,0.098049 0.278871,0.226957 0.369491,0.4082442 0.09059,0.1812792 0.113056,0.4008331 0.08215,0.5901452 -0.06181,0.3786293 -0.261276,0.6932744 -0.560678,1.1348137 -1.22518,1.8068899 -2.890942,3.3965149 -4.730458,4.5077359 -1.185492,0.71611 -3.091868,1.515911 -4.259686,1.769401 l -0.309033,0.06615 v 0.480589 0.415996 l 0.248047,0.01757 c 0.972608,0.0703 1.732518,0.549823 2.15646,1.380795 0.121682,0.23849 0.215873,0.485565 0.252174,0.773596 0.0363,0.288039 0.02818,0.605277 0.0056,1.086237 -0.0621,1.321112 -0.380788,2.099889 -1.187529,2.867009 -1.014174,0.964411 -2.524495,1.422858 -4.282943,1.509469 v 0.07235 z m 0.217064,-2.174028 c 1.525481,-0.0417 2.915311,-0.618337 3.330019,-1.326018 0.20701,-0.353301 0.226854,-0.452347 0.226854,-1.115176 0,-0.498761 -0.068,-0.751245 -0.111628,-0.818555 -0.039,-0.0601 -0.125545,-0.09529 -0.359145,-0.13281 -0.0029,0.18202 -0.02461,0.363222 -0.06459,0.533302 -0.04299,0.18312 -0.08591,0.342995 -0.210847,0.521414 h -0.0026 c -0.05331,0.0759 -0.159888,0.217628 -0.322475,0.306959 -0.16256,0.0893 -0.325913,0.117933 -0.523478,0.138494 -0.395155,0.0411 -0.993563,0.03927 -2.179717,0.03927 -1.186127,0 -1.786096,0.0019 -2.181251,-0.03927 -0.197564,-0.0205 -0.360865,-0.04912 -0.523478,-0.138494 -0.162613,-0.0894 -0.269187,-0.230968 -0.322474,-0.306959 h -0.0026 c -0.239025,-0.34154 -0.269425,-0.677989 -0.271304,-1.052647 -0.139435,0.02249 -0.301572,0.04092 -0.337952,0.08992 -0.05421,0.0732 -0.136948,0.346032 -0.136948,0.892453 0,0.87068 0.203147,1.27799 0.740515,1.628841 0.831692,0.542999 2.06547,0.811739 3.252021,0.77928 z m -1.30638,-4.072102 h 1.089316 1.08831 v -1.003557 -1.006141 l -1.089845,-0.0021 -1.087781,-0.0041 v 1.006141 z m 1.115165,-5.726266 C 62.457291,10.051955 62.090076,10.009936 61.17094,9.7324251 59.139707,9.1191262 57.706406,8.2875752 56.212066,6.8576663 54.613427,5.3278852 53.52845,3.4613477 52.954384,1.2600752 c -0.378725,-1.4521286 -0.375311,-3.8093491 0.0026,-5.3066521 0.557054,-2.21978 1.500769,-3.861443 3.17037,-5.521627 1.739661,-1.7298961 3.732344,-2.7879651 6.036839,-3.1936031 3.657732,-0.643818 7.307421,0.453075 10.004028,3.0060161 0.448257,0.424357 0.972608,1.027337 1.398376,1.572514 0.212883,0.27259 0.399468,0.528212 0.541046,0.74776 0.0708,0.109773 0.129037,0.208669 0.177774,0.306957 0.04868,0.09829 0.107473,0.163023 0.107473,0.382404 0,0.16637 -0.03651,0.204735 -0.0589,0.2558 -0.02249,0.05107 -0.04458,0.09387 -0.0703,0.136943 -0.05128,0.08614 -0.113162,0.173103 -0.183435,0.259932 -0.224314,0.276997 -0.618331,0.431911 -0.96274,0.353467 -0.344408,-0.07844 -0.600974,-0.319902 -0.781341,-0.625284 -0.0703,-0.119015 -0.368644,-0.542534 -0.603594,-0.839743 l -0.115226,-0.146243 c -0.216535,0.203184 -0.433308,0.376984 -0.730197,0.425812 -0.318399,0.05237 -0.646297,-0.09261 -0.86143,-0.287321 -0.09181,-0.08306 -0.184415,-0.175226 -0.257863,-0.312642 -0.0735,-0.137417 -0.109299,-0.329722 -0.08218,-0.494028 0.05421,-0.328607 0.228706,-0.509728 0.441325,-0.75189 0.01932,-0.02209 0.01164,-0.01606 0.02739,-0.03514 -0.0462,-0.02281 -0.168725,-0.142775 -0.609256,-0.435634 -1.25177,-0.8321731 -2.724521,-1.3810861 -4.206981,-1.5663121 l -0.09975,-0.01188 c -0.01826,0.430165 -0.114485,0.8324191 -0.439235,1.0821031 -0.175895,0.135237 -0.419576,0.209138 -0.65061,0.181901 -0.231061,-0.02724 -0.434578,-0.14007 -0.603594,-0.293005 -0.272071,-0.2462581 -0.332476,-0.6027551 -0.341577,-0.9668661 -0.09001,0.01646 -0.303186,0.03302 -0.90641,0.15813 -1.453541,0.301509 -3.040644,1.0473351 -3.996134,1.8536341 l 0.01746,0.01913 c 0.211984,0.241429 0.382508,0.402751 0.447517,0.725021 0.03252,0.161134 0,0.353018 -0.06252,0.486276 -0.06339,0.133254 -0.14134,0.221064 -0.218598,0.30644 -0.207989,0.229814 -0.554567,0.39008 -0.881089,0.343649 -0.304615,-0.04332 -0.537713,-0.218887 -0.763773,-0.429432 l -0.17979,0.224793 c -0.897308,1.129213 -1.677406,3.041465 -1.878436,4.650362 l -0.01032,0.07597 c 0.319246,0.0011 0.594043,0.01672 0.859367,0.179834 0.272627,0.167606 0.420132,0.525677 0.420132,0.80667 0,0.280995 -0.147505,0.6406145 -0.420132,0.8082201 -0.265324,0.1631182 -0.540121,0.1787816 -0.859367,0.179832 l 0.01032,0.074414 c 0.118375,0.9473116 0.4581,2.1348753 0.829918,2.9197195 0.188304,0.3974835 0.457333,0.8710797 0.716757,1.2733072 0.21463,0.3327559 0.395102,0.5496666 0.513662,0.6836781 0.227965,-0.2245148 0.482732,-0.4080642 0.802534,-0.4356312 0.343085,-0.02957 0.697944,0.1643195 0.890905,0.4397666 v 0.00212 c 0.059,0.08423 0.114115,0.1574906 0.167957,0.2733701 0.05379,0.1158796 0.09369,0.3042418 0.05839,0.4687041 -0.0707,0.3289194 -0.232251,0.4427855 -0.431509,0.6697266 -0.02461,0.028099 -0.01878,0.022066 -0.0372,0.044958 0.03389,0.010001 0.119644,0.1066562 0.498157,0.3632861 0.721995,0.4895294 1.563979,0.9175591 2.302722,1.1740885 0.339116,0.1177608 0.826399,0.2490947 1.269682,0.3457152 0.367321,0.0801 0.643335,0.1121833 0.822167,0.1286748 0,-0.2062004 0.0026,-0.3890116 0.08371,-0.5860124 0.08559,-0.2088488 0.259662,-0.3699854 0.410316,-0.4687041 0.137318,-0.090001 0.28694,-0.2072216 0.548798,-0.2072216 0.261832,0 0.409443,0.1172607 0.546735,0.2072216 0.150654,0.0987 0.32475,0.2598553 0.410316,0.4687041 0.07879,0.1923997 0.08107,0.3723561 0.08215,0.5725769 1.173163,-0.059002 3.367114,-0.8733129 4.755806,-1.8908421 l 0.146236,-0.107487 -0.0056,-0.00775 C 69.947591,5.7392068 69.78056,5.6240681 69.699148,5.2950482 c -0.0408,-0.1648355 -0.0058,-0.3614077 0.04908,-0.4826583 0.0545,-0.1212506 0.113638,-0.197522 0.173646,-0.2831861 0.192934,-0.2754842 0.547793,-0.4708949 0.890905,-0.4413171 0.319802,0.02757 0.572532,0.2111296 0.80047,0.4356312 0.11856,-0.1340062 0.299032,-0.3509222 0.513662,-0.6836781 0.259424,-0.4022249 0.53049,-0.8758158 0.71882,-1.2733073 0.371819,-0.7848441 0.71001,-1.9729291 0.828358,-2.9202353 l 0.0098,-0.073898 c -0.31922,-0.00106 -0.592006,-0.016589 -0.857303,-0.179832 -0.272601,-0.1677458 -0.420132,-0.5279651 -0.420132,-0.8087361 0,-0.280773 0.147531,-0.638924 0.420132,-0.80667 0.265297,-0.163247 0.538083,-0.178265 0.857303,-0.179318 l -0.0098,-0.07235 c -0.0377,-0.302244 -0.16084,-0.939644 -0.26199,-1.337903 -0.05749,-0.226716 -0.10414,-0.447035 -0.132821,-0.633037 -0.01429,-0.093 -0.02461,-0.1754 -0.02945,-0.255799 -0.005,-0.0804 -0.04101,-0.116115 0.03926,-0.326078 0.114988,-0.299603 0.328877,-0.438623 0.5452,-0.535368 0.216297,-0.09674 0.461407,-0.158348 0.751893,-0.06615 0.28112,0.08922 0.42635,0.285636 0.538983,0.476456 0.112659,0.190823 0.194707,0.40685 0.267679,0.652159 0.145995,0.490611 0.246855,1.101521 0.308503,1.76785 0.123322,1.332651 0.09295,2.8648954 -0.201004,3.9920045 -1.119769,4.2939705 -4.223014,7.3824544 -8.61343,8.5881051 -0.619284,0.1700613 -1.240049,0.2136823 -2.715075,0.2087723 z M 52.51462,7.7185966 52.49187,7.7124066 C 52.201648,7.6876416 51.917909,7.5173135 51.71209,7.2912429 51.48521,7.0420424 51.277803,6.7104057 51.001022,6.2303272 49.724804,4.0167331 49.12121,1.9410133 49.020775,-0.5837281 c -0.08189,-2.0603718 0.100144,-3.6032518 0.628914,-5.2678968 1.681851,-5.2942301 6.084941,-9.2508491 11.523319,-10.3533731 1.645444,-0.333584 4.168642,-0.336648 5.839962,-0.0098 6.251232,1.222325 11.056778,6.144654 12.103126,12.4023441 0.407881,2.439228 0.129698,5.8140861 -0.706941,7.6052201 -0.09178,0.1964319 -0.18362,0.3771873 -0.37465,0.5255471 -0.191029,0.1483625 -0.436774,0.1896534 -0.627353,0.1896534 -0.195712,0 -0.391557,-0.026406 -0.581872,-0.125058 C 76.634965,4.2842697 76.471188,4.0938805 76.39946,3.8925008 76.256003,3.4897389 76.35138,3.115237 76.502806,2.6465806 c 0.500301,-1.5479104 0.607986,-2.43137 0.543137,-4.4746595 -0.05181,-1.63453 -0.10287,-2.043957 -0.365363,-2.937291 -1.690422,-5.7526341 -6.646306,-9.5079451 -12.536698,-9.5079451 -5.896425,0 -10.80143,3.708784 -12.549108,9.5094961 -0.305435,1.013806 -0.310542,1.117925 -0.318321,3.339848 -0.0069,2.0924312 0.01323,2.3909897 0.24392,3.2266762 0.364146,1.3200803 0.896646,2.5594442 1.521857,3.5625749 0.326787,0.5243195 0.536786,0.9028112 0.564303,1.3379025 0.01376,0.2175378 -0.04958,0.4741096 -0.207222,0.6562884 -0.157638,0.1821815 -0.362267,0.2707243 -0.560176,0.3203946 -0.07998,0.020188 -0.166422,0.035309 -0.257862,0.037208 z M 66.63366,4.7482334 c 0,0 -0.111601,-0.011404 -0.146262,-0.021696 -0.03458,-0.010292 -0.05823,-0.021484 -0.07802,-0.031006 -0.03961,-0.01905 -0.06109,-0.033803 -0.08009,-0.047024 -0.03802,-0.026458 -0.06114,-0.045963 -0.08424,-0.066662 -0.04609,-0.041391 -0.08983,-0.08514 -0.140547,-0.1384935 C 66.003139,4.3366561 65.876404,4.1946013 65.725697,4.0196059 65.424337,3.669615 65.031378,3.192775 64.61413,2.6682676 64.167275,2.1065228 63.77204,1.6271375 63.475707,1.2869548 63.32754,1.1168648 63.204006,0.9801096 63.116562,0.8905984 c -0.04371,-0.044762 -0.07969,-0.077335 -0.09819,-0.093536 -0.01852,-0.016192 -0.04659,-0.01561 0.0527,0.02739 C 62.757567,0.6887582 62.543731,0.4677835 62.323306,0.2167363 62.103279,-0.033885 61.90963,-0.2910626 61.805517,-0.6054353 c -0.111099,-0.3314546 -0.116126,-0.6910626 -0.0894,-1.0722876 0.02619,-0.372388 -0.03331,-0.814821 -0.363273,-2.39055 -0.271939,-1.298588 -0.412115,-1.967191 -0.465085,-2.384867 -0.02651,-0.208841 -0.04278,-0.360526 0.0042,-0.548804 0.0468,-0.188278 0.216376,-0.367721 0.292999,-0.423749 0.09141,-0.06683 0.24564,-0.205298 0.521415,-0.207222 0.275801,-0.0019 0.472096,0.144907 0.63873,0.299207 0.333296,0.308602 0.742368,0.838867 1.589564,1.912028 0.430848,0.545777 0.793697,0.986197 1.064525,1.295013 0.135413,0.154406 0.248629,0.275905 0.330226,0.357082 0.0816,0.08118 0.164624,0.127849 0.08784,0.08785 0.282839,0.147307 0.511572,0.369049 0.724508,0.617532 0.212329,0.247781 0.393674,0.505797 0.49403,0.808221 0.115121,0.34318 0.107739,0.680484 0.08215,1.044897 -0.02619,0.3719676 0.03881,0.84064 0.404124,2.5998413 0.124751,0.6006518 0.237834,1.1703685 0.320384,1.6055869 0.0413,0.2176092 0.07377,0.4008015 0.09766,0.5410518 0.01191,0.07013 0.02223,0.1280451 0.02947,0.1777656 0.0069,0.049721 0.01349,0.066953 0.01349,0.1560645 0,0.544695 -0.465534,0.8790146 -0.948769,0.8790146 z m -2.417948,-5.4787351 c 0.245269,-0.00265 0.471699,-0.1130776 0.593752,-0.3105762 0.224393,-0.363058 0.160205,-0.704104 -0.228415,-0.994254 -0.03519,-0.02627 -0.166423,-0.08151 -0.302816,-0.0956 -0.136366,-0.0141 -0.277151,0.01185 -0.324009,0.03307 -0.43852,0.198515 -0.5765,0.653029 -0.314695,1.080556 0.114803,0.1875183 0.331073,0.2893909 0.576183,0.2868042 z"
       style="fill:#000000;stroke:none;stroke-width:0.99826652;stroke-miterlimit:4;stroke-dasharray:none;stroke-opacity:1"
       inkscape:connector-curvature="0" />
    <path
       inkscape:tile-y0="1.7492381"
       inkscape:tile-x0="80.856234"
       id="use9679"
       d="m 63.349796,59.736081 c 1.998054,0 3.666781,0.520216 4.783164,1.581817 0.806689,0.767109 1.125432,1.546394 1.18753,2.867525 0.02249,0.48093 0.03019,0.797703 -0.0063,1.08572 -0.0363,0.288013 -0.130466,0.535078 -0.252175,0.773597 -0.423889,0.831001 -1.183349,1.308388 -2.15593,1.378728 l -0.248047,0.01963 v 0.413927 0.484209 l 0.501756,0.117306 c 1.247536,0.295169 2.753598,0.926938 3.99616,1.666049 0.691066,0.411089 1.44362,0.966975 2.039144,1.476394 0.297762,0.254711 0.555122,0.496474 0.751893,0.713136 0.0984,0.108339 0.181795,0.20836 0.252174,0.31626 0.07041,0.107899 0.153988,0.205647 0.153988,0.447516 0,0.331031 -0.136393,0.569703 -0.300752,0.777213 -0.164333,0.20751 -0.353298,0.431499 -0.761709,0.431499 -0.165365,0 -0.204602,-0.03619 -0.253735,-0.05839 -0.04908,-0.0222 -0.08837,-0.04361 -0.12917,-0.06821 -0.08162,-0.0491 -0.165417,-0.109366 -0.261488,-0.179835 -0.192167,-0.140941 -0.421957,-0.326354 -0.656299,-0.531234 -1.652561,-1.444831 -3.726497,-2.503223 -5.843561,-2.982764 -1.374245,-0.31129 -4.015687,-0.330719 -5.314923,-0.04651 -1.794934,0.392639 -3.454718,1.098164 -4.943369,2.099614 -0.876935,0.589929 -2.64967,2.375678 -3.230298,3.253547 -0.150231,0.22719 -0.30816,0.449321 -0.445453,0.630971 -0.137292,0.181641 -0.195552,0.286437 -0.374648,0.429947 -0.06551,0.05249 -0.12626,0.101725 -0.220663,0.153996 -0.0944,0.05227 -0.244607,0.103092 -0.392747,0.09405 -0.296228,-0.01807 -0.419391,-0.146415 -0.589624,-0.265618 -0.139965,-0.09805 -0.278871,-0.226957 -0.369491,-0.408244 -0.09059,-0.181279 -0.113056,-0.400833 -0.08215,-0.590145 0.06181,-0.37863 0.261276,-0.693275 0.560678,-1.134814 1.22518,-1.80689 2.890942,-3.396514 4.730458,-4.507735 1.185492,-0.716111 3.091868,-1.515912 4.259686,-1.769401 l 0.309033,-0.06615 V 67.859096 67.4431 l -0.248047,-0.01757 c -0.972608,-0.0703 -1.732518,-0.549823 -2.15646,-1.380794 -0.121682,-0.23849 -0.215873,-0.485566 -0.252174,-0.773597 -0.0363,-0.288039 -0.02818,-0.605277 -0.0056,-1.086237 0.0621,-1.321112 0.380788,-2.099889 1.187529,-2.867009 1.014174,-0.964411 2.524495,-1.422858 4.282943,-1.509469 v -0.07235 z m -0.217064,2.174028 c -1.525481,0.0417 -2.915311,0.618337 -3.330019,1.326018 -0.20701,0.353301 -0.226854,0.452347 -0.226854,1.115176 0,0.498761 0.068,0.751245 0.111628,0.818555 0.039,0.0601 0.125545,0.09529 0.359145,0.132811 0.0029,-0.182021 0.02461,-0.363223 0.06459,-0.533303 0.04299,-0.18312 0.08591,-0.342995 0.210847,-0.521414 h 0.0026 c 0.05331,-0.0759 0.159888,-0.217628 0.322475,-0.306959 0.16256,-0.0893 0.325913,-0.117933 0.523478,-0.138494 0.395155,-0.0411 0.993563,-0.03927 2.179717,-0.03927 1.186127,0 1.786096,-0.0019 2.181251,0.03927 0.197564,0.0205 0.360865,0.04912 0.523478,0.138494 0.162613,0.0894 0.269187,0.230968 0.322474,0.306959 h 0.0026 c 0.239025,0.34154 0.269425,0.67799 0.271304,1.052647 0.139435,-0.02249 0.301572,-0.04092 0.337952,-0.08992 0.05421,-0.0732 0.136948,-0.346032 0.136948,-0.892453 0,-0.87068 -0.203147,-1.27799 -0.740515,-1.628841 -0.831692,-0.542999 -2.06547,-0.811739 -3.252021,-0.77928 z m 1.30638,4.072102 h -1.089316 -1.08831 v 1.003557 1.006141 l 1.089845,0.0021 1.087781,0.0041 v -1.006141 z m -1.115165,5.726266 c 1.711907,0.005 2.079122,0.04702 2.998258,0.32453 2.031233,0.613299 3.464534,1.44485 4.958874,2.874759 1.598639,1.529781 2.683616,3.396318 3.257682,5.597591 0.378725,1.452129 0.375311,3.809349 -0.0026,5.306652 -0.557054,2.21978 -1.500769,3.861443 -3.17037,5.521627 -1.739661,1.729896 -3.732344,2.787965 -6.036839,3.193603 -3.657732,0.643818 -7.307421,-0.453075 -10.004028,-3.006016 -0.448257,-0.424357 -0.972608,-1.027337 -1.398376,-1.572514 -0.212883,-0.27259 -0.399468,-0.528212 -0.541046,-0.74776 -0.0708,-0.109773 -0.129037,-0.208669 -0.177774,-0.306957 -0.04868,-0.09829 -0.107473,-0.163023 -0.107473,-0.382404 0,-0.16637 0.03651,-0.204735 0.0589,-0.2558 0.02249,-0.05107 0.04458,-0.09387 0.0703,-0.136943 0.05128,-0.08614 0.113162,-0.173103 0.183435,-0.259932 0.224314,-0.276997 0.618331,-0.431911 0.96274,-0.353467 0.344408,0.07844 0.600974,0.319902 0.781341,0.625284 0.0703,0.119015 0.368644,0.542534 0.603594,0.839743 l 0.115226,0.146243 c 0.216535,-0.203184 0.433308,-0.376984 0.730197,-0.425812 0.318399,-0.05237 0.646297,0.09261 0.86143,0.287321 0.09181,0.08306 0.184415,0.175226 0.257863,0.312642 0.0735,0.137417 0.109299,0.329722 0.08218,0.494028 -0.05421,0.328607 -0.228706,0.509728 -0.441325,0.75189 -0.01932,0.02209 -0.01164,0.01606 -0.02739,0.03514 0.0462,0.02281 0.168725,0.142775 0.609256,0.435634 1.25177,0.832173 2.724521,1.381086 4.206981,1.566312 l 0.09975,0.01188 c 0.01826,-0.430165 0.114485,-0.832419 0.439235,-1.082103 0.175895,-0.135237 0.419576,-0.209138 0.65061,-0.181901 0.231061,0.02724 0.434578,0.14007 0.603594,0.293005 0.272071,0.246258 0.332476,0.602755 0.341577,0.966866 0.09001,-0.01646 0.303186,-0.03302 0.90641,-0.15813 1.453541,-0.301509 3.040644,-1.047335 3.996134,-1.853634 l -0.01746,-0.01913 c -0.211984,-0.241429 -0.382508,-0.402751 -0.447517,-0.725021 -0.03252,-0.161134 0,-0.353018 0.06252,-0.486276 0.06339,-0.133254 0.14134,-0.221064 0.218598,-0.30644 0.207989,-0.229814 0.554567,-0.39008 0.881089,-0.343649 0.304615,0.04332 0.537713,0.218887 0.763773,0.429432 l 0.17979,-0.224793 c 0.897308,-1.129213 1.677406,-3.041465 1.878436,-4.650362 l 0.01032,-0.07597 c -0.319246,-0.0011 -0.594043,-0.01672 -0.859367,-0.179834 -0.272627,-0.167606 -0.420132,-0.525677 -0.420132,-0.80667 0,-0.280995 0.147505,-0.640614 0.420132,-0.80822 0.265324,-0.163118 0.540121,-0.178782 0.859367,-0.179832 l -0.01032,-0.07441 c -0.118375,-0.947312 -0.4581,-2.134875 -0.829918,-2.91972 -0.188304,-0.397483 -0.457333,-0.871079 -0.716757,-1.273307 -0.21463,-0.332756 -0.395102,-0.549666 -0.513662,-0.683678 -0.227965,0.224515 -0.482732,0.408064 -0.802534,0.435631 -0.343085,0.02957 -0.697944,-0.164319 -0.890905,-0.439766 v -0.0021 c -0.059,-0.08423 -0.114115,-0.157491 -0.167957,-0.27337 -0.05379,-0.11588 -0.09369,-0.304242 -0.05839,-0.468704 0.0707,-0.32892 0.232251,-0.442786 0.431509,-0.669727 0.02461,-0.0281 0.01878,-0.02207 0.0372,-0.04496 -0.03389,-0.01 -0.119644,-0.106656 -0.498157,-0.363286 -0.721995,-0.48953 -1.563979,-0.917559 -2.302722,-1.174089 -0.339116,-0.11776 -0.826399,-0.249094 -1.269682,-0.345715 -0.367321,-0.0801 -0.643335,-0.112183 -0.822167,-0.128675 0,0.206201 -0.0026,0.389012 -0.08371,0.586013 -0.08559,0.208849 -0.259662,0.369985 -0.410316,0.468704 -0.137318,0.09 -0.28694,0.207221 -0.548798,0.207221 -0.261832,0 -0.409443,-0.11726 -0.546735,-0.207221 -0.150654,-0.0987 -0.32475,-0.259855 -0.410316,-0.468704 -0.07879,-0.1924 -0.08107,-0.372356 -0.08215,-0.572577 -1.173163,0.059 -3.367114,0.873313 -4.755806,1.890842 l -0.146236,0.107487 0.0056,0.0078 c 0.216641,0.239519 0.383672,0.354658 0.465084,0.683678 0.0408,0.164835 0.0058,0.361408 -0.04908,0.482658 -0.0545,0.121251 -0.113638,0.197522 -0.173646,0.283186 -0.192934,0.275485 -0.547793,0.470895 -0.890905,0.441317 -0.319802,-0.02757 -0.572532,-0.211129 -0.80047,-0.435631 -0.11856,0.134006 -0.299032,0.350922 -0.513662,0.683678 -0.259424,0.402225 -0.53049,0.875816 -0.71882,1.273308 -0.371819,0.784844 -0.71001,1.972929 -0.828358,2.920235 l -0.0098,0.0739 c 0.31922,0.0011 0.592006,0.01659 0.857303,0.179832 0.272601,0.167746 0.420132,0.527965 0.420132,0.808736 0,0.280773 -0.147531,0.638924 -0.420132,0.80667 -0.265297,0.163247 -0.538083,0.178265 -0.857303,0.179318 l 0.0098,0.07235 c 0.0377,0.302244 0.16084,0.939644 0.26199,1.337903 0.05749,0.226716 0.10414,0.447035 0.132821,0.633037 0.01429,0.093 0.02461,0.1754 0.02945,0.255799 0.005,0.0804 0.04101,0.116115 -0.03926,0.326078 -0.114988,0.299603 -0.328877,0.438623 -0.5452,0.535368 -0.216297,0.09674 -0.461407,0.158348 -0.751893,0.06615 -0.28112,-0.08922 -0.42635,-0.285636 -0.538983,-0.476456 -0.112659,-0.190823 -0.194707,-0.40685 -0.267679,-0.652159 -0.145995,-0.490611 -0.246855,-1.101521 -0.308503,-1.76785 -0.123322,-1.332651 -0.09295,-2.864895 0.201004,-3.992004 1.119769,-4.293971 4.223014,-7.382455 8.61343,-8.588106 0.619284,-0.17006 1.240049,-0.213682 2.715075,-0.208772 z m 11.654578,2.338359 0.02275,0.0062 c 0.290222,0.02477 0.573961,0.195093 0.77978,0.421163 0.22688,0.249201 0.434287,0.580837 0.711068,1.060916 1.276218,2.213594 1.879812,4.289314 1.980247,6.814055 0.08189,2.060372 -0.100144,3.603252 -0.628914,5.267897 -1.681851,5.29423 -6.084941,9.250849 -11.523319,10.353373 -1.645444,0.333584 -4.168642,0.336648 -5.839962,0.0098 -6.251232,-1.222325 -11.056778,-6.144654 -12.103126,-12.402344 -0.407881,-2.439228 -0.129698,-5.814086 0.706941,-7.60522 0.09178,-0.196432 0.18362,-0.377187 0.37465,-0.525547 0.191029,-0.148363 0.436774,-0.189654 0.627353,-0.189654 0.195712,0 0.391557,0.02641 0.581872,0.125058 0.190315,0.09864 0.354092,0.289029 0.42582,0.490408 0.143457,0.402762 0.04808,0.777264 -0.103346,1.245921 -0.500301,1.54791 -0.607986,2.43137 -0.543137,4.474659 0.05181,1.63453 0.10287,2.043957 0.365363,2.937291 1.690422,5.752634 6.646306,9.507945 12.536698,9.507945 5.896425,0 10.80143,-3.708784 12.549108,-9.509496 0.305435,-1.013806 0.310542,-1.117925 0.318321,-3.339848 0.0069,-2.092431 -0.01323,-2.39099 -0.24392,-3.226676 -0.364146,-1.32008 -0.896646,-2.559444 -1.521857,-3.562575 -0.326787,-0.52432 -0.536786,-0.902811 -0.564303,-1.337903 -0.01376,-0.217537 0.04958,-0.474109 0.207222,-0.656288 0.157638,-0.182181 0.362267,-0.270724 0.560176,-0.320395 0.07998,-0.02019 0.166422,-0.03531 0.257862,-0.03721 z m -14.11904,2.970363 c 0,0 0.111601,0.0114 0.146262,0.0217 0.03458,0.01029 0.05823,0.02148 0.07802,0.03101 0.03961,0.01905 0.06109,0.0338 0.08009,0.04702 0.03802,0.02646 0.06114,0.04596 0.08424,0.06666 0.04609,0.04139 0.08983,0.08514 0.140547,0.138493 0.101362,0.106696 0.228097,0.248751 0.378804,0.423746 0.30136,0.349991 0.694319,0.826831 1.111567,1.351339 0.446855,0.561744 0.84209,1.04113 1.138423,1.381312 0.148167,0.17009 0.271701,0.306846 0.359145,0.396357 0.04371,0.04476 0.07969,0.07733 0.09819,0.09354 0.01852,0.01619 0.04659,0.01561 -0.0527,-0.02739 0.313505,0.135694 0.527341,0.356669 0.747766,0.607716 0.220027,0.250621 0.413676,0.507799 0.517789,0.822171 0.111099,0.331455 0.116126,0.691063 0.0894,1.072288 -0.02619,0.372388 0.03331,0.814821 0.363273,2.39055 0.271939,1.298588 0.412115,1.967191 0.465085,2.384867 0.02651,0.208841 0.04278,0.360526 -0.0042,0.548804 -0.0468,0.188278 -0.216376,0.367721 -0.292999,0.423749 -0.09141,0.06683 -0.24564,0.205298 -0.521415,0.207222 -0.275801,0.0019 -0.472096,-0.144907 -0.63873,-0.299207 -0.333296,-0.308602 -0.742368,-0.838867 -1.589564,-1.912028 -0.430848,-0.545777 -0.793697,-0.986197 -1.064525,-1.295013 -0.135413,-0.154406 -0.248629,-0.275905 -0.330226,-0.357082 -0.0816,-0.08118 -0.164624,-0.127849 -0.08784,-0.08785 -0.282839,-0.147307 -0.511572,-0.369049 -0.724508,-0.617532 -0.212329,-0.247781 -0.393674,-0.505797 -0.49403,-0.808221 -0.115121,-0.34318 -0.107739,-0.680484 -0.08215,-1.044897 0.02619,-0.371968 -0.03881,-0.84064 -0.404124,-2.599841 -0.124751,-0.600652 -0.237834,-1.170369 -0.320384,-1.605587 -0.0413,-0.217609 -0.07377,-0.400802 -0.09766,-0.541052 -0.01191,-0.07013 -0.02223,-0.128045 -0.02947,-0.177766 -0.0069,-0.04972 -0.01349,-0.06695 -0.01349,-0.156064 0,-0.544695 0.465534,-0.879015 0.948769,-0.879015 z m 2.417948,5.478735 c -0.245269,0.0026 -0.471699,0.113077 -0.593752,0.310576 -0.224393,0.363058 -0.160205,0.704104 0.228415,0.994254 0.03519,0.02627 0.166423,0.08151 0.302816,0.0956 0.136366,0.0141 0.277151,-0.01185 0.324009,-0.03307 0.43852,-0.198515 0.5765,-0.653029 0.314695,-1.080556 -0.114803,-0.187518 -0.331073,-0.289391 -0.576183,-0.286804 z"
       style="fill:#000000;stroke:none;stroke-width:0.99826652;stroke-miterlimit:4;stroke-dasharray:none;stroke-opacity:1"
       inkscape:connector-curvature="0" />
  </g>
</svg>
