<?xml version="1.0" encoding="UTF-8" standalone="no"?>
<!-- Created with Inkscape (http://www.inkscape.org/) -->

<svg
   xmlns:dc="http://purl.org/dc/elements/1.1/"
   xmlns:cc="http://creativecommons.org/ns#"
   xmlns:rdf="http://www.w3.org/1999/02/22-rdf-syntax-ns#"
   xmlns:svg="http://www.w3.org/2000/svg"
   xmlns="http://www.w3.org/2000/svg"
   xmlns:sodipodi="http://sodipodi.sourceforge.net/DTD/sodipodi-0.dtd"
   xmlns:inkscape="http://www.inkscape.org/namespaces/inkscape"
   width="142.54245mm"
   height="137.37556mm"
   viewBox="0 0 142.54245 137.37556"
   version="1.1"
   id="svg8430"
   inkscape:version="0.92.5 (2060ec1f9f, 2020-04-08)"
   sodipodi:docname="animation-pattern.svg">
  <defs
     id="defs8424" />
  <sodipodi:namedview
     id="base"
     pagecolor="#ffffff"
     bordercolor="#666666"
     borderopacity="1.0"
     inkscape:pageopacity="0.0"
     inkscape:pageshadow="2"
     inkscape:zoom="0.35"
     inkscape:cx="-31.785829"
     inkscape:cy="259.36555"
     inkscape:document-units="mm"
     inkscape:current-layer="layer1"
     showgrid="false"
     fit-margin-top="15"
     fit-margin-left="15"
     fit-margin-right="15"
     fit-margin-bottom="15"
     inkscape:window-width="1920"
     inkscape:window-height="1016"
     inkscape:window-x="0"
     inkscape:window-y="27"
     inkscape:window-maximized="1" />
  <metadata
     id="metadata8427">
    <rdf:RDF>
      <cc:Work
         rdf:about="">
        <dc:format>image/svg+xml</dc:format>
        <dc:type
           rdf:resource="http://purl.org/dc/dcmitype/StillImage" />
        <dc:title></dc:title>
      </cc:Work>
    </rdf:RDF>
  </metadata>
  <g
     inkscape:label="Calque 1"
     inkscape:groupmode="layer"
     id="layer1"
     transform="translate(141.04584,-16.644272)">
    <path
       inkscape:tile-y0="-101.70725"
       inkscape:tile-x0="41.989001"
       id="use9573"
       d="m -118.28126,32.91686 c -0.63222,0 -1.13747,0.33801 -1.37303,0.81649 -0.23559,0.47847 -0.2068,1.09334 0.15605,1.62729 0.45294,0.66647 0.86484,1.22893 1.20147,1.64848 0.16833,0.20977 0.31724,0.38433 0.44702,0.51935 0.12977,0.135 0.23124,0.23083 0.3457,0.293 0.28914,0.15703 0.58013,0.23001 0.86559,0.1912 0.28548,-0.0388 0.55017,-0.18553 0.81028,-0.41392 0.19185,-0.16847 0.32517,-0.30385 0.40825,-0.47646 0.0831,-0.17261 0.0997,-0.35713 0.0997,-0.59015 0,-0.24648 -0.0392,-0.47245 -0.17982,-0.74414 -0.14062,-0.27168 -0.37261,-0.59904 -0.77155,-1.1405 -0.50371,-0.68365 -0.83595,-1.10216 -1.13067,-1.36529 -0.29472,-0.26312 -0.5802,-0.36535 -0.87902,-0.36535 z m 23.043039,0 c -0.29443,0 -0.57944,0.10585 -0.87281,0.36949 -0.2934,0.26364 -0.62389,0.68104 -1.12498,1.36115 -0.39556,0.53686 -0.62728,0.86664 -0.76793,1.13689 -0.14065,0.27024 -0.18301,0.49356 -0.18137,0.73225 0.003,0.28721 0.0367,0.52123 0.15192,0.72864 0.11525,0.20742 0.2971,0.36722 0.54933,0.54105 0.235,0.16198 0.47689,0.26684 0.73792,0.26769 0.26104,7.9e-4 0.52036,-0.10455 0.78134,-0.29921 0.522,-0.38931 1.10096,-1.13987 1.9534,-2.39417 0.36435,-0.53617 0.39417,-1.15118 0.15605,-1.62936 -0.23815,-0.47818 -0.74602,-0.81442 -1.38287,-0.81442 z m -11.515569,1.98076 c -0.92639,0 -1.93397,0.43495 -2.4257,1.08779 -0.0626,0.0831 -0.13785,0.21442 -0.25011,0.41392 -0.11226,0.19952 -0.25384,0.45833 -0.41391,0.76017 -0.32018,0.60367 -0.71835,1.37743 -1.11726,2.17764 -0.39812,0.79857 -0.76266,1.52705 -1.02939,2.05827 -0.13338,0.26562 -0.24209,0.48266 -0.31832,0.63304 -0.0326,0.0644 -0.0566,0.10957 -0.0765,0.14831 -0.0436,0.008 -0.0958,0.0174 -0.16949,0.0295 -0.17275,0.0284 -0.42159,0.0676 -0.72864,0.11523 -0.6141,0.0952 -1.45915,0.2223 -2.38487,0.35916 -0.94121,0.13914 -1.82817,0.28609 -2.50992,0.41237 -0.34089,0.0631 -0.63095,0.12175 -0.85164,0.17157 -0.22069,0.0498 -0.34936,0.0747 -0.46456,0.13281 -0.60306,0.30414 -1.12506,0.82297 -1.45108,1.43557 -0.20179,0.37914 -0.28961,0.90458 -0.29715,1.43195 -0.008,0.52738 0.0655,1.04734 0.25995,1.41956 0.0601,0.11499 0.15343,0.223 0.30851,0.40049 0.15504,0.17749 0.36279,0.40149 0.60769,0.66042 0.48985,0.51785 1.13115,1.17103 1.81023,1.83555 l 2.38487,2.33215 -0.54104,3.10576 c -0.15423,0.88503 -0.293,1.73761 -0.39429,2.40037 -0.0506,0.33138 -0.0929,0.61468 -0.12144,0.83199 -0.0285,0.21731 -0.0454,0.3517 -0.045,0.44907 v 0.002 c 0.004,0.63739 0.40518,1.51814 0.89453,2.04121 0.22254,0.23788 0.64781,0.523 1.01388,0.70074 l 0.0429,0.0217 h 0.008 c 0.49207,0.23212 0.81793,0.28947 1.43764,0.24598 0.35927,-0.0252 0.66341,-0.0843 1.18753,-0.31057 0.52414,-0.22625 1.28465,-0.61866 2.63292,-1.32602 0.81669,-0.42847 1.57461,-0.81775 2.13476,-1.09967 0.28006,-0.14097 0.51025,-0.25578 0.67384,-0.33383 0.0818,-0.039 0.14735,-0.0688 0.19122,-0.0879 0,-2.7e-4 0,2.6e-4 0.003,0 0,2.6e-4 0,-2.7e-4 0.003,0 0.0438,0.019 0.1075,0.049 0.18915,0.0879 0.16325,0.0778 0.39439,0.19132 0.67384,0.33176 0.55896,0.28088 1.31419,0.66918 2.12908,1.09606 2.43377,1.27495 3.10964,1.58337 3.7207,1.64641 1.335829,0.13786 2.607649,-0.61372 3.195159,-1.87534 0.1714,-0.36805 0.30832,-0.8266 0.30901,-1.1405 2.1e-4,-0.097 -0.0164,-0.23179 -0.045,-0.44907 -0.0286,-0.21728 -0.0706,-0.50062 -0.12144,-0.83199 -0.10155,-0.66272 -0.24014,-1.51538 -0.39428,-2.40037 l -0.54105,-3.10575 2.38488,-2.33164 c 0.67931,-0.66453 1.32037,-1.3182 1.81022,-1.83607 0.2449,-0.25893 0.4527,-0.48291 0.6077,-0.66042 0.15499,-0.17751 0.24844,-0.28454 0.3085,-0.39998 0.17902,-0.34398 0.25014,-0.78223 0.25014,-1.39474 0,-0.96269 -0.22601,-1.56691 -0.83614,-2.22467 -0.32737,-0.35291 -0.66138,-0.5937 -1.32238,-0.78342 -0.66104,-0.18971 -1.66159,-0.35029 -3.42358,-0.6072 -0.92059,-0.13422 -1.76049,-0.25975 -2.371429,-0.35346 -0.30547,-0.0469 -0.55468,-0.0851 -0.72658,-0.11317 -0.0731,-0.0119 -0.12464,-0.0217 -0.16795,-0.0295 -0.0198,-0.0389 -0.0429,-0.0852 -0.076,-0.15038 -0.0764,-0.15053 -0.1869,-0.36524 -0.32038,-0.63097 -0.26699,-0.53146 -0.6313,-1.26178 -1.02939,-2.06034 -0.39894,-0.80021 -0.79708,-1.57396 -1.11725,-2.17764 -0.16008,-0.30184 -0.29962,-0.56065 -0.41185,-0.76016 -0.11227,-0.19951 -0.1896,-0.33084 -0.25218,-0.41393 -0.49175,-0.65284 -1.49728,-1.08779 -2.42364,-1.08779 z m 0,3.03186 c 0.009,0.008 0.0156,0.0128 0.0372,0.0382 0.0644,0.0757 0.1642,0.22578 0.30075,0.46715 0.27313,0.48273 0.69853,1.33121 1.39425,2.75384 0.52409,1.07172 0.96623,1.93757 1.30069,2.55436 0.16722,0.3084 0.30787,0.55452 0.42013,0.73432 0.0561,0.0899 0.10401,0.16369 0.1483,0.22273 0.0443,0.059 0.0725,0.10136 0.1447,0.14831 0.0664,0.0432 0.11041,0.0538 0.17984,0.0744 0.0694,0.0206 0.15587,0.0409 0.25943,0.0646 0.20708,0.0474 0.48368,0.10288 0.8206,0.16382 0.67384,0.12189 1.58562,0.26636 2.626729,0.41599 1.77877,0.25566 2.79937,0.41429 3.35947,0.53537 0.26418,0.0571 0.40904,0.10664 0.48421,0.14263 -0.0315,0.037 -0.0617,0.0727 -0.1111,0.12712 -0.13861,0.15277 -0.34234,0.36713 -0.59377,0.62683 -0.50285,0.51942 -1.19801,1.21809 -1.96266,1.96888 -1.2102,1.18827 -1.90717,1.88303 -2.308909,2.33164 -0.20087,0.2243 -0.32779,0.38778 -0.41185,0.52968 -0.0841,0.1419 -0.12295,0.27562 -0.12144,0.39636 0,0.0948 0.0193,0.22398 0.0511,0.44907 0.0316,0.22509 0.0772,0.52342 0.13282,0.87695 0.11113,0.70705 0.26215,1.63025 0.42942,2.59984 0.254399,1.4745 0.399999,2.36206 0.463019,2.88871 0.0315,0.26332 0.0432,0.43824 0.0393,0.53899 -0.004,0.10075 -0.0246,0.10712 -0.003,0.0837 -0.0108,0.0112 -0.005,0.006 -0.0103,0.01 -0.0321,-0.004 -0.16711,-0.0404 -0.433579,-0.16382 -0.5471,-0.25341 -1.64078,-0.82862 -3.85349,-1.99057 -0.70983,-0.37275 -1.32684,-0.67829 -1.79888,-0.89245 -0.23601,-0.10709 -0.43458,-0.19117 -0.59375,-0.25012 -0.15915,-0.059 -0.25823,-0.0992 -0.38859,-0.0992 -0.0762,0 -0.12687,0.0171 -0.19741,0.0388 -0.0706,0.0217 -0.15251,0.0512 -0.24961,0.0899 -0.19423,0.0774 -0.44696,0.18951 -0.75395,0.33383 -0.61402,0.28864 -1.44603,0.70577 -2.4474,1.23041 -0.87588,0.45889 -1.69558,0.88366 -2.30838,1.19734 -0.30642,0.15685 -0.55981,0.28756 -0.74415,0.37931 -0.0922,0.0459 -0.16703,0.0814 -0.22066,0.10697 -0.0536,0.0256 -0.10705,0.0437 -0.0801,0.0351 -0.0251,0.008 -0.0287,0.007 -0.0434,0.01 0.005,-0.004 -0.0276,-0.0721 -0.0191,-0.28887 0.0191,-0.48326 0.17479,-1.47016 0.48216,-3.25769 0.16674,-0.96958 0.31919,-1.89278 0.42994,-2.59984 0.0554,-0.35353 0.0993,-0.65391 0.13073,-0.87901 0.0315,-0.22511 0.0518,-0.35183 0.0527,-0.44701 0,-0.12087 -0.0388,-0.25427 -0.12301,-0.39635 -0.0842,-0.14209 -0.21344,-0.30633 -0.41444,-0.53124 -0.40196,-0.44982 -1.09755,-1.14653 -2.30632,-2.33629 -0.7646,-0.75259 -1.46032,-1.45093 -1.96318,-1.97042 -0.25144,-0.25975 -0.45506,-0.47643 -0.59376,-0.6289 -0.0476,-0.0523 -0.0743,-0.0853 -0.10543,-0.12144 0.0788,-0.0365 0.22653,-0.0856 0.4904,-0.14211 0.56351,-0.12069 1.58168,-0.27601 3.34555,-0.52762 1.07755,-0.15371 1.98808,-0.29784 2.65256,-0.41806 0.33223,-0.0601 0.60206,-0.1145 0.80459,-0.16175 0.10126,-0.0236 0.18508,-0.0456 0.25374,-0.0667 0.0686,-0.0211 0.11673,-0.0331 0.17981,-0.0744 0.0697,-0.0457 0.10017,-0.0895 0.1447,-0.14831 0.0446,-0.0588 0.0924,-0.13152 0.14833,-0.22066 0.11192,-0.17827 0.25156,-0.42185 0.41804,-0.72863 0.33298,-0.61356 0.77401,-1.48016 1.30484,-2.56626 0.69506,-1.42212 1.1193,-2.26931 1.39216,-2.75177 0.13642,-0.24123 0.23691,-0.39148 0.30128,-0.46715 0.022,-0.0257 0.0281,-0.0299 0.0372,-0.0382 z m -15.26781,15.37993 c -0.0837,0 -0.16285,0.0157 -0.27699,0.0393 -0.11411,0.0236 -0.25336,0.057 -0.41029,0.0977 -0.3139,0.0814 -0.69845,0.19341 -1.08212,0.31626 -0.81648,0.26142 -1.34892,0.47945 -1.70325,0.76016 -0.35431,0.2807 -0.50385,0.65136 -0.50385,1.07383 0,0.63381 0.33806,1.14967 0.91623,1.39682 0.22611,0.0967 0.43902,0.1557 0.76946,0.0992 0.33046,-0.0565 0.80034,-0.20427 1.70119,-0.4899 1.04174,-0.3303 1.4487,-0.51999 1.73426,-0.85938 0.40513,-0.48147 0.4458,-1.09843 0.21704,-1.58388 -0.22876,-0.48545 -0.7307,-0.85008 -1.36168,-0.85008 z m 30.445689,0.004 c -1.20775,0.008 -1.84386,1.49404 -1.05471,2.43189 0.14592,0.17339 0.32996,0.31321 0.61134,0.44494 0.28136,0.13173 0.6644,0.26265 1.24796,0.44338 0.79383,0.24585 1.51535,0.47032 1.56427,0.48628 l 0.27543,0.0899 v -0.0331 c 0.003,-5.3e-4 0.006,-0.002 0.008,-0.002 0.0175,-0.004 0.0307,-0.007 0.0465,-0.0119 0.0316,-0.009 0.0689,-0.0211 0.11163,-0.0367 0.0855,-0.0311 0.19449,-0.075 0.31057,-0.1235 0.59912,-0.25032 0.9431,-0.76285 0.9431,-1.40612 0,-0.42247 -0.14951,-0.79365 -0.50384,-1.07435 -0.35433,-0.28071 -0.88678,-0.49823 -1.70326,-0.75964 -0.38473,-0.12319 -0.77853,-0.23513 -1.10897,-0.31626 -0.33047,-0.0811 -0.57166,-0.13438 -0.7483,-0.13281 z M -106.75379,63.9386 c -0.28517,0 -0.56973,0.11008 -0.81441,0.27699 -0.24469,0.16691 -0.45281,0.39358 -0.56431,0.66042 -0.1498,0.35868 -0.19171,0.9677 -0.19171,1.93373 0,0.77072 0.0285,1.27418 0.13485,1.65985 0.10634,0.38568 0.31176,0.64805 0.59944,0.84956 l 0.0548,0.0393 h 0.0161 c 0.21682,0.1264 0.50149,0.19121 0.76533,0.19121 0.58955,0 1.07982,-0.3112 1.36115,-0.85525 0.0972,-0.18802 0.13134,-0.43862 0.16433,-0.76584 0.033,-0.32722 0.0496,-0.71583 0.0506,-1.10898 0,-0.39315 -0.0138,-0.7911 -0.045,-1.13119 -0.0312,-0.3401 -0.0711,-0.61387 -0.15398,-0.81236 -0.1115,-0.26684 -0.32015,-0.49351 -0.56484,-0.66042 -0.24468,-0.16691 -0.52718,-0.27699 -0.81235,-0.27699 z"
       style="fill:#000000;stroke:none;stroke-width:0.42035806;stroke-miterlimit:4;stroke-dasharray:none;stroke-opacity:1"
       inkscape:connector-curvature="0" />
    <path
       inkscape:tile-y0="-101.70725"
       inkscape:tile-x0="41.989001"
       id="use9575"
       d="m -95.2764,136.75347 c 0.63222,0 1.13747,-0.33801 1.37303,-0.81649 0.23559,-0.47847 0.2068,-1.09334 -0.15605,-1.62729 -0.45294,-0.66647 -0.86484,-1.22893 -1.20147,-1.64848 -0.16833,-0.20977 -0.31724,-0.38433 -0.44702,-0.51935 -0.12977,-0.135 -0.23124,-0.23083 -0.3457,-0.293 -0.28914,-0.15703 -0.58013,-0.23001 -0.86559,-0.1912 -0.28548,0.0388 -0.55017,0.18553 -0.81028,0.41392 -0.19185,0.16847 -0.32517,0.30385 -0.40825,0.47646 -0.0831,0.17261 -0.0997,0.35713 -0.0997,0.59015 0,0.24648 0.0392,0.47245 0.17982,0.74414 0.14062,0.27168 0.37261,0.59904 0.77155,1.1405 0.50371,0.68365 0.83595,1.10216 1.13067,1.36529 0.29472,0.26312 0.5802,0.36535 0.87902,0.36535 z m -23.04304,0 c 0.29443,0 0.57944,-0.10585 0.87281,-0.36949 0.2934,-0.26364 0.62389,-0.68104 1.12498,-1.36115 0.39556,-0.53686 0.62728,-0.86664 0.76793,-1.13689 0.14065,-0.27024 0.18301,-0.49356 0.18137,-0.73225 -0.003,-0.28721 -0.0367,-0.52123 -0.15192,-0.72864 -0.11525,-0.20742 -0.2971,-0.36722 -0.54933,-0.54105 -0.235,-0.16198 -0.47689,-0.26684 -0.73792,-0.26769 -0.26104,-7.9e-4 -0.52036,0.10455 -0.78134,0.29921 -0.522,0.38931 -1.10096,1.13987 -1.9534,2.39417 -0.36435,0.53617 -0.39417,1.15118 -0.15605,1.62936 0.23815,0.47818 0.74602,0.81442 1.38287,0.81442 z m 11.51557,-1.98076 c 0.92639,0 1.93397,-0.43495 2.4257,-1.08779 0.0626,-0.0831 0.13785,-0.21442 0.25011,-0.41392 0.11226,-0.19952 0.25384,-0.45833 0.41391,-0.76017 0.32018,-0.60367 0.71835,-1.37743 1.11726,-2.17764 0.39812,-0.79857 0.76266,-1.52705 1.02939,-2.05827 0.13338,-0.26562 0.24209,-0.48266 0.31832,-0.63304 0.0326,-0.0644 0.0566,-0.10957 0.0765,-0.14831 0.0436,-0.008 0.0958,-0.0174 0.16949,-0.0295 0.17275,-0.0284 0.42159,-0.0676 0.72864,-0.11523 0.6141,-0.0952 1.45915,-0.2223 2.38487,-0.35916 0.94121,-0.13914 1.82817,-0.28609 2.50992,-0.41237 0.34089,-0.0631 0.63095,-0.12175 0.85164,-0.17157 0.22069,-0.0498 0.34936,-0.0747 0.46456,-0.13281 0.60306,-0.30414 1.12506,-0.82297 1.45108,-1.43557 0.20179,-0.37914 0.28961,-0.90458 0.29715,-1.43195 0.008,-0.52738 -0.0655,-1.04734 -0.25995,-1.41956 -0.0601,-0.11499 -0.15343,-0.223 -0.30851,-0.40049 -0.15504,-0.17749 -0.36279,-0.40149 -0.60769,-0.66042 -0.48985,-0.51785 -1.13115,-1.17103 -1.81023,-1.83555 l -2.38487,-2.33215 0.54104,-3.10576 c 0.15423,-0.88503 0.293,-1.73761 0.39429,-2.40037 0.0506,-0.33138 0.0929,-0.61468 0.12144,-0.83199 0.0285,-0.21731 0.0454,-0.3517 0.045,-0.44907 v -0.002 c -0.004,-0.63739 -0.40518,-1.51814 -0.89453,-2.04121 -0.22254,-0.23788 -0.64781,-0.523 -1.01388,-0.70074 l -0.0429,-0.0217 h -0.008 c -0.49207,-0.23212 -0.81793,-0.28947 -1.43764,-0.24598 -0.35927,0.0252 -0.66341,0.0843 -1.18753,0.31057 -0.52414,0.22625 -1.28465,0.61866 -2.63292,1.32602 -0.81669,0.42847 -1.57461,0.81775 -2.13476,1.09967 -0.28006,0.14097 -0.51025,0.25578 -0.67384,0.33383 -0.0818,0.039 -0.14735,0.0688 -0.19122,0.0879 0,2.7e-4 0,-2.6e-4 -0.003,0 0,-2.6e-4 0,2.7e-4 -0.003,0 -0.0438,-0.019 -0.1075,-0.049 -0.18915,-0.0879 -0.16325,-0.0778 -0.39439,-0.19132 -0.67384,-0.33176 -0.55896,-0.28088 -1.31419,-0.66918 -2.12908,-1.09606 -2.43377,-1.27495 -3.10964,-1.58337 -3.7207,-1.64641 -1.33583,-0.13786 -2.60765,0.61372 -3.19516,1.87534 -0.1714,0.36805 -0.30832,0.8266 -0.30901,1.1405 -2.1e-4,0.097 0.0164,0.23179 0.045,0.44907 0.0286,0.21728 0.0706,0.50062 0.12144,0.83199 0.10155,0.66272 0.24014,1.51538 0.39428,2.40037 l 0.54105,3.10575 -2.38488,2.33164 c -0.67931,0.66453 -1.32037,1.3182 -1.81022,1.83607 -0.2449,0.25893 -0.4527,0.48291 -0.6077,0.66042 -0.15499,0.17751 -0.24844,0.28454 -0.3085,0.39998 -0.17902,0.34398 -0.25014,0.78223 -0.25014,1.39474 0,0.96269 0.22601,1.56691 0.83614,2.22467 0.32737,0.35291 0.66138,0.5937 1.32238,0.78342 0.66104,0.18971 1.66159,0.35029 3.42358,0.6072 0.92059,0.13422 1.76049,0.25975 2.37143,0.35346 0.30547,0.0469 0.55468,0.0851 0.72658,0.11317 0.0731,0.0119 0.12464,0.0217 0.16795,0.0295 0.0198,0.0389 0.0429,0.0852 0.076,0.15038 0.0764,0.15053 0.1869,0.36524 0.32038,0.63097 0.26699,0.53146 0.6313,1.26178 1.02939,2.06034 0.39894,0.80021 0.79708,1.57396 1.11725,2.17764 0.16008,0.30184 0.29962,0.56065 0.41185,0.76016 0.11227,0.19951 0.1896,0.33084 0.25218,0.41393 0.49175,0.65284 1.49728,1.08779 2.42364,1.08779 z m 0,-3.03186 c -0.009,-0.008 -0.0156,-0.0128 -0.0372,-0.0382 -0.0644,-0.0757 -0.1642,-0.22578 -0.30075,-0.46715 -0.27313,-0.48273 -0.69853,-1.33121 -1.39425,-2.75384 -0.52409,-1.07172 -0.96623,-1.93757 -1.30069,-2.55436 -0.16722,-0.3084 -0.30787,-0.55452 -0.42013,-0.73432 -0.0561,-0.0899 -0.10401,-0.16369 -0.1483,-0.22273 -0.0443,-0.059 -0.0725,-0.10136 -0.1447,-0.14831 -0.0664,-0.0432 -0.11041,-0.0538 -0.17984,-0.0744 -0.0694,-0.0206 -0.15587,-0.0409 -0.25943,-0.0646 -0.20708,-0.0474 -0.48368,-0.10288 -0.8206,-0.16382 -0.67384,-0.12189 -1.58562,-0.26636 -2.62673,-0.41599 -1.77877,-0.25566 -2.79937,-0.41429 -3.35947,-0.53537 -0.26418,-0.0571 -0.40904,-0.10664 -0.48421,-0.14263 0.0315,-0.037 0.0617,-0.0727 0.1111,-0.12712 0.13861,-0.15277 0.34234,-0.36713 0.59377,-0.62683 0.50285,-0.51942 1.19801,-1.21809 1.96266,-1.96888 1.2102,-1.18827 1.90717,-1.88303 2.30891,-2.33164 0.20087,-0.2243 0.32779,-0.38778 0.41185,-0.52968 0.0841,-0.1419 0.12295,-0.27562 0.12144,-0.39636 0,-0.0948 -0.0193,-0.22398 -0.0511,-0.44907 -0.0316,-0.22509 -0.0772,-0.52342 -0.13282,-0.87695 -0.11113,-0.70705 -0.26215,-1.63025 -0.42942,-2.59984 -0.2544,-1.4745 -0.4,-2.36206 -0.46302,-2.88871 -0.0315,-0.26332 -0.0432,-0.43824 -0.0393,-0.53899 0.004,-0.10075 0.0246,-0.10712 0.003,-0.0837 0.0108,-0.0112 0.005,-0.006 0.0103,-0.01 0.0321,0.004 0.16711,0.0404 0.43358,0.16382 0.5471,0.25341 1.64078,0.82862 3.85349,1.99057 0.70983,0.37275 1.32684,0.67829 1.79888,0.89245 0.23601,0.10709 0.43458,0.19117 0.59375,0.25012 0.15915,0.059 0.25823,0.0992 0.38859,0.0992 0.0762,0 0.12687,-0.0171 0.19741,-0.0388 0.0706,-0.0217 0.15251,-0.0512 0.24961,-0.0899 0.19423,-0.0774 0.44696,-0.18951 0.75395,-0.33383 0.61402,-0.28864 1.44603,-0.70577 2.4474,-1.23041 0.87588,-0.45889 1.69558,-0.88366 2.30838,-1.19734 0.30642,-0.15685 0.55981,-0.28756 0.74415,-0.37931 0.0922,-0.0459 0.16703,-0.0814 0.22066,-0.10697 0.0536,-0.0256 0.10705,-0.0437 0.0801,-0.0351 0.0251,-0.008 0.0287,-0.007 0.0434,-0.01 -0.005,0.004 0.0276,0.0721 0.0191,0.28887 -0.0191,0.48326 -0.17479,1.47016 -0.48216,3.25769 -0.16674,0.96958 -0.31919,1.89278 -0.42994,2.59984 -0.0554,0.35353 -0.0993,0.65391 -0.13073,0.87901 -0.0315,0.22511 -0.0518,0.35183 -0.0527,0.44701 0,0.12087 0.0388,0.25427 0.12301,0.39635 0.0842,0.14209 0.21344,0.30633 0.41444,0.53124 0.40196,0.44982 1.09755,1.14653 2.30632,2.33629 0.7646,0.75259 1.46032,1.45093 1.96318,1.97042 0.25144,0.25975 0.45506,0.47643 0.59376,0.6289 0.0476,0.0523 0.0743,0.0853 0.10543,0.12144 -0.0788,0.0365 -0.22653,0.0856 -0.4904,0.14211 -0.56351,0.12069 -1.58168,0.27601 -3.34555,0.52762 -1.07755,0.15371 -1.98808,0.29784 -2.65256,0.41806 -0.33223,0.0601 -0.60206,0.1145 -0.80459,0.16175 -0.10126,0.0236 -0.18508,0.0456 -0.25374,0.0667 -0.0686,0.0211 -0.11673,0.0331 -0.17981,0.0744 -0.0697,0.0457 -0.10017,0.0895 -0.1447,0.14831 -0.0446,0.0588 -0.0924,0.13152 -0.14833,0.22066 -0.11192,0.17827 -0.25156,0.42185 -0.41804,0.72863 -0.33298,0.61356 -0.77401,1.48016 -1.30484,2.56626 -0.69506,1.42212 -1.1193,2.26931 -1.39216,2.75177 -0.13642,0.24123 -0.23691,0.39148 -0.30128,0.46715 -0.022,0.0257 -0.0281,0.0299 -0.0372,0.0382 z m 15.26781,-15.37993 c 0.0837,0 0.16285,-0.0157 0.27699,-0.0393 0.11411,-0.0236 0.25336,-0.057 0.41029,-0.0977 0.3139,-0.0814 0.69845,-0.19341 1.08212,-0.31626 0.81648,-0.26142 1.34892,-0.47945 1.70325,-0.76016 0.35431,-0.2807 0.50385,-0.65136 0.50385,-1.07383 0,-0.63381 -0.33806,-1.14967 -0.91623,-1.39682 -0.22611,-0.0967 -0.43902,-0.1557 -0.76946,-0.0992 -0.33046,0.0565 -0.80034,0.20427 -1.70119,0.4899 -1.04174,0.3303 -1.4487,0.51999 -1.73426,0.85938 -0.40513,0.48147 -0.4458,1.09843 -0.21704,1.58388 0.22876,0.48545 0.7307,0.85008 1.36168,0.85008 z m -30.44569,-0.004 c 1.20775,-0.008 1.84386,-1.49404 1.05471,-2.43189 -0.14592,-0.17339 -0.32996,-0.31321 -0.61134,-0.44494 -0.28136,-0.13173 -0.6644,-0.26265 -1.24796,-0.44338 -0.79383,-0.24585 -1.51535,-0.47032 -1.56427,-0.48628 l -0.27543,-0.0899 v 0.0331 c -0.003,5.3e-4 -0.006,0.002 -0.008,0.002 -0.0175,0.004 -0.0307,0.007 -0.0465,0.0119 -0.0316,0.009 -0.0689,0.0211 -0.11163,0.0367 -0.0855,0.0311 -0.19449,0.075 -0.31057,0.1235 -0.59912,0.25032 -0.9431,0.76285 -0.9431,1.40612 0,0.42247 0.14951,0.79365 0.50384,1.07435 0.35433,0.28071 0.88678,0.49823 1.70326,0.75964 0.38473,0.12319 0.77853,0.23513 1.10897,0.31626 0.33047,0.0811 0.57166,0.13438 0.7483,0.13281 z m 15.17788,-10.62519 c 0.28517,0 0.56973,-0.11008 0.81441,-0.27699 0.24469,-0.16691 0.45281,-0.39358 0.56431,-0.66042 0.1498,-0.35868 0.19171,-0.9677 0.19171,-1.93373 0,-0.77072 -0.0285,-1.27418 -0.13485,-1.65985 -0.10634,-0.38568 -0.31176,-0.64805 -0.59944,-0.84956 l -0.0548,-0.0393 h -0.0161 c -0.21682,-0.1264 -0.50149,-0.19121 -0.76533,-0.19121 -0.58955,0 -1.07982,0.3112 -1.36115,0.85525 -0.0972,0.18802 -0.13134,0.43862 -0.16433,0.76584 -0.033,0.32722 -0.0496,0.71583 -0.0506,1.10898 0,0.39315 0.0138,0.7911 0.045,1.13119 0.0312,0.3401 0.0711,0.61387 0.15398,0.81236 0.1115,0.26684 0.32015,0.49351 0.56484,0.66042 0.24468,0.16691 0.52718,0.27699 0.81235,0.27699 z"
       style="fill:#000000;stroke:none;stroke-width:0.42035806;stroke-miterlimit:4;stroke-dasharray:none;stroke-opacity:1"
       inkscape:connector-curvature="0" />
    <path
       inkscape:tile-y0="-101.70725"
       inkscape:tile-x0="41.989001"
       id="use9577"
       d="m -45.617808,68.277072 c -0.63222,0 -1.13747,-0.33801 -1.37303,-0.81649 -0.23559,-0.47847 -0.2068,-1.09334 0.15605,-1.62729 0.45294,-0.66647 0.86484,-1.22893 1.20147,-1.64848 0.16833,-0.20977 0.31724,-0.38433 0.44702,-0.51935 0.12977,-0.135 0.23124,-0.23083 0.3457,-0.293 0.28914,-0.15703 0.58013,-0.23001 0.86559,-0.1912 0.28548,0.0388 0.55017,0.18553 0.81028,0.41392 0.19185,0.16847 0.32517,0.30385 0.40825,0.47646 0.0831,0.17261 0.0997,0.35713 0.0997,0.59015 0,0.24648 -0.0392,0.47245 -0.17982,0.74414 -0.14062,0.27168 -0.37261,0.59904 -0.77155,1.1405 -0.50371,0.68365 -0.83595,1.10216 -1.13067,1.36529 -0.29472,0.26312 -0.5802,0.36535 -0.87902,0.36535 z m 23.043043,0 c -0.29443,0 -0.57944,-0.10585 -0.87281,-0.36949 -0.2934,-0.26364 -0.62389,-0.68104 -1.12498,-1.36115 -0.39556,-0.53686 -0.62728,-0.86664 -0.76793,-1.13689 -0.14065,-0.27024 -0.18301,-0.49356 -0.18137,-0.73225 0.003,-0.28721 0.0367,-0.52123 0.15192,-0.72864 0.11525,-0.20742 0.2971,-0.36722 0.54933,-0.54105 0.235,-0.16198 0.47689,-0.26684 0.73792,-0.26769 0.26104,-7.9e-4 0.52036,0.10455 0.78134,0.29921 0.522,0.38931 1.10096,1.13987 1.9534,2.39417 0.36435,0.53617 0.39417,1.15118 0.15605,1.62936 -0.23815,0.47818 -0.74602,0.81442 -1.38287,0.81442 z m -11.515573,-1.98076 c -0.92639,0 -1.93397,-0.43495 -2.4257,-1.08779 -0.0626,-0.0831 -0.13785,-0.21442 -0.25011,-0.41392 -0.11226,-0.19952 -0.25384,-0.45833 -0.41391,-0.76017 -0.32018,-0.60367 -0.71835,-1.37743 -1.11726,-2.17764 -0.39812,-0.79857 -0.76266,-1.52705 -1.02939,-2.05827 -0.13338,-0.26562 -0.24209,-0.48266 -0.31832,-0.63304 -0.0326,-0.0644 -0.0566,-0.10957 -0.0765,-0.14831 -0.0436,-0.008 -0.0958,-0.0174 -0.16949,-0.0295 -0.17275,-0.0284 -0.42159,-0.0676 -0.72864,-0.11523 -0.6141,-0.0952 -1.45915,-0.2223 -2.38487,-0.35916 -0.94121,-0.13914 -1.82817,-0.28609 -2.50992,-0.41237 -0.34089,-0.0631 -0.63095,-0.12175 -0.85164,-0.17157 -0.22069,-0.0498 -0.34936,-0.0747 -0.46456,-0.13281 -0.60306,-0.30414 -1.12506,-0.82297 -1.45108,-1.43557 -0.20179,-0.37914 -0.28961,-0.90458 -0.29715,-1.43195 -0.008,-0.52738 0.0655,-1.04734 0.25995,-1.41956 0.0601,-0.11499 0.15343,-0.223 0.30851,-0.40049 0.15504,-0.17749 0.36279,-0.40149 0.60769,-0.66042 0.48985,-0.51785 1.13115,-1.17103 1.81023,-1.83555 l 2.38487,-2.33215 -0.54104,-3.10576 c -0.15423,-0.88503 -0.293,-1.73761 -0.39429,-2.40037 -0.0506,-0.33138 -0.0929,-0.61468 -0.12144,-0.83199 -0.0285,-0.21731 -0.0454,-0.3517 -0.045,-0.44907 v -0.002 c 0.004,-0.63739 0.40518,-1.51814 0.89453,-2.04121 0.22254,-0.23788 0.64781,-0.523 1.01388,-0.70074 l 0.0429,-0.0217 h 0.008 c 0.49207,-0.23212 0.81793,-0.28947 1.43764,-0.24598 0.35927,0.0252 0.66341,0.0843 1.18753,0.31057 0.52414,0.22625 1.28465,0.61866 2.63292,1.32602 0.81669,0.42847 1.57461,0.81775 2.13476,1.09967 0.28006,0.14097 0.51025,0.25578 0.67384,0.33383 0.0818,0.039 0.14735,0.0688 0.19122,0.0879 0,2.7e-4 0,-2.6e-4 0.003,0 0,-2.6e-4 0,2.7e-4 0.003,0 0.0438,-0.019 0.1075,-0.049 0.18915,-0.0879 0.16325,-0.0778 0.39439,-0.19132 0.67384,-0.33176 0.55896,-0.28088 1.31419,-0.66918 2.12908,-1.09606 2.433773,-1.27495 3.109643,-1.58337 3.720703,-1.64641 1.33583,-0.13786 2.60765,0.61372 3.19516,1.87534 0.1714,0.36805 0.30832,0.8266 0.30901,1.1405 2.1e-4,0.097 -0.0164,0.23179 -0.045,0.44907 -0.0286,0.21728 -0.0706,0.50062 -0.12144,0.83199 -0.10155,0.66272 -0.24014,1.51538 -0.39428,2.40037 l -0.54105,3.10575 2.38488,2.33164 c 0.67931,0.66453 1.32037,1.3182 1.81022,1.83607 0.2449,0.25893 0.4527,0.48291 0.6077,0.66042 0.15499,0.17751 0.24844,0.28454 0.3085,0.39998 0.17902,0.34398 0.25014,0.78223 0.25014,1.39474 0,0.96269 -0.22601,1.56691 -0.83614,2.22467 -0.32737,0.35291 -0.66138,0.5937 -1.32238,0.78342 -0.66104,0.18971 -1.66159,0.35029 -3.42358,0.6072 -0.92059,0.13422 -1.76049,0.25975 -2.37143,0.35346 -0.30547,0.0469 -0.55468,0.0851 -0.72658,0.11317 -0.0731,0.0119 -0.12464,0.0217 -0.16795,0.0295 -0.0198,0.0389 -0.0429,0.0852 -0.076,0.15038 -0.0764,0.15053 -0.1869,0.36524 -0.32038,0.63097 -0.26699,0.53146 -0.6313,1.26178 -1.02939,2.06034 -0.39894,0.80021 -0.79708,1.57396 -1.117253,2.17764 -0.16008,0.30184 -0.29962,0.56065 -0.41185,0.76016 -0.11227,0.19951 -0.1896,0.33084 -0.25218,0.41393 -0.49175,0.65284 -1.49728,1.08779 -2.42364,1.08779 z m 0,-3.03186 c 0.009,-0.008 0.0156,-0.0128 0.0372,-0.0382 0.0644,-0.0757 0.1642,-0.22578 0.30075,-0.46715 0.27313,-0.48273 0.69853,-1.33121 1.39425,-2.75384 0.52409,-1.07172 0.96623,-1.93757 1.30069,-2.55436 0.16722,-0.3084 0.307873,-0.55452 0.420133,-0.73432 0.0561,-0.0899 0.10401,-0.16369 0.1483,-0.22273 0.0443,-0.059 0.0725,-0.10136 0.1447,-0.14831 0.0664,-0.0432 0.11041,-0.0538 0.17984,-0.0744 0.0694,-0.0206 0.15587,-0.0409 0.25943,-0.0646 0.20708,-0.0474 0.48368,-0.10288 0.8206,-0.16382 0.67384,-0.12189 1.58562,-0.26636 2.62673,-0.41599 1.77877,-0.25566 2.79937,-0.41429 3.35947,-0.53537 0.26418,-0.0571 0.40904,-0.10664 0.48421,-0.14263 -0.0315,-0.037 -0.0617,-0.0727 -0.1111,-0.12712 -0.13861,-0.15277 -0.34234,-0.36713 -0.59377,-0.62683 -0.50285,-0.51942 -1.19801,-1.21809 -1.96266,-1.96888 -1.2102,-1.18827 -1.90717,-1.88303 -2.30891,-2.33164 -0.20087,-0.2243 -0.32779,-0.38778 -0.41185,-0.52968 -0.0841,-0.1419 -0.12295,-0.27562 -0.12144,-0.39636 0,-0.0948 0.0193,-0.22398 0.0511,-0.44907 0.0316,-0.22509 0.0772,-0.52342 0.13282,-0.87695 0.11113,-0.70705 0.26215,-1.63025 0.42942,-2.59984 0.2544,-1.4745 0.4,-2.36206 0.46302,-2.88871 0.0315,-0.26332 0.0432,-0.43824 0.0393,-0.53899 -0.004,-0.10075 -0.0246,-0.10712 -0.003,-0.0837 -0.0108,-0.0112 -0.005,-0.006 -0.0103,-0.01 -0.0321,0.004 -0.16711,0.0404 -0.43358,0.16382 -0.5471,0.25341 -1.64078,0.82862 -3.853493,1.99057 -0.70983,0.37275 -1.32684,0.67829 -1.79888,0.89245 -0.23601,0.10709 -0.43458,0.19117 -0.59375,0.25012 -0.15915,0.059 -0.25823,0.0992 -0.38859,0.0992 -0.0762,0 -0.12687,-0.0171 -0.19741,-0.0388 -0.0706,-0.0217 -0.15251,-0.0512 -0.24961,-0.0899 -0.19423,-0.0774 -0.44696,-0.18951 -0.75395,-0.33383 -0.61402,-0.28864 -1.44603,-0.70577 -2.4474,-1.23041 -0.87588,-0.45889 -1.69558,-0.88366 -2.30838,-1.19734 -0.30642,-0.15685 -0.55981,-0.28756 -0.74415,-0.37931 -0.0922,-0.0459 -0.16703,-0.0814 -0.22066,-0.10697 -0.0536,-0.0256 -0.10705,-0.0437 -0.0801,-0.0351 -0.0251,-0.008 -0.0287,-0.007 -0.0434,-0.01 0.005,0.004 -0.0276,0.0721 -0.0191,0.28887 0.0191,0.48326 0.17479,1.47016 0.48216,3.25769 0.16674,0.96958 0.31919,1.89278 0.42994,2.59984 0.0554,0.35353 0.0993,0.65391 0.13073,0.87901 0.0315,0.22511 0.0518,0.35183 0.0527,0.44701 0,0.12087 -0.0388,0.25427 -0.12301,0.39635 -0.0842,0.14209 -0.21344,0.30633 -0.41444,0.53124 -0.40196,0.44982 -1.09755,1.14653 -2.30632,2.33629 -0.7646,0.75259 -1.46032,1.45093 -1.96318,1.97042 -0.25144,0.25975 -0.45506,0.47643 -0.59376,0.6289 -0.0476,0.0523 -0.0743,0.0853 -0.10543,0.12144 0.0788,0.0365 0.22653,0.0856 0.4904,0.14211 0.56351,0.12069 1.58168,0.27601 3.34555,0.52762 1.07755,0.15371 1.98808,0.29784 2.65256,0.41806 0.33223,0.0601 0.60206,0.1145 0.80459,0.16175 0.10126,0.0236 0.18508,0.0456 0.25374,0.0667 0.0686,0.0211 0.11673,0.0331 0.17981,0.0744 0.0697,0.0457 0.10017,0.0895 0.1447,0.14831 0.0446,0.0588 0.0924,0.13152 0.14833,0.22066 0.11192,0.17827 0.25156,0.42185 0.41804,0.72863 0.33298,0.61356 0.77401,1.48016 1.30484,2.56626 0.69506,1.42212 1.1193,2.26931 1.39216,2.75177 0.13642,0.24123 0.23691,0.39148 0.30128,0.46715 0.022,0.0257 0.0281,0.0299 0.0372,0.0382 z m -15.26781,-15.37993 c -0.0837,0 -0.16285,-0.0157 -0.27699,-0.0393 -0.11411,-0.0236 -0.25336,-0.057 -0.41029,-0.0977 -0.3139,-0.0814 -0.69845,-0.19341 -1.08212,-0.31626 -0.81648,-0.26142 -1.34892,-0.47945 -1.70325,-0.76016 -0.35431,-0.2807 -0.50385,-0.65136 -0.50385,-1.07383 0,-0.63381 0.33806,-1.14967 0.91623,-1.39682 0.22611,-0.0967 0.43902,-0.1557 0.76946,-0.0992 0.33046,0.0565 0.80034,0.20427 1.70119,0.4899 1.04174,0.3303 1.4487,0.51999 1.73426,0.85938 0.40513,0.48147 0.4458,1.09843 0.21704,1.58388 -0.22876,0.48545 -0.7307,0.85008 -1.36168,0.85008 z m 30.445693,-0.004 c -1.20775,-0.008 -1.84386,-1.49404 -1.05471,-2.43189 0.14592,-0.17339 0.32996,-0.31321 0.61134,-0.44494 0.28136,-0.13173 0.6644,-0.26265 1.24796,-0.44338 0.79383,-0.24585 1.51535,-0.47032 1.56427,-0.48628 l 0.27543,-0.0899 v 0.0331 c 0.003,5.3e-4 0.006,0.002 0.008,0.002 0.0175,0.004 0.0307,0.007 0.0465,0.0119 0.0316,0.009 0.0689,0.0211 0.11163,0.0367 0.0855,0.0311 0.19449,0.075 0.31057,0.1235 0.59912,0.25032 0.9431,0.76285 0.9431,1.40612 0,0.42247 -0.14951,0.79365 -0.50384,1.07435 -0.35433,0.28071 -0.88678,0.49823 -1.70326,0.75964 -0.38473,0.12319 -0.77853,0.23513 -1.10897,0.31626 -0.33047,0.0811 -0.57166,0.13438 -0.7483,0.13281 z m -15.177883,-10.62519 c -0.28517,0 -0.56973,-0.11008 -0.81441,-0.27699 -0.24469,-0.16691 -0.45281,-0.39358 -0.56431,-0.66042 -0.1498,-0.35868 -0.19171,-0.9677 -0.19171,-1.93373 0,-0.77072 0.0285,-1.27418 0.13485,-1.65985 0.10634,-0.38568 0.31176,-0.64805 0.59944,-0.84956 l 0.0548,-0.0393 h 0.0161 c 0.21682,-0.1264 0.50149,-0.19121 0.76533,-0.19121 0.58955,0 1.07982,0.3112 1.36115,0.85525 0.0972,0.18802 0.13134,0.43862 0.16433,0.76584 0.033,0.32722 0.0496,0.71583 0.0506,1.10898 0,0.39315 -0.0138,0.7911 -0.045,1.13119 -0.0312,0.3401 -0.0711,0.61387 -0.15398,0.81236 -0.1115,0.26684 -0.32015,0.49351 -0.56484,0.66042 -0.24468,0.16691 -0.52718,0.27699 -0.81235,0.27699 z"
       style="fill:#000000;stroke:none;stroke-width:0.42035806;stroke-miterlimit:4;stroke-dasharray:none;stroke-opacity:1"
       inkscape:connector-curvature="0" />
    <path
       inkscape:tile-y0="-101.70725"
       inkscape:tile-x0="41.989001"
       id="use9579"
       d="m -21.22023,102.38703 c 0.63222,0 1.13747,0.33801 1.37303,0.81649 0.23559,0.47847 0.2068,1.09334 -0.15605,1.62729 -0.45294,0.66647 -0.86484,1.22893 -1.20147,1.64848 -0.16833,0.20977 -0.31724,0.38433 -0.44702,0.51935 -0.12977,0.135 -0.23124,0.23083 -0.3457,0.293 -0.28914,0.15703 -0.58013,0.23001 -0.86559,0.1912 -0.28548,-0.0388 -0.55017,-0.18553 -0.81028,-0.41392 -0.19185,-0.16847 -0.32517,-0.30385 -0.40825,-0.47646 -0.0831,-0.17261 -0.0997,-0.35713 -0.0997,-0.59015 0,-0.24648 0.0392,-0.47245 0.17982,-0.74414 0.14062,-0.27168 0.37261,-0.59904 0.77155,-1.1405 0.50371,-0.68365 0.83595,-1.10216 1.13067,-1.36529 0.29472,-0.26312 0.5802,-0.36535 0.87902,-0.36535 z m -23.043043,0 c 0.29443,0 0.57944,0.10585 0.87281,0.36949 0.2934,0.26364 0.62389,0.68104 1.12498,1.36115 0.39556,0.53686 0.62728,0.86664 0.76793,1.13689 0.14065,0.27024 0.18301,0.49356 0.18137,0.73225 -0.003,0.28721 -0.0367,0.52123 -0.15192,0.72864 -0.11525,0.20742 -0.2971,0.36722 -0.54933,0.54105 -0.235,0.16198 -0.47689,0.26684 -0.73792,0.26769 -0.26104,7.9e-4 -0.52036,-0.10455 -0.78134,-0.29921 -0.522,-0.38931 -1.10096,-1.13987 -1.9534,-2.39417 -0.36435,-0.53617 -0.39417,-1.15118 -0.15605,-1.62936 0.23815,-0.47818 0.74602,-0.81442 1.38287,-0.81442 z m 11.515573,1.98076 c 0.92639,0 1.93397,0.43495 2.4257,1.08779 0.0626,0.0831 0.13785,0.21442 0.25011,0.41392 0.11226,0.19952 0.25384,0.45833 0.41391,0.76017 0.32018,0.60367 0.71835,1.37743 1.11726,2.17764 0.39812,0.79857 0.76266,1.52705 1.02939,2.05827 0.13338,0.26562 0.24209,0.48266 0.31832,0.63304 0.0326,0.0644 0.0566,0.10957 0.0765,0.14831 0.0436,0.008 0.0958,0.0174 0.16949,0.0295 0.17275,0.0284 0.42159,0.0676 0.72864,0.11523 0.6141,0.0952 1.45915,0.2223 2.38487,0.35916 0.94121,0.13914 1.82817,0.28609 2.50992,0.41237 0.34089,0.0631 0.63095,0.12175 0.85164,0.17157 0.22069,0.0498 0.34936,0.0747 0.46456,0.13281 0.60306,0.30414 1.12506,0.82297 1.45108,1.43557 0.20179,0.37914 0.28961,0.90458 0.29715,1.43195 0.008,0.52738 -0.0655,1.04734 -0.25995,1.41956 -0.0601,0.11499 -0.15343,0.223 -0.30851,0.40049 -0.15504,0.17749 -0.36279,0.40149 -0.60769,0.66042 -0.48985,0.51785 -1.13115,1.17103 -1.81023,1.83555 l -2.38487,2.33215 0.54104,3.10576 c 0.15423,0.88503 0.293,1.73761 0.39429,2.40037 0.0506,0.33138 0.0929,0.61468 0.12144,0.83199 0.0285,0.21731 0.0454,0.3517 0.045,0.44907 v 0.002 c -0.004,0.63739 -0.40518,1.51814 -0.89453,2.04121 -0.22254,0.23788 -0.64781,0.523 -1.01388,0.70074 l -0.0429,0.0217 h -0.008 c -0.49207,0.23212 -0.81793,0.28947 -1.43764,0.24598 -0.35927,-0.0252 -0.66341,-0.0843 -1.18753,-0.31057 -0.52414,-0.22625 -1.28465,-0.61866 -2.63292,-1.32602 -0.81669,-0.42847 -1.57461,-0.81775 -2.13476,-1.09967 -0.28006,-0.14097 -0.51025,-0.25578 -0.67384,-0.33383 -0.0818,-0.039 -0.14735,-0.0688 -0.19122,-0.0879 0,-2.7e-4 0,2.6e-4 -0.003,0 0,2.6e-4 0,-2.7e-4 -0.003,0 -0.0438,0.019 -0.1075,0.049 -0.18915,0.0879 -0.16325,0.0778 -0.39439,0.19132 -0.67384,0.33176 -0.55896,0.28088 -1.31419,0.66918 -2.12908,1.09606 -2.433773,1.27495 -3.109643,1.58337 -3.720703,1.64641 -1.33583,0.13786 -2.60765,-0.61372 -3.19516,-1.87534 -0.1714,-0.36805 -0.30832,-0.8266 -0.30901,-1.1405 -2.1e-4,-0.097 0.0164,-0.23179 0.045,-0.44907 0.0286,-0.21728 0.0706,-0.50062 0.12144,-0.83199 0.10155,-0.66272 0.24014,-1.51538 0.39428,-2.40037 l 0.54105,-3.10575 -2.38488,-2.33164 c -0.67931,-0.66453 -1.32037,-1.3182 -1.81022,-1.83607 -0.2449,-0.25893 -0.4527,-0.48291 -0.6077,-0.66042 -0.15499,-0.17751 -0.24844,-0.28454 -0.3085,-0.39998 -0.17902,-0.34398 -0.25014,-0.78223 -0.25014,-1.39474 0,-0.96269 0.22601,-1.56691 0.83614,-2.22467 0.32737,-0.35291 0.66138,-0.5937 1.32238,-0.78342 0.66104,-0.18971 1.66159,-0.35029 3.42358,-0.6072 0.92059,-0.13422 1.76049,-0.25975 2.37143,-0.35346 0.30547,-0.0469 0.55468,-0.0851 0.72658,-0.11317 0.0731,-0.0119 0.12464,-0.0217 0.16795,-0.0295 0.0198,-0.0389 0.0429,-0.0852 0.076,-0.15038 0.0764,-0.15053 0.1869,-0.36524 0.32038,-0.63097 0.26699,-0.53146 0.6313,-1.26178 1.02939,-2.06034 0.39894,-0.80021 0.79708,-1.57396 1.117253,-2.17764 0.16008,-0.30184 0.29962,-0.56065 0.41185,-0.76016 0.11227,-0.19951 0.1896,-0.33084 0.25218,-0.41393 0.49175,-0.65284 1.49728,-1.08779 2.42364,-1.08779 z m 0,3.03186 c -0.009,0.008 -0.0156,0.0128 -0.0372,0.0382 -0.0644,0.0757 -0.1642,0.22578 -0.30075,0.46715 -0.27313,0.48273 -0.69853,1.33121 -1.39425,2.75384 -0.52409,1.07172 -0.96623,1.93757 -1.30069,2.55436 -0.16722,0.3084 -0.307873,0.55452 -0.420133,0.73432 -0.0561,0.0899 -0.10401,0.16369 -0.1483,0.22273 -0.0443,0.059 -0.0725,0.10136 -0.1447,0.14831 -0.0664,0.0432 -0.11041,0.0538 -0.17984,0.0744 -0.0694,0.0206 -0.15587,0.0409 -0.25943,0.0646 -0.20708,0.0474 -0.48368,0.10288 -0.8206,0.16382 -0.67384,0.12189 -1.58562,0.26636 -2.62673,0.41599 -1.77877,0.25566 -2.79937,0.41429 -3.35947,0.53537 -0.26418,0.0571 -0.40904,0.10664 -0.48421,0.14263 0.0315,0.037 0.0617,0.0727 0.1111,0.12712 0.13861,0.15277 0.34234,0.36713 0.59377,0.62683 0.50285,0.51942 1.19801,1.21809 1.96266,1.96888 1.2102,1.18827 1.90717,1.88303 2.30891,2.33164 0.20087,0.2243 0.32779,0.38778 0.41185,0.52968 0.0841,0.1419 0.12295,0.27562 0.12144,0.39636 0,0.0948 -0.0193,0.22398 -0.0511,0.44907 -0.0316,0.22509 -0.0772,0.52342 -0.13282,0.87695 -0.11113,0.70705 -0.26215,1.63025 -0.42942,2.59984 -0.2544,1.4745 -0.4,2.36206 -0.46302,2.88871 -0.0315,0.26332 -0.0432,0.43824 -0.0393,0.53899 0.004,0.10075 0.0246,0.10712 0.003,0.0837 0.0108,0.0112 0.005,0.006 0.0103,0.01 0.0321,-0.004 0.16711,-0.0404 0.43358,-0.16382 0.5471,-0.25341 1.64078,-0.82862 3.853493,-1.99057 0.70983,-0.37275 1.32684,-0.67829 1.79888,-0.89245 0.23601,-0.10709 0.43458,-0.19117 0.59375,-0.25012 0.15915,-0.059 0.25823,-0.0992 0.38859,-0.0992 0.0762,0 0.12687,0.0171 0.19741,0.0388 0.0706,0.0217 0.15251,0.0512 0.24961,0.0899 0.19423,0.0774 0.44696,0.18951 0.75395,0.33383 0.61402,0.28864 1.44603,0.70577 2.4474,1.23041 0.87588,0.45889 1.69558,0.88366 2.30838,1.19734 0.30642,0.15685 0.55981,0.28756 0.74415,0.37931 0.0922,0.0459 0.16703,0.0814 0.22066,0.10697 0.0536,0.0256 0.10705,0.0437 0.0801,0.0351 0.0251,0.008 0.0287,0.007 0.0434,0.01 -0.005,-0.004 0.0276,-0.0721 0.0191,-0.28887 -0.0191,-0.48326 -0.17479,-1.47016 -0.48216,-3.25769 -0.16674,-0.96958 -0.31919,-1.89278 -0.42994,-2.59984 -0.0554,-0.35353 -0.0993,-0.65391 -0.13073,-0.87901 -0.0315,-0.22511 -0.0518,-0.35183 -0.0527,-0.44701 0,-0.12087 0.0388,-0.25427 0.12301,-0.39635 0.0842,-0.14209 0.21344,-0.30633 0.41444,-0.53124 0.40196,-0.44982 1.09755,-1.14653 2.30632,-2.33629 0.7646,-0.75259 1.46032,-1.45093 1.96318,-1.97042 0.25144,-0.25975 0.45506,-0.47643 0.59376,-0.6289 0.0476,-0.0523 0.0743,-0.0853 0.10543,-0.12144 -0.0788,-0.0365 -0.22653,-0.0856 -0.4904,-0.14211 -0.56351,-0.12069 -1.58168,-0.27601 -3.34555,-0.52762 -1.07755,-0.15371 -1.98808,-0.29784 -2.65256,-0.41806 -0.33223,-0.0601 -0.60206,-0.1145 -0.80459,-0.16175 -0.10126,-0.0236 -0.18508,-0.0456 -0.25374,-0.0667 -0.0686,-0.0211 -0.11673,-0.0331 -0.17981,-0.0744 -0.0697,-0.0457 -0.10017,-0.0895 -0.1447,-0.14831 -0.0446,-0.0588 -0.0924,-0.13152 -0.14833,-0.22066 -0.11192,-0.17827 -0.25156,-0.42185 -0.41804,-0.72863 -0.33298,-0.61356 -0.77401,-1.48016 -1.30484,-2.56626 -0.69506,-1.42212 -1.1193,-2.26931 -1.39216,-2.75177 -0.13642,-0.24123 -0.23691,-0.39148 -0.30128,-0.46715 -0.022,-0.0257 -0.0281,-0.0299 -0.0372,-0.0382 z m 15.26781,15.37993 c 0.0837,0 0.16285,0.0157 0.27699,0.0393 0.11411,0.0236 0.25336,0.057 0.41029,0.0977 0.3139,0.0814 0.69845,0.19341 1.08212,0.31626 0.81648,0.26142 1.34892,0.47945 1.70325,0.76016 0.35431,0.2807 0.50385,0.65136 0.50385,1.07383 0,0.63381 -0.33806,1.14967 -0.91623,1.39682 -0.22611,0.0967 -0.43902,0.1557 -0.76946,0.0992 -0.33046,-0.0565 -0.80034,-0.20427 -1.70119,-0.4899 -1.04174,-0.3303 -1.4487,-0.51999 -1.73426,-0.85938 -0.40513,-0.48147 -0.4458,-1.09843 -0.21704,-1.58388 0.22876,-0.48545 0.7307,-0.85008 1.36168,-0.85008 z m -30.445693,0.004 c 1.20775,0.008 1.84386,1.49404 1.05471,2.43189 -0.14592,0.17339 -0.32996,0.31321 -0.61134,0.44494 -0.28136,0.13173 -0.6644,0.26265 -1.24796,0.44338 -0.79383,0.24585 -1.51535,0.47032 -1.56427,0.48628 l -0.27543,0.0899 v -0.0331 c -0.003,-5.3e-4 -0.006,-0.002 -0.008,-0.002 -0.0175,-0.004 -0.0307,-0.007 -0.0465,-0.0119 -0.0316,-0.009 -0.0689,-0.0211 -0.11163,-0.0367 -0.0855,-0.0311 -0.19449,-0.075 -0.31057,-0.1235 -0.59912,-0.25032 -0.9431,-0.76285 -0.9431,-1.40612 0,-0.42247 0.14951,-0.79365 0.50384,-1.07435 0.35433,-0.28071 0.88678,-0.49823 1.70326,-0.75964 0.38473,-0.12319 0.77853,-0.23513 1.10897,-0.31626 0.33047,-0.0811 0.57166,-0.13438 0.7483,-0.13281 z m 15.177883,10.62519 c 0.28517,0 0.56973,0.11008 0.81441,0.27699 0.24469,0.16691 0.45281,0.39358 0.56431,0.66042 0.1498,0.35868 0.19171,0.9677 0.19171,1.93373 0,0.77072 -0.0285,1.27418 -0.13485,1.65985 -0.10634,0.38568 -0.31176,0.64805 -0.59944,0.84956 l -0.0548,0.0393 h -0.0161 c -0.21682,0.1264 -0.50149,0.19121 -0.76533,0.19121 -0.58955,0 -1.07982,-0.3112 -1.36115,-0.85525 -0.0972,-0.18802 -0.13134,-0.43862 -0.16433,-0.76584 -0.033,-0.32722 -0.0496,-0.71583 -0.0506,-1.10898 0,-0.39315 0.0138,-0.7911 0.045,-1.13119 0.0312,-0.3401 0.0711,-0.61387 0.15398,-0.81236 0.1115,-0.26684 0.32015,-0.49351 0.56484,-0.66042 0.24468,-0.16691 0.52718,-0.27699 0.81235,-0.27699 z"
       style="fill:#000000;stroke:none;stroke-width:0.42035806;stroke-miterlimit:4;stroke-dasharray:none;stroke-opacity:1"
       inkscape:connector-curvature="0" />
  </g>
</svg>
