<?xml version="1.0" encoding="UTF-8" standalone="no"?>
<!-- Created with Inkscape (http://www.inkscape.org/) -->

<svg
   xmlns:dc="http://purl.org/dc/elements/1.1/"
   xmlns:cc="http://creativecommons.org/ns#"
   xmlns:rdf="http://www.w3.org/1999/02/22-rdf-syntax-ns#"
   xmlns:svg="http://www.w3.org/2000/svg"
   xmlns="http://www.w3.org/2000/svg"
   xmlns:sodipodi="http://sodipodi.sourceforge.net/DTD/sodipodi-0.dtd"
   xmlns:inkscape="http://www.inkscape.org/namespaces/inkscape"
   width="143.90179mm"
   height="139.78636mm"
   viewBox="0 0 143.9018 139.78636"
   version="1.1"
   id="svg8430"
   inkscape:version="0.92.5 (2060ec1f9f, 2020-04-08)"
   sodipodi:docname="drama-pattern.svg">
  <defs
     id="defs8424" />
  <sodipodi:namedview
     id="base"
     pagecolor="#ffffff"
     bordercolor="#666666"
     borderopacity="1.0"
     inkscape:pageopacity="0.0"
     inkscape:pageshadow="2"
     inkscape:zoom="0.35"
     inkscape:cx="38.278627"
     inkscape:cy="715.02337"
     inkscape:document-units="mm"
     inkscape:current-layer="layer1"
     showgrid="false"
     fit-margin-top="15"
     fit-margin-left="15"
     fit-margin-right="15"
     fit-margin-bottom="15"
     inkscape:window-width="1920"
     inkscape:window-height="1016"
     inkscape:window-x="0"
     inkscape:window-y="27"
     inkscape:window-maximized="1" />
  <metadata
     id="metadata8427">
    <rdf:RDF>
      <cc:Work
         rdf:about="">
        <dc:format>image/svg+xml</dc:format>
        <dc:type
           rdf:resource="http://purl.org/dc/dcmitype/StillImage" />
        <dc:title></dc:title>
      </cc:Work>
    </rdf:RDF>
  </metadata>
  <g
     inkscape:label="Calque 1"
     inkscape:groupmode="layer"
     id="layer1"
     transform="translate(159.58373,-134.79294)">
    <path
       inkscape:tile-y0="36.229221"
       inkscape:tile-x0="16.285985"
       id="use9040"
       d="m -128.16939,150.38171 -0.26458,0.006 v 0 c -0.10608,0.002 -0.21135,0.0117 -0.31573,0.0269 -1.19097,0.17233 -2.28156,1.03736 -2.77244,2.18385 -0.0565,0.13196 -0.1,0.3102 -0.15917,0.58084 -0.0592,0.27064 -0.12703,0.62329 -0.2031,1.05472 -0.15213,0.86284 -0.33737,2.03961 -0.54723,3.48609 -0.17947,1.23655 -0.35542,2.37812 -0.49456,3.21944 -0.0696,0.42066 -0.13034,0.76653 -0.17672,1.00976 -0.023,0.12093 -0.0425,0.21646 -0.0574,0.2806 -0.003,8e-4 -0.003,0.002 -0.005,0.003 -0.0635,0.0153 -0.16669,0.0314 -0.29403,0.0434 -0.25469,0.024 -0.60897,0.0345 -1.00769,0.031 -0.79743,-0.007 -1.77806,-0.0713 -2.55747,-0.18706 -0.69077,-0.10258 -1.75625,-0.33515 -2.32285,-0.50592 -0.60172,-0.18137 -1.30488,-0.35114 -1.65468,-0.38653 -1.73487,-0.17552 -3.28234,1.19787 -3.57394,3.10161 -0.0132,0.0866 -0.007,0.14297 0,0.2403 0.006,0.0973 0.0167,0.21995 0.0315,0.36639 0.0298,0.29287 0.0766,0.68099 0.13592,1.13739 0.11864,0.91278 0.28723,2.09622 0.47024,3.31091 0.36608,2.42936 0.781,4.95577 0.98031,5.74694 0.84172,3.34132 2.43348,6.22346 4.68241,8.46356 1.45767,1.45193 2.49701,2.16578 5.12577,3.5264 1.87738,0.97167 2.79575,1.35984 3.64734,1.52291 0.30723,0.0588 0.74329,0.0477 1.21438,0.004 0.47109,-0.044 0.96086,-0.12452 1.3317,-0.23616 1.09511,-0.32969 2.08934,-1.11207 4.0499,-3.12281 1.83121,-1.87814 2.57551,-2.84457 3.49332,-4.53771 l 0.43461,-0.80098 1.70479,-0.86972 c 2.28655,-1.16618 3.6237,-2.12163 5.06118,-3.62303 1.86746,-1.95046 3.19548,-4.18338 4.02508,-6.766 0.53536,-1.66665 0.67268,-2.39116 1.4454,-7.67033 l 0.64595,-4.41317 -0.22738,-0.83922 c -0.15944,-0.58918 -0.39246,-1.03078 -0.77513,-1.46555 -0.50945,-0.57873 -1.0655,-0.94265 -1.74408,-1.0604 -0.6786,-0.11774 -1.45589,1.3e-4 -2.44895,0.30334 -1.95715,0.59756 -2.62568,0.68476 -5.21158,0.68007 -2.17996,-0.004 -2.47055,-0.0287 -3.64318,-0.32298 -2.19112,-0.54981 -4.06212,-1.37362 -5.82343,-2.56212 -0.87056,-0.58744 -1.54165,-0.85039 -2.19779,-0.90175 z m -0.36846,2.71921 v 5.3e-4 c 0.21918,-0.006 0.6245,0.15244 1.19578,0.53796 3.62813,2.44821 8.33107,3.68441 12.53001,3.28868 1.67931,-0.15826 2.7903,-0.3737 4.39404,-0.85369 0.27096,-0.0811 0.54594,-0.14655 0.76327,-0.18552 0.10864,-0.0195 0.20336,-0.0326 0.27128,-0.0377 0.0428,-0.003 0.0771,7.9e-4 0.0879,0.001 0.0475,0.0223 0.17232,0.13034 0.26302,0.30231 0.0959,0.18172 0.16071,0.41624 0.16071,0.60823 0,0.0681 -0.0204,0.30371 -0.0584,0.62115 -0.038,0.31743 -0.0927,0.72937 -0.15967,1.20406 -0.13386,0.94938 -0.31554,2.14955 -0.50641,3.35535 -0.19093,1.20581 -0.39095,2.41751 -0.56121,3.38946 -0.17031,0.97194 -0.31777,1.72547 -0.37828,1.93528 -1.10969,3.84615 -3.56764,7.02178 -6.85231,8.86665 -0.16055,0.0902 -0.30901,0.16653 -0.43976,0.23099 0.0159,-0.1306 0.0312,-0.2637 0.0713,-0.45785 0.1302,-0.6309 0.19394,-1.71978 0.20203,-3.22616 0.0119,-2.2114 -0.0132,-2.46602 -0.70588,-6.82594 -0.19685,-1.2394 -0.39656,-2.43037 -0.56017,-3.35277 -0.0818,-0.46119 -0.15492,-0.85544 -0.21395,-1.15548 -0.059,-0.30004 -0.0978,-0.49007 -0.13591,-0.60824 -0.25993,-0.80575 -1.04908,-1.72997 -1.80507,-2.11563 -0.71575,-0.3652 -1.6515,-0.47472 -2.34714,-0.2465 -0.17762,0.0583 -0.41032,0.1792 -0.69454,0.33952 -0.28413,0.16032 -0.60579,0.35742 -0.90175,0.55604 -0.5648,0.37913 -1.54162,0.94956 -2.1368,1.2485 -0.58634,0.29447 -1.44783,0.6445 -2.1699,0.9002 -0.36102,0.12784 -0.68845,0.23294 -0.92551,0.29559 -0.0499,0.0132 -0.0743,0.0156 -0.11526,0.0248 0.003,-0.0275 0.003,-0.0404 0.006,-0.0718 0.0214,-0.22383 0.0584,-0.54387 0.10697,-0.92655 0.0972,-0.76539 0.23945,-1.7829 0.39172,-2.81224 0.15226,-1.02933 0.31435,-2.07098 0.45061,-2.88354 0.0681,-0.40628 0.12994,-0.75559 0.18034,-1.01596 0.0504,-0.26037 0.1071,-0.46549 0.10181,-0.45269 0.0769,-0.18622 0.15986,-0.30887 0.2372,-0.37827 0.0773,-0.0694 0.14467,-0.0967 0.25424,-0.0997 z m 6.12521,7.845 v 0 c 0.0338,1.2e-4 0.0714,0.008 0.1416,0.032 0.11743,0.0409 0.36817,0.23714 0.43355,0.33693 -0.014,-0.0215 0.0101,0.02 0.0295,0.0827 0.0198,0.0627 0.0442,0.15292 0.0718,0.26666 0.0552,0.22746 0.12314,0.54987 0.20207,0.96221 0.15787,0.8247 0.3607,2.01009 0.60565,3.5419 0.64135,4.01078 0.73954,4.84682 0.74568,6.3283 0.0135,3.31755 -0.79529,6.015 -2.56831,8.5788 -0.39174,0.56647 -1.42134,1.68672 -2.42673,2.68046 -0.50269,0.49688 -1.0019,0.96626 -1.41645,1.3286 -0.41452,0.36235 -0.77483,0.62568 -0.8754,0.67128 -0.51088,0.23174 -1.68952,0.28134 -2.20813,0.0956 -0.12486,-0.0447 -0.47316,-0.20511 -0.90176,-0.41806 -0.42857,-0.21295 -0.95025,-0.48205 -1.47587,-0.75965 -1.05124,-0.55521 -2.13339,-1.1566 -2.47737,-1.38751 -2.63673,-1.77007 -4.89434,-5.1017 -5.75622,-8.51886 v -5.3e-4 c -0.12438,-0.49335 -0.53885,-2.89176 -0.90901,-5.19503 -0.18507,-1.15175 -0.36189,-2.28864 -0.49196,-3.17552 -0.065,-0.44344 -0.11809,-0.82475 -0.15502,-1.11259 -0.0369,-0.28785 -0.0563,-0.50283 -0.0563,-0.53434 0,-0.15303 0.0949,-0.45512 0.14417,-0.52555 0.0877,-0.12518 0.15759,-0.20523 0.21447,-0.24907 0.0569,-0.0438 0.099,-0.0619 0.18759,-0.0698 0.17719,-0.0158 0.54218,0.0603 1.18647,0.25167 1.81139,0.53812 3.48951,0.76584 5.62655,0.76584 4.03971,0 7.51382,-1.061 11.01894,-3.36259 0.76013,-0.49911 1.00788,-0.61419 1.10951,-0.61391 z m -0.86352,6.13451 c -0.42672,0.0269 -0.78507,0.32673 -1.21542,0.81752 -0.362,0.41286 -0.64812,0.63458 -0.88884,0.71676 -0.24072,0.0822 -0.46029,0.0559 -0.78962,-0.10232 -0.61103,-0.29363 -0.92541,-0.44855 -1.20147,-0.51108 -0.27607,-0.0625 -0.5048,0.0163 -0.73174,0.1235 -0.4704,0.22221 -0.77271,0.59557 -0.801,1.02475 -0.0282,0.42918 0.20434,0.8569 0.62273,1.22008 0.99107,0.86027 2.60019,1.16003 3.8907,0.73742 0.59928,-0.19626 1.20771,-0.65991 1.68621,-1.17977 0.4785,-0.51986 0.84823,-1.07412 0.82373,-1.61128 -0.008,-0.16461 -0.0725,-0.29871 -0.15608,-0.43718 -0.0835,-0.13847 -0.19185,-0.27373 -0.31885,-0.38964 -0.28726,-0.26219 -0.58788,-0.42963 -0.91982,-0.40876 z m -10.47636,2.15956 c -0.24141,-0.0107 -0.47993,0.0641 -0.69557,0.20981 -0.21561,0.14567 -0.41806,0.35595 -0.64748,0.6382 -0.23485,0.28889 -0.37005,0.43222 -0.48112,0.50384 -0.11107,0.0716 -0.22657,0.10086 -0.493,0.13798 -0.51369,0.0715 -0.5271,0.0675 -1.01132,-0.23151 -0.38319,-0.23659 -0.74266,-0.37017 -1.08931,-0.37104 -0.34671,-7.9e-4 -0.6694,0.14868 -0.91004,0.41238 -0.45625,0.49983 -0.44238,1.28382 0.0103,1.80816 0.11782,0.13651 0.284,0.24811 0.49453,0.37672 0.21053,0.12861 0.45771,0.25888 0.70022,0.36484 1.17671,0.51412 2.38885,0.48033 3.48557,-0.10284 0.80103,-0.42592 1.54255,-1.2082 1.81851,-1.9637 0.24897,-0.68155 -0.0464,-1.41702 -0.69972,-1.67122 -0.1619,-0.063 -0.32038,-0.10449 -0.48162,-0.11162 z m 4.85862,4.97386 c -3.39344,-0.0598 -6.25467,3.10897 -5.60636,6.59753 0.0904,0.4867 0.15708,0.79066 0.26715,1.03507 0.11006,0.24442 0.27665,0.41224 0.48112,0.55811 0.28292,0.20181 0.60351,0.3018 0.93069,0.23409 0.32716,-0.0677 0.63786,-0.26853 1.01595,-0.58342 0.79423,-0.66146 1.84047,-1.2198 2.65771,-1.42989 0.88093,-0.22647 2.6986,-0.17962 3.41583,0.0698 0.73356,0.255 1.32019,0.31513 1.75802,0.0584 0.21892,-0.12836 0.37788,-0.33908 0.46406,-0.59066 0.0862,-0.25157 0.10945,-0.54416 0.0858,-0.88212 -0.16848,-2.40461 -1.95987,-4.40544 -4.40436,-4.9413 -0.3584,-0.0786 -0.71466,-0.11937 -1.06558,-0.12557 z m 0.15502,2.71456 c 0.39862,-0.0107 0.53271,0.0357 0.97721,0.24391 0.32025,0.15001 0.71266,0.43976 0.85318,0.58446 l -0.90072,0.0372 c -1.58531,0.0661 -2.58522,0.31037 -3.78529,0.92914 l -0.0961,0.0496 c 0.17206,-0.44262 0.59053,-1.04068 1.07022,-1.37304 0.46212,-0.32017 0.61349,-0.36712 1.38131,-0.43718 0.20518,-0.0187 0.36724,-0.0306 0.50022,-0.0341 z"
       style="fill:#000000;stroke:none;stroke-width:0.51784396;stroke-miterlimit:4;stroke-dasharray:none;stroke-opacity:1"
       inkscape:connector-curvature="0" />
    <path
       inkscape:tile-y0="36.229221"
       inkscape:tile-x0="16.285985"
       id="use9042"
       d="m -115.54297,258.43942 0.26458,-0.006 v 0 c 0.10608,-0.002 0.21135,-0.0117 0.31573,-0.0269 1.19097,-0.17233 2.28156,-1.03736 2.77244,-2.18385 0.0565,-0.13196 0.1,-0.3102 0.15917,-0.58084 0.0592,-0.27064 0.12703,-0.62329 0.2031,-1.05472 0.15213,-0.86284 0.33737,-2.03961 0.54723,-3.48609 0.17947,-1.23655 0.35542,-2.37812 0.49456,-3.21944 0.0696,-0.42066 0.13034,-0.76653 0.17672,-1.00976 0.023,-0.12093 0.0425,-0.21646 0.0574,-0.2806 0.003,-8e-4 0.003,-0.002 0.005,-0.003 0.0635,-0.0153 0.16669,-0.0314 0.29403,-0.0434 0.25469,-0.024 0.60897,-0.0345 1.00769,-0.031 0.79743,0.007 1.77806,0.0713 2.55747,0.18706 0.69077,0.10258 1.75625,0.33515 2.32285,0.50592 0.60172,0.18137 1.30488,0.35114 1.65468,0.38653 1.73487,0.17552 3.28234,-1.19787 3.57394,-3.10161 0.0132,-0.0866 0.007,-0.14297 0,-0.2403 -0.006,-0.0973 -0.0167,-0.21995 -0.0315,-0.36639 -0.0298,-0.29287 -0.0766,-0.68099 -0.13592,-1.13739 -0.11864,-0.91278 -0.28723,-2.09622 -0.47024,-3.31091 -0.36608,-2.42936 -0.781,-4.95577 -0.98031,-5.74694 -0.84172,-3.34132 -2.43348,-6.22346 -4.68241,-8.46356 -1.45767,-1.45193 -2.49701,-2.16578 -5.12577,-3.5264 -1.87738,-0.97167 -2.79575,-1.35984 -3.64734,-1.52291 -0.30723,-0.0588 -0.74329,-0.0477 -1.21438,-0.004 -0.47109,0.044 -0.96086,0.12452 -1.3317,0.23616 -1.09511,0.32969 -2.08934,1.11207 -4.0499,3.12281 -1.83121,1.87814 -2.57551,2.84457 -3.49332,4.53771 l -0.43461,0.80098 -1.70479,0.86972 c -2.28655,1.16618 -3.6237,2.12163 -5.06118,3.62303 -1.86746,1.95046 -3.19548,4.18338 -4.02508,6.766 -0.53536,1.66665 -0.67268,2.39116 -1.4454,7.67033 l -0.64595,4.41317 0.22738,0.83922 c 0.15944,0.58918 0.39246,1.03078 0.77513,1.46555 0.50945,0.57873 1.0655,0.94265 1.74408,1.0604 0.6786,0.11774 1.45589,-1.3e-4 2.44895,-0.30334 1.95715,-0.59756 2.62568,-0.68476 5.21158,-0.68007 2.17996,0.004 2.47055,0.0287 3.64318,0.32298 2.19112,0.54981 4.06212,1.37362 5.82343,2.56212 0.87056,0.58744 1.54165,0.85039 2.19779,0.90175 z m 0.36846,-2.71921 v -5.3e-4 c -0.21918,0.006 -0.6245,-0.15244 -1.19578,-0.53796 -3.62813,-2.44821 -8.33107,-3.68441 -12.53001,-3.28868 -1.67931,0.15826 -2.7903,0.3737 -4.39404,0.85369 -0.27096,0.0811 -0.54594,0.14655 -0.76327,0.18552 -0.10864,0.0195 -0.20336,0.0326 -0.27128,0.0377 -0.0428,0.003 -0.0771,-7.9e-4 -0.0879,-0.001 -0.0475,-0.0223 -0.17232,-0.13034 -0.26302,-0.30231 -0.0959,-0.18172 -0.16071,-0.41624 -0.16071,-0.60823 0,-0.0681 0.0204,-0.30371 0.0584,-0.62115 0.038,-0.31743 0.0927,-0.72937 0.15967,-1.20406 0.13386,-0.94938 0.31554,-2.14955 0.50641,-3.35535 0.19093,-1.20581 0.39095,-2.41751 0.56121,-3.38946 0.17031,-0.97194 0.31777,-1.72547 0.37828,-1.93528 1.10969,-3.84615 3.56764,-7.02178 6.85231,-8.86665 0.16055,-0.0902 0.30901,-0.16653 0.43976,-0.23099 -0.0159,0.1306 -0.0312,0.2637 -0.0713,0.45785 -0.1302,0.6309 -0.19394,1.71978 -0.20203,3.22616 -0.0119,2.2114 0.0132,2.46602 0.70588,6.82594 0.19685,1.2394 0.39656,2.43037 0.56017,3.35277 0.0818,0.46119 0.15492,0.85544 0.21395,1.15548 0.059,0.30004 0.0978,0.49007 0.13591,0.60824 0.25993,0.80575 1.04908,1.72997 1.80507,2.11563 0.71575,0.3652 1.6515,0.47472 2.34714,0.2465 0.17762,-0.0583 0.41032,-0.1792 0.69454,-0.33952 0.28413,-0.16032 0.60579,-0.35742 0.90175,-0.55604 0.5648,-0.37913 1.54162,-0.94956 2.1368,-1.2485 0.58634,-0.29447 1.44783,-0.6445 2.1699,-0.9002 0.36102,-0.12784 0.68845,-0.23294 0.92551,-0.29559 0.0499,-0.0132 0.0743,-0.0156 0.11526,-0.0248 -0.003,0.0275 -0.003,0.0404 -0.006,0.0718 -0.0214,0.22383 -0.0584,0.54387 -0.10697,0.92655 -0.0972,0.76539 -0.23945,1.7829 -0.39172,2.81224 -0.15226,1.02933 -0.31435,2.07098 -0.45061,2.88354 -0.0681,0.40628 -0.12994,0.75559 -0.18034,1.01596 -0.0504,0.26037 -0.1071,0.46549 -0.10181,0.45269 -0.0769,0.18622 -0.15986,0.30887 -0.2372,0.37827 -0.0773,0.0694 -0.14467,0.0967 -0.25424,0.0997 z m -6.12521,-7.845 v 0 c -0.0338,-1.2e-4 -0.0714,-0.008 -0.1416,-0.032 -0.11743,-0.0409 -0.36817,-0.23714 -0.43355,-0.33693 0.014,0.0215 -0.0101,-0.02 -0.0295,-0.0827 -0.0198,-0.0627 -0.0442,-0.15292 -0.0718,-0.26666 -0.0552,-0.22746 -0.12314,-0.54987 -0.20207,-0.96221 -0.15787,-0.8247 -0.3607,-2.01009 -0.60565,-3.5419 -0.64135,-4.01078 -0.73954,-4.84682 -0.74568,-6.3283 -0.0135,-3.31755 0.79529,-6.015 2.56831,-8.5788 0.39174,-0.56647 1.42134,-1.68672 2.42673,-2.68046 0.50269,-0.49688 1.0019,-0.96626 1.41645,-1.3286 0.41452,-0.36235 0.77483,-0.62568 0.8754,-0.67128 0.51088,-0.23174 1.68952,-0.28134 2.20813,-0.0956 0.12486,0.0447 0.47316,0.20511 0.90176,0.41806 0.42857,0.21295 0.95025,0.48205 1.47587,0.75965 1.05124,0.55521 2.13339,1.1566 2.47737,1.38751 2.63673,1.77007 4.89434,5.1017 5.75622,8.51886 v 5.3e-4 c 0.12438,0.49335 0.53885,2.89176 0.90901,5.19503 0.18507,1.15175 0.36189,2.28864 0.49196,3.17552 0.065,0.44344 0.11809,0.82475 0.15502,1.11259 0.0369,0.28785 0.0563,0.50283 0.0563,0.53434 0,0.15303 -0.0949,0.45512 -0.14417,0.52555 -0.0877,0.12518 -0.15759,0.20523 -0.21447,0.24907 -0.0569,0.0438 -0.099,0.0619 -0.18759,0.0698 -0.17719,0.0158 -0.54218,-0.0603 -1.18647,-0.25167 -1.81139,-0.53812 -3.48951,-0.76584 -5.62655,-0.76584 -4.03971,0 -7.51382,1.061 -11.01894,3.36259 -0.76013,0.49911 -1.00788,0.61419 -1.10951,0.61391 z m 0.86352,-6.13451 c 0.42672,-0.0269 0.78507,-0.32673 1.21542,-0.81752 0.362,-0.41286 0.64812,-0.63458 0.88884,-0.71676 0.24072,-0.0822 0.46029,-0.0559 0.78962,0.10232 0.61103,0.29363 0.92541,0.44855 1.20147,0.51108 0.27607,0.0625 0.5048,-0.0163 0.73174,-0.1235 0.4704,-0.22221 0.77271,-0.59557 0.801,-1.02475 0.0282,-0.42918 -0.20434,-0.8569 -0.62273,-1.22008 -0.99107,-0.86027 -2.60019,-1.16003 -3.8907,-0.73742 -0.59928,0.19626 -1.20771,0.65991 -1.68621,1.17977 -0.4785,0.51986 -0.84823,1.07412 -0.82373,1.61128 0.008,0.16461 0.0725,0.29871 0.15608,0.43718 0.0835,0.13847 0.19185,0.27373 0.31885,0.38964 0.28726,0.26219 0.58788,0.42963 0.91982,0.40876 z m 10.47636,-2.15956 c 0.24141,0.0107 0.47993,-0.0641 0.69557,-0.20981 0.21561,-0.14567 0.41806,-0.35595 0.64748,-0.6382 0.23485,-0.28889 0.37005,-0.43222 0.48112,-0.50384 0.11107,-0.0716 0.22657,-0.10086 0.493,-0.13798 0.51369,-0.0715 0.5271,-0.0675 1.01132,0.23151 0.38319,0.23659 0.74266,0.37017 1.08931,0.37104 0.34671,7.9e-4 0.6694,-0.14868 0.91004,-0.41238 0.45625,-0.49983 0.44238,-1.28382 -0.0103,-1.80816 -0.11782,-0.13651 -0.284,-0.24811 -0.49453,-0.37672 -0.21053,-0.12861 -0.45771,-0.25888 -0.70022,-0.36484 -1.17671,-0.51412 -2.38885,-0.48033 -3.48557,0.10284 -0.80103,0.42592 -1.54255,1.2082 -1.81851,1.9637 -0.24897,0.68155 0.0464,1.41702 0.69972,1.67122 0.1619,0.063 0.32038,0.10449 0.48162,0.11162 z m -4.85862,-4.97386 c 3.39344,0.0598 6.25467,-3.10897 5.60636,-6.59753 -0.0904,-0.4867 -0.15708,-0.79066 -0.26715,-1.03507 -0.11006,-0.24442 -0.27665,-0.41224 -0.48112,-0.55811 -0.28292,-0.20181 -0.60351,-0.3018 -0.93069,-0.23409 -0.32716,0.0677 -0.63786,0.26853 -1.01595,0.58342 -0.79423,0.66146 -1.84047,1.2198 -2.65771,1.42989 -0.88093,0.22647 -2.6986,0.17962 -3.41583,-0.0698 -0.73356,-0.255 -1.32019,-0.31513 -1.75802,-0.0584 -0.21892,0.12836 -0.37788,0.33908 -0.46406,0.59066 -0.0862,0.25157 -0.10945,0.54416 -0.0858,0.88212 0.16848,2.40461 1.95987,4.40544 4.40436,4.9413 0.3584,0.0786 0.71466,0.11937 1.06558,0.12557 z m -0.15502,-2.71456 c -0.39862,0.0107 -0.53271,-0.0357 -0.97721,-0.24391 -0.32025,-0.15001 -0.71266,-0.43976 -0.85318,-0.58446 l 0.90072,-0.0372 c 1.58531,-0.0661 2.58522,-0.31037 3.78529,-0.92914 l 0.0961,-0.0496 c -0.17206,0.44262 -0.59053,1.04068 -1.07022,1.37304 -0.46212,0.32017 -0.61349,0.36712 -1.38131,0.43718 -0.20518,0.0187 -0.36724,0.0306 -0.50022,0.0341 z"
       style="fill:#000000;stroke:none;stroke-width:0.51784396;stroke-miterlimit:4;stroke-dasharray:none;stroke-opacity:1"
       inkscape:connector-curvature="0" />
    <path
       inkscape:tile-y0="36.229221"
       inkscape:tile-x0="16.285985"
       id="use9044"
       d="m -54.172936,188.09592 -0.26458,-0.006 v 0 c -0.10608,-0.002 -0.21135,-0.0117 -0.31573,-0.0269 -1.19097,-0.17233 -2.28156,-1.03736 -2.77244,-2.18385 -0.0565,-0.13196 -0.1,-0.3102 -0.15917,-0.58084 -0.0592,-0.27064 -0.12703,-0.62329 -0.2031,-1.05472 -0.15213,-0.86284 -0.33737,-2.03961 -0.54723,-3.48609 -0.17947,-1.23655 -0.35542,-2.37812 -0.49456,-3.21944 -0.0696,-0.42066 -0.13034,-0.76653 -0.17672,-1.00976 -0.023,-0.12093 -0.0425,-0.21646 -0.0574,-0.2806 -0.003,-8e-4 -0.003,-0.002 -0.005,-0.003 -0.0635,-0.0153 -0.16669,-0.0314 -0.29403,-0.0434 -0.25469,-0.024 -0.60897,-0.0345 -1.00769,-0.031 -0.79743,0.007 -1.77806,0.0713 -2.55747,0.18706 -0.69077,0.10258 -1.75625,0.33515 -2.32285,0.50592 -0.60172,0.18137 -1.30488,0.35114 -1.65468,0.38653 -1.73487,0.17552 -3.28234,-1.19787 -3.57394,-3.10161 -0.0132,-0.0866 -0.007,-0.14297 0,-0.2403 0.006,-0.0973 0.0167,-0.21995 0.0315,-0.36639 0.0298,-0.29287 0.0766,-0.68099 0.13592,-1.13739 0.11864,-0.91278 0.28723,-2.09622 0.47024,-3.31091 0.36608,-2.42936 0.781,-4.95577 0.98031,-5.74694 0.84172,-3.34132 2.43348,-6.22346 4.68241,-8.46356 1.45767,-1.45193 2.49701,-2.16578 5.12577,-3.5264 1.87738,-0.97167 2.79575,-1.35984 3.64734,-1.52291 0.30723,-0.0588 0.74329,-0.0477 1.21438,-0.004 0.47109,0.044 0.96086,0.12452 1.3317,0.23616 1.09511,0.32969 2.08934,1.11207 4.0499,3.12281 1.83121,1.87814 2.57551,2.84457 3.49332,4.53771 l 0.43461,0.80098 1.70479,0.86972 c 2.28655,1.16618 3.6237,2.12163 5.06118,3.62303 1.86746,1.95046 3.19548,4.18338 4.02508,6.766 0.53536,1.66665 0.67268,2.39116 1.4454,7.67033 l 0.64595,4.41317 -0.22738,0.83922 c -0.15944,0.58918 -0.39246,1.03078 -0.77513,1.46555 -0.50945,0.57873 -1.0655,0.94265 -1.74408,1.0604 -0.6786,0.11774 -1.45589,-1.3e-4 -2.44895,-0.30334 -1.95715,-0.59756 -2.62568,-0.68476 -5.21158,-0.68007 -2.17996,0.004 -2.47055,0.0287 -3.64318,0.32298 -2.19112,0.54981 -4.06212,1.37362 -5.82343,2.56212 -0.87056,0.58744 -1.54165,0.85039 -2.19779,0.90175 z m -0.36846,-2.71921 v -5.3e-4 c 0.21918,0.006 0.6245,-0.15244 1.19578,-0.53796 3.62813,-2.44821 8.33107,-3.68441 12.53001,-3.28868 1.67931,0.15826 2.7903,0.3737 4.39404,0.85369 0.27096,0.0811 0.54594,0.14655 0.76327,0.18552 0.10864,0.0195 0.20336,0.0326 0.27128,0.0377 0.0428,0.003 0.0771,-7.9e-4 0.0879,-0.001 0.0475,-0.0223 0.17232,-0.13034 0.26302,-0.30231 0.0959,-0.18172 0.16071,-0.41624 0.16071,-0.60823 0,-0.0681 -0.0204,-0.30371 -0.0584,-0.62115 -0.038,-0.31743 -0.0927,-0.72937 -0.15967,-1.20406 -0.13386,-0.94938 -0.31554,-2.14955 -0.50641,-3.35535 -0.19093,-1.20581 -0.39095,-2.41751 -0.56121,-3.38946 -0.17031,-0.97194 -0.31777,-1.72547 -0.37828,-1.93528 -1.10969,-3.84615 -3.56764,-7.02178 -6.85231,-8.86665 -0.16055,-0.0902 -0.30901,-0.16653 -0.43976,-0.23099 0.0159,0.1306 0.0312,0.2637 0.0713,0.45785 0.1302,0.6309 0.19394,1.71978 0.20203,3.22616 0.0119,2.2114 -0.0132,2.46602 -0.70588,6.82594 -0.19685,1.2394 -0.39656,2.43037 -0.56017,3.35277 -0.0818,0.46119 -0.15492,0.85544 -0.21395,1.15548 -0.059,0.30004 -0.0978,0.49007 -0.13591,0.60824 -0.25993,0.80575 -1.04908,1.72997 -1.80507,2.11563 -0.71575,0.3652 -1.6515,0.47472 -2.34714,0.2465 -0.17762,-0.0583 -0.41032,-0.1792 -0.69454,-0.33952 -0.28413,-0.16032 -0.60579,-0.35742 -0.90175,-0.55604 -0.5648,-0.37913 -1.54162,-0.94956 -2.1368,-1.2485 -0.58634,-0.29447 -1.44783,-0.6445 -2.1699,-0.9002 -0.36102,-0.12784 -0.68845,-0.23294 -0.92551,-0.29559 -0.0499,-0.0132 -0.0743,-0.0156 -0.11526,-0.0248 0.003,0.0275 0.003,0.0404 0.006,0.0718 0.0214,0.22383 0.0584,0.54387 0.10697,0.92655 0.0972,0.76539 0.23945,1.7829 0.39172,2.81224 0.15226,1.02933 0.31435,2.07098 0.45061,2.88354 0.0681,0.40628 0.12994,0.75559 0.18034,1.01596 0.0504,0.26037 0.1071,0.46549 0.10181,0.45269 0.0769,0.18622 0.15986,0.30887 0.2372,0.37827 0.0773,0.0694 0.14467,0.0967 0.25424,0.0997 z m 6.12521,-7.845 v 0 c 0.0338,-1.2e-4 0.0714,-0.008 0.1416,-0.032 0.11743,-0.0409 0.36817,-0.23714 0.43355,-0.33693 -0.014,0.0215 0.0101,-0.02 0.0295,-0.0827 0.0198,-0.0627 0.0442,-0.15292 0.0718,-0.26666 0.0552,-0.22746 0.12314,-0.54987 0.20207,-0.96221 0.15787,-0.8247 0.3607,-2.01009 0.60565,-3.5419 0.64135,-4.01078 0.73954,-4.84682 0.74568,-6.3283 0.0135,-3.31755 -0.79529,-6.015 -2.56831,-8.5788 -0.39174,-0.56647 -1.42134,-1.68672 -2.42673,-2.68046 -0.50269,-0.49688 -1.0019,-0.96626 -1.41645,-1.3286 -0.41452,-0.36235 -0.77483,-0.62568 -0.8754,-0.67128 -0.51088,-0.23174 -1.68952,-0.28134 -2.20813,-0.0956 -0.12486,0.0447 -0.47316,0.20511 -0.90176,0.41806 -0.42857,0.21295 -0.95025,0.48205 -1.47587,0.75965 -1.05124,0.55521 -2.13339,1.1566 -2.47737,1.38751 -2.63673,1.77007 -4.89434,5.1017 -5.75622,8.51886 v 5.3e-4 c -0.12438,0.49335 -0.53885,2.89176 -0.90901,5.19503 -0.18507,1.15175 -0.36189,2.28864 -0.49196,3.17552 -0.065,0.44344 -0.11809,0.82475 -0.15502,1.11259 -0.0369,0.28785 -0.0563,0.50283 -0.0563,0.53434 0,0.15303 0.0949,0.45512 0.14417,0.52555 0.0877,0.12518 0.15759,0.20523 0.21447,0.24907 0.0569,0.0438 0.099,0.0619 0.18759,0.0698 0.17719,0.0158 0.54218,-0.0603 1.18647,-0.25167 1.81139,-0.53812 3.48951,-0.76584 5.62655,-0.76584 4.03971,0 7.51382,1.061 11.01894,3.36259 0.76013,0.49911 1.00788,0.61419 1.10951,0.61391 z m -0.86352,-6.13451 c -0.42672,-0.0269 -0.78507,-0.32673 -1.21542,-0.81752 -0.362,-0.41286 -0.64812,-0.63458 -0.88884,-0.71676 -0.24072,-0.0822 -0.46029,-0.0559 -0.78962,0.10232 -0.61103,0.29363 -0.92541,0.44855 -1.20147,0.51108 -0.27607,0.0625 -0.5048,-0.0163 -0.73174,-0.1235 -0.4704,-0.22221 -0.77271,-0.59557 -0.801,-1.02475 -0.0282,-0.42918 0.20434,-0.8569 0.62273,-1.22008 0.99107,-0.86027 2.60019,-1.16003 3.8907,-0.73742 0.59928,0.19626 1.20771,0.65991 1.68621,1.17977 0.4785,0.51986 0.84823,1.07412 0.82373,1.61128 -0.008,0.16461 -0.0725,0.29871 -0.15608,0.43718 -0.0835,0.13847 -0.19185,0.27373 -0.31885,0.38964 -0.28726,0.26219 -0.58788,0.42963 -0.91982,0.40876 z m -10.47636,-2.15956 c -0.24141,0.0107 -0.47993,-0.0641 -0.69557,-0.20981 -0.21561,-0.14567 -0.41806,-0.35595 -0.64748,-0.6382 -0.23485,-0.28889 -0.37005,-0.43222 -0.48112,-0.50384 -0.11107,-0.0716 -0.22657,-0.10086 -0.493,-0.13798 -0.51369,-0.0715 -0.5271,-0.0675 -1.01132,0.23151 -0.38319,0.23659 -0.74266,0.37017 -1.08931,0.37104 -0.34671,7.9e-4 -0.6694,-0.14868 -0.91004,-0.41238 -0.45625,-0.49983 -0.44238,-1.28382 0.0103,-1.80816 0.11782,-0.13651 0.284,-0.24811 0.49453,-0.37672 0.21053,-0.12861 0.45771,-0.25888 0.70022,-0.36484 1.17671,-0.51412 2.38885,-0.48033 3.48557,0.10284 0.80103,0.42592 1.54255,1.2082 1.81851,1.9637 0.24897,0.68155 -0.0464,1.41702 -0.69972,1.67122 -0.1619,0.063 -0.32038,0.10449 -0.48162,0.11162 z m 4.85862,-4.97386 c -3.39344,0.0598 -6.25467,-3.10897 -5.60636,-6.59753 0.0904,-0.4867 0.15708,-0.79066 0.26715,-1.03507 0.11006,-0.24442 0.27665,-0.41224 0.48112,-0.55811 0.28292,-0.20181 0.60351,-0.3018 0.93069,-0.23409 0.32716,0.0677 0.63786,0.26853 1.01595,0.58342 0.79423,0.66146 1.84047,1.2198 2.65771,1.42989 0.88093,0.22647 2.6986,0.17962 3.41583,-0.0698 0.73356,-0.255 1.32019,-0.31513 1.75802,-0.0584 0.21892,0.12836 0.37788,0.33908 0.46406,0.59066 0.0862,0.25157 0.10945,0.54416 0.0858,0.88212 -0.16848,2.40461 -1.95987,4.40544 -4.40436,4.9413 -0.3584,0.0786 -0.71466,0.11937 -1.06558,0.12557 z m 0.15502,-2.71456 c 0.39862,0.0107 0.53271,-0.0357 0.97721,-0.24391 0.32025,-0.15001 0.71266,-0.43976 0.85318,-0.58446 l -0.90072,-0.0372 c -1.58531,-0.0661 -2.58522,-0.31037 -3.78529,-0.92914 l -0.0961,-0.0496 c 0.17206,0.44262 0.59053,1.04068 1.07022,1.37304 0.46212,0.32017 0.61349,0.36712 1.38131,0.43718 0.20518,0.0187 0.36724,0.0306 0.50022,0.0341 z"
       style="fill:#000000;stroke:none;stroke-width:0.51784396;stroke-miterlimit:4;stroke-dasharray:none;stroke-opacity:1"
       inkscape:connector-curvature="0" />
    <path
       inkscape:tile-y0="36.229221"
       inkscape:tile-x0="16.285985"
       id="use9046"
       d="m -47.09627,221.27632 0.26458,0.006 v 0 c 0.10608,0.002 0.21135,0.0117 0.31573,0.0269 1.19097,0.17233 2.28156,1.03736 2.77244,2.18385 0.0565,0.13196 0.1,0.3102 0.15917,0.58084 0.0592,0.27064 0.12703,0.62329 0.2031,1.05472 0.15213,0.86284 0.33737,2.03961 0.54723,3.48609 0.17947,1.23655 0.35542,2.37812 0.49456,3.21944 0.0696,0.42066 0.13034,0.76653 0.17672,1.00976 0.023,0.12093 0.0425,0.21646 0.0574,0.2806 0.003,8e-4 0.003,0.002 0.005,0.003 0.0635,0.0153 0.16669,0.0314 0.29403,0.0434 0.25469,0.024 0.60897,0.0345 1.00769,0.031 0.79743,-0.007 1.77806,-0.0713 2.55747,-0.18706 0.69077,-0.10258 1.75625,-0.33515 2.32285,-0.50592 0.60172,-0.18137 1.30488,-0.35114 1.65468,-0.38653 1.73487,-0.17552 3.28234,1.19787 3.57394,3.10161 0.0132,0.0866 0.007,0.14297 0,0.2403 -0.006,0.0973 -0.0167,0.21995 -0.0315,0.36639 -0.0298,0.29287 -0.0766,0.68099 -0.13592,1.13739 -0.11864,0.91278 -0.28723,2.09622 -0.47024,3.31091 -0.36608,2.42936 -0.781,4.95577 -0.98031,5.74694 -0.84172,3.34132 -2.43348,6.22346 -4.68241,8.46356 -1.45767,1.45193 -2.49701,2.16578 -5.12577,3.5264 -1.87738,0.97167 -2.79575,1.35984 -3.64734,1.52291 -0.30723,0.0588 -0.74329,0.0477 -1.21438,0.004 -0.47109,-0.044 -0.96086,-0.12452 -1.3317,-0.23616 -1.09511,-0.32969 -2.08934,-1.11207 -4.0499,-3.12281 -1.83121,-1.87814 -2.57551,-2.84457 -3.49332,-4.53771 l -0.43461,-0.80098 -1.70479,-0.86972 c -2.28655,-1.16618 -3.6237,-2.12163 -5.06118,-3.62303 -1.86746,-1.95046 -3.19548,-4.18338 -4.02508,-6.766 -0.53536,-1.66665 -0.67268,-2.39116 -1.4454,-7.67033 l -0.64595,-4.41317 0.22738,-0.83922 c 0.15944,-0.58918 0.39246,-1.03078 0.77513,-1.46555 0.50945,-0.57873 1.0655,-0.94265 1.74408,-1.0604 0.6786,-0.11774 1.45589,1.3e-4 2.44895,0.30334 1.95715,0.59756 2.62568,0.68476 5.21158,0.68007 2.17996,-0.004 2.47055,-0.0287 3.64318,-0.32298 2.19112,-0.54981 4.06212,-1.37362 5.82343,-2.56212 0.87056,-0.58744 1.54165,-0.85039 2.19779,-0.90175 z m 0.36846,2.71921 v 5.3e-4 c -0.21918,-0.006 -0.6245,0.15244 -1.19578,0.53796 -3.62813,2.44821 -8.33107,3.68441 -12.53001,3.28868 -1.67931,-0.15826 -2.7903,-0.3737 -4.39404,-0.85369 -0.27096,-0.0811 -0.54594,-0.14655 -0.76327,-0.18552 -0.10864,-0.0195 -0.20336,-0.0326 -0.27128,-0.0377 -0.0428,-0.003 -0.0771,7.9e-4 -0.0879,0.001 -0.0475,0.0223 -0.17232,0.13034 -0.26302,0.30231 -0.0959,0.18172 -0.16071,0.41624 -0.16071,0.60823 0,0.0681 0.0204,0.30371 0.0584,0.62115 0.038,0.31743 0.0927,0.72937 0.15967,1.20406 0.13386,0.94938 0.31554,2.14955 0.50641,3.35535 0.19093,1.20581 0.39095,2.41751 0.56121,3.38946 0.17031,0.97194 0.31777,1.72547 0.37828,1.93528 1.10969,3.84615 3.56764,7.02178 6.85231,8.86665 0.16055,0.0902 0.30901,0.16653 0.43976,0.23099 -0.0159,-0.1306 -0.0312,-0.2637 -0.0713,-0.45785 -0.1302,-0.6309 -0.19394,-1.71978 -0.20203,-3.22616 -0.0119,-2.2114 0.0132,-2.46602 0.70588,-6.82594 0.19685,-1.2394 0.39656,-2.43037 0.56017,-3.35277 0.0818,-0.46119 0.15492,-0.85544 0.21395,-1.15548 0.059,-0.30004 0.0978,-0.49007 0.13591,-0.60824 0.25993,-0.80575 1.04908,-1.72997 1.80507,-2.11563 0.71575,-0.3652 1.6515,-0.47472 2.34714,-0.2465 0.17762,0.0583 0.41032,0.1792 0.69454,0.33952 0.28413,0.16032 0.60579,0.35742 0.90175,0.55604 0.5648,0.37913 1.54162,0.94956 2.1368,1.2485 0.58634,0.29447 1.44783,0.6445 2.1699,0.9002 0.36102,0.12784 0.68845,0.23294 0.92551,0.29559 0.0499,0.0132 0.0743,0.0156 0.11526,0.0248 -0.003,-0.0275 -0.003,-0.0404 -0.006,-0.0718 -0.0214,-0.22383 -0.0584,-0.54387 -0.10697,-0.92655 -0.0972,-0.76539 -0.23945,-1.7829 -0.39172,-2.81224 -0.15226,-1.02933 -0.31435,-2.07098 -0.45061,-2.88354 -0.0681,-0.40628 -0.12994,-0.75559 -0.18034,-1.01596 -0.0504,-0.26037 -0.1071,-0.46549 -0.10181,-0.45269 -0.0769,-0.18622 -0.15986,-0.30887 -0.2372,-0.37827 -0.0773,-0.0694 -0.14467,-0.0967 -0.25424,-0.0997 z m -6.12521,7.845 v 0 c -0.0338,1.2e-4 -0.0714,0.008 -0.1416,0.032 -0.11743,0.0409 -0.36817,0.23714 -0.43355,0.33693 0.014,-0.0215 -0.0101,0.02 -0.0295,0.0827 -0.0198,0.0627 -0.0442,0.15292 -0.0718,0.26666 -0.0552,0.22746 -0.12314,0.54987 -0.20207,0.96221 -0.15787,0.8247 -0.3607,2.01009 -0.60565,3.5419 -0.64135,4.01078 -0.73954,4.84682 -0.74568,6.3283 -0.0135,3.31755 0.79529,6.015 2.56831,8.5788 0.39174,0.56647 1.42134,1.68672 2.42673,2.68046 0.50269,0.49688 1.0019,0.96626 1.41645,1.3286 0.41452,0.36235 0.77483,0.62568 0.8754,0.67128 0.51088,0.23174 1.68952,0.28134 2.20813,0.0956 0.12486,-0.0447 0.47316,-0.20511 0.90176,-0.41806 0.42857,-0.21295 0.95025,-0.48205 1.47587,-0.75965 1.05124,-0.55521 2.13339,-1.1566 2.47737,-1.38751 2.63673,-1.77007 4.89434,-5.1017 5.75622,-8.51886 v -5.3e-4 c 0.12438,-0.49335 0.53885,-2.89176 0.90901,-5.19503 0.18507,-1.15175 0.36189,-2.28864 0.49196,-3.17552 0.065,-0.44344 0.11809,-0.82475 0.15502,-1.11259 0.0369,-0.28785 0.0563,-0.50283 0.0563,-0.53434 0,-0.15303 -0.0949,-0.45512 -0.14417,-0.52555 -0.0877,-0.12518 -0.15759,-0.20523 -0.21447,-0.24907 -0.0569,-0.0438 -0.099,-0.0619 -0.18759,-0.0698 -0.17719,-0.0158 -0.54218,0.0603 -1.18647,0.25167 -1.81139,0.53812 -3.48951,0.76584 -5.62655,0.76584 -4.03971,0 -7.51382,-1.061 -11.01894,-3.36259 -0.76013,-0.49911 -1.00788,-0.61419 -1.10951,-0.61391 z m 0.86352,6.13451 c 0.42672,0.0269 0.78507,0.32673 1.21542,0.81752 0.362,0.41286 0.64812,0.63458 0.88884,0.71676 0.24072,0.0822 0.46029,0.0559 0.78962,-0.10232 0.61103,-0.29363 0.92541,-0.44855 1.20147,-0.51108 0.27607,-0.0625 0.5048,0.0163 0.73174,0.1235 0.4704,0.22221 0.77271,0.59557 0.801,1.02475 0.0282,0.42918 -0.20434,0.8569 -0.62273,1.22008 -0.99107,0.86027 -2.60019,1.16003 -3.8907,0.73742 -0.59928,-0.19626 -1.20771,-0.65991 -1.68621,-1.17977 -0.4785,-0.51986 -0.84823,-1.07412 -0.82373,-1.61128 0.008,-0.16461 0.0725,-0.29871 0.15608,-0.43718 0.0835,-0.13847 0.19185,-0.27373 0.31885,-0.38964 0.28726,-0.26219 0.58788,-0.42963 0.91982,-0.40876 z m 10.47636,2.15956 c 0.24141,-0.0107 0.47993,0.0641 0.69557,0.20981 0.21561,0.14567 0.41806,0.35595 0.64748,0.6382 0.23485,0.28889 0.37005,0.43222 0.48112,0.50384 0.11107,0.0716 0.22657,0.10086 0.493,0.13798 0.51369,0.0715 0.5271,0.0675 1.01132,-0.23151 0.38319,-0.23659 0.74266,-0.37017 1.08931,-0.37104 0.34671,-7.9e-4 0.6694,0.14868 0.91004,0.41238 0.45625,0.49983 0.44238,1.28382 -0.0103,1.80816 -0.11782,0.13651 -0.284,0.24811 -0.49453,0.37672 -0.21053,0.12861 -0.45771,0.25888 -0.70022,0.36484 -1.17671,0.51412 -2.38885,0.48033 -3.48557,-0.10284 -0.80103,-0.42592 -1.54255,-1.2082 -1.81851,-1.9637 -0.24897,-0.68155 0.0464,-1.41702 0.69972,-1.67122 0.1619,-0.063 0.32038,-0.10449 0.48162,-0.11162 z m -4.85862,4.97386 c 3.39344,-0.0598 6.25467,3.10897 5.60636,6.59753 -0.0904,0.4867 -0.15708,0.79066 -0.26715,1.03507 -0.11006,0.24442 -0.27665,0.41224 -0.48112,0.55811 -0.28292,0.20181 -0.60351,0.3018 -0.93069,0.23409 -0.32716,-0.0677 -0.63786,-0.26853 -1.01595,-0.58342 -0.79423,-0.66146 -1.84047,-1.2198 -2.65771,-1.42989 -0.88093,-0.22647 -2.6986,-0.17962 -3.41583,0.0698 -0.73356,0.255 -1.32019,0.31513 -1.75802,0.0584 -0.21892,-0.12836 -0.37788,-0.33908 -0.46406,-0.59066 -0.0862,-0.25157 -0.10945,-0.54416 -0.0858,-0.88212 0.16848,-2.40461 1.95987,-4.40544 4.40436,-4.9413 0.3584,-0.0786 0.71466,-0.11937 1.06558,-0.12557 z m -0.15502,2.71456 c -0.39862,-0.0107 -0.53271,0.0357 -0.97721,0.24391 -0.32025,0.15001 -0.71266,0.43976 -0.85318,0.58446 l 0.90072,0.0372 c 1.58531,0.0661 2.58522,0.31037 3.78529,0.92914 l 0.0961,0.0496 c -0.17206,-0.44262 -0.59053,-1.04068 -1.07022,-1.37304 -0.46212,-0.32017 -0.61349,-0.36712 -1.38131,-0.43718 -0.20518,-0.0187 -0.36724,-0.0306 -0.50022,-0.0341 z"
       style="fill:#000000;stroke:none;stroke-width:0.51784396;stroke-miterlimit:4;stroke-dasharray:none;stroke-opacity:1"
       inkscape:connector-curvature="0" />
  </g>
</svg>
