<?xml version="1.0" encoding="UTF-8" standalone="no"?>
<!-- Created with Inkscape (http://www.inkscape.org/) -->

<svg
   xmlns:dc="http://purl.org/dc/elements/1.1/"
   xmlns:cc="http://creativecommons.org/ns#"
   xmlns:rdf="http://www.w3.org/1999/02/22-rdf-syntax-ns#"
   xmlns:svg="http://www.w3.org/2000/svg"
   xmlns="http://www.w3.org/2000/svg"
   xmlns:sodipodi="http://sodipodi.sourceforge.net/DTD/sodipodi-0.dtd"
   xmlns:inkscape="http://www.inkscape.org/namespaces/inkscape"
   width="141.5829mm"
   height="109.14133mm"
   viewBox="0 0 141.5829 109.14133"
   version="1.1"
   id="svg8430"
   inkscape:version="0.92.5 (2060ec1f9f, 2020-04-08)"
   sodipodi:docname="family-pattern.svg">
  <defs
     id="defs8424" />
  <sodipodi:namedview
     id="base"
     pagecolor="#ffffff"
     bordercolor="#666666"
     borderopacity="1.0"
     inkscape:pageopacity="0.0"
     inkscape:pageshadow="2"
     inkscape:zoom="0.35"
     inkscape:cx="-182.47926"
     inkscape:cy="150.05679"
     inkscape:document-units="mm"
     inkscape:current-layer="layer1"
     showgrid="false"
     fit-margin-top="15"
     fit-margin-left="15"
     fit-margin-right="15"
     fit-margin-bottom="15"
     inkscape:window-width="1920"
     inkscape:window-height="1016"
     inkscape:window-x="0"
     inkscape:window-y="27"
     inkscape:window-maximized="1" />
  <metadata
     id="metadata8427">
    <rdf:RDF>
      <cc:Work
         rdf:about="">
        <dc:format>image/svg+xml</dc:format>
        <dc:type
           rdf:resource="http://purl.org/dc/dcmitype/StillImage" />
        <dc:title></dc:title>
      </cc:Work>
    </rdf:RDF>
  </metadata>
  <g
     inkscape:label="Calque 1"
     inkscape:groupmode="layer"
     id="layer1"
     transform="translate(101.17487,-15.957224)">
    <path
       inkscape:tile-y0="49.789077"
       inkscape:tile-x0="7.970984"
       sodipodi:nodetypes="sccsccccccccccccccccsccccccccsccccccscscccccsccscccccccccccccccccccsccccccccccccccccccccscccccccccccccscscccccccccsccscscsccccccccccccccccccccccccccccccsccsccccsccs"
       inkscape:connector-curvature="0"
       id="use9473"
       d="m -57.789033,30.957506 c -2.26867,-0.0218 -4.54046,1.222295 -5.63427,3.531568 -0.18923,0.399468 -0.30888,0.673508 -0.36899,1.025777 -0.0601,0.35226 -0.0625,0.745056 -0.0625,1.449006 0,1.460375 0.0454,1.657738 0.50797,2.593641 0.32113,0.64961 0.73954,1.241031 1.20873,1.69912 l 0.22479,0.22066 -0.0899,0.03721 c -0.41527,0.172114 -1.0604,0.53403 -1.52551,0.845944 -0.33391,0.223946 -0.48326,0.304215 -0.53486,0.331761 -0.1188,-0.114326 -0.2346,-0.19359 -0.39687,-0.288869 -0.1877,-0.110228 -0.40987,-0.225854 -0.63252,-0.326081 -1.17263,-0.527899 -2.50515,-0.527896 -3.67781,0 -0.22262,0.100227 -0.44326,0.215853 -0.63095,0.326081 -0.16227,0.09528 -0.27755,0.174532 -0.39637,0.288869 -0.0509,-0.02713 -0.20212,-0.107225 -0.53692,-0.331761 -0.46509,-0.311917 -1.10816,-0.67383 -1.52342,-0.845944 l -0.092,-0.03721 0.22479,-0.22066 c 0.46918,-0.458092 0.8876,-1.049512 1.20869,-1.69912 0.46268,-0.935905 0.50798,-1.133268 0.50798,-2.593641 0,-0.70395 -0.003,-1.096746 -0.0625,-1.449006 -0.0601,-0.352269 -0.17976,-0.626309 -0.36896,-1.025777 -1.0309,-2.176431 -3.0339,-3.363672 -5.10771,-3.503663 -2.0738,-0.13998 -4.21777,0.768451 -5.52936,2.78691 -0.69289,1.066289 -0.96753,2.206426 -0.88678,3.623034 0.0852,1.494509 0.58661,2.609776 1.67224,3.74034 l 0.31833,0.331764 c -1.40026,0.541184 -3.04441,1.833986 -4.07054,3.176032 -0.91898,1.201875 -1.5739,2.669842 -1.8986,4.070554 -0.32469,1.400712 -0.33837,2.73786 0.15037,3.718636 0.82274,1.651016 2.83239,2.970911 5.60379,3.974434 2.67698,0.969322 6.11196,1.608853 9.93738,1.847949 v 0.02326 l 0.38293,0.02119 c 2.56625,0.138883 3.15399,0.139793 5.5857,0.0062 4.17296,-0.229333 7.79526,-0.886349 10.59005,-1.88102 2.7948,-0.994672 4.78624,-2.317158 5.62086,-3.992005 0.48872,-0.980776 0.47713,-2.317924 0.15243,-3.718636 -0.3247,-1.400712 -0.97962,-2.868679 -1.8986,-4.070554 -1.02594,-1.341784 -2.672,-2.632594 -4.07209,-3.173965 l 0.32041,-0.333831 c 1.09857,-1.144076 1.59197,-2.256432 1.67172,-3.781165 0.0969,-1.851969 -0.37479,-3.168121 -1.61695,-4.509802 -1.17089,-1.264687 -2.72193,-1.87231 -4.27416,-1.887222 z m -0.0408,2.35903 c 1.32533,0.02167 2.59607,0.795589 3.25819,2.078942 0.14734,0.285589 0.26672,0.82653 0.29302,1.375109 0.0262,0.548571 -0.0358,1.116713 -0.16227,1.470712 -0.24741,0.693055 -1.13588,1.669354 -1.87483,2.030884 -0.45416,0.222197 -0.78047,0.301527 -1.3906,0.330213 -1.30635,0.06153 -2.00771,-0.231185 -2.91198,-1.2206 -0.70964,-0.776472 -0.90164,-1.30013 -0.90072,-2.476848 0.003,-1.74371 1.02222,-3.032678 2.76987,-3.480409 0.30483,-0.07809 0.61346,-0.113006 0.91932,-0.108003 z m -18.07384,0.0067 c 1.32432,0.01741 2.61948,0.72263 3.28353,2.154391 0.31128,0.671169 0.37044,2.012508 0.10128,2.802411 -0.10411,0.305573 -0.40833,0.764175 -0.78134,1.158587 -0.37304,0.394411 -0.8218,0.734578 -1.15033,0.876948 -0.65971,0.285895 -2.01485,0.364911 -2.57606,0.181385 -1.02828,-0.336264 -2.06055,-1.319369 -2.39676,-2.257742 -0.12615,-0.352126 -0.18806,-0.920295 -0.16174,-1.468647 0.0262,-0.548359 0.14568,-1.089559 0.293,-1.375108 0.73086,-1.41659 2.06412,-2.089605 3.38842,-2.072225 z m 17.70591,9.746173 c 0.20879,-0.0075 0.41767,-0.0071 0.62632,0.0016 1.66915,0.06929 3.31418,0.655669 4.64053,1.744597 1.6632,1.365472 2.67116,3.312265 2.78691,5.362982 0.0354,0.62656 0.0183,0.968211 -0.0661,1.207161 -0.0843,0.238948 -0.24974,0.44535 -0.63095,0.808736 -1.06045,1.01086 -3.17812,1.983698 -6.01155,2.679423 -0.92469,0.227054 -2.02856,0.45626 -2.34764,0.496093 h -0.003 l -0.25218,0.03152 c -0.01,-0.766384 -0.33726,-1.874792 -0.78496,-2.800863 -0.54679,-1.131073 -1.97208,-2.613845 -3.06444,-3.166213 l -0.20722,-0.105421 0.0646,-0.0801 c 0.73036,-0.922147 1.0699,-1.852546 1.06453,-2.949173 -0.003,-0.542927 -0.0553,-1.12917 -0.19172,-1.511535 l -0.0605,-0.16795 0.28318,-0.195336 c 1.24048,-0.853472 2.69169,-1.30292 4.15325,-1.355474 z m -17.46975,0.0021 c 1.46251,0.0522 2.91465,0.500166 4.15478,1.353405 l 0.28475,0.196887 -0.0801,0.230478 c -0.15243,0.436558 -0.18892,0.958313 -0.15193,1.654678 0.0584,1.099325 0.35163,1.859336 1.05834,2.757456 l 0.0506,0.06459 -0.20672,0.10542 c -1.09234,0.552368 -2.51968,2.035141 -3.06647,3.166214 -0.44683,0.924269 -0.78087,2.042427 -0.78703,2.800863 -0.41021,-0.02326 -1.39748,-0.212916 -2.46497,-0.486275 -1.09878,-0.281363 -2.28285,-0.638093 -3.05099,-0.937927 -1.38533,-0.540745 -2.4444,-1.162243 -3.09541,-1.782837 -0.38121,-0.363386 -0.54668,-0.569788 -0.63098,-0.808736 -0.0843,-0.23895 -0.10202,-0.580601 -0.0666,-1.207161 0.11534,-2.043097 1.12276,-3.986594 2.79104,-5.362982 1.31852,-1.087806 2.96455,-1.673194 4.63487,-1.742528 0.20878,-0.0087 0.4179,-0.009 0.62682,-0.0016 z m 19.50218,0.872816 c -0.30774,0 -0.6046,0.111783 -0.81235,0.322458 -0.20776,0.21068 -0.31264,0.506087 -0.31264,0.814422 0,0.194196 0.11377,0.348895 0.19119,0.513665 v 0.02739 l 0.0103,-0.0041 c 0.0466,0.09265 0.18521,0.222461 0.27192,0.309207 l 0.52493,0.241663 v 0 c 0.0402,0.0031 0.0733,0.04328 0.11316,0.04289 0.28276,-0.0027 0.57335,-0.09147 0.8046,-0.300758 0.73946,-0.669205 0.20582,-1.966806 -0.79063,-1.966804 z m -10.81072,0.124539 c 0.1815,-0.0055 0.36417,0.01236 0.54314,0.05529 1.01523,0.243554 1.6619,1.066832 1.6619,2.115116 0,1.015823 -0.38039,1.613736 -1.29088,2.031402 -0.18338,0.08413 -0.65667,0.187069 -0.86918,0.187069 -0.79587,0 -1.7371,-0.61562 -2.02729,-1.302248 -0.0857,-0.202835 -0.14314,-0.580874 -0.13073,-0.951362 0.0124,-0.370488 0.0956,-0.742376 0.19328,-0.933794 0.36695,-0.719317 1.13329,-1.177666 1.91976,-1.201476 z m 13.01575,1.82831 c -0.23561,0.02654 -0.36925,0.141714 -0.53329,0.264068 -0.12486,0.09314 -0.23437,0.201313 -0.3261,0.314193 -0.0917,0.112879 -0.1738,0.205782 -0.21288,0.404627 -0.0428,0.217678 0.008,0.260813 0.0372,0.363283 0.0295,0.102473 0.07,0.217152 0.12091,0.345718 0.10168,0.257128 0.24262,0.568002 0.40463,0.884701 0.4178,0.816716 0.54671,1.202356 0.58962,1.694987 0.0421,0.483195 0.10218,0.848336 0.21704,1.150315 0.0698,0.183431 0.2246,0.284205 0.35348,0.414446 v 0.158129 l 0.22842,0.109556 c 0.0746,0.03606 0.14454,0.07005 0.19894,0.0956 0.0272,0.01278 0.0502,0.02463 0.0687,0.03307 0.0185,0.0085 0,0.0032 0.0625,0.02532 l 0.004,0.0021 0.006,0.0021 c 0.24304,0.08105 0.36166,-5.3e-4 0.47283,-0.05271 0.11118,-0.05228 0.21011,-0.119404 0.30644,-0.195337 0.1927,-0.151863 0.38259,-0.274799 0.46665,-0.609264 v -0.0021 c 0.0857,-0.341672 0.058,-0.750266 0.008,-1.232485 -0.0499,-0.482216 -0.13888,-0.994793 -0.26352,-1.398362 -0.1455,-0.471027 -0.42302,-1.02016 -0.72091,-1.505853 -0.14894,-0.242847 -0.30166,-0.467389 -0.45112,-0.654224 -0.14949,-0.186833 -0.27625,-0.336079 -0.47077,-0.447516 -0.156,-0.08937 -0.33078,-0.190352 -0.5664,-0.163815 z m -12.97077,4.998146 c 0.76914,0 1.53776,0.162462 2.21898,0.484725 0.69691,0.329697 1.80425,1.328007 2.1544,1.925463 0.35594,0.607375 0.71879,1.842095 0.71879,2.287201 0,0.108178 0,0.113599 0.003,0.130741 -0.19053,0.05407 -0.83759,0.108247 -2.12492,0.189651 -2.19242,0.138668 -4.00098,0.135009 -6.30248,-0.01394 -1.06987,-0.06924 -1.61187,-0.122611 -1.75803,-0.16795 -8e-5,-0.01892 -0.003,-0.03266 -0.003,-0.13849 0,-0.445104 0.36494,-1.679821 0.72089,-2.287202 0.35012,-0.597458 1.45539,-1.595768 2.15233,-1.925463 0.6812,-0.322262 1.45137,-0.484724 2.22054,-0.484724 z"
       style="fill:#000000;stroke:none;stroke-width:0.80747259;stroke-miterlimit:4;stroke-dasharray:none;stroke-opacity:1" />
    <path
       inkscape:tile-y0="49.789077"
       inkscape:tile-x0="7.970984"
       sodipodi:nodetypes="sccsccccccccccccccccsccccccccsccccccscscccccsccscccccccccccccccccccsccccccccccccccccccccscccccccccccccscscccccccccsccscscsccccccccccccccccccccccccccccccsccsccccsccs"
       inkscape:connector-curvature="0"
       id="use9475"
       d="m -74.342624,110.09828 c 2.26867,0.0218 4.54046,-1.22229 5.63427,-3.53156 0.18923,-0.39947 0.30888,-0.67351 0.36899,-1.02578 0.0601,-0.35226 0.0625,-0.74506 0.0625,-1.44901 0,-1.46037 -0.0454,-1.65774 -0.50797,-2.59364 -0.32113,-0.64961 -0.73954,-1.24103 -1.20873,-1.699118 l -0.22479,-0.22066 0.0899,-0.03721 c 0.41527,-0.172114 1.0604,-0.53403 1.52551,-0.845944 0.33391,-0.223946 0.48326,-0.304215 0.53486,-0.331761 0.1188,0.114326 0.2346,0.19359 0.39687,0.288869 0.1877,0.110228 0.40987,0.225854 0.63252,0.326081 1.17263,0.527899 2.50515,0.527896 3.67781,0 0.22262,-0.100227 0.44326,-0.215853 0.63095,-0.326081 0.16227,-0.09528 0.27755,-0.174532 0.39637,-0.288869 0.0509,0.02713 0.20212,0.107225 0.53692,0.331761 0.46509,0.311917 1.10816,0.67383 1.52342,0.845944 l 0.092,0.03721 -0.22479,0.22066 c -0.46918,0.458088 -0.8876,1.049508 -1.20869,1.699118 -0.46268,0.93591 -0.50798,1.13327 -0.50798,2.59364 0,0.70395 0.003,1.09675 0.0625,1.44901 0.0601,0.35227 0.17976,0.62631 0.36896,1.02578 1.0309,2.17643 3.0339,3.36367 5.10771,3.50366 2.0738,0.13998 4.21777,-0.76845 5.52936,-2.78691 0.69289,-1.06629 0.96753,-2.20643 0.88678,-3.62303 -0.0852,-1.49451 -0.58661,-2.60978 -1.67224,-3.740345 l -0.31833,-0.331764 c 1.40026,-0.541184 3.04441,-1.833986 4.07054,-3.176032 0.91898,-1.201875 1.5739,-2.669842 1.8986,-4.070554 0.32469,-1.400712 0.33837,-2.73786 -0.15037,-3.718636 -0.82274,-1.651016 -2.83239,-2.970911 -5.60379,-3.974434 -2.67698,-0.969322 -6.11196,-1.608853 -9.93738,-1.847949 v -0.02326 l -0.38293,-0.02119 c -2.56625,-0.138883 -3.15399,-0.139793 -5.5857,-0.0062 -4.17296,0.229333 -7.79526,0.886349 -10.59005,1.88102 -2.7948,0.994672 -4.78624,2.317158 -5.62086,3.992005 -0.48872,0.980776 -0.47713,2.317924 -0.15243,3.718636 0.3247,1.400712 0.97962,2.868679 1.8986,4.070554 1.02594,1.341784 2.672,2.632594 4.07209,3.173965 l -0.32041,0.333831 c -1.09857,1.144073 -1.59197,2.256433 -1.67172,3.781163 -0.0969,1.85197 0.37479,3.16812 1.61695,4.5098 1.17089,1.26469 2.72193,1.87231 4.27416,1.88723 z m 0.0408,-2.35903 c -1.32533,-0.0217 -2.59607,-0.79559 -3.25819,-2.07894 -0.14734,-0.28559 -0.26672,-0.82653 -0.29302,-1.37511 -0.0262,-0.54857 0.0358,-1.11671 0.16227,-1.47071 0.24741,-0.69305 1.13588,-1.66935 1.87483,-2.03088 0.45416,-0.2222 0.78047,-0.30153 1.3906,-0.33022 1.30635,-0.0615 2.00771,0.23119 2.91198,1.2206 0.70964,0.77648 0.90164,1.30013 0.90072,2.47685 -0.003,1.74371 -1.02222,3.03268 -2.76987,3.48041 -0.30483,0.0781 -0.61346,0.11301 -0.91932,0.108 z m 18.07384,-0.007 c -1.32432,-0.0174 -2.61948,-0.72263 -3.28353,-2.15439 -0.31128,-0.67117 -0.37044,-2.01251 -0.10128,-2.80241 0.10411,-0.30557 0.40833,-0.76417 0.78134,-1.15858 0.37304,-0.39442 0.8218,-0.73458 1.15033,-0.87695 0.65971,-0.2859 2.01485,-0.36491 2.57606,-0.18139 1.02828,0.33627 2.06055,1.31937 2.39676,2.25774 0.12615,0.35213 0.18806,0.9203 0.16174,1.46865 -0.0262,0.54836 -0.14568,1.08956 -0.293,1.37511 -0.73086,1.41659 -2.06412,2.0896 -3.38842,2.07222 z m -17.70591,-9.746169 c -0.20879,0.0075 -0.41767,0.0071 -0.62632,-0.0016 -1.66915,-0.06929 -3.31418,-0.655669 -4.64053,-1.744597 -1.6632,-1.365472 -2.67116,-3.312265 -2.78691,-5.362982 -0.0354,-0.62656 -0.0183,-0.968211 0.0661,-1.207161 0.0843,-0.238948 0.24974,-0.44535 0.63095,-0.808736 1.06045,-1.01086 3.17812,-1.983698 6.01155,-2.679423 0.92469,-0.227054 2.02856,-0.45626 2.34764,-0.496093 h 0.003 l 0.25218,-0.03152 c 0.01,0.766384 0.33726,1.874792 0.78496,2.800863 0.54679,1.131073 1.97208,2.613845 3.06444,3.166213 l 0.20722,0.105421 -0.0646,0.0801 c -0.73036,0.922147 -1.0699,1.852546 -1.06453,2.949173 0.003,0.542927 0.0553,1.12917 0.19172,1.511535 l 0.0605,0.16795 -0.28318,0.195336 c -1.24048,0.853472 -2.69169,1.30292 -4.15325,1.355474 z m 17.46975,-0.0021 c -1.46251,-0.0522 -2.91465,-0.500166 -4.15478,-1.353405 l -0.28475,-0.196887 0.0801,-0.230478 c 0.15243,-0.436558 0.18892,-0.958313 0.15193,-1.654678 -0.0584,-1.099325 -0.35163,-1.859336 -1.05834,-2.757456 l -0.0506,-0.06459 0.20672,-0.10542 c 1.09234,-0.552368 2.51968,-2.035141 3.06647,-3.166214 0.44683,-0.924269 0.78087,-2.042427 0.78703,-2.800863 0.41021,0.02326 1.39748,0.212916 2.46497,0.486275 1.09878,0.281363 2.28285,0.638093 3.05099,0.937927 1.38533,0.540745 2.4444,1.162243 3.09541,1.782837 0.38121,0.363386 0.54668,0.569788 0.63098,0.808736 0.0843,0.23895 0.10202,0.580601 0.0666,1.207161 -0.11534,2.043097 -1.12276,3.986594 -2.79104,5.362982 -1.31852,1.087806 -2.96455,1.673194 -4.63487,1.742528 -0.20878,0.0087 -0.4179,0.009 -0.62682,0.0016 z m -19.50218,-0.872816 c 0.30774,0 0.6046,-0.111783 0.81235,-0.322458 0.20776,-0.21068 0.31264,-0.506087 0.31264,-0.814422 0,-0.194196 -0.11377,-0.348895 -0.19119,-0.513665 v -0.02739 l -0.0103,0.0041 c -0.0466,-0.09265 -0.18521,-0.222461 -0.27192,-0.309207 l -0.52493,-0.241663 v 0 c -0.0402,-0.0031 -0.0733,-0.04328 -0.11316,-0.04289 -0.28276,0.0027 -0.57335,0.09147 -0.8046,0.300758 -0.73946,0.669205 -0.20582,1.966806 0.79063,1.966804 z m 10.81072,-0.124539 c -0.1815,0.0055 -0.36417,-0.01236 -0.54314,-0.05529 -1.01523,-0.243554 -1.6619,-1.066832 -1.6619,-2.115116 0,-1.015823 0.38039,-1.613736 1.29088,-2.031402 0.18338,-0.08413 0.65667,-0.187069 0.86918,-0.187069 0.79587,0 1.7371,0.61562 2.02729,1.302248 0.0857,0.202835 0.14314,0.580874 0.13073,0.951362 -0.0124,0.370488 -0.0956,0.742376 -0.19328,0.933794 -0.36695,0.719317 -1.13329,1.177666 -1.91976,1.201476 z m -13.01575,-1.82831 c 0.23561,-0.02654 0.36925,-0.141714 0.53329,-0.264068 0.12486,-0.09314 0.23437,-0.201313 0.3261,-0.314193 0.0917,-0.112879 0.1738,-0.205782 0.21288,-0.404627 0.0428,-0.217678 -0.008,-0.260813 -0.0372,-0.363283 -0.0295,-0.102473 -0.07,-0.217152 -0.12091,-0.345718 -0.10168,-0.257128 -0.24262,-0.568002 -0.40463,-0.884701 -0.4178,-0.816716 -0.54671,-1.202356 -0.58962,-1.694987 -0.0421,-0.483195 -0.10218,-0.848336 -0.21704,-1.150315 -0.0698,-0.183431 -0.2246,-0.284205 -0.35348,-0.414446 v -0.158129 l -0.22842,-0.109556 c -0.0746,-0.03606 -0.14454,-0.07005 -0.19894,-0.0956 -0.0272,-0.01278 -0.0502,-0.02463 -0.0687,-0.03307 -0.0185,-0.0085 0,-0.0032 -0.0625,-0.02532 l -0.004,-0.0021 -0.006,-0.0021 c -0.24304,-0.08105 -0.36166,5.3e-4 -0.47283,0.05271 -0.11118,0.05228 -0.21011,0.119404 -0.30644,0.195337 -0.1927,0.151863 -0.38259,0.274799 -0.46665,0.609264 v 0.0021 c -0.0857,0.341672 -0.058,0.750266 -0.008,1.232485 0.0499,0.482216 0.13888,0.994793 0.26352,1.398362 0.1455,0.471027 0.42302,1.02016 0.72091,1.505853 0.14894,0.242847 0.30166,0.467389 0.45112,0.654224 0.14949,0.186833 0.27625,0.336079 0.47077,0.447516 0.156,0.08937 0.33078,0.190352 0.5664,0.163815 z m 12.97077,-4.998146 c -0.76914,0 -1.53776,-0.162462 -2.21898,-0.484725 -0.69691,-0.329697 -1.80425,-1.328007 -2.1544,-1.925463 -0.35594,-0.607375 -0.71879,-1.842095 -0.71879,-2.287201 0,-0.108178 0,-0.113599 -0.003,-0.130741 0.19053,-0.05407 0.83759,-0.108247 2.12492,-0.189651 2.19242,-0.138668 4.00098,-0.135009 6.30248,0.01394 1.06987,0.06924 1.61187,0.122611 1.75803,0.16795 8e-5,0.01892 0.003,0.03266 0.003,0.13849 0,0.445104 -0.36494,1.679821 -0.72089,2.287202 -0.35012,0.597458 -1.45539,1.595768 -2.15233,1.925463 -0.6812,0.322262 -1.45137,0.484724 -2.22054,0.484724 z"
       style="fill:#000000;stroke:none;stroke-width:0.80747259;stroke-miterlimit:4;stroke-dasharray:none;stroke-opacity:1" />
    <path
       inkscape:tile-y0="49.789077"
       inkscape:tile-x0="7.970984"
       sodipodi:nodetypes="sccsccccccccccccccccsccccccccsccccccscscccccsccscccccccccccccccccccsccccccccccccccccccccscccccccccccccscscccccccccsccscscsccccccccccccccccccccccccccccccsccsccccsccs"
       inkscape:connector-curvature="0"
       id="use9477"
       d="m 15.307216,61.010582 c -2.26867,0.0218 -4.54046,-1.222295 -5.63427,-3.531568 -0.18923,-0.399468 -0.30888,-0.673508 -0.36899,-1.025777 -0.0601,-0.35226 -0.0625,-0.745056 -0.0625,-1.449006 0,-1.460375 0.0454,-1.657738 0.50797,-2.593641 0.32113,-0.64961 0.73954,-1.241031 1.20873,-1.69912 l 0.22479,-0.22066 -0.0899,-0.03721 c -0.41527,-0.172114 -1.0604,-0.53403 -1.52551,-0.845944 -0.33391,-0.223946 -0.48326,-0.304215 -0.53486,-0.331761 -0.1188,0.114326 -0.2346,0.19359 -0.39687,0.288869 -0.1877,0.110228 -0.40987,0.225854 -0.63252,0.326081 -1.17263,0.527899 -2.50515,0.527896 -3.67781,0 -0.22262,-0.100227 -0.44326,-0.215853 -0.63095,-0.326081 -0.16227,-0.09528 -0.27755,-0.174532 -0.39637,-0.288869 -0.0509,0.02713 -0.20212,0.107225 -0.53692,0.331761 -0.46509,0.311917 -1.10816,0.67383 -1.52342,0.845944 l -0.092,0.03721 0.22479,0.22066 c 0.46918,0.458092 0.8876,1.049512 1.20869,1.69912 0.46268,0.935905 0.50798,1.133268 0.50798,2.593641 0,0.70395 -0.003,1.096746 -0.0625,1.449006 -0.0601,0.352269 -0.17976,0.626309 -0.36896,1.025777 -1.0309,2.176431 -3.0339,3.363672 -5.10771,3.503663 -2.0738,0.13998 -4.21777,-0.768451 -5.52936,-2.78691 -0.69289,-1.066289 -0.96753,-2.206426 -0.88678,-3.623034 0.0852,-1.494509 0.58661,-2.609776 1.67224,-3.74034 l 0.31833,-0.331764 c -1.40026,-0.541184 -3.04441,-1.833986 -4.07054,-3.176032 -0.91898,-1.201875 -1.5739,-2.669842 -1.8986,-4.070554 -0.32469,-1.400712 -0.33837,-2.73786 0.15037,-3.718636 0.82274,-1.651016 2.83239,-2.970911 5.60379,-3.974434 2.67698,-0.969322 6.11196,-1.608853 9.93738,-1.847949 v -0.02326 l 0.38293,-0.02119 c 2.56625,-0.138883 3.15399,-0.139793 5.5857,-0.0062 4.17296,0.229333 7.79526,0.886349 10.59005,1.88102 2.7948,0.994672 4.78624,2.317158 5.62086,3.992005 0.48872,0.980776 0.47713,2.317924 0.15243,3.718636 -0.3247,1.400712 -0.97962,2.868679 -1.8986,4.070554 -1.02594,1.341784 -2.672,2.632594 -4.07209,3.173965 l 0.32041,0.333831 c 1.09857,1.144076 1.59197,2.256432 1.67172,3.781165 0.0969,1.851969 -0.37479,3.168121 -1.61695,4.509802 -1.17089,1.264687 -2.72193,1.87231 -4.27416,1.887222 z m -0.0408,-2.35903 c 1.32533,-0.02167 2.59607,-0.795589 3.25819,-2.078942 0.14734,-0.285589 0.26672,-0.82653 0.29302,-1.375109 0.0262,-0.548571 -0.0358,-1.116713 -0.16227,-1.470712 -0.24741,-0.693055 -1.13588,-1.669354 -1.87483,-2.030884 -0.45416,-0.222197 -0.78047,-0.301527 -1.3906,-0.330213 -1.30635,-0.06153 -2.00771,0.231185 -2.91198,1.2206 -0.70964,0.776472 -0.90164,1.30013 -0.90072,2.476848 0.003,1.74371 1.02222,3.032678 2.76987,3.480409 0.30483,0.07809 0.61346,0.113006 0.91932,0.108003 z m -18.07384,-0.0067 c 1.32432,-0.01741 2.61948,-0.72263 3.28353,-2.154391 0.31128,-0.671169 0.37044,-2.012508 0.10128,-2.802411 -0.10411,-0.305573 -0.40833,-0.764175 -0.78134,-1.158587 -0.37304,-0.394411 -0.8218,-0.734578 -1.15033,-0.876948 -0.65971,-0.285895 -2.01485,-0.364911 -2.57606,-0.181385 -1.02828,0.336264 -2.06055,1.319369 -2.39676,2.257742 -0.12615,0.352126 -0.18806,0.920295 -0.16174,1.468647 0.0262,0.548359 0.14568,1.089559 0.293,1.375108 0.73086,1.41659 2.06412,2.089605 3.38842,2.072225 z m 17.70591,-9.746173 c 0.20879,0.0075 0.41767,0.0071 0.62632,-0.0016 1.66915,-0.06929 3.31418,-0.655669 4.64053,-1.744597 1.6632,-1.365472 2.67116,-3.312265 2.78691,-5.362982 0.0354,-0.62656 0.0183,-0.968211 -0.0661,-1.207161 -0.0843,-0.238948 -0.24974,-0.44535 -0.63095,-0.808736 -1.06045,-1.01086 -3.17812,-1.983698 -6.01155,-2.679423 -0.92469,-0.227054 -2.02856,-0.45626 -2.34764,-0.496093 h -0.003 l -0.25218,-0.03152 c -0.01,0.766384 -0.33726,1.874792 -0.78496,2.800863 -0.54679,1.131073 -1.97208,2.613845 -3.06444,3.166213 l -0.20722,0.105421 0.0646,0.0801 c 0.73036,0.922147 1.0699,1.852546 1.06453,2.949173 -0.003,0.542927 -0.0553,1.12917 -0.19172,1.511535 l -0.0605,0.16795 0.28318,0.195336 c 1.24048,0.853472 2.69169,1.30292 4.15325,1.355474 z m -17.46975,-0.0021 c 1.46251,-0.0522 2.91465,-0.500166 4.15478,-1.353405 l 0.28475,-0.196887 -0.0801,-0.230478 c -0.15243,-0.436558 -0.18892,-0.958313 -0.15193,-1.654678 0.0584,-1.099325 0.35163,-1.859336 1.05834,-2.757456 l 0.0506,-0.06459 -0.20672,-0.10542 c -1.09234,-0.552368 -2.51968,-2.035141 -3.06647,-3.166214 -0.44683,-0.924269 -0.78087,-2.042427 -0.78703,-2.800863 -0.41021,0.02326 -1.39748,0.212916 -2.46497,0.486275 -1.09878,0.281363 -2.28285,0.638093 -3.05099,0.937927 -1.38533,0.540745 -2.4444,1.162243 -3.09541,1.782837 -0.38121,0.363386 -0.54668,0.569788 -0.63098,0.808736 -0.0843,0.23895 -0.10202,0.580601 -0.0666,1.207161 0.11534,2.043097 1.12276,3.986594 2.79104,5.362982 1.31852,1.087806 2.96455,1.673194 4.63487,1.742528 0.20878,0.0087 0.4179,0.009 0.62682,0.0016 z m 19.50218,-0.872816 c -0.30774,0 -0.6046,-0.111783 -0.81235,-0.322458 -0.20776,-0.21068 -0.31264,-0.506087 -0.31264,-0.814422 0,-0.194196 0.11377,-0.348895 0.19119,-0.513665 v -0.02739 l 0.0103,0.0041 c 0.0466,-0.09265 0.18521,-0.222461 0.27192,-0.309207 l 0.52493,-0.241663 v 0 c 0.0402,-0.0031 0.0733,-0.04328 0.11316,-0.04289 0.28276,0.0027 0.57335,0.09147 0.8046,0.300758 0.73946,0.669205 0.20582,1.966806 -0.79063,1.966804 z M 6.120196,47.899224 c 0.1815,0.0055 0.36417,-0.01236 0.54314,-0.05529 1.01523,-0.243554 1.6619,-1.066832 1.6619,-2.115116 0,-1.015823 -0.38039,-1.613736 -1.29088,-2.031402 -0.18338,-0.08413 -0.65667,-0.187069 -0.86918,-0.187069 -0.79587,0 -1.7371,0.61562 -2.02729,1.302248 -0.0857,0.202835 -0.14314,0.580874 -0.13073,0.951362 0.0124,0.370488 0.0956,0.742376 0.19328,0.933794 0.36695,0.719317 1.13329,1.177666 1.91976,1.201476 z m 13.01575,-1.82831 c -0.23561,-0.02654 -0.36925,-0.141714 -0.53329,-0.264068 -0.12486,-0.09314 -0.23437,-0.201313 -0.3261,-0.314193 -0.0917,-0.112879 -0.1738,-0.205782 -0.21288,-0.404627 -0.0428,-0.217678 0.008,-0.260813 0.0372,-0.363283 0.0295,-0.102473 0.07,-0.217152 0.12091,-0.345718 0.10168,-0.257128 0.24262,-0.568002 0.40463,-0.884701 0.4178,-0.816716 0.54671,-1.202356 0.58962,-1.694987 0.0421,-0.483195 0.10218,-0.848336 0.21704,-1.150315 0.0698,-0.183431 0.2246,-0.284205 0.35348,-0.414446 v -0.158129 l 0.22842,-0.109556 c 0.0746,-0.03606 0.14454,-0.07005 0.19894,-0.0956 0.0272,-0.01278 0.0502,-0.02463 0.0687,-0.03307 0.0185,-0.0085 0,-0.0032 0.0625,-0.02532 l 0.004,-0.0021 0.006,-0.0021 c 0.24304,-0.08105 0.36166,5.3e-4 0.47283,0.05271 0.11118,0.05228 0.21011,0.119404 0.30644,0.195337 0.1927,0.151863 0.38259,0.274799 0.46665,0.609264 v 0.0021 c 0.0857,0.341672 0.058,0.750266 0.008,1.232485 -0.0499,0.482216 -0.13888,0.994793 -0.26352,1.398362 -0.1455,0.471027 -0.42302,1.02016 -0.72091,1.505853 -0.14894,0.242847 -0.30166,0.467389 -0.45112,0.654224 -0.14949,0.186833 -0.27625,0.336079 -0.47077,0.447516 -0.156,0.08937 -0.33078,0.190352 -0.5664,0.163815 z M 6.165176,41.072768 c 0.76914,0 1.53776,-0.162462 2.21898,-0.484725 0.69691,-0.329697 1.80425,-1.328007 2.1544,-1.925463 0.35594,-0.607375 0.71879,-1.842095 0.71879,-2.287201 0,-0.108178 0,-0.113599 0.003,-0.130741 -0.19053,-0.05407 -0.83759,-0.108247 -2.12492,-0.189651 -2.19242,-0.138668 -4.00098,-0.135009 -6.30248,0.01394 -1.06987,0.06924 -1.61187,0.122611 -1.75803,0.16795 -8e-5,0.01892 -0.003,0.03266 -0.003,0.13849 0,0.445104 0.36494,1.679821 0.72089,2.287202 0.35012,0.597458 1.45539,1.595768 2.15233,1.925463 0.6812,0.322262 1.45137,0.484724 2.22054,0.484724 z"
       style="fill:#000000;stroke:none;stroke-width:0.80747259;stroke-miterlimit:4;stroke-dasharray:none;stroke-opacity:1" />
    <path
       inkscape:tile-y0="49.789077"
       inkscape:tile-x0="7.970984"
       sodipodi:nodetypes="sccsccccccccccccccccsccccccccsccccccscscccccsccscccccccccccccccccccsccccccccccccccccccccscccccccccccccscscccccccccsccscscsccccccccccccccccccccccccccccccsccsccccsccs"
       inkscape:connector-curvature="0"
       id="use9479"
       d="m -7.531723,80.553609 c 2.26867,-0.0218 4.54046,1.222295 5.63427,3.531568 0.18923,0.399468 0.30888,0.673508 0.36899,1.025777 0.0601,0.35226 0.0625,0.745056 0.0625,1.449006 0,1.460375 -0.0454,1.657738 -0.50797,2.593641 -0.32113,0.64961 -0.73954,1.241031 -1.20873,1.69912 l -0.22479,0.22066 0.0899,0.03721 c 0.41527,0.172114 1.0604,0.53403 1.52551,0.845944 0.33391,0.223946 0.48326,0.304215 0.53486,0.331761 0.1188,-0.114326 0.2346,-0.19359 0.39687,-0.288869 0.1877,-0.110228 0.40987,-0.225854 0.63252,-0.326081 1.17263,-0.527899 2.50515,-0.527896 3.67781,0 0.22262,0.100227 0.44326,0.215853 0.63095,0.326081 0.16227,0.09528 0.27755,0.174532 0.39637,0.288869 0.0509,-0.02713 0.20212,-0.107225 0.53692,-0.331761 0.46509,-0.311917 1.10816,-0.67383 1.52342,-0.845944 l 0.092,-0.03721 -0.22479,-0.22066 c -0.46918,-0.458092 -0.8876,-1.049512 -1.20869,-1.69912 -0.46268,-0.935905 -0.50798,-1.133268 -0.50798,-2.593641 0,-0.70395 0.003,-1.096746 0.0625,-1.449006 0.0601,-0.352269 0.17976,-0.626309 0.36896,-1.025777 1.0309,-2.176431 3.0339,-3.363672 5.10771,-3.503663 2.0738,-0.13998 4.21777,0.768451 5.52936,2.78691 0.69289,1.066289 0.96753,2.206426 0.88678,3.623034 -0.0852,1.494509 -0.58661,2.609776 -1.67224,3.74034 l -0.31833,0.331764 c 1.40026,0.541184 3.04441,1.833986 4.07054,3.176032 0.91898,1.201875 1.5739,2.669842 1.8986,4.070554 0.32469,1.400712 0.33837,2.737862 -0.15037,3.718632 -0.82274,1.65102 -2.83239,2.97092 -5.60379,3.97444 -2.67698,0.96932 -6.11196,1.60885 -9.93738,1.84795 v 0.0233 l -0.38293,0.0212 c -2.56625,0.13888 -3.15399,0.13979 -5.5857,0.006 -4.17296,-0.22934 -7.79526,-0.88635 -10.59005,-1.88102 -2.7948,-0.99467 -4.78624,-2.31716 -5.62086,-3.99201 -0.48872,-0.98077 -0.47713,-2.317922 -0.15243,-3.718634 0.3247,-1.400712 0.97962,-2.868679 1.8986,-4.070554 1.02594,-1.341784 2.672,-2.632594 4.07209,-3.173965 l -0.32041,-0.333831 c -1.09857,-1.144076 -1.59197,-2.256432 -1.67172,-3.781165 -0.0969,-1.851969 0.37479,-3.168121 1.61695,-4.509802 1.17089,-1.264687 2.72193,-1.87231 4.27416,-1.887222 z m 0.0408,2.35903 c -1.32533,0.02167 -2.59607,0.795589 -3.25819,2.078942 -0.14734,0.285589 -0.26672,0.82653 -0.29302,1.375109 -0.0262,0.548571 0.0358,1.116713 0.16227,1.470712 0.24741,0.693055 1.13588,1.669354 1.87483,2.030884 0.45416,0.222197 0.78047,0.301527 1.3906,0.330213 1.30635,0.06153 2.00771,-0.231185 2.91198,-1.2206 0.70964,-0.776472 0.90164,-1.30013 0.90072,-2.476848 -0.003,-1.74371 -1.02222,-3.032678 -2.76987,-3.480409 -0.30483,-0.07809 -0.61346,-0.113006 -0.91932,-0.108003 z m 18.07384,0.0067 c -1.32432,0.01741 -2.61948,0.72263 -3.28353,2.154391 -0.31128,0.671169 -0.37044,2.012508 -0.10128,2.802411 0.10411,0.305573 0.40833,0.764175 0.78134,1.158587 0.37304,0.394411 0.8218,0.734578 1.15033,0.876948 0.65971,0.285895 2.01485,0.364911 2.57606,0.181385 1.02828,-0.336264 2.06055,-1.319369 2.39676,-2.257742 0.12615,-0.352126 0.18806,-0.920295 0.16174,-1.468647 -0.0262,-0.548359 -0.14568,-1.089559 -0.293,-1.375108 -0.73086,-1.41659 -2.06412,-2.089605 -3.38842,-2.072225 z m -17.70591,9.746173 c -0.20879,-0.0075 -0.41767,-0.0071 -0.62632,0.0016 -1.66915,0.06929 -3.31418,0.655669 -4.64053,1.744597 -1.6632,1.365472 -2.67116,3.312265 -2.78691,5.362982 -0.0354,0.626559 -0.0183,0.968209 0.0661,1.207159 0.0843,0.23895 0.24974,0.44535 0.63095,0.80874 1.06045,1.01086 3.17812,1.9837 6.01155,2.67942 0.92469,0.22706 2.02856,0.45626 2.34764,0.49609 h 0.003 l 0.25218,0.0315 c 0.01,-0.76638 0.33726,-1.87479 0.78496,-2.80086 0.54679,-1.13107 1.97208,-2.613844 3.06444,-3.166212 l 0.20722,-0.105421 -0.0646,-0.0801 c -0.73036,-0.922147 -1.0699,-1.852546 -1.06453,-2.949173 0.003,-0.542927 0.0553,-1.12917 0.19172,-1.511535 l 0.0605,-0.16795 -0.28318,-0.195336 c -1.24048,-0.853472 -2.69169,-1.30292 -4.15325,-1.355474 z m 17.46975,0.0021 c -1.46251,0.0522 -2.91465,0.500166 -4.15478,1.353405 l -0.28475,0.196887 0.0801,0.230478 c 0.15243,0.436558 0.18892,0.958313 0.15193,1.654678 -0.0584,1.099325 -0.35163,1.859336 -1.05834,2.757456 l -0.0506,0.06459 0.20672,0.10542 c 1.09234,0.552368 2.51968,2.035144 3.06647,3.166214 0.44683,0.92427 0.78087,2.04243 0.78703,2.80086 0.41021,-0.0233 1.39748,-0.21291 2.46497,-0.48627 1.09878,-0.28137 2.28285,-0.6381 3.05099,-0.93793 1.38533,-0.54074 2.4444,-1.16224 3.09541,-1.78284 0.38121,-0.36338 0.54668,-0.56978 0.63098,-0.80873 0.0843,-0.23895 0.10202,-0.5806 0.0666,-1.207163 -0.11534,-2.043097 -1.12276,-3.986594 -2.79104,-5.362982 -1.31852,-1.087806 -2.96455,-1.673194 -4.63487,-1.742528 -0.20878,-0.0087 -0.4179,-0.009 -0.62682,-0.0016 z m -19.50218,0.872816 c 0.30774,0 0.6046,0.111783 0.81235,0.322458 0.20776,0.21068 0.31264,0.506087 0.31264,0.814422 0,0.194196 -0.11377,0.348895 -0.19119,0.513665 v 0.02739 l -0.0103,-0.0041 c -0.0466,0.09265 -0.18521,0.222461 -0.27192,0.309207 l -0.52493,0.241663 v 0 c -0.0402,0.0031 -0.0733,0.04328 -0.11316,0.04289 -0.28276,-0.0027 -0.57335,-0.09147 -0.8046,-0.300758 -0.73946,-0.669205 -0.20582,-1.966806 0.79063,-1.966804 z m 10.81072,0.124539 c -0.1815,-0.0055 -0.36417,0.01236 -0.54314,0.05529 -1.01523,0.243554 -1.6619,1.066832 -1.6619,2.115116 0,1.015823 0.38039,1.613736 1.29088,2.031402 0.18338,0.08413 0.65667,0.187069 0.86918,0.187069 0.79587,0 1.7371,-0.61562 2.02729,-1.302248 0.0857,-0.202835 0.14314,-0.580874 0.13073,-0.951362 -0.0124,-0.370488 -0.0956,-0.742376 -0.19328,-0.933794 -0.36695,-0.719317 -1.13329,-1.177666 -1.91976,-1.201476 z m -13.01575,1.82831 c 0.23561,0.02654 0.36925,0.141714 0.53329,0.264068 0.12486,0.09314 0.23437,0.201313 0.3261,0.314193 0.0917,0.112879 0.1738,0.205782 0.21288,0.404627 0.0428,0.217678 -0.008,0.260813 -0.0372,0.363283 -0.0295,0.102473 -0.07,0.217152 -0.12091,0.345718 -0.10168,0.257128 -0.24262,0.568002 -0.40463,0.884701 -0.4178,0.816716 -0.54671,1.202356 -0.58962,1.694987 -0.0421,0.483196 -0.10218,0.848336 -0.21704,1.150316 -0.0698,0.18343 -0.2246,0.2842 -0.35348,0.41444 v 0.15813 l -0.22842,0.10956 c -0.0746,0.0361 -0.14454,0.07 -0.19894,0.0956 -0.0272,0.0128 -0.0502,0.0246 -0.0687,0.0331 -0.0185,0.008 0,0.003 -0.0625,0.0253 l -0.004,0.002 -0.006,0.002 c -0.24304,0.0811 -0.36166,-5.3e-4 -0.47283,-0.0527 -0.11118,-0.0523 -0.21011,-0.1194 -0.30644,-0.19534 -0.1927,-0.15186 -0.38259,-0.2748 -0.46665,-0.60926 v -0.002 c -0.0857,-0.34167 -0.058,-0.75027 -0.008,-1.232486 0.0499,-0.482216 0.13888,-0.994793 0.26352,-1.398362 0.1455,-0.471027 0.42302,-1.02016 0.72091,-1.505853 0.14894,-0.242847 0.30166,-0.467389 0.45112,-0.654224 0.14949,-0.186833 0.27625,-0.336079 0.47077,-0.447516 0.156,-0.08937 0.33078,-0.190352 0.5664,-0.163815 z m 12.97077,4.998143 c -0.76914,0 -1.53776,0.16247 -2.21898,0.48473 -0.69691,0.3297 -1.80425,1.328 -2.1544,1.92546 -0.35594,0.60738 -0.71879,1.8421 -0.71879,2.2872 0,0.10818 0,0.1136 -0.003,0.13074 0.19053,0.0541 0.83759,0.10825 2.12492,0.18965 2.19242,0.13867 4.00098,0.13501 6.30248,-0.0139 1.06987,-0.0692 1.61187,-0.12261 1.75803,-0.16795 8e-5,-0.0189 0.003,-0.0327 0.003,-0.13849 0,-0.4451 -0.36494,-1.67982 -0.72089,-2.2872 -0.35012,-0.59746 -1.45539,-1.59577 -2.15233,-1.92546 -0.6812,-0.32226 -1.45137,-0.48473 -2.22054,-0.48473 z"
       style="fill:#000000;stroke:none;stroke-width:0.80747259;stroke-miterlimit:4;stroke-dasharray:none;stroke-opacity:1" />
  </g>
</svg>
