<?xml version="1.0" encoding="UTF-8" standalone="no"?>
<!-- Created with Inkscape (http://www.inkscape.org/) -->

<svg
   xmlns:dc="http://purl.org/dc/elements/1.1/"
   xmlns:cc="http://creativecommons.org/ns#"
   xmlns:rdf="http://www.w3.org/1999/02/22-rdf-syntax-ns#"
   xmlns:svg="http://www.w3.org/2000/svg"
   xmlns="http://www.w3.org/2000/svg"
   xmlns:sodipodi="http://sodipodi.sourceforge.net/DTD/sodipodi-0.dtd"
   xmlns:inkscape="http://www.inkscape.org/namespaces/inkscape"
   width="143.53928mm"
   height="138.92128mm"
   viewBox="0 0 143.53928 138.92128"
   version="1.1"
   id="svg8430"
   inkscape:version="0.92.5 (2060ec1f9f, 2020-04-08)"
   sodipodi:docname="fantasy-pattern.svg">
  <defs
     id="defs8424" />
  <sodipodi:namedview
     id="base"
     pagecolor="#ffffff"
     bordercolor="#666666"
     borderopacity="1.0"
     inkscape:pageopacity="0.0"
     inkscape:pageshadow="2"
     inkscape:zoom="0.35"
     inkscape:cx="-236.45683"
     inkscape:cy="146.85413"
     inkscape:document-units="mm"
     inkscape:current-layer="layer1"
     showgrid="false"
     fit-margin-top="15"
     fit-margin-left="15"
     fit-margin-right="15"
     fit-margin-bottom="15"
     inkscape:window-width="1920"
     inkscape:window-height="1016"
     inkscape:window-x="0"
     inkscape:window-y="27"
     inkscape:window-maximized="1" />
  <metadata
     id="metadata8427">
    <rdf:RDF>
      <cc:Work
         rdf:about="">
        <dc:format>image/svg+xml</dc:format>
        <dc:type
           rdf:resource="http://purl.org/dc/dcmitype/StillImage" />
        <dc:title></dc:title>
      </cc:Work>
    </rdf:RDF>
  </metadata>
  <g
     inkscape:label="Calque 1"
     inkscape:groupmode="layer"
     id="layer1"
     transform="translate(86.893304,14.670096)">
    <path
       inkscape:tile-y0="-16.375296"
       inkscape:tile-x0="72.982128"
       id="use9623"
       d="m -52.650816,0.32990361 c -0.41394,10e-5 -0.78348,0.11911 -1.0542,0.4315 -0.27083,0.31251999 -0.45781,0.76995999 -0.68937,1.47638999 l -0.34571,1.0511 h -1.08984 c -0.87458,0 -1.46831,0.0644 -1.89447,0.31058 -0.42614,0.24616 -0.60566,0.70194 -0.60566,1.24385 0,0.33203 0.069,0.63524 0.29096,0.91415 0.22193,0.27894 0.56446,0.54394 1.13686,0.95499 0.23871,0.17141 0.45733,0.34819 0.60928,0.48627 0.0751,0.0682 0.13394,0.12695 0.16794,0.1664 -0.003,0.0186 -0.003,0.008 -0.008,0.0346 -0.0143,0.0634 -0.0369,0.15002 -0.0641,0.25011 -0.0543,0.20018 -0.12964,0.45605 -0.21291,0.71675 -0.23818,0.74577 -0.34793,1.29336 -0.27956,1.7538994 0.0684,0.46054 0.3533,0.80674 0.76946,1.0356 0.31004,0.17051 0.65069,0.24155 1.02164,0.11524 0.37095,-0.12632 0.78094,-0.40134 1.42989,-0.87333 0.22058,-0.16046 0.43931,-0.30691 0.60719,-0.4103194 0.0839,-0.0517 0.15592,-0.0937 0.20516,-0.11885 0,-5.3e-4 0,2.6e-4 0.003,0 0.006,0.003 0.007,0.003 0.0135,0.006 0.0564,0.0298 0.13896,0.0772 0.2346,0.1369404 0.1913,0.119509 0.43956,0.288179 0.69506,0.472839 0.26493,0.19148 0.53563,0.37302 0.76378,0.51366 0.11408,0.0703 0.21852,0.13077 0.30697,0.17777 0.0885,0.047 0.15044,0.0806 0.23976,0.10335 0.90337,0.23013 1.83616,-0.49567 1.83245,-1.4278194 0,-0.17046 -0.0399,-0.38914 -0.0977,-0.65215 -0.0577,-0.26301 -0.1355,-0.55892 -0.22273,-0.83199 -0.0833,-0.26072 -0.16065,-0.51673 -0.21497,-0.71676 -0.0271,-0.10001 -0.0482,-0.18684 -0.0625,-0.25011 -0.006,-0.0266 -0.005,-0.0165 -0.008,-0.0351 0.0309,-0.0363 0.0829,-0.0906 0.15039,-0.15244 0.14021,-0.1285 0.34105,-0.29138 0.56224,-0.44907 0.59764,-0.42607 0.95793,-0.70242 1.1896,-0.9865 0.23164,-0.28409 0.30556,-0.59291 0.30281,-0.92398 -0.003,-0.29081 -0.0376,-0.53279 -0.15814,-0.74982 -0.12046,-0.21703 -0.30835,-0.38328 -0.56274,-0.55863 -0.15838,-0.10913 -0.35634,-0.17596 -0.62323,-0.21084 -0.26688,-0.0349 -0.61386,-0.045 -1.13067,-0.045 h -1.11519 l -0.34571,-1.05058 c -0.23153,-0.70643 -0.41854,-1.16439 -0.68937,-1.47690999 -0.27069,-0.31239 -0.64233,-0.4314 -1.05627,-0.4315 z m 0.003,3.25199999 c 0.0418,0.11765 0.0792,0.21549 0.12298,0.35501 0.0829,0.26426 0.17753,0.52026 0.26768,0.72658 0.0451,0.10315 0.0882,0.19559 0.13075,0.27181 0.0425,0.0762 0.0682,0.13163 0.15399,0.20309 0.1006,0.0838 0.16375,0.0906 0.25424,0.11524 0.0905,0.0247 0.19862,0.046 0.32041,0.0662 0.24355,0.0404 0.54427,0.0725 0.85524,0.0899 l 0.38499,0.0217 -0.25632,0.1912 c -0.23604,0.17567 -0.459,0.36301 -0.63458,0.52917 -0.0878,0.0831 -0.16333,0.16092 -0.22479,0.23254 -0.0615,0.0716 -0.1107,0.1221 -0.14833,0.22842 -0.0676,0.19072 -0.0343,0.34465 0.004,0.56482 0.0383,0.22016 0.10522,0.48262 0.1974,0.77153 0.0461,0.14446 0.08,0.25886 0.11888,0.38654 -0.0937,-0.0641 -0.16425,-0.10766 -0.2713,-0.18552 -0.24244,-0.17634 -0.49353,-0.33468 -0.70901,-0.4532 -0.10774,-0.0593 -0.20595,-0.10939 -0.29509,-0.14625 -0.0891,-0.0369 -0.156,-0.0687 -0.27337,-0.0687 -0.11734,0 -0.18219,0.0318 -0.27127,0.0687 -0.0891,0.0369 -0.18735,0.087 -0.29509,0.14625 -0.21548,0.11852 -0.46657,0.27686 -0.70901,0.4532 -0.10678,0.0777 -0.17777,0.12154 -0.2713,0.18552 0.0389,-0.12761 0.0707,-0.24217 0.11681,-0.38654 0.0921,-0.28889 0.15907,-0.55137 0.19738,-0.77153 0.0383,-0.22016 0.0718,-0.37404 0.004,-0.56482 -0.0376,-0.10622 -0.0853,-0.1568 -0.14677,-0.22842 -0.0615,-0.0716 -0.13859,-0.14947 -0.22635,-0.23254 -0.17555,-0.16616 -0.39854,-0.3535 -0.63458,-0.52917 l -0.2558,-0.1912 0.38653,-0.0217 c 0.31097,-0.0175 0.61169,-0.0496 0.85524,-0.0899 0.12179,-0.0202 0.22786,-0.0415 0.31835,-0.0662 0.0905,-0.0247 0.15573,-0.0315 0.2563,-0.11524 0.0857,-0.0714 0.10941,-0.12688 0.15193,-0.20309 0.0425,-0.0762 0.0862,-0.16866 0.13126,-0.27181 0.0902,-0.20632 0.18637,-0.46231 0.26924,-0.72658 0.0438,-0.13976 0.0833,-0.23721 0.12506,-0.35501 z m -13.08603,4.51755 c -0.29567,0 -0.56515,0.15726 -0.7462,0.39843 -0.18108,0.24116 -0.29536,0.5621 -0.35761,0.94929 -0.1243,0.7730294 -0.39455,1.3470694 -0.81029,1.7595894 -0.41574,0.41252 -0.98623,0.67325 -1.75027,0.78289 -0.38632,0.0554 -0.6876,0.14536 -0.91572,0.31678 -0.22813,0.17142 -0.35539,0.44496 -0.35346,0.72864 0.003,0.34149 0.14274,0.65274 0.39634,0.84956 0.25363,0.19682 0.59405,0.28198 0.99219,0.28473 0.53467,0.004 1.1571,0.32629 1.63298,0.80874 0.47588,0.48245 0.79344,1.11469 0.79685,1.66036 0.003,0.33056 0.11454,0.67585 0.31419,0.92966 0.38719,0.49224 1.12602,0.57737 1.52757,0.11886 0.10674,-0.12186 0.15531,-0.25575 0.21082,-0.42168 0.0555,-0.16593 0.10025,-0.35492 0.12714,-0.54105 0.20738,-1.43841 1.3685,-2.55644 2.56418,-2.55644 0.3252,0 0.63603,-0.12239 0.88109,-0.30282 0.24506,-0.18043 0.44701,-0.42811 0.44699,-0.74414 0,-0.29261 -0.11293,-0.57884 -0.35346,-0.75964 -0.24053,-0.1808 -0.56547,-0.27891 -1.02733,-0.37517 -1.45229,-0.30269 -2.20313,-1.05557 -2.50579,-2.5078594 -0.0926,-0.44437 -0.19256,-0.76438 -0.35914,-1.00408 -0.16661,-0.23968 -0.43715,-0.37465 -0.71107,-0.37465 z m 26.1679,0 c -0.27392,0 -0.54239,0.13497 -0.709,0.37465 -0.16658,0.2397 -0.26705,0.55971 -0.35965,1.00408 -0.30268,1.4522894 -1.05505,2.2051694 -2.50735,2.5078594 -0.46186,0.0963 -0.78523,0.19437 -1.02579,0.37517 -0.24053,0.1808 -0.35346,0.46703 -0.35346,0.75964 0,0.31603 0.20246,0.56371 0.44752,0.74414 0.24506,0.18043 0.55539,0.30282 0.88056,0.30282 1.1957,0 2.35524,1.11803 2.56265,2.55644 0.0268,0.18619 0.0737,0.3751 0.12919,0.54105 0.0555,0.16594 0.10414,0.29986 0.21082,0.42168 0.32549,0.37166 0.84426,0.38005 1.20873,0.14883 0.36446,-0.23122 0.62796,-0.67101 0.63097,-1.19735 0.003,-0.54563 0.32301,-1.17787 0.79891,-1.66036 0.47591,-0.48249 1.09837,-0.80535 1.63299,-0.80874 0.39819,-0.003 0.7385,-0.0879 0.99218,-0.28473 0.25366,-0.19686 0.39243,-0.508 0.39429,-0.84956 0.003,-0.28356 -0.12335,-0.55721 -0.3514,-0.72864 -0.22807,-0.17142 -0.5299,-0.26134 -0.91622,-0.31678 -0.76404,-0.10964 -1.33403,-0.37037 -1.74977,-0.78289 -0.41574,-0.41252 -0.68858,-0.98656 -0.81288,-1.7595894 -0.0623,-0.38718 -0.17447,-0.70813 -0.35552,-0.94929 -0.18106,-0.24117 -0.4521,-0.39843 -0.74777,-0.39843 z m 0,4.0953594 0.41601,0.43356 0.42788,0.44339 -0.42219,0.42219 c -0.16357,0.16355 -0.31745,0.31057 -0.42945,0.41393 -0.007,0.006 -0.01,0.008 -0.0161,0.0139 l -0.0191,-0.0196 c -0.10708,-0.10698 -0.25207,-0.25547 -0.40616,-0.41599 l -0.39275,-0.40825 0.42942,-0.44907 z m -26.17205,0.004 0.42788,0.42788 0.42945,0.42943 -0.42738,0.42788 c -0.16659,0.1666 -0.32079,0.31685 -0.43355,0.42375 -0.005,0.004 -0.007,0.005 -0.0119,0.0103 l -0.01,-0.0103 c -0.10776,-0.10788 -0.25445,-0.25688 -0.41235,-0.41962 l -0.40256,-0.41444 0.42579,-0.44132 z m 8.14266,1.41025 c -0.18349,0 -0.37204,-0.004 -0.55449,0.1173 -0.18243,0.12144 -0.27559,0.33208 -0.32814,0.60513 -0.10506,0.54612 -0.10387,1.4825 -0.10387,3.32228 0,1.46241 0.006,2.300148 0.0351,2.812749 0.0148,0.256302 0.0345,0.432737 0.0687,0.574125 0.0342,0.14139 0.0937,0.258003 0.16796,0.340032 0.41439,0.457906 1.15186,0.377851 1.54461,-0.121439 0.0673,-0.08562 0.13991,-0.18864 0.18756,-0.328147 0.0477,-0.139504 0.0727,-0.30168 0.0879,-0.542602 0.0303,-0.481838 0.0217,-1.292018 0.004,-2.863388 -0.0201,-1.79794 -0.0243,-2.70077 -0.1483,-3.23443 -0.062,-0.26683 -0.17947,-0.47795 -0.37312,-0.58394 -0.19365,-0.10599 -0.386,-0.0977 -0.58809,-0.0977 z m 9.89089,0 c -0.20209,0 -0.39238,-0.008 -0.58603,0.0977 -0.19362,0.10599 -0.31115,0.31711 -0.37309,0.58394 -0.1239,0.53366 -0.12808,1.43651 -0.14832,3.23443 -0.0177,1.57137 -0.0268,2.381544 0.004,2.863387 0.0151,0.240922 0.0401,0.403093 0.0878,0.542602 0.0476,0.13951 0.12023,0.242533 0.18759,0.328147 0.37727,0.479602 1.06199,0.561898 1.50585,0.160197 0.0741,-0.06705 0.15343,-0.179681 0.19534,-0.316261 0.0419,-0.136578 0.0643,-0.300625 0.0801,-0.548804 0.0315,-0.496356 0.0351,-1.334438 0.0351,-2.878888 0,-1.85141 0,-2.79359 -0.10335,-3.34192 -0.0525,-0.27417 -0.14552,-0.48532 -0.32813,-0.6072 -0.18264,-0.12189 -0.37306,-0.11731 -0.55655,-0.11731 z m -4.94546,0.90433 c -0.17177,0 -0.30552,0.0713 -0.46509,0.1602 -0.58248,0.32432 -0.71858,1.14646 -0.2713,1.64073 0.19058,0.21057 0.45381,0.31988 0.73639,0.31988 0.50686,0 0.86902,-0.37991 0.9648,-0.79686 0.0958,-0.41694 -0.0555,-0.91616 -0.50022,-1.16375 -0.15957,-0.0888 -0.29279,-0.1602 -0.46458,-0.1602 z m 0,3.94705 c -0.17227,0 -0.30533,0.0709 -0.46509,0.1602 l -0.47077,0.26355 -0.0331,3.894851 c -0.0145,1.677728 -0.0185,2.619465 0.006,3.181718 0.0124,0.281125 0.031,0.468764 0.0646,0.617016 0.0336,0.148248 0.0955,0.2696 0.16949,0.351398 l 0.076,0.08423 h 0.0185 c 0.17759,0.149744 0.39746,0.228409 0.63405,0.228409 0.2794,0 0.54147,-0.103536 0.73073,-0.312642 0.074,-0.0818 0.13591,-0.203157 0.16949,-0.351398 0.0336,-0.148241 0.0524,-0.335891 0.0646,-0.617016 0.0246,-0.562253 0.0206,-1.503987 0.006,-3.181718 l -0.0336,-3.894858 -0.47024,-0.26355 c -0.15976,-0.0893 -0.29491,-0.16019 -0.46718,-0.16019 z m -16.31786,1.883606 c -0.29303,2.65e-4 -0.52155,0.02394 -0.71932,0.128159 -0.19799,0.104325 -0.35664,0.211968 -0.46509,0.373102 -0.10848,0.161137 -0.14306,0.352787 -0.1442,0.55449 -0.003,0.317878 0.15375,0.609687 0.40982,0.783413 0.25603,0.173728 0.59089,0.248475 0.9865,0.250116 0.79324,0.0028 2.98161,0.317246 3.81836,0.55087 2.37045,0.661829 4.31847,1.710354 6.22286,3.208589 -1.20239,-0.604621 -2.47411,-1.119299 -3.7796,-1.39423 -0.62002,-0.130577 -1.96577,-0.211976 -3.8809,-0.25373 -1.44936,-0.03164 -2.18644,-0.04863 -2.62464,-0.0217 -0.21911,0.01347 -0.37124,0.03787 -0.50229,0.08992 -0.13107,0.05205 -0.22299,0.13308 -0.29456,0.20102 -0.0695,0.066 -0.16862,0.16565 -0.22479,0.314711 -0.0562,0.149058 -0.0797,0.327562 -0.0977,0.619083 -0.0359,0.583046 -0.0351,1.638411 -0.0351,3.755842 v 4.089673 l -0.28731,0.170015 c -0.79534,0.469273 -1.23447,1.203728 -1.295,2.155942 -0.0438,0.687864 0.0193,0.98919 0.3085,1.482598 0.21728,0.370755 0.58005,0.742556 0.93792,0.957045 l 0.58394,0.351401 h 17.39066 l 17.38861,0.0021 0.59171,-0.347265 c 0.37018,-0.216938 0.7261,-0.578729 0.9493,-0.959115 v -0.0021 c 0.29043,-0.495128 0.35637,-0.79706 0.31263,-1.484664 -0.0606,-0.952185 -0.49967,-1.686663 -1.295,-2.155942 l -0.28734,-0.170015 v -4.089673 c 0,-2.117431 0,-3.172799 -0.0351,-3.755842 -0.018,-0.291521 -0.0435,-0.470025 -0.0997,-0.619083 -0.0562,-0.149061 -0.15322,-0.248706 -0.22273,-0.314711 -0.0716,-0.06794 -0.16557,-0.148971 -0.29662,-0.20102 -0.13105,-0.05205 -0.28115,-0.07647 -0.50022,-0.08992 -0.4382,-0.02692 -1.17525,-0.0099 -2.62467,0.0217 -1.91508,0.04179 -3.26088,0.12315 -3.88088,0.25373 -1.50638,0.317243 -2.98516,0.93903 -4.35737,1.697053 0.34891,-0.348324 0.70265,-0.684699 0.82785,-0.941027 0.0854,-0.174853 0.11928,-0.364636 0.078,-0.539502 -0.0412,-0.174868 -0.14015,-0.315211 -0.2594,-0.447 -0.23114,-0.255392 -0.58489,-0.374258 -0.93173,-0.27337 -0.34684,0.100891 -0.70247,0.352158 -1.16996,0.75551 -1.47677,1.274196 -3.14539,3.341338 -3.97444,4.927864 -0.0743,0.142121 -0.14054,0.252871 -0.20359,0.36122 -0.0829,-0.138644 -0.17886,-0.300651 -0.28319,-0.494027 -1.13869,-2.110626 -3.3107,-4.513842 -5.42964,-6.015654 -1.28405,-0.910064 -3.61651,-2.086279 -5.09736,-2.570385 -1.00362,-0.328097 -2.37435,-0.604599 -3.57809,-0.765328 -0.60185,-0.08037 -1.16031,-0.133001 -1.61333,-0.144696 -0.11327,-0.0029 -0.21807,-0.0053 -0.31575,-0.0052 z m 32.47192,0.0052 c -0.38204,0.0013 -0.8527,0.0339 -1.36684,0.08992 -1.02825,0.112043 -2.22242,0.319979 -3.17397,0.581877 -0.53464,0.147156 -0.93411,0.381577 -1.14255,0.720886 -0.11533,0.187712 0.0379,0.403019 0.0816,0.619083 v 0.326078 l 0.0413,-0.0155 c 0.0367,0.0616 -0.0251,0.133723 0.0254,0.189651 l 0.45114,0.497644 v -0.320392 c 0.10856,0.03222 0.1837,0.118047 0.30644,0.121439 0.30324,0.0084 0.65405,-0.05547 1.07074,-0.181901 0.65355,-0.198292 3.08076,-0.546738 3.83749,-0.546738 0.38063,0 0.70874,-0.07679 0.95912,-0.251664 0.25037,-0.174871 0.40608,-0.464769 0.40409,-0.779796 0,-0.201565 -0.0359,-0.393374 -0.14417,-0.55449 -0.1084,-0.161112 -0.26707,-0.268761 -0.46508,-0.373102 -0.2344,-0.123515 -0.50268,-0.124439 -0.88472,-0.122991 z m -7.83,2.068608 c -0.26692,-0.0095 -0.53102,0.105198 -0.73639,0.310576 -0.1987,0.198715 -0.31581,0.450265 -0.31057,0.710552 0.005,0.260284 0.12684,0.510886 0.32607,0.722952 l 0.0997,0.105421 0.0765,-0.01551 c 0.16166,0.129146 0.32452,0.26478 0.52142,0.261483 0.26355,-0.0044 0.49305,-0.149394 0.70694,-0.363284 0.20809,-0.208113 0.35451,-0.426225 0.36327,-0.68368 0.009,-0.257453 -0.12605,-0.484429 -0.32245,-0.693497 -0.20214,-0.215159 -0.45762,-0.345509 -0.7245,-0.355018 z m -23.85127,4.181658 2.1699,0.05633 c 2.94072,0.07632 4.06392,0.322826 6.15207,1.349788 1.86529,0.917342 3.62021,2.552115 4.73046,4.164086 -1.40264,-0.975733 -2.85769,-1.776865 -4.40592,-2.294948 -0.73935,-0.247399 -1.167,-0.382765 -1.50585,-0.41238 -0.33885,-0.02961 -0.60841,0.106625 -0.79894,0.297141 -0.17587,0.175887 -0.29612,0.373353 -0.32813,0.589629 -0.032,0.216273 0.036,0.436438 0.16795,0.613397 0.26382,0.35392 0.74581,0.590089 1.42161,0.767397 0.38034,0.09979 1.26442,0.467148 2.08981,0.857827 0.65021,0.307774 1.11114,0.577366 1.45727,0.790649 l -5.27359,0.0021 -5.87664,0.0041 V 32.224497 31.06436 h 1.65209 c 0.87471,0 1.35763,-0.0026 1.67949,-0.03928 0.32187,-0.03678 0.5275,-0.148196 0.66249,-0.283186 0.21477,-0.214829 0.33018,-0.490522 0.31057,-0.765845 -0.0196,-0.275322 -0.17153,-0.532995 -0.41238,-0.722436 -0.16626,-0.130779 -0.37094,-0.229484 -0.6935,-0.267685 -0.3225,-0.0382 -0.78946,-0.04289 -1.6247,-0.04289 h -1.57406 v -1.17357 z m 31.0565,0 v 1.169955 1.17357 h -1.57405 c -0.83524,0 -1.30271,0.0047 -1.62523,0.04289 -0.32253,0.0382 -0.52721,0.138959 -0.6935,0.269751 -0.24083,0.189441 -0.39434,0.445039 -0.41392,0.72037 -0.0196,0.275331 0.0978,0.551024 0.31263,0.765844 0.13499,0.134994 0.34013,0.246404 0.66199,0.283187 0.32187,0.03678 0.80478,0.03927 1.67947,0.03927 h 1.65261 v 1.160137 1.160135 l -5.87716,-0.0041 c -3.00413,-0.0013 -4.47871,-0.0047 -5.21105,-0.03307 0.36137,-0.218302 0.78206,-0.46804 1.40044,-0.761711 0.82042,-0.389639 1.6959,-0.752851 2.07222,-0.851628 0.68085,-0.178705 1.16618,-0.415605 1.43195,-0.769461 0.1329,-0.17693 0.20193,-0.398748 0.17002,-0.615466 -0.0319,-0.21672 -0.15187,-0.413348 -0.32813,-0.589629 -0.19053,-0.190508 -0.46006,-0.326753 -0.79894,-0.29714 -0.33885,0.02961 -0.76856,0.164975 -1.50791,0.412379 -1.51969,0.508519 -2.94709,1.294905 -4.32636,2.244307 0.64391,-0.890937 1.48621,-1.965219 2.29703,-2.621544 1.275,-1.032111 3.28364,-2.043563 4.89633,-2.464451 1.0505,-0.274159 1.51714,-0.322853 3.61166,-0.377238 z m -15.52929,8.905917 c 5.79927,0 10.01657,0.01008 12.80284,0.03152 1.39314,0.01069 2.42885,0.02439 3.12489,0.04082 0.34801,0.0082 0.61111,0.01582 0.78909,0.02532 0.089,0.0047 0.15595,0.01103 0.19894,0.0155 0.003,2.01e-4 0.003,-1.98e-4 0.004,0 0.36859,0.213511 0.33536,0.770247 -0.0801,0.971 -0.0145,0.0016 -0.0275,0.0019 -0.0506,0.0036 -0.0692,0.005 -0.1719,0.01101 -0.30282,0.01601 -0.26185,0.01 -0.63764,0.01876 -1.1095,0.02739 -0.94366,0.01725 -2.27176,0.03158 -3.85556,0.04289 -3.16762,0.02262 -7.35719,0.03395 -11.5466,0.03307 -4.18939,-7.94e-4 -8.37833,-0.01328 -11.54295,-0.03721 -1.58232,-0.01196 -2.91,-0.02735 -3.85144,-0.04496 -0.47074,-0.0088 -0.84537,-0.01728 -1.10588,-0.02739 -0.13028,-0.0051 -0.23235,-0.01045 -0.30077,-0.0155 -0.0199,-0.0016 -0.0293,-0.0024 -0.0429,-0.0036 -0.37569,-0.195734 -0.39778,-0.762918 -0.0506,-0.965317 0.003,-2.09e-4 0.003,2.12e-4 0.004,0 0.043,-0.0045 0.112,-0.01074 0.201,-0.0155 0.17799,-0.0095 0.44109,-0.01709 0.7891,-0.02532 0.69604,-0.01643 1.73175,-0.03012 3.12488,-0.04082 2.78628,-0.0214 7.00149,-0.03152 12.80076,-0.03152 z"
       style="fill:#000000;stroke:none;stroke-width:0.51801479;stroke-miterlimit:4;stroke-dasharray:none;stroke-opacity:1"
       inkscape:connector-curvature="0" />
    <path
       inkscape:tile-y0="-16.375296"
       inkscape:tile-x0="72.982128"
       id="use9625"
       d="m -47.618042,109.25119 c 0.41394,-10e-5 0.78348,-0.11911 1.0542,-0.4315 0.27083,-0.31252 0.45781,-0.76996 0.68937,-1.47639 l 0.34571,-1.0511 h 1.08984 c 0.87458,0 1.46831,-0.0644 1.89447,-0.31058 0.42614,-0.24616 0.60566,-0.70194 0.60566,-1.24385 0,-0.33203 -0.069,-0.63524 -0.29096,-0.91415 -0.22193,-0.27894 -0.56446,-0.54394 -1.13686,-0.95499 -0.23871,-0.17141 -0.45733,-0.34819 -0.60928,-0.48627 -0.0751,-0.0682 -0.13394,-0.12695 -0.16794,-0.1664 0.003,-0.0186 0.003,-0.008 0.008,-0.0346 0.0143,-0.0634 0.0369,-0.15002 0.0641,-0.25011 0.0543,-0.20018 0.12964,-0.45605 0.21291,-0.71675 0.23818,-0.74577 0.34793,-1.293356 0.27956,-1.753896 -0.0684,-0.46054 -0.3533,-0.80674 -0.76946,-1.0356 -0.31004,-0.17051 -0.65069,-0.24155 -1.02164,-0.11524 -0.37095,0.12632 -0.78094,0.40134 -1.42989,0.87333 -0.22058,0.16046 -0.43931,0.30691 -0.60719,0.41032 -0.0839,0.0517 -0.15592,0.0937 -0.20516,0.11885 0,5.3e-4 0,-2.6e-4 -0.003,0 -0.006,-0.003 -0.007,-0.003 -0.0135,-0.006 -0.0564,-0.0298 -0.13896,-0.0772 -0.2346,-0.13694 -0.1913,-0.11951 -0.43956,-0.28818 -0.69506,-0.47284 -0.26493,-0.19148 -0.53563,-0.37302 -0.76378,-0.51366 -0.11408,-0.0703 -0.21852,-0.13077 -0.30697,-0.17777 -0.0885,-0.047 -0.15044,-0.0806 -0.23976,-0.10335 -0.90337,-0.23013 -1.83616,0.49567 -1.83245,1.42782 0,0.17046 0.0399,0.389136 0.0977,0.652146 0.0577,0.26301 0.1355,0.55892 0.22273,0.83199 0.0833,0.26072 0.16065,0.51673 0.21497,0.71676 0.0271,0.10001 0.0482,0.18684 0.0625,0.25011 0.006,0.0266 0.005,0.0165 0.008,0.0351 -0.0309,0.0363 -0.0829,0.0906 -0.15039,0.15244 -0.14021,0.1285 -0.34105,0.29138 -0.56224,0.44907 -0.59764,0.42607 -0.95793,0.70242 -1.1896,0.9865 -0.23164,0.28409 -0.30556,0.59291 -0.30281,0.92398 0.003,0.29081 0.0376,0.53279 0.15814,0.74982 0.12046,0.21703 0.30835,0.38328 0.56274,0.55863 0.15838,0.10913 0.35634,0.17596 0.62323,0.21084 0.26688,0.0349 0.61386,0.045 1.13067,0.045 h 1.11519 l 0.34571,1.05058 c 0.23153,0.70643 0.41854,1.16439 0.68937,1.47691 0.27069,0.31239 0.64233,0.4314 1.05627,0.4315 z m -0.003,-3.252 c -0.0418,-0.11765 -0.0792,-0.21549 -0.12298,-0.35501 -0.0829,-0.26426 -0.17753,-0.52026 -0.26768,-0.72658 -0.0451,-0.10315 -0.0882,-0.19559 -0.13075,-0.27181 -0.0425,-0.0762 -0.0682,-0.13163 -0.15399,-0.20309 -0.1006,-0.0838 -0.16375,-0.0906 -0.25424,-0.11524 -0.0905,-0.0247 -0.19862,-0.046 -0.32041,-0.0662 -0.24355,-0.0404 -0.54427,-0.0725 -0.85524,-0.0899 l -0.38499,-0.0217 0.25632,-0.1912 c 0.23604,-0.17567 0.459,-0.36301 0.63458,-0.52917 0.0878,-0.0831 0.16333,-0.16092 0.22479,-0.23254 0.0615,-0.0716 0.1107,-0.1221 0.14833,-0.22842 0.0676,-0.19072 0.0343,-0.34465 -0.004,-0.56482 -0.0383,-0.22016 -0.10522,-0.48262 -0.1974,-0.77153 -0.0461,-0.14446 -0.08,-0.25886 -0.11888,-0.38654 0.0937,0.0641 0.16425,0.10766 0.2713,0.18552 0.24244,0.17634 0.49353,0.33468 0.70901,0.4532 0.10774,0.0593 0.20595,0.10939 0.29509,0.14625 0.0891,0.0369 0.156,0.0687 0.27337,0.0687 0.11734,0 0.18219,-0.0318 0.27127,-0.0687 0.0891,-0.0369 0.18735,-0.087 0.29509,-0.14625 0.21548,-0.11852 0.46657,-0.27686 0.70901,-0.4532 0.10678,-0.0777 0.17777,-0.12154 0.2713,-0.18552 -0.0389,0.12761 -0.0707,0.24217 -0.11681,0.38654 -0.0921,0.28889 -0.15907,0.55137 -0.19738,0.77153 -0.0383,0.22016 -0.0718,0.37404 -0.004,0.56482 0.0376,0.10622 0.0853,0.1568 0.14677,0.22842 0.0615,0.0716 0.13859,0.14947 0.22635,0.23254 0.17555,0.16616 0.39854,0.3535 0.63458,0.52917 l 0.2558,0.1912 -0.38653,0.0217 c -0.31097,0.0175 -0.61169,0.0496 -0.85524,0.0899 -0.12179,0.0202 -0.22786,0.0415 -0.31835,0.0662 -0.0905,0.0247 -0.15573,0.0315 -0.2563,0.11524 -0.0857,0.0714 -0.10941,0.12688 -0.15193,0.20309 -0.0425,0.0762 -0.0862,0.16866 -0.13126,0.27181 -0.0902,0.20632 -0.18637,0.46231 -0.26924,0.72658 -0.0438,0.13976 -0.0833,0.23721 -0.12506,0.35501 z m 13.08603,-4.51755 c 0.29567,0 0.56515,-0.15726 0.7462,-0.39843 0.18108,-0.24116 0.29536,-0.5621 0.35761,-0.94929 0.1243,-0.773026 0.39455,-1.347066 0.81029,-1.759586 0.41574,-0.41252 0.98623,-0.67325 1.75027,-0.78289 0.38632,-0.0554 0.6876,-0.14536 0.91572,-0.31678 0.22813,-0.17142 0.35539,-0.44496 0.35346,-0.72864 -0.003,-0.34149 -0.14274,-0.65274 -0.39634,-0.84956 -0.25363,-0.19682 -0.59405,-0.28198 -0.99219,-0.28473 -0.53467,-0.004 -1.1571,-0.32629 -1.63298,-0.80874 -0.47588,-0.48245 -0.79344,-1.11469 -0.79685,-1.66036 -0.003,-0.33056 -0.11454,-0.67585 -0.31419,-0.92966 -0.38719,-0.49224 -1.12602,-0.57737 -1.52757,-0.11886 -0.10674,0.12186 -0.15531,0.25575 -0.21082,0.42168 -0.0555,0.16593 -0.10025,0.35492 -0.12714,0.54105 -0.20738,1.43841 -1.3685,2.55644 -2.56418,2.55644 -0.3252,0 -0.63603,0.12239 -0.88109,0.30282 -0.24506,0.18043 -0.44701,0.42811 -0.44699,0.74414 0,0.29261 0.11293,0.57884 0.35346,0.75964 0.24053,0.1808 0.56547,0.27891 1.02733,0.37517 1.45229,0.30269 2.20313,1.05557 2.50579,2.507856 0.0926,0.44437 0.19256,0.76438 0.35914,1.00408 0.16661,0.23968 0.43715,0.37465 0.71107,0.37465 z m -26.1679,0 c 0.27392,0 0.54239,-0.13497 0.709,-0.37465 0.16658,-0.2397 0.26705,-0.55971 0.35965,-1.00408 0.30268,-1.452286 1.05505,-2.205166 2.50735,-2.507856 0.46186,-0.0963 0.78523,-0.19437 1.02579,-0.37517 0.24053,-0.1808 0.35346,-0.46703 0.35346,-0.75964 0,-0.31603 -0.20246,-0.56371 -0.44752,-0.74414 -0.24506,-0.18043 -0.55539,-0.30282 -0.88056,-0.30282 -1.1957,0 -2.35524,-1.11803 -2.56265,-2.55644 -0.0268,-0.18619 -0.0737,-0.3751 -0.12919,-0.54105 -0.0555,-0.16594 -0.10414,-0.29986 -0.21082,-0.42168 -0.32549,-0.37166 -0.84426,-0.38005 -1.20873,-0.14883 -0.36446,0.23122 -0.62796,0.67101 -0.63097,1.19735 -0.003,0.54563 -0.32301,1.17787 -0.79891,1.66036 -0.47591,0.48249 -1.09837,0.80535 -1.63299,0.80874 -0.39819,0.003 -0.7385,0.0879 -0.99218,0.28473 -0.25366,0.19686 -0.39243,0.508 -0.39429,0.84956 -0.003,0.28356 0.12335,0.55721 0.3514,0.72864 0.22807,0.17142 0.5299,0.26134 0.91622,0.31678 0.76404,0.10964 1.33403,0.37037 1.74977,0.78289 0.41574,0.41252 0.68858,0.98656 0.81288,1.759586 0.0623,0.38718 0.17447,0.70813 0.35552,0.94929 0.18106,0.24117 0.4521,0.39843 0.74777,0.39843 z m 0,-4.095356 -0.41601,-0.43356 -0.42788,-0.44339 0.42219,-0.42219 c 0.16357,-0.16355 0.31745,-0.31057 0.42945,-0.41393 0.007,-0.006 0.01,-0.008 0.0161,-0.0139 l 0.0191,0.0196 c 0.10708,0.10698 0.25207,0.25547 0.40616,0.41599 l 0.39275,0.40825 -0.42942,0.44907 z m 26.17205,-0.004 -0.42788,-0.42788 -0.42945,-0.42943 0.42738,-0.42788 c 0.16659,-0.1666 0.32079,-0.31685 0.43355,-0.42375 0.005,-0.004 0.007,-0.005 0.0119,-0.0103 l 0.01,0.0103 c 0.10776,0.10788 0.25445,0.25688 0.41235,0.41962 l 0.40256,0.41444 -0.42579,0.44132 z m -8.14266,-1.41025 c 0.18349,0 0.37204,0.004 0.55449,-0.1173 0.18243,-0.12144 0.27559,-0.33208 0.32814,-0.60513 0.10506,-0.54612 0.10387,-1.4825 0.10387,-3.32228 0,-1.46241 -0.006,-2.300148 -0.0351,-2.812749 -0.0148,-0.256302 -0.0345,-0.432737 -0.0687,-0.574125 -0.0342,-0.14139 -0.0937,-0.258003 -0.16796,-0.340032 -0.41439,-0.457906 -1.15186,-0.377851 -1.54461,0.121439 -0.0673,0.08562 -0.13991,0.18864 -0.18756,0.328147 -0.0477,0.139504 -0.0727,0.30168 -0.0879,0.542602 -0.0303,0.481838 -0.0217,1.292018 -0.004,2.863388 0.0201,1.79794 0.0243,2.70077 0.1483,3.23443 0.062,0.26683 0.17947,0.47795 0.37312,0.58394 0.19365,0.10599 0.386,0.0977 0.58809,0.0977 z m -9.89089,0 c 0.20209,0 0.39238,0.008 0.58603,-0.0977 0.19362,-0.10599 0.31115,-0.31711 0.37309,-0.58394 0.1239,-0.53366 0.12808,-1.43651 0.14832,-3.23443 0.0177,-1.57137 0.0268,-2.381544 -0.004,-2.863387 -0.0151,-0.240922 -0.0401,-0.403093 -0.0878,-0.542602 -0.0476,-0.13951 -0.12023,-0.242533 -0.18759,-0.328147 -0.37727,-0.479602 -1.06199,-0.561898 -1.50585,-0.160197 -0.0741,0.06705 -0.15343,0.179681 -0.19534,0.316261 -0.0419,0.136578 -0.0643,0.300625 -0.0801,0.548804 -0.0315,0.496356 -0.0351,1.334438 -0.0351,2.878888 0,1.85141 0,2.79359 0.10335,3.34192 0.0525,0.27417 0.14552,0.48532 0.32813,0.6072 0.18264,0.12189 0.37306,0.11731 0.55655,0.11731 z m 4.94546,-0.90433 c 0.17177,0 0.30552,-0.0713 0.46509,-0.1602 0.58248,-0.32432 0.71858,-1.14646 0.2713,-1.64073 -0.19058,-0.21057 -0.45381,-0.31988 -0.73639,-0.31988 -0.50686,0 -0.86902,0.37991 -0.9648,0.79686 -0.0958,0.41694 0.0555,0.91616 0.50022,1.16375 0.15957,0.0888 0.29279,0.1602 0.46458,0.1602 z m 0,-3.94705 c 0.17227,0 0.30533,-0.0709 0.46509,-0.1602 l 0.47077,-0.26355 0.0331,-3.894851 c 0.0145,-1.677728 0.0185,-2.619465 -0.006,-3.181718 -0.0124,-0.281125 -0.031,-0.468764 -0.0646,-0.617016 -0.0336,-0.148248 -0.0955,-0.2696 -0.16949,-0.351398 l -0.076,-0.08423 h -0.0185 c -0.17759,-0.149744 -0.39746,-0.228409 -0.63405,-0.228409 -0.2794,0 -0.54147,0.103536 -0.73073,0.312642 -0.074,0.0818 -0.13591,0.203157 -0.16949,0.351398 -0.0336,0.148241 -0.0524,0.335891 -0.0646,0.617016 -0.0246,0.562253 -0.0206,1.503987 -0.006,3.181718 l 0.0336,3.894858 0.47024,0.26355 c 0.15976,0.0893 0.29491,0.16019 0.46718,0.16019 z m 16.31786,-1.883606 c 0.29303,-2.65e-4 0.52155,-0.02394 0.71932,-0.128159 0.19799,-0.104325 0.35664,-0.211968 0.46509,-0.373102 0.10848,-0.161137 0.14306,-0.352787 0.1442,-0.55449 0.003,-0.317878 -0.15375,-0.609687 -0.40982,-0.783413 -0.25603,-0.173728 -0.59089,-0.248475 -0.9865,-0.250116 -0.79324,-0.0028 -2.98161,-0.317246 -3.81836,-0.55087 -2.37045,-0.661829 -4.31847,-1.710354 -6.22286,-3.208589 1.20239,0.604621 2.47411,1.119299 3.7796,1.39423 0.62002,0.130577 1.96577,0.211976 3.8809,0.25373 1.44936,0.03164 2.18644,0.04863 2.62464,0.0217 0.21911,-0.01347 0.37124,-0.03787 0.50229,-0.08992 0.13107,-0.05205 0.22299,-0.13308 0.29456,-0.20102 0.0695,-0.066 0.16862,-0.16565 0.22479,-0.314711 0.0562,-0.149058 0.0797,-0.327562 0.0977,-0.619083 0.0359,-0.583046 0.0351,-1.638411 0.0351,-3.755842 V 75.98772 l 0.28731,-0.170015 c 0.79534,-0.469273 1.23447,-1.203728 1.295,-2.155942 0.0438,-0.687864 -0.0193,-0.98919 -0.3085,-1.482598 -0.21728,-0.370755 -0.58005,-0.742556 -0.93792,-0.957045 l -0.58394,-0.351401 h -17.39066 l -17.38861,-0.0021 -0.59171,0.347265 c -0.37018,0.216938 -0.7261,0.578729 -0.9493,0.959115 v 0.0021 c -0.29043,0.495128 -0.35637,0.79706 -0.31263,1.484664 0.0606,0.952185 0.49967,1.686663 1.295,2.155942 l 0.28734,0.170015 v 4.089673 c 0,2.117431 0,3.172799 0.0351,3.755842 0.018,0.291521 0.0435,0.470025 0.0997,0.619083 0.0562,0.149061 0.15322,0.248706 0.22273,0.314711 0.0716,0.06794 0.16557,0.148971 0.29662,0.20102 0.13105,0.05205 0.28115,0.07647 0.50022,0.08992 0.4382,0.02692 1.17525,0.0099 2.62467,-0.0217 1.91508,-0.04179 3.26088,-0.12315 3.88088,-0.25373 1.50638,-0.317243 2.98516,-0.93903 4.35737,-1.697053 -0.34891,0.348324 -0.70265,0.684699 -0.82785,0.941027 -0.0854,0.174853 -0.11928,0.364636 -0.078,0.539502 0.0412,0.174868 0.14015,0.315211 0.2594,0.447 0.23114,0.255392 0.58489,0.374258 0.93173,0.27337 0.34684,-0.100891 0.70247,-0.352158 1.16996,-0.75551 1.47677,-1.274196 3.14539,-3.341338 3.97444,-4.927864 0.0743,-0.142121 0.14054,-0.252871 0.20359,-0.36122 0.0829,0.138644 0.17886,0.300651 0.28319,0.494027 1.13869,2.110626 3.3107,4.513842 5.42964,6.015654 1.28405,0.910064 3.61651,2.086279 5.09736,2.570385 1.00362,0.328097 2.37435,0.604599 3.57809,0.765328 0.60185,0.08037 1.16031,0.133001 1.61333,0.144696 0.11327,0.0029 0.21807,0.0053 0.31575,0.0052 z m -32.47192,-0.0052 c 0.38204,-0.0013 0.8527,-0.0339 1.36684,-0.08992 1.02825,-0.112043 2.22242,-0.319979 3.17397,-0.581877 0.53464,-0.147156 0.93411,-0.381577 1.14255,-0.720886 0.11533,-0.187712 -0.0379,-0.403019 -0.0816,-0.619083 v -0.326078 l -0.0413,0.0155 c -0.0367,-0.0616 0.0251,-0.133723 -0.0254,-0.189651 l -0.45114,-0.497644 v 0.320392 c -0.10856,-0.03222 -0.1837,-0.118047 -0.30644,-0.121439 -0.30324,-0.0084 -0.65405,0.05547 -1.07074,0.181901 -0.65355,0.198292 -3.08076,0.546738 -3.83749,0.546738 -0.38063,0 -0.70874,0.07679 -0.95912,0.251664 -0.25037,0.174871 -0.40608,0.464769 -0.40409,0.779796 0,0.201565 0.0359,0.393374 0.14417,0.55449 0.1084,0.161112 0.26707,0.268761 0.46508,0.373102 0.2344,0.123515 0.50268,0.124439 0.88472,0.122991 z m 7.83,-2.068608 c 0.26692,0.0095 0.53102,-0.105198 0.73639,-0.310576 0.1987,-0.198715 0.31581,-0.450265 0.31057,-0.710552 -0.005,-0.260284 -0.12684,-0.510886 -0.32607,-0.722952 l -0.0997,-0.105421 -0.0765,0.01551 c -0.16166,-0.129146 -0.32452,-0.26478 -0.52142,-0.261483 -0.26355,0.0044 -0.49305,0.149394 -0.70694,0.363284 -0.20809,0.208113 -0.35451,0.426225 -0.36327,0.68368 -0.009,0.257453 0.12605,0.484429 0.32245,0.693497 0.20214,0.215159 0.45762,0.345509 0.7245,0.355018 z m 23.85127,-4.181658 -2.1699,-0.05633 c -2.94072,-0.07632 -4.06392,-0.322826 -6.15207,-1.349788 -1.86529,-0.917342 -3.62021,-2.552115 -4.73046,-4.164086 1.40264,0.975733 2.85769,1.776865 4.40592,2.294948 0.73935,0.247399 1.167,0.382765 1.50585,0.41238 0.33885,0.02961 0.60841,-0.106625 0.79894,-0.297141 0.17587,-0.175887 0.29612,-0.373353 0.32813,-0.589629 0.032,-0.216273 -0.036,-0.436438 -0.16795,-0.613397 -0.26382,-0.35392 -0.74581,-0.590089 -1.42161,-0.767397 -0.38034,-0.09979 -1.26442,-0.467148 -2.08981,-0.857827 -0.65021,-0.307774 -1.11114,-0.577366 -1.45727,-0.790649 l 5.27359,-0.0021 5.87664,-0.0041 v 1.160134 1.160137 h -1.65209 c -0.87471,0 -1.35763,0.0026 -1.67949,0.03928 -0.32187,0.03678 -0.5275,0.148196 -0.66249,0.283186 -0.21477,0.214829 -0.33018,0.490522 -0.31057,0.765845 0.0196,0.275322 0.17153,0.532995 0.41238,0.722436 0.16626,0.130779 0.37094,0.229484 0.6935,0.267685 0.3225,0.0382 0.78946,0.04289 1.6247,0.04289 h 1.57406 v 1.17357 z m -31.0565,0 v -1.169955 -1.17357 h 1.57405 c 0.83524,0 1.30271,-0.0047 1.62523,-0.04289 0.32253,-0.0382 0.52721,-0.138959 0.6935,-0.269751 0.24083,-0.189441 0.39434,-0.445039 0.41392,-0.72037 0.0196,-0.275331 -0.0978,-0.551024 -0.31263,-0.765844 -0.13499,-0.134994 -0.34013,-0.246404 -0.66199,-0.283187 -0.32187,-0.03678 -0.80478,-0.03927 -1.67947,-0.03927 h -1.65261 v -1.160137 -1.160135 l 5.87716,0.0041 c 3.00413,0.0013 4.47871,0.0047 5.21105,0.03307 -0.36137,0.218302 -0.78206,0.46804 -1.40044,0.761711 -0.82042,0.389639 -1.6959,0.752851 -2.07222,0.851628 -0.68085,0.178705 -1.16618,0.415605 -1.43195,0.769461 -0.1329,0.17693 -0.20193,0.398748 -0.17002,0.615466 0.0319,0.21672 0.15187,0.413348 0.32813,0.589629 0.19053,0.190508 0.46006,0.326753 0.79894,0.29714 0.33885,-0.02961 0.76856,-0.164975 1.50791,-0.412379 1.51969,-0.508519 2.94709,-1.294905 4.32636,-2.244307 -0.64391,0.890937 -1.48621,1.965219 -2.29703,2.621544 -1.275,1.032111 -3.28364,2.043563 -4.89633,2.464451 -1.0505,0.274159 -1.51714,0.322853 -3.61166,0.377238 z m 15.52929,-8.905917 c -5.79927,0 -10.01657,-0.01008 -12.80284,-0.03152 -1.39314,-0.01069 -2.42885,-0.02439 -3.12489,-0.04082 -0.34801,-0.0082 -0.61111,-0.01582 -0.78909,-0.02532 -0.089,-0.0047 -0.15595,-0.01103 -0.19894,-0.0155 -0.003,-2.01e-4 -0.003,1.98e-4 -0.004,0 -0.36859,-0.213511 -0.33536,-0.770247 0.0801,-0.971 0.0145,-0.0016 0.0275,-0.0019 0.0506,-0.0036 0.0692,-0.005 0.1719,-0.01101 0.30282,-0.01601 0.26185,-0.01 0.63764,-0.01876 1.1095,-0.02739 0.94366,-0.01725 2.27176,-0.03158 3.85556,-0.04289 3.16762,-0.02262 7.35719,-0.03395 11.5466,-0.03307 4.18939,7.94e-4 8.37833,0.01328 11.54295,0.03721 1.58232,0.01196 2.91,0.02735 3.85144,0.04496 0.47074,0.0088 0.84537,0.01728 1.10588,0.02739 0.13028,0.0051 0.23235,0.01045 0.30077,0.0155 0.0199,0.0016 0.0293,0.0024 0.0429,0.0036 0.37569,0.195734 0.39778,0.762918 0.0506,0.965317 -0.003,2.09e-4 -0.003,-2.12e-4 -0.004,0 -0.043,0.0045 -0.112,0.01074 -0.201,0.0155 -0.17799,0.0095 -0.44109,0.01709 -0.7891,0.02532 -0.69604,0.01643 -1.73175,0.03012 -3.12488,0.04082 -2.78628,0.0214 -7.00149,0.03152 -12.80076,0.03152 z"
       style="fill:#000000;stroke:none;stroke-width:0.51801479;stroke-miterlimit:4;stroke-dasharray:none;stroke-opacity:1"
       inkscape:connector-curvature="0" />
    <path
       inkscape:tile-y0="-16.375296"
       inkscape:tile-x0="72.982128"
       id="use9627"
       d="m 19.897351,42.897086 c -0.41394,-1e-4 -0.78348,-0.11911 -1.0542,-0.4315 -0.27083,-0.31252 -0.45781,-0.76996 -0.68937,-1.47639 l -0.34571,-1.0511 h -1.08984 c -0.87458,0 -1.46831,-0.0644 -1.89447,-0.31058 -0.42614,-0.24616 -0.60566,-0.70194 -0.60566,-1.24385 0,-0.33203 0.069,-0.63524 0.29096,-0.91415 0.22193,-0.27894 0.56446,-0.54394 1.13686,-0.95499 0.23871,-0.17141 0.45733,-0.34819 0.60928,-0.48627 0.0751,-0.0682 0.13394,-0.12695 0.16794,-0.1664 -0.003,-0.0186 -0.003,-0.008 -0.008,-0.0346 -0.0143,-0.0634 -0.0369,-0.15002 -0.0641,-0.25011 -0.0543,-0.20018 -0.12964,-0.45605 -0.21291,-0.71675 -0.23818,-0.74577 -0.34793,-1.29336 -0.27956,-1.7539 0.0684,-0.46054 0.3533,-0.80674 0.76946,-1.0356 0.31004,-0.17051 0.65069,-0.24155 1.02164,-0.11524 0.37095,0.12632 0.78094,0.40134 1.42989,0.87333 0.22058,0.16046 0.43931,0.30691 0.60719,0.41032 0.0839,0.0517 0.15592,0.0937 0.20516,0.11885 0,5.3e-4 0,-2.6e-4 0.003,0 0.006,-0.003 0.007,-0.003 0.0135,-0.006 0.0564,-0.0298 0.13896,-0.0772 0.2346,-0.13694 0.1913,-0.11951 0.43956,-0.28818 0.69506,-0.47284 0.26493,-0.19148 0.53563,-0.37302 0.76378,-0.51366 0.11408,-0.0703 0.21852,-0.13077 0.30697,-0.17777 0.0885,-0.047 0.15044,-0.0806 0.23976,-0.10335 0.90337,-0.23013 1.83616,0.49567 1.83245,1.42782 0,0.17046 -0.0399,0.38914 -0.0977,0.65215 -0.0577,0.26301 -0.1355,0.55892 -0.22273,0.83199 -0.0833,0.26072 -0.16065,0.51673 -0.21497,0.71676 -0.0271,0.10001 -0.0482,0.18684 -0.0625,0.25011 -0.006,0.0266 -0.005,0.0165 -0.008,0.0351 0.0309,0.0363 0.0829,0.0906 0.15039,0.15244 0.14021,0.1285 0.34105,0.29138 0.56224,0.44907 0.59764,0.42607 0.95793,0.70242 1.1896,0.9865 0.23164,0.28409 0.30556,0.59291 0.30281,0.92398 -0.003,0.29081 -0.0376,0.53279 -0.15814,0.74982 -0.12046,0.21703 -0.30835,0.38328 -0.56274,0.55863 -0.15838,0.10913 -0.35634,0.17596 -0.62323,0.21084 -0.26688,0.0349 -0.61386,0.045 -1.13067,0.045 h -1.11519 l -0.34571,1.05058 c -0.23153,0.70643 -0.41854,1.16439 -0.68937,1.47691 -0.27069,0.31239 -0.64233,0.4314 -1.05627,0.4315 z m 0.003,-3.252 c 0.0418,-0.11765 0.0792,-0.21549 0.12298,-0.35501 0.0829,-0.26426 0.17753,-0.52026 0.26768,-0.72658 0.0451,-0.10315 0.0882,-0.19559 0.13075,-0.27181 0.0425,-0.0762 0.0682,-0.13163 0.15399,-0.20309 0.1006,-0.0838 0.16375,-0.0906 0.25424,-0.11524 0.0905,-0.0247 0.19862,-0.046 0.32041,-0.0662 0.24355,-0.0404 0.54427,-0.0725 0.85524,-0.0899 l 0.38499,-0.0217 -0.25632,-0.1912 c -0.23604,-0.17567 -0.459,-0.36301 -0.63458,-0.52917 -0.0878,-0.0831 -0.16333,-0.16092 -0.22479,-0.23254 -0.0615,-0.0716 -0.1107,-0.1221 -0.14833,-0.22842 -0.0676,-0.19072 -0.0343,-0.34465 0.004,-0.56482 0.0383,-0.22016 0.10522,-0.48262 0.1974,-0.77153 0.0461,-0.14446 0.08,-0.25886 0.11888,-0.38654 -0.0937,0.0641 -0.16425,0.10766 -0.2713,0.18552 -0.24244,0.17634 -0.49353,0.33468 -0.70901,0.4532 -0.10774,0.0593 -0.20595,0.10939 -0.29509,0.14625 -0.0891,0.0369 -0.156,0.0687 -0.27337,0.0687 -0.11734,0 -0.18219,-0.0318 -0.27127,-0.0687 -0.0891,-0.0369 -0.18735,-0.087 -0.29509,-0.14625 -0.21548,-0.11852 -0.46657,-0.27686 -0.70901,-0.4532 -0.10678,-0.0777 -0.17777,-0.12154 -0.2713,-0.18552 0.0389,0.12761 0.0707,0.24217 0.11681,0.38654 0.0921,0.28889 0.15907,0.55137 0.19738,0.77153 0.0383,0.22016 0.0718,0.37404 0.004,0.56482 -0.0376,0.10622 -0.0853,0.1568 -0.14677,0.22842 -0.0615,0.0716 -0.13859,0.14947 -0.22635,0.23254 -0.17555,0.16616 -0.39854,0.3535 -0.63458,0.52917 l -0.2558,0.1912 0.38653,0.0217 c 0.31097,0.0175 0.61169,0.0496 0.85524,0.0899 0.12179,0.0202 0.22786,0.0415 0.31835,0.0662 0.0905,0.0247 0.15573,0.0315 0.2563,0.11524 0.0857,0.0714 0.10941,0.12688 0.15193,0.20309 0.0425,0.0762 0.0862,0.16866 0.13126,0.27181 0.0902,0.20632 0.18637,0.46231 0.26924,0.72658 0.0438,0.13976 0.0833,0.23721 0.12506,0.35501 z m -13.08603,-4.51755 c -0.29567,0 -0.56515,-0.15726 -0.7462,-0.39843 -0.18108,-0.24116 -0.29536,-0.5621 -0.35761,-0.94929 -0.1243,-0.77303 -0.39455,-1.34707 -0.81029,-1.75959 -0.41574,-0.41252 -0.98623,-0.67325 -1.75027,-0.78289 -0.38632,-0.0554 -0.6876,-0.14536 -0.91572,-0.31678 -0.22813,-0.17142 -0.35539,-0.44496 -0.35346,-0.72864 0.003,-0.34149 0.14274,-0.65274 0.39634,-0.84956 0.25363,-0.19682 0.59405,-0.28198 0.99219,-0.28473 0.53467,-0.004 1.1571,-0.32629 1.63298,-0.80874 0.47588,-0.48245 0.79344,-1.11469 0.79685,-1.66036 0.003,-0.33056 0.11454,-0.67585 0.31419,-0.92966 0.38719,-0.49224 1.12602,-0.57737 1.52757,-0.11886 0.10674,0.12186 0.15531,0.25575 0.21082,0.42168 0.0555,0.16593 0.10025,0.35492 0.12714,0.54105 0.20738,1.43841 1.3685,2.55644 2.56418,2.55644 0.3252,0 0.63603,0.12239 0.88109,0.30282 0.24506,0.18043 0.44701,0.42811 0.44699,0.74414 0,0.29261 -0.11293,0.57884 -0.35346,0.75964 -0.24053,0.1808 -0.56547,0.27891 -1.02733,0.37517 -1.45229,0.30269 -2.20313,1.05557 -2.50579,2.50786 -0.0926,0.44437 -0.19256,0.76438 -0.35914,1.00408 -0.16661,0.23968 -0.43715,0.37465 -0.71107,0.37465 z m 26.1679,0 c -0.27392,0 -0.54239,-0.13497 -0.709,-0.37465 -0.16658,-0.2397 -0.26705,-0.55971 -0.35965,-1.00408 -0.30268,-1.45229 -1.05505,-2.20517 -2.50735,-2.50786 -0.46186,-0.0963 -0.78523,-0.19437 -1.02579,-0.37517 -0.24053,-0.1808 -0.35346,-0.46703 -0.35346,-0.75964 0,-0.31603 0.20246,-0.56371 0.44752,-0.74414 0.24506,-0.18043 0.55539,-0.30282 0.88056,-0.30282 1.1957,0 2.35524,-1.11803 2.56265,-2.55644 0.0268,-0.18619 0.0737,-0.3751 0.12919,-0.54105 0.0555,-0.16594 0.10414,-0.29986 0.21082,-0.42168 0.32549,-0.37166 0.84426,-0.38005 1.20873,-0.14883 0.36446,0.23122 0.62796,0.67101 0.63097,1.19735 0.003,0.54563 0.32301,1.17787 0.79891,1.66036 0.47591,0.48249 1.09837,0.80535 1.63299,0.80874 0.39819,0.003 0.7385,0.0879 0.99218,0.28473 0.25366,0.19686 0.39243,0.508 0.39429,0.84956 0.003,0.28356 -0.12335,0.55721 -0.3514,0.72864 -0.22807,0.17142 -0.5299,0.26134 -0.91622,0.31678 -0.76404,0.10964 -1.33403,0.37037 -1.74977,0.78289 -0.41574,0.41252 -0.68858,0.98656 -0.81288,1.75959 -0.0623,0.38718 -0.17447,0.70813 -0.35552,0.94929 -0.18106,0.24117 -0.4521,0.39843 -0.74777,0.39843 z m 0,-4.09536 0.41601,-0.43356 0.42788,-0.44339 -0.42219,-0.42219 c -0.16357,-0.16355 -0.31745,-0.31057 -0.42945,-0.41393 -0.007,-0.006 -0.01,-0.008 -0.0161,-0.0139 l -0.0191,0.0196 c -0.10708,0.10698 -0.25207,0.25547 -0.40616,0.41599 l -0.39275,0.40825 0.42942,0.44907 z m -26.17205,-0.004 0.42788,-0.42788 0.42945,-0.42943 -0.42738,-0.42788 c -0.16659,-0.1666 -0.32079,-0.31685 -0.43355,-0.42375 -0.005,-0.004 -0.007,-0.005 -0.0119,-0.0103 l -0.01,0.0103 c -0.10776,0.10788 -0.25445,0.25688 -0.41235,0.41962 l -0.40256,0.41444 0.42579,0.44132 z m 8.14266,-1.41025 c -0.18349,0 -0.37204,0.004 -0.55449,-0.1173 -0.18243,-0.12144 -0.27559,-0.33208 -0.32814,-0.60513 -0.10506,-0.54612 -0.10387,-1.4825 -0.10387,-3.32228 0,-1.46241 0.006,-2.300148 0.0351,-2.812749 0.0148,-0.256302 0.0345,-0.432737 0.0687,-0.574125 0.0342,-0.14139 0.0937,-0.258003 0.16796,-0.340032 0.41439,-0.457906 1.15186,-0.377851 1.54461,0.121439 0.0673,0.08562 0.13991,0.18864 0.18756,0.328147 0.0477,0.139504 0.0727,0.30168 0.0879,0.542602 0.0303,0.481838 0.0217,1.292018 0.004,2.863388 -0.0201,1.79794 -0.0243,2.70077 -0.1483,3.23443 -0.062,0.26683 -0.17947,0.47795 -0.37312,0.58394 -0.19365,0.10599 -0.386,0.0977 -0.58809,0.0977 z m 9.89089,0 c -0.20209,0 -0.39238,0.008 -0.58603,-0.0977 -0.19362,-0.10599 -0.31115,-0.31711 -0.37309,-0.58394 -0.1239,-0.53366 -0.12808,-1.43651 -0.14832,-3.23443 -0.0177,-1.57137 -0.0268,-2.381544 0.004,-2.863387 0.0151,-0.240922 0.0401,-0.403093 0.0878,-0.542602 0.0476,-0.13951 0.12023,-0.242533 0.18759,-0.328147 0.37727,-0.479602 1.06199,-0.561898 1.50585,-0.160197 0.0741,0.06705 0.15343,0.179681 0.19534,0.316261 0.0419,0.136578 0.0643,0.300625 0.0801,0.548804 0.0315,0.496356 0.0351,1.334438 0.0351,2.878888 0,1.85141 0,2.79359 -0.10335,3.34192 -0.0525,0.27417 -0.14552,0.48532 -0.32813,0.6072 -0.18264,0.12189 -0.37306,0.11731 -0.55655,0.11731 z m -4.94546,-0.90433 c -0.17177,0 -0.30552,-0.0713 -0.46509,-0.1602 -0.58248,-0.32432 -0.71858,-1.14646 -0.2713,-1.64073 0.19058,-0.21057 0.45381,-0.31988 0.73639,-0.31988 0.50686,0 0.86902,0.37991 0.9648,0.79686 0.0958,0.41694 -0.0555,0.91616 -0.50022,1.16375 -0.15957,0.0888 -0.29279,0.1602 -0.46458,0.1602 z m 0,-3.94705 c -0.17227,0 -0.30533,-0.0709 -0.46509,-0.1602 l -0.47077,-0.26355 -0.0331,-3.894851 c -0.0145,-1.677728 -0.0185,-2.619465 0.006,-3.181718 0.0124,-0.281125 0.031,-0.468764 0.0646,-0.617016 0.0336,-0.148248 0.0955,-0.2696 0.16949,-0.351398 l 0.076,-0.08423 h 0.0185 c 0.17759,-0.149744 0.39746,-0.228409 0.63405,-0.228409 0.2794,0 0.54147,0.103536 0.73073,0.312642 0.074,0.0818 0.13591,0.203157 0.16949,0.351398 0.0336,0.148241 0.0524,0.335891 0.0646,0.617016 0.0246,0.562253 0.0206,1.503987 0.006,3.181718 l -0.0336,3.894858 -0.47024,0.26355 c -0.15976,0.0893 -0.29491,0.16019 -0.46718,0.16019 z M 3.580401,22.88294 c -0.29303,-2.65e-4 -0.52155,-0.02394 -0.71932,-0.128159 -0.19799,-0.104325 -0.35664,-0.211968 -0.46509,-0.373102 -0.10848,-0.161137 -0.14306,-0.352787 -0.1442,-0.55449 -0.003,-0.317878 0.15375,-0.609687 0.40982,-0.783413 0.25603,-0.173728 0.59089,-0.248475 0.9865,-0.250116 0.79324,-0.0028 2.98161,-0.317246 3.81836,-0.55087 2.37045,-0.661829 4.31847,-1.710354 6.22286,-3.208589 -1.20239,0.604621 -2.47411,1.119299 -3.7796,1.39423 -0.62002,0.130577 -1.96577,0.211976 -3.8809,0.25373 -1.44936,0.03164 -2.18644,0.04863 -2.62464,0.0217 -0.21911,-0.01347 -0.37124,-0.03787 -0.50229,-0.08992 -0.13107,-0.05205 -0.22299,-0.13308 -0.29456,-0.20102 -0.0695,-0.066 -0.16862,-0.16565 -0.22479,-0.314711 -0.0562,-0.149058 -0.0797,-0.327562 -0.0977,-0.619083 -0.0359,-0.583046 -0.0351,-1.638411 -0.0351,-3.755842 V 9.633612 L 1.962441,9.463597 c -0.79534,-0.469273 -1.23447,-1.203728 -1.295,-2.155942 -0.0438,-0.687864 0.0193,-0.98919 0.3085,-1.482598 0.21728,-0.370755 0.58005,-0.742556 0.93792,-0.957045 l 0.58394,-0.351401 h 17.39066 l 17.38861,-0.0021 0.59171,0.347265 c 0.37018,0.216938 0.7261,0.578729 0.9493,0.959115 v 0.0021 c 0.29043,0.495128 0.35637,0.79706 0.31263,1.484664 -0.0606,0.952185 -0.49967,1.686663 -1.295,2.155942 l -0.28734,0.170015 v 4.089673 c 0,2.117431 0,3.172799 -0.0351,3.755842 -0.018,0.291521 -0.0435,0.470025 -0.0997,0.619083 -0.0562,0.149061 -0.15322,0.248706 -0.22273,0.314711 -0.0716,0.06794 -0.16557,0.148971 -0.29662,0.20102 -0.13105,0.05205 -0.28115,0.07647 -0.50022,0.08992 -0.4382,0.02692 -1.17525,0.0099 -2.62467,-0.0217 -1.91508,-0.04179 -3.26088,-0.12315 -3.88088,-0.25373 -1.50638,-0.317243 -2.98516,-0.93903 -4.35737,-1.697053 0.34891,0.348324 0.70265,0.684699 0.82785,0.941027 0.0854,0.174853 0.11928,0.364636 0.078,0.539502 -0.0412,0.174868 -0.14015,0.315211 -0.2594,0.447 -0.23114,0.255392 -0.58489,0.374258 -0.93173,0.27337 -0.34684,-0.100891 -0.70247,-0.352158 -1.16996,-0.75551 -1.47677,-1.274196 -3.14539,-3.341338 -3.97444,-4.927864 -0.0743,-0.142121 -0.14054,-0.252871 -0.20359,-0.36122 -0.0829,0.138644 -0.17886,0.300651 -0.28319,0.494027 -1.13869,2.110626 -3.3107,4.513842 -5.42964,6.015654 -1.28405,0.910064 -3.61651,2.086279 -5.09736,2.570385 -1.00362,0.328097 -2.37435,0.604599 -3.57809,0.765328 -0.60185,0.08037 -1.16031,0.133001 -1.61333,0.144696 -0.11327,0.0029 -0.21807,0.0053 -0.31575,0.0052 z m 32.47192,-0.0052 c -0.38204,-0.0013 -0.8527,-0.0339 -1.36684,-0.08992 -1.02825,-0.112043 -2.22242,-0.319979 -3.17397,-0.581877 -0.53464,-0.147156 -0.93411,-0.381577 -1.14255,-0.720886 -0.11533,-0.187712 0.0379,-0.403019 0.0816,-0.619083 v -0.326078 l 0.0413,0.0155 c 0.0367,-0.0616 -0.0251,-0.133723 0.0254,-0.189651 l 0.45114,-0.497644 v 0.320392 c 0.10856,-0.03222 0.1837,-0.118047 0.30644,-0.121439 0.30324,-0.0084 0.65405,0.05547 1.07074,0.181901 0.65355,0.198292 3.08076,0.546738 3.83749,0.546738 0.38063,0 0.70874,0.07679 0.95912,0.251664 0.25037,0.174871 0.40608,0.464769 0.40409,0.779796 0,0.201565 -0.0359,0.393374 -0.14417,0.55449 -0.1084,0.161112 -0.26707,0.268761 -0.46508,0.373102 -0.2344,0.123515 -0.50268,0.124439 -0.88472,0.122991 z m -7.83,-2.068608 c -0.26692,0.0095 -0.53102,-0.105198 -0.73639,-0.310576 -0.1987,-0.198715 -0.31581,-0.450265 -0.31057,-0.710552 0.005,-0.260284 0.12684,-0.510886 0.32607,-0.722952 l 0.0997,-0.105421 0.0765,0.01551 c 0.16166,-0.129146 0.32452,-0.26478 0.52142,-0.261483 0.26355,0.0044 0.49305,0.149394 0.70694,0.363284 0.20809,0.208113 0.35451,0.426225 0.36327,0.68368 0.009,0.257453 -0.12605,0.484429 -0.32245,0.693497 -0.20214,0.215159 -0.45762,0.345509 -0.7245,0.355018 z m -23.85127,-4.181658 2.1699,-0.05633 c 2.94072,-0.07632 4.06392,-0.322826 6.15207,-1.349788 1.86529,-0.917342 3.62021,-2.552115 4.73046,-4.164086 -1.40264,0.975733 -2.85769,1.776865 -4.40592,2.294948 -0.73935,0.247399 -1.167,0.382765 -1.50585,0.41238 -0.33885,0.02961 -0.60841,-0.106625 -0.79894,-0.297141 -0.17587,-0.175887 -0.29612,-0.373353 -0.32813,-0.589629 -0.032,-0.216273 0.036,-0.436438 0.16795,-0.613397 0.26382,-0.35392 0.74581,-0.590089 1.42161,-0.767397 0.38034,-0.09979 1.26442,-0.467148 2.08981,-0.857827 0.65021,-0.307774 1.11114,-0.577366 1.45727,-0.790649 l -5.27359,-0.0021 -5.87664,-0.0041 v 1.160134 1.160137 h 1.65209 c 0.87471,0 1.35763,0.0026 1.67949,0.03928 0.32187,0.03678 0.5275,0.148196 0.66249,0.283186 0.21477,0.214829 0.33018,0.490522 0.31057,0.765845 -0.0196,0.275322 -0.17153,0.532995 -0.41238,0.722436 -0.16626,0.130779 -0.37094,0.229484 -0.6935,0.267685 -0.3225,0.0382 -0.78946,0.04289 -1.6247,0.04289 h -1.57406 v 1.17357 z m 31.0565,0 v -1.169955 -1.17357 h -1.57405 c -0.83524,0 -1.30271,-0.0047 -1.62523,-0.04289 -0.32253,-0.0382 -0.52721,-0.138959 -0.6935,-0.269751 -0.24083,-0.189441 -0.39434,-0.445039 -0.41392,-0.72037 -0.0196,-0.275331 0.0978,-0.551024 0.31263,-0.765844 0.13499,-0.134994 0.34013,-0.246404 0.66199,-0.283187 0.32187,-0.03678 0.80478,-0.03927 1.67947,-0.03927 h 1.65261 V 11.0025 9.842365 l -5.87716,0.0041 c -3.00413,0.0013 -4.47871,0.0047 -5.21105,0.03307 0.36137,0.218302 0.78206,0.46804 1.40044,0.761711 0.82042,0.389639 1.6959,0.752851 2.07222,0.851628 0.68085,0.178705 1.16618,0.415605 1.43195,0.769461 0.1329,0.17693 0.20193,0.398748 0.17002,0.615466 -0.0319,0.21672 -0.15187,0.413348 -0.32813,0.589629 -0.19053,0.190508 -0.46006,0.326753 -0.79894,0.29714 -0.33885,-0.02961 -0.76856,-0.164975 -1.50791,-0.412379 -1.51969,-0.508519 -2.94709,-1.294905 -4.32636,-2.244307 0.64391,0.890937 1.48621,1.965219 2.29703,2.621544 1.275,1.032111 3.28364,2.043563 4.89633,2.464451 1.0505,0.274159 1.51714,0.322853 3.61166,0.377238 z M 19.898261,7.721557 c 5.79927,0 10.01657,-0.01008 12.80284,-0.03152 1.39314,-0.01069 2.42885,-0.02439 3.12489,-0.04082 0.34801,-0.0082 0.61111,-0.01582 0.78909,-0.02532 0.089,-0.0047 0.15595,-0.01103 0.19894,-0.0155 0.003,-2.01e-4 0.003,1.98e-4 0.004,0 0.36859,-0.213511 0.33536,-0.770247 -0.0801,-0.971 -0.0145,-0.0016 -0.0275,-0.0019 -0.0506,-0.0036 -0.0692,-0.005 -0.1719,-0.01101 -0.30282,-0.01601 -0.26185,-0.01 -0.63764,-0.01876 -1.1095,-0.02739 -0.94366,-0.01725 -2.27176,-0.03158 -3.85556,-0.04289 -3.16762,-0.02262 -7.35719,-0.03395 -11.5466,-0.03307 -4.18939,7.94e-4 -8.37833,0.01328 -11.54295,0.03721 -1.58232,0.01196 -2.91,0.02735 -3.85144,0.04496 -0.47074,0.0088 -0.84537,0.01728 -1.10588,0.02739 -0.13028,0.0051 -0.23235,0.01045 -0.30077,0.0155 -0.0199,0.0016 -0.0293,0.0024 -0.0429,0.0036 -0.37569,0.195734 -0.39778,0.762918 -0.0506,0.965317 0.003,2.09e-4 0.003,-2.12e-4 0.004,0 0.043,0.0045 0.112,0.01074 0.201,0.0155 0.17799,0.0095 0.44109,0.01709 0.7891,0.02532 0.69604,0.01643 1.73175,0.03012 3.12488,0.04082 2.78628,0.0214 7.00149,0.03152 12.80076,0.03152 z"
       style="fill:#000000;stroke:none;stroke-width:0.51801479;stroke-miterlimit:4;stroke-dasharray:none;stroke-opacity:1"
       inkscape:connector-curvature="0" />
    <path
       inkscape:tile-y0="-16.375296"
       inkscape:tile-x0="72.982128"
       id="use9629"
       d="m 22.403488,66.935814 c 0.41394,1e-4 0.78348,0.11911 1.0542,0.4315 0.27083,0.31252 0.45781,0.76996 0.68937,1.47639 l 0.34571,1.0511 h 1.08984 c 0.87458,0 1.46831,0.0644 1.89447,0.31058 0.42614,0.24616 0.60566,0.70194 0.60566,1.24385 0,0.33203 -0.069,0.63524 -0.29096,0.91415 -0.22193,0.27894 -0.56446,0.54394 -1.13686,0.95499 -0.23871,0.17141 -0.45733,0.34819 -0.60928,0.48627 -0.0751,0.0682 -0.13394,0.12695 -0.16794,0.1664 0.003,0.0186 0.003,0.008 0.008,0.0346 0.0143,0.0634 0.0369,0.15002 0.0641,0.25011 0.0543,0.20018 0.12964,0.45605 0.21291,0.71675 0.23818,0.74577 0.34793,1.29336 0.27956,1.7539 -0.0684,0.46054 -0.3533,0.80674 -0.76946,1.0356 -0.31004,0.17051 -0.65069,0.24155 -1.02164,0.11524 -0.37095,-0.12632 -0.78094,-0.40134 -1.42989,-0.87333 -0.22058,-0.16046 -0.43931,-0.30691 -0.60719,-0.41032 -0.0839,-0.0517 -0.15592,-0.0937 -0.20516,-0.11885 0,-5.3e-4 0,2.6e-4 -0.003,0 -0.006,0.003 -0.007,0.003 -0.0135,0.006 -0.0564,0.0298 -0.13896,0.0772 -0.2346,0.13694 -0.1913,0.11951 -0.43956,0.28818 -0.69506,0.47284 -0.26493,0.19148 -0.53563,0.37302 -0.76378,0.51366 -0.11408,0.0703 -0.21852,0.13077 -0.30697,0.17777 -0.0885,0.047 -0.15044,0.0806 -0.23976,0.10335 -0.90337,0.23013 -1.83616,-0.49567 -1.83245,-1.42782 0,-0.17046 0.0399,-0.38914 0.0977,-0.65215 0.0577,-0.26301 0.1355,-0.55892 0.22273,-0.83199 0.0833,-0.26072 0.16065,-0.51673 0.21497,-0.71676 0.0271,-0.10001 0.0482,-0.18684 0.0625,-0.25011 0.006,-0.0266 0.005,-0.0165 0.008,-0.0351 -0.0309,-0.0363 -0.0829,-0.0906 -0.15039,-0.15244 -0.14021,-0.1285 -0.34105,-0.29138 -0.56224,-0.44907 -0.59764,-0.42607 -0.95793,-0.70242 -1.1896,-0.9865 -0.23164,-0.28409 -0.30556,-0.59291 -0.30281,-0.92398 0.003,-0.29081 0.0376,-0.53279 0.15814,-0.74982 0.12046,-0.21703 0.30835,-0.38328 0.56274,-0.55863 0.15838,-0.10913 0.35634,-0.17596 0.62323,-0.21084 0.26688,-0.0349 0.61386,-0.045 1.13067,-0.045 h 1.11519 l 0.34571,-1.05058 c 0.23153,-0.70643 0.41854,-1.16439 0.68937,-1.47691 0.27069,-0.31239 0.64233,-0.4314 1.05627,-0.4315 z m -0.003,3.252 c -0.0418,0.11765 -0.0792,0.21549 -0.12298,0.35501 -0.0829,0.26426 -0.17753,0.52026 -0.26768,0.72658 -0.0451,0.10315 -0.0882,0.19559 -0.13075,0.27181 -0.0425,0.0762 -0.0682,0.13163 -0.15399,0.20309 -0.1006,0.0838 -0.16375,0.0906 -0.25424,0.11524 -0.0905,0.0247 -0.19862,0.046 -0.32041,0.0662 -0.24355,0.0404 -0.54427,0.0725 -0.85524,0.0899 l -0.38499,0.0217 0.25632,0.1912 c 0.23604,0.17567 0.459,0.36301 0.63458,0.52917 0.0878,0.0831 0.16333,0.16092 0.22479,0.23254 0.0615,0.0716 0.1107,0.1221 0.14833,0.22842 0.0676,0.19072 0.0343,0.34465 -0.004,0.56482 -0.0383,0.22016 -0.10522,0.48262 -0.1974,0.77153 -0.0461,0.14446 -0.08,0.25886 -0.11888,0.38654 0.0937,-0.0641 0.16425,-0.10766 0.2713,-0.18552 0.24244,-0.17634 0.49353,-0.33468 0.70901,-0.4532 0.10774,-0.0593 0.20595,-0.10939 0.29509,-0.14625 0.0891,-0.0369 0.156,-0.0687 0.27337,-0.0687 0.11734,0 0.18219,0.0318 0.27127,0.0687 0.0891,0.0369 0.18735,0.087 0.29509,0.14625 0.21548,0.11852 0.46657,0.27686 0.70901,0.4532 0.10678,0.0777 0.17777,0.12154 0.2713,0.18552 -0.0389,-0.12761 -0.0707,-0.24217 -0.11681,-0.38654 -0.0921,-0.28889 -0.15907,-0.55137 -0.19738,-0.77153 -0.0383,-0.22016 -0.0718,-0.37404 -0.004,-0.56482 0.0376,-0.10622 0.0853,-0.1568 0.14677,-0.22842 0.0615,-0.0716 0.13859,-0.14947 0.22635,-0.23254 0.17555,-0.16616 0.39854,-0.3535 0.63458,-0.52917 l 0.2558,-0.1912 -0.38653,-0.0217 c -0.31097,-0.0175 -0.61169,-0.0496 -0.85524,-0.0899 -0.12179,-0.0202 -0.22786,-0.0415 -0.31835,-0.0662 -0.0905,-0.0247 -0.15573,-0.0315 -0.2563,-0.11524 -0.0857,-0.0714 -0.10941,-0.12688 -0.15193,-0.20309 -0.0425,-0.0762 -0.0862,-0.16866 -0.13126,-0.27181 -0.0902,-0.20632 -0.18637,-0.46231 -0.26924,-0.72658 -0.0438,-0.13976 -0.0833,-0.23721 -0.12506,-0.35501 z m 13.08603,4.51755 c 0.29567,0 0.56515,0.15726 0.7462,0.39843 0.18108,0.24116 0.29536,0.5621 0.35761,0.94929 0.1243,0.77303 0.39455,1.34707 0.81029,1.75959 0.41574,0.41252 0.98623,0.67325 1.75027,0.78289 0.38632,0.0554 0.6876,0.14536 0.91572,0.31678 0.22813,0.17142 0.35539,0.44496 0.35346,0.72864 -0.003,0.34149 -0.14274,0.65274 -0.39634,0.84956 -0.25363,0.19682 -0.59405,0.28198 -0.99219,0.28473 -0.53467,0.004 -1.1571,0.32629 -1.63298,0.80874 -0.47588,0.48245 -0.79344,1.11469 -0.79685,1.66036 -0.003,0.33056 -0.11454,0.67585 -0.31419,0.92966 -0.38719,0.49224 -1.12602,0.57737 -1.52757,0.11886 -0.10674,-0.12186 -0.15531,-0.25575 -0.21082,-0.42168 -0.0555,-0.16593 -0.10025,-0.35492 -0.12714,-0.54105 -0.20738,-1.43841 -1.3685,-2.55644 -2.56418,-2.55644 -0.3252,0 -0.63603,-0.12239 -0.88109,-0.30282 -0.24506,-0.18043 -0.44701,-0.42811 -0.44699,-0.74414 0,-0.29261 0.11293,-0.57884 0.35346,-0.75964 0.24053,-0.1808 0.56547,-0.27891 1.02733,-0.37517 1.45229,-0.30269 2.20313,-1.05557 2.50579,-2.50786 0.0926,-0.44437 0.19256,-0.76438 0.35914,-1.00408 0.16661,-0.23968 0.43715,-0.37465 0.71107,-0.37465 z m -26.1679,0 c 0.27392,0 0.54239,0.13497 0.709,0.37465 0.16658,0.2397 0.26705,0.55971 0.35965,1.00408 0.30268,1.45229 1.05505,2.20517 2.50735,2.50786 0.46186,0.0963 0.78523,0.19437 1.02579,0.37517 0.24053,0.1808 0.35346,0.46703 0.35346,0.75964 0,0.31603 -0.20246,0.56371 -0.44752,0.74414 -0.24506,0.18043 -0.55539,0.30282 -0.88056,0.30282 -1.1957,0 -2.35524,1.11803 -2.56265,2.55644 -0.0268,0.18619 -0.0737,0.3751 -0.12919,0.54105 -0.0555,0.16594 -0.10414,0.29986 -0.21082,0.42168 -0.32549,0.37166 -0.84426,0.38005 -1.20873,0.14883 -0.36446,-0.23122 -0.62796,-0.67101 -0.63097,-1.19735 -0.003,-0.54563 -0.32301,-1.17787 -0.79891,-1.66036 -0.47591,-0.48249 -1.09837,-0.80535 -1.63299,-0.80874 -0.39819,-0.003 -0.7385,-0.0879 -0.99218,-0.28473 -0.25366,-0.19686 -0.39243,-0.508 -0.39429,-0.84956 -0.003,-0.28356 0.12335,-0.55721 0.3514,-0.72864 0.22807,-0.17142 0.5299,-0.26134 0.91622,-0.31678 0.76404,-0.10964 1.33403,-0.37037 1.74977,-0.78289 0.41574,-0.41252 0.68858,-0.98656 0.81288,-1.75959 0.0623,-0.38718 0.17447,-0.70813 0.35552,-0.94929 0.18106,-0.24117 0.4521,-0.39843 0.74777,-0.39843 z m 0,4.09536 -0.41601,0.43356 -0.42788,0.44339 0.42219,0.42219 c 0.16357,0.16355 0.31745,0.31057 0.42945,0.41393 0.007,0.006 0.01,0.008 0.0161,0.0139 l 0.0191,-0.0196 c 0.10708,-0.10698 0.25207,-0.25547 0.40616,-0.41599 l 0.39275,-0.40825 -0.42942,-0.44907 z m 26.17205,0.004 -0.42788,0.42788 -0.42945,0.42943 0.42738,0.42788 c 0.16659,0.1666 0.32079,0.31685 0.43355,0.42375 0.005,0.004 0.007,0.005 0.0119,0.0103 l 0.01,-0.0103 c 0.10776,-0.10788 0.25445,-0.25688 0.41235,-0.41962 l 0.40256,-0.41444 -0.42579,-0.44132 z m -8.14266,1.41025 c 0.18349,0 0.37204,-0.004 0.55449,0.1173 0.18243,0.12144 0.27559,0.33208 0.32814,0.60513 0.10506,0.54612 0.10387,1.4825 0.10387,3.32228 0,1.46241 -0.006,2.300148 -0.0351,2.812749 -0.0148,0.256302 -0.0345,0.432737 -0.0687,0.574125 -0.0342,0.14139 -0.0937,0.258003 -0.16796,0.340032 -0.41439,0.457906 -1.15186,0.377851 -1.54461,-0.121439 -0.0673,-0.08562 -0.13991,-0.18864 -0.18756,-0.328147 -0.0477,-0.139504 -0.0727,-0.30168 -0.0879,-0.542602 -0.0303,-0.481838 -0.0217,-1.292018 -0.004,-2.863388 0.0201,-1.79794 0.0243,-2.70077 0.1483,-3.23443 0.062,-0.26683 0.17947,-0.47795 0.37312,-0.58394 0.19365,-0.10599 0.386,-0.0977 0.58809,-0.0977 z m -9.89089,0 c 0.20209,0 0.39238,-0.008 0.58603,0.0977 0.19362,0.10599 0.31115,0.31711 0.37309,0.58394 0.1239,0.53366 0.12808,1.43651 0.14832,3.23443 0.0177,1.57137 0.0268,2.381544 -0.004,2.863387 -0.0151,0.240922 -0.0401,0.403093 -0.0878,0.542602 -0.0476,0.13951 -0.12023,0.242533 -0.18759,0.328147 -0.37727,0.479602 -1.06199,0.561898 -1.50585,0.160197 -0.0741,-0.06705 -0.15343,-0.179681 -0.19534,-0.316261 -0.0419,-0.136578 -0.0643,-0.300625 -0.0801,-0.548804 -0.0315,-0.496356 -0.0351,-1.334438 -0.0351,-2.878888 0,-1.85141 0,-2.79359 0.10335,-3.34192 0.0525,-0.27417 0.14552,-0.48532 0.32813,-0.6072 0.18264,-0.12189 0.37306,-0.11731 0.55655,-0.11731 z m 4.94546,0.90433 c 0.17177,0 0.30552,0.0713 0.46509,0.1602 0.58248,0.32432 0.71858,1.14646 0.2713,1.64073 -0.19058,0.21057 -0.45381,0.31988 -0.73639,0.31988 -0.50686,0 -0.86902,-0.37991 -0.9648,-0.79686 -0.0958,-0.41694 0.0555,-0.91616 0.50022,-1.16375 0.15957,-0.0888 0.29279,-0.1602 0.46458,-0.1602 z m 0,3.94705 c 0.17227,0 0.30533,0.0709 0.46509,0.1602 l 0.47077,0.26355 0.0331,3.894851 c 0.0145,1.677728 0.0185,2.619465 -0.006,3.181718 -0.0124,0.281125 -0.031,0.468764 -0.0646,0.617016 -0.0336,0.148248 -0.0955,0.2696 -0.16949,0.351398 l -0.076,0.08423 h -0.0185 c -0.17759,0.149744 -0.39746,0.228409 -0.63405,0.228409 -0.2794,0 -0.54147,-0.103536 -0.73073,-0.312642 -0.074,-0.0818 -0.13591,-0.203157 -0.16949,-0.351398 -0.0336,-0.148241 -0.0524,-0.335891 -0.0646,-0.617016 -0.0246,-0.562253 -0.0206,-1.503987 -0.006,-3.181718 l 0.0336,-3.894858 0.47024,-0.26355 c 0.15976,-0.0893 0.29491,-0.16019 0.46718,-0.16019 z m 16.31786,1.883606 c 0.29303,2.65e-4 0.52155,0.02394 0.71932,0.128159 0.19799,0.104325 0.35664,0.211968 0.46509,0.373102 0.10848,0.161137 0.14306,0.352787 0.1442,0.55449 0.003,0.317878 -0.15375,0.609687 -0.40982,0.783413 -0.25603,0.173728 -0.59089,0.248475 -0.9865,0.250116 -0.79324,0.0028 -2.98161,0.317246 -3.81836,0.55087 -2.37045,0.661829 -4.31847,1.710354 -6.22286,3.208589 1.20239,-0.604621 2.47411,-1.119299 3.7796,-1.39423 0.62002,-0.130577 1.96577,-0.211976 3.8809,-0.25373 1.44936,-0.03164 2.18644,-0.04863 2.62464,-0.0217 0.21911,0.01347 0.37124,0.03787 0.50229,0.08992 0.13107,0.05205 0.22299,0.13308 0.29456,0.20102 0.0695,0.066 0.16862,0.16565 0.22479,0.314711 0.0562,0.149058 0.0797,0.327562 0.0977,0.619083 0.0359,0.583046 0.0351,1.638411 0.0351,3.755842 v 4.089675 l 0.28731,0.17001 c 0.79534,0.46928 1.23447,1.20373 1.295,2.15594 0.0438,0.68787 -0.0193,0.98919 -0.3085,1.4826 -0.21728,0.37076 -0.58005,0.74256 -0.93792,0.95705 l -0.58394,0.3514 h -17.39066 l -17.38861,0.002 -0.59171,-0.34727 c -0.37018,-0.21693 -0.7261,-0.57873 -0.9493,-0.95911 v -0.002 c -0.29043,-0.49513 -0.35637,-0.79706 -0.31263,-1.48466 0.0606,-0.95219 0.49967,-1.68667 1.295,-2.15595 l 0.28734,-0.17001 v -4.089675 c 0,-2.117431 0,-3.172799 0.0351,-3.755842 0.018,-0.291521 0.0435,-0.470025 0.0997,-0.619083 0.0562,-0.149061 0.15322,-0.248706 0.22273,-0.314711 0.0716,-0.06794 0.16557,-0.148971 0.29662,-0.20102 0.13105,-0.05205 0.28115,-0.07647 0.50022,-0.08992 0.4382,-0.02692 1.17525,-0.0099 2.62467,0.0217 1.91508,0.04179 3.26088,0.12315 3.88088,0.25373 1.50638,0.317243 2.98516,0.93903 4.35737,1.697053 -0.34891,-0.348324 -0.70265,-0.684699 -0.82785,-0.941027 -0.0854,-0.174853 -0.11928,-0.364636 -0.078,-0.539502 0.0412,-0.174868 0.14015,-0.315211 0.2594,-0.447 0.23114,-0.255392 0.58489,-0.374258 0.93173,-0.27337 0.34684,0.100891 0.70247,0.352158 1.16996,0.75551 1.47677,1.274196 3.14539,3.341338 3.97444,4.927864 0.0743,0.142121 0.14054,0.252871 0.20359,0.36122 0.0829,-0.138644 0.17886,-0.300651 0.28319,-0.494027 1.13869,-2.110626 3.3107,-4.513842 5.42964,-6.015654 1.28405,-0.910064 3.61651,-2.086279 5.09736,-2.570385 1.00362,-0.328097 2.37435,-0.604599 3.57809,-0.765328 0.60185,-0.08037 1.16031,-0.133001 1.61333,-0.144696 0.11327,-0.0029 0.21807,-0.0053 0.31575,-0.0052 z m -32.47192,0.0052 c 0.38204,0.0013 0.8527,0.0339 1.36684,0.08992 1.02825,0.112043 2.22242,0.319979 3.17397,0.581877 0.53464,0.147156 0.93411,0.381577 1.14255,0.720886 0.11533,0.187712 -0.0379,0.403019 -0.0816,0.619083 v 0.326078 l -0.0413,-0.0155 c -0.0367,0.0616 0.0251,0.133723 -0.0254,0.189651 l -0.45114,0.497644 v -0.320392 c -0.10856,0.03222 -0.1837,0.118047 -0.30644,0.121439 -0.30324,0.0084 -0.65405,-0.05547 -1.07074,-0.181901 -0.65355,-0.198292 -3.08076,-0.546738 -3.83749,-0.546738 -0.38063,0 -0.70874,-0.07679 -0.95912,-0.251664 -0.25037,-0.174871 -0.40608,-0.464769 -0.40409,-0.779796 0,-0.201565 0.0359,-0.393374 0.14417,-0.55449 0.1084,-0.161112 0.26707,-0.268761 0.46508,-0.373102 0.2344,-0.123515 0.50268,-0.124439 0.88472,-0.122991 z m 7.83,2.068608 c 0.26692,-0.0095 0.53102,0.105198 0.73639,0.310576 0.1987,0.198715 0.31581,0.450265 0.31057,0.710552 -0.005,0.260284 -0.12684,0.510886 -0.32607,0.722952 l -0.0997,0.105421 -0.0765,-0.01551 c -0.16166,0.129146 -0.32452,0.26478 -0.52142,0.261483 -0.26355,-0.0044 -0.49305,-0.149394 -0.70694,-0.363284 -0.20809,-0.208113 -0.35451,-0.426225 -0.36327,-0.68368 -0.009,-0.257453 0.12605,-0.484429 0.32245,-0.693497 0.20214,-0.215159 0.45762,-0.345509 0.7245,-0.355018 z m 23.85127,4.181658 -2.1699,0.05633 c -2.94072,0.07632 -4.06392,0.322826 -6.15207,1.349788 -1.86529,0.917342 -3.62021,2.552115 -4.73046,4.164086 1.40264,-0.975733 2.85769,-1.776865 4.40592,-2.294948 0.73935,-0.247399 1.167,-0.382765 1.50585,-0.41238 0.33885,-0.02961 0.60841,0.106625 0.79894,0.297141 0.17587,0.175887 0.29612,0.373353 0.32813,0.589629 0.032,0.216273 -0.036,0.436438 -0.16795,0.613397 -0.26382,0.35392 -0.74581,0.590089 -1.42161,0.767397 -0.38034,0.09979 -1.26442,0.467148 -2.08981,0.857827 -0.65021,0.307774 -1.11114,0.577366 -1.45727,0.790649 l 5.27359,0.0021 5.87664,0.0041 v -1.160134 -1.160137 h -1.65209 c -0.87471,0 -1.35763,-0.0026 -1.67949,-0.03928 -0.32187,-0.03678 -0.5275,-0.148196 -0.66249,-0.283186 -0.21477,-0.214829 -0.33018,-0.490522 -0.31057,-0.765845 0.0196,-0.275322 0.17153,-0.532995 0.41238,-0.722436 0.16626,-0.130779 0.37094,-0.229484 0.6935,-0.267685 0.3225,-0.0382 0.78946,-0.04289 1.6247,-0.04289 h 1.57406 v -1.17357 z m -31.0565,0 v 1.169955 1.17357 h 1.57405 c 0.83524,0 1.30271,0.0047 1.62523,0.04289 0.32253,0.0382 0.52721,0.138959 0.6935,0.269751 0.24083,0.189441 0.39434,0.445039 0.41392,0.72037 0.0196,0.275331 -0.0978,0.551024 -0.31263,0.765844 -0.13499,0.134994 -0.34013,0.246404 -0.66199,0.283187 -0.32187,0.03678 -0.80478,0.03927 -1.67947,0.03927 h -1.65261 v 1.160137 1.160135 l 5.87716,-0.0041 c 3.00413,-0.0013 4.47871,-0.0047 5.21105,-0.03307 -0.36137,-0.218302 -0.78206,-0.46804 -1.40044,-0.761711 -0.82042,-0.389639 -1.6959,-0.752851 -2.07222,-0.851628 -0.68085,-0.178705 -1.16618,-0.415605 -1.43195,-0.769461 -0.1329,-0.17693 -0.20193,-0.398748 -0.17002,-0.615466 0.0319,-0.21672 0.15187,-0.413348 0.32813,-0.589629 0.19053,-0.190508 0.46006,-0.326753 0.79894,-0.29714 0.33885,0.02961 0.76856,0.164975 1.50791,0.412379 1.51969,0.508519 2.94709,1.294905 4.32636,2.244307 -0.64391,-0.890937 -1.48621,-1.965219 -2.29703,-2.621544 -1.275,-1.032111 -3.28364,-2.043563 -4.89633,-2.464451 -1.0505,-0.274159 -1.51714,-0.322853 -3.61166,-0.377238 z m 15.52929,8.905914 c -5.79927,0 -10.01657,0.0101 -12.80284,0.0315 -1.39314,0.0107 -2.42885,0.0244 -3.12489,0.0408 -0.34801,0.008 -0.61111,0.0158 -0.78909,0.0253 -0.089,0.005 -0.15595,0.011 -0.19894,0.0155 -0.003,2e-4 -0.003,-1.9e-4 -0.004,0 -0.36859,0.21351 -0.33536,0.77025 0.0801,0.971 0.0145,0.002 0.0275,0.002 0.0506,0.004 0.0692,0.005 0.1719,0.011 0.30282,0.016 0.26185,0.01 0.63764,0.0188 1.1095,0.0274 0.94366,0.0172 2.27176,0.0316 3.85556,0.0429 3.16762,0.0226 7.35719,0.0339 11.5466,0.0331 4.18939,-7.9e-4 8.37833,-0.0133 11.54295,-0.0372 1.58232,-0.012 2.91,-0.0273 3.85144,-0.045 0.47074,-0.009 0.84537,-0.0173 1.10588,-0.0274 0.13028,-0.005 0.23235,-0.0105 0.30077,-0.0155 0.0199,-0.002 0.0293,-0.002 0.0429,-0.004 0.37569,-0.19573 0.39778,-0.76291 0.0506,-0.96531 -0.003,-2.1e-4 -0.003,2.1e-4 -0.004,0 -0.043,-0.005 -0.112,-0.0107 -0.201,-0.0155 -0.17799,-0.01 -0.44109,-0.0171 -0.7891,-0.0253 -0.69604,-0.0164 -1.73175,-0.0301 -3.12488,-0.0408 -2.78628,-0.0214 -7.00149,-0.0315 -12.80076,-0.0315 z"
       style="fill:#000000;stroke:none;stroke-width:0.51801479;stroke-miterlimit:4;stroke-dasharray:none;stroke-opacity:1"
       inkscape:connector-curvature="0" />
  </g>
</svg>
