<?xml version="1.0" encoding="UTF-8" standalone="no"?>
<!-- Created with Inkscape (http://www.inkscape.org/) -->

<svg
   xmlns:dc="http://purl.org/dc/elements/1.1/"
   xmlns:cc="http://creativecommons.org/ns#"
   xmlns:rdf="http://www.w3.org/1999/02/22-rdf-syntax-ns#"
   xmlns:svg="http://www.w3.org/2000/svg"
   xmlns="http://www.w3.org/2000/svg"
   xmlns:xlink="http://www.w3.org/1999/xlink"
   xmlns:sodipodi="http://sodipodi.sourceforge.net/DTD/sodipodi-0.dtd"
   xmlns:inkscape="http://www.inkscape.org/namespaces/inkscape"
   width="139.13148mm"
   height="136.46758mm"
   viewBox="0 0 139.13149 136.46758"
   version="1.1"
   id="svg8430"
   inkscape:version="0.92.5 (2060ec1f9f, 2020-04-08)"
   sodipodi:docname="history-pattern.svg">
  <defs
     id="defs8424" />
  <sodipodi:namedview
     id="base"
     pagecolor="#ffffff"
     bordercolor="#666666"
     borderopacity="1.0"
     inkscape:pageopacity="0.0"
     inkscape:pageshadow="2"
     inkscape:zoom="0.35"
     inkscape:cx="-76.358185"
     inkscape:cy="623.12888"
     inkscape:document-units="mm"
     inkscape:current-layer="layer1"
     showgrid="false"
     fit-margin-top="15"
     fit-margin-left="15"
     fit-margin-right="15"
     fit-margin-bottom="15"
     inkscape:window-width="1920"
     inkscape:window-height="1016"
     inkscape:window-x="0"
     inkscape:window-y="27"
     inkscape:window-maximized="1" />
  <metadata
     id="metadata8427">
    <rdf:RDF>
      <cc:Work
         rdf:about="">
        <dc:format>image/svg+xml</dc:format>
        <dc:type
           rdf:resource="http://purl.org/dc/dcmitype/StillImage" />
        <dc:title></dc:title>
      </cc:Work>
    </rdf:RDF>
  </metadata>
  <g
     inkscape:label="Calque 1"
     inkscape:groupmode="layer"
     id="layer1"
     transform="translate(129.25274,-113.79797)">
    <path
       style="fill:#000000;stroke-width:0.12495717"
       d="m -113.81122,167.60745 c -0.38606,-0.38605 -0.44152,-0.51894 -0.44152,-1.05797 0,-0.53902 0.0555,-0.67192 0.44152,-1.05796 l 0.44151,-0.44153 h 1.99515 1.99515 l 2.5e-4,-2.40541 c 1.3e-4,-2.03974 0.0334,-2.47192 0.21867,-2.84279 0.34781,-0.69622 0.8566,-0.87427 2.49895,-0.87449 l 1.40572,-2.1e-4 v -7.24441 -7.24443 l -0.32053,0.12186 c -0.17629,0.067 -0.76034,0.12187 -1.29789,0.12187 -3.09418,0 -5.99169,-2.10266 -7.02715,-5.09945 -0.24186,-0.69997 -0.28887,-1.0902 -0.28887,-2.39797 0,-1.90388 0.26121,-2.79584 1.24036,-4.23541 1.02882,-1.51261 2.60654,-2.61971 4.37773,-3.0719 1.12024,-0.286 26.005444,-0.286 27.125674,0 1.77119,0.45219 3.34891,1.55929 4.37773,3.0719 0.97915,1.43957 1.24036,2.33153 1.24036,4.23541 0,1.30777 -0.047,1.698 -0.28886,2.39797 -1.03547,2.99679 -3.93298,5.09945 -7.02716,5.09945 -0.53755,0 -1.1216,-0.0548 -1.29789,-0.12187 l -0.32053,-0.12186 v 4.54099 c 0,4.41578 -0.007,4.55014 -0.26094,4.87273 -0.31037,0.39457 -0.8642,0.70162 -1.26552,0.70162 -0.46625,0 -1.12285,-0.42318 -1.36914,-0.8824 -0.21365,-0.39838 -0.22832,-0.8938 -0.22832,-7.70645 v -7.2807 h -1.31206 -1.31205 v 10.12153 10.12152 l 4.27979,2.6e-4 c 5.87314,2.4e-4 5.59132,-0.18709 5.59164,3.71728 l 1.9e-4,2.40536 h 1.99515 1.99515 l 0.44152,0.44153 c 0.38605,0.38604 0.44151,0.51894 0.44151,1.05796 0,0.53903 -0.0555,0.67192 -0.44151,1.05797 l -0.44152,0.44153 h -18.36037 -18.360384 z m 30.048034,-4.05694 v -1.49949 h -11.24614 -11.246154 v 1.49949 1.49948 h 11.246154 11.24614 z m -15.7446,-14.74494 v -10.12153 h -1.312054 -1.31205 v 10.12153 10.12152 h 1.31205 1.312054 z m 5.99794,0 v -10.12153 h -1.49948 -1.49949 v 10.12153 10.12152 h 1.49949 1.49948 z m -12.391564,-7.45955 c 0.46066,-0.28798 0.69955,-0.98947 0.52984,-1.5559 -0.17447,-0.58232 -0.6089,-0.93424 -1.2937,-1.04801 -0.73737,-0.12251 -1.17873,-0.3759 -1.39997,-0.80372 -0.36989,-0.71529 -0.15277,-1.62818 0.48693,-2.04733 0.28664,-0.18781 1.39582,-0.20599 12.568984,-0.20599 11.17316,0 12.28233,0.0182 12.56897,0.20599 0.6397,0.41915 0.85683,1.33204 0.48694,2.04733 -0.22124,0.42782 -0.66262,0.68121 -1.39998,0.80372 -1.00736,0.16735 -1.5774,0.99122 -1.28948,1.86365 0.27205,0.82431 0.90819,1.11332 2.05477,0.93352 3.03781,-0.47637 4.63829,-3.75862 3.17315,-6.5075 -0.6336,-1.18875 -1.70997,-1.9419 -3.15787,-2.20956 -1.02386,-0.18926 -23.849154,-0.18926 -24.873014,0 -1.4479,0.26766 -2.52427,1.02081 -3.15787,2.20956 -1.4517,2.72366 0.1342,6.02492 3.12693,6.50913 0.74418,0.12041 1.15165,0.07 1.57537,-0.19489 z"
       id="path1092-9"
       inkscape:connector-curvature="0"
       inkscape:tile-cx="69.547619"
       inkscape:tile-cy="24.420916"
       inkscape:tile-w="38.486815"
       inkscape:tile-h="38.386231"
       inkscape:tile-x0="50.304212"
       inkscape:tile-y0="5.2278002" />
    <use
       x="0"
       y="0"
       inkscape:tiled-clone-of="#path1092-9"
       xlink:href="#path1092-9"
       transform="rotate(180,-93.224857,182.46415)"
       id="use9142"
       width="100%"
       height="100%" />
    <use
       x="0"
       y="0"
       inkscape:tiled-clone-of="#path1092-9"
       xlink:href="#path1092-9"
       transform="matrix(1,0,0,-1,65.479353,300.63082)"
       id="use9144"
       width="100%"
       height="100%" />
    <use
       x="0"
       y="0"
       inkscape:tiled-clone-of="#path1092-9"
       xlink:href="#path1092-9"
       transform="matrix(-1,0,0,1,-119.374,64.684481)"
       id="use9146"
       width="100%"
       height="100%" />
  </g>
</svg>
