<?xml version="1.0" encoding="UTF-8" standalone="no"?>
<!-- Created with Inkscape (http://www.inkscape.org/) -->

<svg
   xmlns:dc="http://purl.org/dc/elements/1.1/"
   xmlns:cc="http://creativecommons.org/ns#"
   xmlns:rdf="http://www.w3.org/1999/02/22-rdf-syntax-ns#"
   xmlns:svg="http://www.w3.org/2000/svg"
   xmlns="http://www.w3.org/2000/svg"
   xmlns:sodipodi="http://sodipodi.sourceforge.net/DTD/sodipodi-0.dtd"
   xmlns:inkscape="http://www.inkscape.org/namespaces/inkscape"
   width="112.48552mm"
   height="139.86406mm"
   viewBox="0 0 112.48552 139.86406"
   version="1.1"
   id="svg8430"
   inkscape:version="0.92.5 (2060ec1f9f, 2020-04-08)"
   sodipodi:docname="horror-pattern.svg">
  <defs
     id="defs8424" />
  <sodipodi:namedview
     id="base"
     pagecolor="#ffffff"
     bordercolor="#666666"
     borderopacity="1.0"
     inkscape:pageopacity="0.0"
     inkscape:pageshadow="2"
     inkscape:zoom="0.35"
     inkscape:cx="-213.30144"
     inkscape:cy="144.95361"
     inkscape:document-units="mm"
     inkscape:current-layer="layer1"
     showgrid="false"
     fit-margin-top="15"
     fit-margin-left="15"
     fit-margin-right="15"
     fit-margin-bottom="15"
     inkscape:window-width="1920"
     inkscape:window-height="1016"
     inkscape:window-x="0"
     inkscape:window-y="27"
     inkscape:window-maximized="1" />
  <metadata
     id="metadata8427">
    <rdf:RDF>
      <cc:Work
         rdf:about="">
        <dc:format>image/svg+xml</dc:format>
        <dc:type
           rdf:resource="http://purl.org/dc/dcmitype/StillImage" />
        <dc:title></dc:title>
      </cc:Work>
    </rdf:RDF>
  </metadata>
  <g
     inkscape:label="Calque 1"
     inkscape:groupmode="layer"
     id="layer1"
     transform="translate(93.019837,16.115714)">
    <path
       inkscape:connector-curvature="0"
       style="fill:#000000;stroke:none;stroke-width:1.47653127;stroke-miterlimit:4;stroke-dasharray:none;stroke-opacity:1"
       d="m -65.436736,-1.1149282 c -1.1789,0.0122 -2.41781,0.153638 -3.30369,0.408244 -4.66013,1.33939 -8.08254,5.003832 -9.04129,9.6970833 -0.24143,1.1819089 -0.26329,1.8666169 -0.22066,7.7287279 l 0.047,6.437333 0.36897,1.359607 c 0.19245,0.708004 0.52175,1.589593 0.84751,2.345592 0.16285,0.378 0.32414,0.721585 0.47284,0.99994 0.0743,0.139179 0.14454,0.260321 0.22063,0.373105 0.0761,0.112781 0.10867,0.213632 0.34986,0.3669 l 0.16174,0.101804 0.11732,0.0078 c 0.0812,0.04106 0.0965,0.09027 0.25786,0.09973 0.33647,0.01976 0.42238,-0.07542 0.53692,-0.119372 0.18817,-0.07216 0.40005,-0.182994 0.57258,-0.392742 0.17251,-0.209746 0.25628,-0.50096 0.25787,-0.742072 0.003,-0.482227 -0.16881,-0.851225 -0.41445,-1.382863 -0.22233,-0.481164 -0.59142,-1.44952 -0.77721,-2.044836 l -0.33023,-1.056782 -0.003,-6.80837 c 0,-3.809492 -0.004,-5.651042 0.0915,-6.7029509 0.0961,-1.05192 0.24956,-1.3015632 0.69144,-2.2835822 1.1824,-2.6277391 3.71898,-4.7492971 6.63265,-5.5231771 1.14155,-0.30325 3.60844,-0.33559 4.70361,-0.07028 3.57677,0.866479 6.37114,3.5235041 7.40624,7.0409123 0.2087,0.709192 0.264,1.233712 0.31419,3.1837869 0.0175,0.673978 0.0458,1.312545 0.0801,1.806606 0.0172,0.247031 0.0369,0.457134 0.0568,0.626835 0.0101,0.08485 0.0196,0.157409 0.0331,0.230479 0.0135,0.07307 -0.007,0.105653 0.0998,0.30644 v 0.0021 c 0.23326,0.44005 0.64064,0.580395 0.99013,0.609267 0.34948,0.02887 0.73384,-0.04243 1.05264,-0.36122 0.19979,-0.199768 0.19807,-0.302683 0.22479,-0.392224 0.0267,-0.08954 0.0396,-0.165642 0.0527,-0.248047 0.0262,-0.164809 0.0428,-0.349686 0.0563,-0.562755 0.0271,-0.426138 0.0381,-0.959967 0.0351,-1.529107 -0.006,-1.138274 -0.0568,-2.365282 -0.19119,-3.1171219 -0.47595,-2.6622292 -1.54061,-4.6556243 -3.54708,-6.6621263 -2.04589,-2.045891 -4.23971,-3.19286 -6.93703,-3.611666 v 0 c -0.57457,-0.08915 -1.26018,-0.128233 -1.96731,-0.120922 z m 4.46588,9.6696963 c -0.45265,0.01 -0.90895,0.135974 -1.32242,0.388606 -1.17371,0.71713 -1.76799,2.0112939 -1.76577,3.5842759 0.003,1.42529 0.71249,2.583265 1.78128,3.245798 v 0.234611 l 0.4904,0.173633 c 0.30012,0.106992 0.47551,0.197932 0.78497,0.212907 0.30946,0.01498 0.49787,-0.06447 0.77928,-0.142629 0.87368,-0.24263 1.59604,-0.88728 2.0252,-1.72444 0.25937,-0.505931 0.36346,-1.098068 0.41238,-1.714624 0.0489,-0.616559 0.0392,-1.21592 -0.13849,-1.755966 -0.3289,-0.99958 -0.94829,-1.7826189 -1.74614,-2.1993489 -0.39894,-0.208359 -0.84807,-0.312835 -1.30069,-0.302823 z m -9.06148,0.01344 c -0.4695,0.0069 -0.92845,0.13412 -1.32963,0.375172 -1.06982,0.64285 -1.76829,1.9521959 -1.75753,3.5393179 0.0117,1.717624 0.86461,3.189478 2.32598,3.695382 0.81127,0.280863 1.65166,0.140682 2.28513,-0.265618 0.63344,-0.406296 1.08775,-1.034838 1.37509,-1.746146 0.5747,-1.42262 0.51155,-3.276974 -0.68159,-4.5976519 -0.49766,-0.550849 -1.11757,-0.868106 -1.74615,-0.966867 -0.15716,-0.02469 -0.3148,-0.03589 -0.4713,-0.03359 z m 9.14519,2.6251619 c 0.0585,0.003 0.2304,0.04861 0.39272,0.476975 0.11944,0.315169 0.13468,0.854255 0.029,1.294495 -0.10573,0.440238 -0.36835,0.71673 -0.35139,0.708999 -0.0825,0.03762 -0.11208,0.04593 -0.13955,0.05478 -0.0264,-0.02162 -0.0612,-0.0495 -0.13176,-0.125055 -0.14965,-0.16021 -0.31329,-0.521967 -0.36327,-0.917773 -0.05,-0.395807 0.0124,-0.811993 0.13279,-1.056783 0.20175,-0.409967 0.37299,-0.438494 0.43151,-0.435634 z m -9.09351,0.0016 c 0.0228,0.0048 0.0523,0.01749 0.0956,0.04393 0.17324,0.10587 0.4668,0.506229 0.46868,1.148249 0.003,0.697468 -0.1705,1.04358 -0.43561,1.252119 -0.0723,0.0569 -0.10848,0.07613 -0.13385,0.08992 -0.0193,-0.01159 -0.0408,-0.02365 -0.10078,-0.0708 -0.16137,-0.126939 -0.36386,-0.504225 -0.41392,-0.964801 -0.0501,-0.460573 0.0485,-0.966173 0.23823,-1.273307 0.11483,-0.185798 0.19405,-0.214085 0.22686,-0.222724 0.0164,-0.0045 0.0321,-0.0074 0.0548,-0.0026 z m 16.00729,4.575948 c -0.0931,-0.007 -0.18518,-0.0051 -0.27491,0.0047 -0.35893,0.03897 -0.75493,0.210701 -0.97877,0.628904 -0.13927,0.260188 -0.26752,0.554013 -0.21651,0.918289 0.051,0.364276 0.25226,0.59228 0.39997,0.75551 l 0.75034,0.83044 c -0.20331,0.02172 -0.42773,0.04888 -0.6232,0.210838 -0.24451,0.202562 -0.36328,0.476224 -0.42376,0.726572 -0.12097,0.500698 -0.10028,1.054145 -0.0527,1.937348 0.16913,3.140742 0.7038,5.681189 1.72445,8.117335 0.29853,0.712544 0.40574,1.042818 0.46096,1.243851 -0.085,-0.01471 -0.12872,-0.01841 -0.36536,-0.07803 -0.40093,-0.100989 -0.66569,-0.18187 -1.02114,-0.156062 -0.35541,0.02582 -0.61507,0.163062 -0.92397,0.316259 -0.31092,0.15421 -0.63162,0.353058 -0.879,0.666118 -0.24739,0.31305 -0.42492,0.67206 -0.72864,1.2795 -0.2236,0.44719 -0.37938,0.7164 -0.48421,0.87489 -0.0101,-0.003 -0.013,-0.004 -0.0233,-0.008 -0.18938,-0.0679 -0.43963,-0.17557 -0.67593,-0.29507 -0.82028,-0.41484 -1.54344,-0.65109 -2.27531,-0.53692 -0.73186,0.11418 -1.31596,0.61382 -1.75596,1.26556 -0.0984,0.14578 -0.15708,0.21307 -0.18346,0.24029 -0.0201,-0.002 -0.36206,-0.0508 -1.04902,-0.27957 -3.44196,-1.14608 -6.2067,-2.77471 -8.16385,-4.767667 -0.41206,-0.419603 -0.72737,-0.713997 -1.14671,-0.894519 -0.20968,-0.09026 -0.46934,-0.145463 -0.73432,-0.09767 -0.26498,0.0478 -0.49326,0.194575 -0.64852,0.349851 -0.29975,0.300008 -0.37105,0.516398 -0.37105,0.914157 0,0.385116 0.11898,0.46414 0.20153,0.591693 0.0826,0.127553 0.17558,0.246157 0.28681,0.376721 0.22246,0.261128 0.51112,0.559324 0.84182,0.876954 0.66136,0.63526 1.48207,1.33812 2.20502,1.85364 1.41684,1.01032 3.96673,2.23059 5.99604,2.99051 v 0.076 l 0.49815,0.17209 c 1.06754,0.36857 1.83293,0.57716 2.58795,0.4625 0.75501,-0.11466 1.33021,-0.63382 1.76577,-1.27899 0.0815,-0.12077 0.11663,-0.15997 0.15039,-0.19947 -0.0167,0.0133 0.21662,0.0572 0.76946,0.32453 0.32594,0.15761 0.65974,0.29767 0.95499,0.40411 0.29525,0.10643 0.44953,0.19947 0.83767,0.19947 0.57653,0 1.15898,-0.22737 1.60197,-0.63717 0.44299,-0.40981 0.77997,-0.96285 1.11517,-1.68362 0.30559,-0.65711 0.48839,-0.88564 0.45476,-0.87488 0.0678,0.009 0.18569,0.0291 0.39482,0.0822 0.64206,0.16295 1.25658,0.18941 1.82004,0.0134 0.56343,-0.17596 1.04148,-0.56919 1.35392,-1.08159 0.25025,-0.41041 0.37822,-0.91441 0.33745,-1.420069 -0.0408,-0.505653 -0.21463,-1.007293 -0.48421,-1.595768 -1.12445,-2.454699 -1.84176,-5.840143 -1.84176,-8.742101 0,-0.531728 0.009,-0.90551 -0.19532,-1.326018 -0.10224,-0.210254 -0.30067,-0.424955 -0.5271,-0.535368 -0.22646,-0.110414 -0.44056,-0.130741 -0.62529,-0.130741 -0.032,0 -0.0743,0.03464 -0.10904,0.03721 l 0.15605,-0.373105 c 0.36711,-0.0117 0.67644,-0.186034 0.87128,-0.380854 0.5448,-0.544838 0.64963,-1.40298 0.0486,-2.004013 -0.23847,-0.238397 -0.52387,-0.343225 -0.80306,-0.36432 z m -19.13578,3.290755 c -0.0481,0.0013 -0.0952,0.0072 -0.14108,0.01707 -0.36729,0.07879 -0.58253,0.280408 -0.77774,0.496094 -0.15788,0.174471 -0.32366,0.4979 -0.35914,0.790649 -0.0355,0.292745 -0.0127,0.565303 0.0254,0.980818 0.0776,0.848249 0.22314,1.810964 0.39637,2.601391 0.0866,0.395214 0.17732,0.743826 0.28524,1.037146 0.054,0.146661 0.10864,0.278196 0.19535,0.418063 0.0861,0.138835 0.19092,0.354205 0.586,0.447 0.0228,0.0064 0.21584,0.06345 0.48421,0.08578 0.14171,0.0118 0.30244,0.02013 0.50591,-0.02326 0.20346,-0.0434 0.51715,-0.166576 0.6935,-0.496093 0.20598,-0.384853 0.13602,-0.617953 0.0977,-0.902269 -0.0384,-0.284319 -0.11274,-0.613492 -0.22479,-1.033013 -0.15293,-0.572699 -0.33433,-1.632701 -0.37672,-2.193666 -0.0593,-0.785415 -0.0954,-1.322932 -0.50178,-1.827794 -0.1778,-0.220877 -0.55166,-0.40758 -0.88831,-0.39791 z"
       id="use9423"
       inkscape:tile-x0="15"
       inkscape:tile-y0="15" />
    <path
       inkscape:connector-curvature="0"
       style="fill:#000000;stroke:none;stroke-width:1.47653127;stroke-miterlimit:4;stroke-dasharray:none;stroke-opacity:1"
       d="m -61.711672,108.74754 c 1.1789,-0.0122 2.41781,-0.15364 3.30369,-0.40824 4.66013,-1.33939 8.08254,-5.00384 9.04129,-9.697087 0.24143,-1.181909 0.26329,-1.866617 0.22066,-7.728728 l -0.047,-6.437333 -0.36897,-1.359607 c -0.19245,-0.708004 -0.52175,-1.589593 -0.84751,-2.345592 -0.16285,-0.378 -0.32414,-0.721585 -0.47284,-0.99994 -0.0743,-0.139179 -0.14454,-0.260321 -0.22063,-0.373105 -0.0761,-0.112781 -0.10867,-0.213632 -0.34986,-0.3669 l -0.16174,-0.101804 -0.11732,-0.0078 c -0.0812,-0.04106 -0.0965,-0.09027 -0.25786,-0.09973 -0.33647,-0.01976 -0.42238,0.07542 -0.53692,0.119372 -0.18817,0.07216 -0.40005,0.182994 -0.57258,0.392742 -0.17251,0.209746 -0.25628,0.50096 -0.25787,0.742072 -0.003,0.482227 0.16881,0.851225 0.41445,1.382863 0.22233,0.481164 0.59142,1.44952 0.77721,2.044836 l 0.33023,1.056782 0.003,6.80837 c 0,3.809492 0.004,5.651042 -0.0915,6.702951 -0.0961,1.05192 -0.24956,1.301563 -0.69144,2.283578 -1.1824,2.62774 -3.71898,4.7493 -6.63265,5.52318 -1.14155,0.30325 -3.60844,0.33559 -4.70361,0.0703 -3.57677,-0.86648 -6.37114,-3.5235 -7.40624,-7.040911 -0.2087,-0.709192 -0.264,-1.233712 -0.31419,-3.183787 -0.0175,-0.673978 -0.0458,-1.312545 -0.0801,-1.806606 -0.0172,-0.247031 -0.0369,-0.457134 -0.0568,-0.626835 -0.0101,-0.08485 -0.0196,-0.157409 -0.0331,-0.230479 -0.0135,-0.07307 0.007,-0.105653 -0.0998,-0.30644 v -0.0021 c -0.23326,-0.44005 -0.64064,-0.580395 -0.99013,-0.609267 -0.34948,-0.02887 -0.73384,0.04243 -1.05264,0.36122 -0.19979,0.199768 -0.19807,0.302683 -0.22479,0.392224 -0.0267,0.08954 -0.0396,0.165642 -0.0527,0.248047 -0.0262,0.164809 -0.0428,0.349686 -0.0563,0.562755 -0.0271,0.426138 -0.0381,0.959967 -0.0351,1.529107 0.006,1.138274 0.0568,2.365282 0.19119,3.117122 0.47595,2.66223 1.54061,4.65562 3.54708,6.66213 2.04589,2.04589 4.23971,3.19286 6.93703,3.61166 v 0 c 0.57457,0.0891 1.26018,0.12824 1.96731,0.12092 z m -4.46588,-9.669696 c 0.45265,-0.01 0.90895,-0.135974 1.32242,-0.388606 1.17371,-0.71713 1.76799,-2.011294 1.76577,-3.584276 -0.003,-1.42529 -0.71249,-2.583265 -1.78128,-3.245798 v -0.234611 l -0.4904,-0.173633 c -0.30012,-0.106992 -0.47551,-0.197932 -0.78497,-0.212907 -0.30946,-0.01498 -0.49787,0.06447 -0.77928,0.142629 -0.87368,0.24263 -1.59604,0.88728 -2.0252,1.72444 -0.25937,0.505931 -0.36346,1.098068 -0.41238,1.714624 -0.0489,0.616559 -0.0392,1.21592 0.13849,1.755966 0.3289,0.99958 0.94829,1.782619 1.74614,2.199349 0.39894,0.208359 0.84807,0.312835 1.30069,0.302823 z m 9.06148,-0.01344 c 0.4695,-0.0069 0.92845,-0.13412 1.32963,-0.375172 1.06982,-0.64285 1.76829,-1.952196 1.75753,-3.539318 -0.0117,-1.717624 -0.86461,-3.189478 -2.32598,-3.695382 -0.81127,-0.280863 -1.65166,-0.140682 -2.28513,0.265618 -0.63344,0.406296 -1.08775,1.034838 -1.37509,1.746146 -0.5747,1.42262 -0.51155,3.276974 0.68159,4.597652 0.49766,0.550849 1.11757,0.868106 1.74615,0.966867 0.15716,0.02469 0.3148,0.03589 0.4713,0.03359 z m -9.14519,-2.625162 c -0.0585,-0.003 -0.2304,-0.04861 -0.39272,-0.476975 -0.11944,-0.315169 -0.13468,-0.854255 -0.029,-1.294495 0.10573,-0.440238 0.36835,-0.71673 0.35139,-0.708999 0.0825,-0.03762 0.11208,-0.04593 0.13955,-0.05478 0.0264,0.02162 0.0612,0.0495 0.13176,0.125055 0.14965,0.16021 0.31329,0.521967 0.36327,0.917773 0.05,0.395807 -0.0124,0.811993 -0.13279,1.056783 -0.20175,0.409967 -0.37299,0.438494 -0.43151,0.435634 z m 9.09351,-0.0016 c -0.0228,-0.0048 -0.0523,-0.01749 -0.0956,-0.04393 -0.17324,-0.10587 -0.4668,-0.506229 -0.46868,-1.148249 -0.003,-0.697468 0.1705,-1.04358 0.43561,-1.252119 0.0723,-0.0569 0.10848,-0.07613 0.13385,-0.08992 0.0193,0.01159 0.0408,0.02365 0.10078,0.0708 0.16137,0.126939 0.36386,0.504225 0.41392,0.964801 0.0501,0.460573 -0.0485,0.966173 -0.23823,1.273307 -0.11483,0.185798 -0.19405,0.214085 -0.22686,0.222724 -0.0164,0.0045 -0.0321,0.0074 -0.0548,0.0026 z m -16.00729,-4.575948 c 0.0931,0.007 0.18518,0.0051 0.27491,-0.0047 0.35893,-0.03897 0.75493,-0.210701 0.97877,-0.628904 0.13927,-0.260188 0.26752,-0.554013 0.21651,-0.918289 -0.051,-0.364276 -0.25226,-0.59228 -0.39997,-0.75551 l -0.75034,-0.83044 c 0.20331,-0.02172 0.42773,-0.04888 0.6232,-0.210838 0.24451,-0.202562 0.36328,-0.476224 0.42376,-0.726572 0.12097,-0.500698 0.10028,-1.054145 0.0527,-1.937348 -0.16913,-3.140742 -0.7038,-5.681189 -1.72445,-8.117335 -0.29853,-0.712544 -0.40574,-1.042818 -0.46096,-1.243851 0.085,0.01471 0.12872,0.01841 0.36536,0.07803 0.40093,0.100989 0.66569,0.18187 1.02114,0.156062 0.35541,-0.02582 0.61507,-0.163062 0.92397,-0.316259 0.31092,-0.15421 0.63162,-0.353058 0.879,-0.666118 0.24739,-0.31305 0.42492,-0.67206 0.72864,-1.2795 0.2236,-0.44719 0.37938,-0.7164 0.48421,-0.87489 0.0101,0.003 0.013,0.004 0.0233,0.008 0.18938,0.0679 0.43963,0.17557 0.67593,0.29507 0.82028,0.41484 1.54344,0.65109 2.27531,0.53692 0.73186,-0.11418 1.31596,-0.61382 1.75596,-1.26556 0.0984,-0.14578 0.15708,-0.21307 0.18346,-0.24029 0.0201,0.002 0.36206,0.0508 1.04902,0.27957 3.44196,1.14608 6.2067,2.77471 8.16385,4.767667 0.41206,0.419603 0.72737,0.713997 1.14671,0.894519 0.20968,0.09026 0.46934,0.145463 0.73432,0.09767 0.26498,-0.0478 0.49326,-0.194575 0.64852,-0.349851 0.29975,-0.300008 0.37105,-0.516398 0.37105,-0.914157 0,-0.385116 -0.11898,-0.46414 -0.20153,-0.591693 -0.0826,-0.127553 -0.17558,-0.246157 -0.28681,-0.376721 -0.22246,-0.261128 -0.51112,-0.559324 -0.84182,-0.876954 -0.66136,-0.63526 -1.48207,-1.33812 -2.20502,-1.85364 -1.41684,-1.01032 -3.96673,-2.23059 -5.99604,-2.99051 v -0.076 l -0.49815,-0.17209 c -1.06754,-0.36857 -1.83293,-0.57716 -2.58795,-0.4625 -0.75501,0.11466 -1.33021,0.63382 -1.76577,1.27899 -0.0815,0.12077 -0.11663,0.15997 -0.15039,0.19947 0.0167,-0.0133 -0.21662,-0.0572 -0.76946,-0.32453 -0.32594,-0.15761 -0.65974,-0.29767 -0.95499,-0.40411 -0.29525,-0.10643 -0.44953,-0.19947 -0.83767,-0.19947 -0.57653,0 -1.15898,0.22737 -1.60197,0.63717 -0.44299,0.40981 -0.77997,0.96285 -1.11517,1.68362 -0.30559,0.65711 -0.48839,0.88564 -0.45476,0.87488 -0.0678,-0.009 -0.18569,-0.0291 -0.39482,-0.0822 -0.64206,-0.16295 -1.25658,-0.18941 -1.82004,-0.0134 -0.56343,0.17596 -1.04148,0.56919 -1.35392,1.08159 -0.25025,0.41041 -0.37822,0.91441 -0.33745,1.420069 0.0408,0.505653 0.21463,1.007293 0.48421,1.595768 1.12445,2.454699 1.84176,5.840143 1.84176,8.742101 0,0.531728 -0.009,0.90551 0.19532,1.326018 0.10224,0.210254 0.30067,0.424955 0.5271,0.535368 0.22646,0.110414 0.44056,0.130741 0.62529,0.130741 0.032,0 0.0743,-0.03464 0.10904,-0.03721 l -0.15605,0.373105 c -0.36711,0.0117 -0.67644,0.186034 -0.87128,0.380854 -0.5448,0.544838 -0.64963,1.40298 -0.0486,2.004013 0.23847,0.238397 0.52387,0.343225 0.80306,0.36432 z m 19.13578,-3.290755 c 0.0481,-0.0013 0.0952,-0.0072 0.14108,-0.01707 0.36729,-0.07879 0.58253,-0.280408 0.77774,-0.496094 0.15788,-0.174471 0.32366,-0.4979 0.35914,-0.790649 0.0355,-0.292745 0.0127,-0.565303 -0.0254,-0.980818 -0.0776,-0.848249 -0.22314,-1.810964 -0.39637,-2.601391 -0.0866,-0.395214 -0.17732,-0.743826 -0.28524,-1.037146 -0.054,-0.146661 -0.10864,-0.278196 -0.19535,-0.418063 -0.0861,-0.138835 -0.19092,-0.354205 -0.586,-0.447 -0.0228,-0.0064 -0.21584,-0.06345 -0.48421,-0.08578 -0.14171,-0.0118 -0.30244,-0.02013 -0.50591,0.02326 -0.20346,0.0434 -0.51715,0.166576 -0.6935,0.496093 -0.20598,0.384853 -0.13602,0.617953 -0.0977,0.902269 0.0384,0.284319 0.11274,0.613492 0.22479,1.033013 0.15293,0.572699 0.33433,1.632701 0.37672,2.193666 0.0593,0.785415 0.0954,1.322932 0.50178,1.827794 0.1778,0.220877 0.55166,0.40758 0.88831,0.39791 z"
       id="use9425"
       inkscape:tile-x0="15"
       inkscape:tile-y0="15" />
    <path
       inkscape:connector-curvature="0"
       style="fill:#000000;stroke:none;stroke-width:1.47653127;stroke-miterlimit:4;stroke-dasharray:none;stroke-opacity:1"
       d="m -10.515007,42.364419 c -1.1789,-0.0122 -2.41781,-0.153638 -3.30369,-0.408244 -4.66013,-1.33939 -8.08254,-5.003832 -9.04129,-9.697083 -0.24143,-1.181909 -0.26329,-1.866617 -0.22066,-7.728728 l 0.047,-6.437333 0.36897,-1.359607 c 0.19245,-0.708004 0.52175,-1.589593 0.84751,-2.345592 0.16285,-0.378 0.32414,-0.721585 0.47284,-0.99994 0.0743,-0.139179 0.14454,-0.260321 0.22063,-0.373105 0.0761,-0.112781 0.10867,-0.213632 0.34986,-0.3669 l 0.16174,-0.101804 0.11732,-0.0078 c 0.0812,-0.04106 0.0965,-0.09027 0.25786,-0.09973 0.33647,-0.01976 0.42238,0.07542 0.53692,0.119372 0.18817,0.07216 0.40005,0.182994 0.57258,0.392742 0.17251,0.209746 0.25628,0.50096 0.25787,0.742072 0.003,0.482227 -0.16881,0.851225 -0.41445,1.382863 -0.22233,0.481164 -0.59142,1.44952 -0.77721,2.044836 l -0.33023,1.056782 -0.003,6.80837 c 0,3.809492 -0.004,5.651042 0.0915,6.702951 0.0961,1.05192 0.24956,1.301563 0.69144,2.283582 1.1824,2.627739 3.71898,4.749297 6.63265,5.523177 1.14155,0.30325 3.60844,0.33559 4.70361,0.07028 3.57677,-0.866479 6.37114,-3.523504 7.40624,-7.040912 0.2087,-0.709192 0.264,-1.233712 0.31419,-3.183787 0.0175,-0.673978 0.0458,-1.312545 0.0801,-1.806606 0.0172,-0.247031 0.0369,-0.457134 0.0568,-0.626835 0.0101,-0.08485 0.0196,-0.157409 0.0331,-0.230479 0.0135,-0.07307 -0.007,-0.105653 0.0998,-0.30644 v -0.0021 c 0.23326,-0.44005 0.64064,-0.580395 0.99013,-0.609267 0.34948,-0.02887 0.73384,0.04243 1.05264,0.36122 0.19979,0.199768 0.19807,0.302683 0.22479,0.392224 0.0267,0.08954 0.0396,0.165642 0.0527,0.248047 0.0262,0.164809 0.0428,0.349686 0.0563,0.562755 0.0271,0.426138 0.0381,0.959967 0.0351,1.529107 -0.006,1.138274 -0.0568,2.365282 -0.19119,3.117122 -0.47595,2.662229 -1.54061,4.655624 -3.54708,6.662126 -2.04589,2.045891 -4.23971,3.19286 -6.93703,3.611666 v 0 c -0.57457,0.08915 -1.26018,0.128233 -1.96731,0.120922 z m 4.46588,-9.669696 c -0.45265,-0.01 -0.90895,-0.135974 -1.32242,-0.388606 -1.17371,-0.71713 -1.76799,-2.011294 -1.76577,-3.584276 0.003,-1.42529 0.71249,-2.583265 1.78128,-3.245798 v -0.234611 l 0.4904,-0.173633 c 0.30012,-0.106992 0.47551,-0.197932 0.78497,-0.212907 0.30946,-0.01498 0.49787,0.06447 0.77928,0.142629 0.87368,0.24263 1.59604,0.88728 2.0252,1.72444 0.25937,0.505931 0.36346,1.098068 0.41238,1.714624 0.0489,0.616559 0.0392,1.21592 -0.13849,1.755966 -0.3289,0.99958 -0.94829,1.782619 -1.74614,2.199349 -0.39894,0.208359 -0.84807,0.312835 -1.30069,0.302823 z m -9.06148,-0.01344 c -0.4695,-0.0069 -0.92845,-0.13412 -1.32963,-0.375172 -1.06982,-0.64285 -1.76829,-1.952196 -1.75753,-3.539318 0.0117,-1.717624 0.86461,-3.189478 2.32598,-3.695382 0.81127,-0.280863 1.65166,-0.140682 2.28513,0.265618 0.63344,0.406296 1.08775,1.034838 1.37509,1.746146 0.5747,1.42262 0.51155,3.276974 -0.68159,4.597652 -0.49766,0.550849 -1.11757,0.868106 -1.74615,0.966867 -0.15716,0.02469 -0.3148,0.03589 -0.4713,0.03359 z m 9.14519,-2.625162 c 0.0585,-0.003 0.2304,-0.04861 0.39272,-0.476975 0.11944,-0.315169 0.13468,-0.854255 0.029,-1.294495 -0.10573,-0.440238 -0.36835,-0.71673 -0.35139,-0.708999 -0.0825,-0.03762 -0.11208,-0.04593 -0.13955,-0.05478 -0.0264,0.02162 -0.0612,0.0495 -0.13176,0.125055 -0.14965,0.16021 -0.31329,0.521967 -0.36327,0.917773 -0.05,0.395807 0.0124,0.811993 0.13279,1.056783 0.20175,0.409967 0.37299,0.438494 0.43151,0.435634 z m -9.09351,-0.0016 c 0.0228,-0.0048 0.0523,-0.01749 0.0956,-0.04393 0.17324,-0.10587 0.4668,-0.506229 0.46868,-1.148249 0.003,-0.697468 -0.1705,-1.04358 -0.43561,-1.252119 -0.0723,-0.0569 -0.10848,-0.07613 -0.13385,-0.08992 -0.0193,0.01159 -0.0408,0.02365 -0.10078,0.0708 -0.16137,0.126939 -0.36386,0.504225 -0.41392,0.964801 -0.0501,0.460573 0.0485,0.966173 0.23823,1.273307 0.11483,0.185798 0.19405,0.214085 0.22686,0.222724 0.0164,0.0045 0.0321,0.0074 0.0548,0.0026 z m 16.00729,-4.575948 c -0.0931,0.007 -0.18518,0.0051 -0.27491,-0.0047 -0.35893,-0.03897 -0.75493,-0.210701 -0.97877,-0.628904 -0.13927,-0.260188 -0.26752,-0.554013 -0.21651,-0.918289 0.051,-0.364276 0.25226,-0.59228 0.39997,-0.75551 l 0.75034,-0.83044 c -0.20331,-0.02172 -0.42773,-0.04888 -0.6232,-0.210838 -0.24451,-0.202562 -0.36328,-0.476224 -0.42376,-0.726572 -0.12097,-0.500698 -0.10028,-1.054145 -0.0527,-1.937348 0.16913,-3.140742 0.7038,-5.681189 1.72445,-8.117335 0.29853,-0.712544 0.40574,-1.042818 0.46096,-1.243851 -0.085,0.01471 -0.12872,0.01841 -0.36536,0.07803 -0.40093,0.100989 -0.66569,0.18187 -1.02114,0.156062 -0.35541,-0.02582 -0.61507,-0.163062 -0.92397,-0.316259 -0.31092,-0.15421 -0.63162,-0.353058 -0.879,-0.666118 -0.24739,-0.31305 -0.42492,-0.67206 -0.72864,-1.2795 -0.2236,-0.44719 -0.37938,-0.7164 -0.48421,-0.87489 -0.0101,0.003 -0.013,0.004 -0.0233,0.008 -0.18938,0.0679 -0.43963,0.17557 -0.67593,0.29507 -0.82028,0.41484 -1.54344,0.65109 -2.27531,0.53692 -0.73186,-0.11418 -1.31596,-0.61382 -1.75596,-1.26556 -0.0984,-0.14578 -0.15708,-0.21307 -0.18346,-0.24029 -0.0201,0.002 -0.36206,0.0508 -1.04902,0.27957 -3.44196,1.14608 -6.2067,2.77471 -8.16385,4.767667 -0.41206,0.419603 -0.72737,0.713997 -1.14671,0.894519 -0.20968,0.09026 -0.46934,0.145463 -0.73432,0.09767 -0.26498,-0.0478 -0.49326,-0.194575 -0.64852,-0.349851 -0.29975,-0.300008 -0.37105,-0.516398 -0.37105,-0.914157 0,-0.385116 0.11898,-0.46414 0.20153,-0.591693 0.0826,-0.127553 0.17558,-0.246157 0.28681,-0.376721 0.22246,-0.261128 0.51112,-0.559324 0.84182,-0.876954 0.66136,-0.63526 1.48207,-1.33812 2.20502,-1.85364 1.41684,-1.01032 3.96673,-2.23059 5.99604,-2.99051 v -0.076 l 0.49815,-0.17209 c 1.06754,-0.36857 1.83293,-0.57716 2.58795,-0.4625 0.75501,0.11466 1.33021,0.63382 1.76577,1.27899 0.0815,0.12077 0.11663,0.15997 0.15039,0.19947 -0.0167,-0.0133 0.21662,-0.0572 0.76946,-0.32453 0.32594,-0.15761 0.65974,-0.29767 0.95499,-0.40411 0.29525,-0.10643 0.44953,-0.19947 0.83767,-0.19947 0.57653,0 1.15898,0.22737 1.60197,0.63717 0.44299,0.40981 0.77997,0.96285 1.11517,1.68362 0.30559,0.65711 0.48839,0.88564 0.45476,0.87488 0.0678,-0.009 0.18569,-0.0291 0.39482,-0.0822 0.64206,-0.16295 1.25658,-0.18941 1.82004,-0.0134 0.56343,0.17596 1.04148,0.56919 1.35392,1.08159 0.25025,0.41041 0.37822,0.91441 0.33745,1.420069 -0.0408,0.505653 -0.21463,1.007293 -0.48421,1.595768 -1.12445,2.454699 -1.84176,5.840143 -1.84176,8.742101 0,0.531728 0.009,0.90551 -0.19532,1.326018 -0.10224,0.210254 -0.30067,0.424955 -0.5271,0.535368 -0.22646,0.110414 -0.44056,0.130741 -0.62529,0.130741 -0.032,0 -0.0743,-0.03464 -0.10904,-0.03721 l 0.15605,0.373105 c 0.36711,0.0117 0.67644,0.186034 0.87128,0.380854 0.5448,0.544838 0.64963,1.40298 0.0486,2.004013 -0.23847,0.238397 -0.52387,0.343225 -0.80306,0.36432 z m -19.13578,-3.290755 c -0.0481,-0.0013 -0.0952,-0.0072 -0.14108,-0.01707 -0.36729,-0.07879 -0.58253,-0.280408 -0.77774,-0.496094 -0.15788,-0.174471 -0.32366,-0.4979 -0.35914,-0.790649 -0.0355,-0.292745 -0.0127,-0.565303 0.0254,-0.980818 0.0776,-0.848249 0.22314,-1.810964 0.39637,-2.601391 0.0866,-0.395214 0.17732,-0.743826 0.28524,-1.037146 0.054,-0.146661 0.10864,-0.278196 0.19535,-0.418063 0.0861,-0.138835 0.19092,-0.354205 0.586,-0.447 0.0228,-0.0064 0.21584,-0.06345 0.48421,-0.08578 0.14171,-0.0118 0.30244,-0.02013 0.50591,0.02326 0.20346,0.0434 0.51715,0.166576 0.6935,0.496093 0.20598,0.384853 0.13602,0.617953 0.0977,0.902269 -0.0384,0.284319 -0.11274,0.613492 -0.22479,1.033013 -0.15293,0.572699 -0.33433,1.632701 -0.37672,2.193666 -0.0593,0.785415 -0.0954,1.322932 -0.50178,1.827794 -0.1778,0.220877 -0.55166,0.40758 -0.88831,0.39791 z"
       id="use9427"
       inkscape:tile-x0="15"
       inkscape:tile-y0="15" />
    <path
       inkscape:connector-curvature="0"
       style="fill:#000000;stroke:none;stroke-width:1.47653127;stroke-miterlimit:4;stroke-dasharray:none;stroke-opacity:1"
       d="m -10.900643,66.877193 c 1.1789,0.0122 2.41781,0.153638 3.30369,0.408244 4.66013,1.33939 8.08254,5.003832 9.04129,9.697083 0.24143,1.181909 0.26329,1.866617 0.22066,7.728728 l -0.047,6.437333 -0.36897,1.359607 c -0.19245,0.708004 -0.52175,1.589593 -0.84751,2.345592 -0.16285,0.378 -0.32414,0.721585 -0.47284,0.99994 -0.0743,0.139179 -0.14454,0.260321 -0.22063,0.373105 -0.0761,0.112781 -0.10867,0.213632 -0.34986,0.3669 l -0.16174,0.101804 -0.11732,0.0078 c -0.0812,0.04106 -0.0965,0.09027 -0.25786,0.09973 -0.33647,0.01976 -0.42238,-0.07542 -0.53692,-0.119372 -0.18817,-0.07216 -0.40005,-0.182994 -0.57258,-0.392742 -0.17251,-0.209746 -0.25628,-0.50096 -0.25787,-0.742072 -0.003,-0.482227 0.16881,-0.851225 0.41445,-1.382863 0.22233,-0.481164 0.59142,-1.44952 0.77721,-2.044836 l 0.33023,-1.056782 0.003,-6.80837 c 0,-3.809492 0.004,-5.651042 -0.0915,-6.702951 -0.0961,-1.05192 -0.24956,-1.301563 -0.69144,-2.283582 -1.1824,-2.627739 -3.71898,-4.749297 -6.63265,-5.523177 -1.14155,-0.30325 -3.60844,-0.33559 -4.70361,-0.07028 -3.57677,0.866479 -6.37114,3.523504 -7.40624,7.040912 -0.2087,0.709192 -0.264,1.233712 -0.31419,3.183787 -0.0175,0.673978 -0.0458,1.312545 -0.0801,1.806606 -0.0172,0.247031 -0.0369,0.457134 -0.0568,0.626835 -0.0101,0.08485 -0.0196,0.157409 -0.0331,0.230479 -0.0135,0.07307 0.007,0.105653 -0.0998,0.30644 v 0.0021 c -0.23326,0.44005 -0.64064,0.580395 -0.99013,0.609267 -0.34948,0.02887 -0.73384,-0.04243 -1.05264,-0.36122 -0.19979,-0.199768 -0.19807,-0.302683 -0.22479,-0.392224 -0.0267,-0.08954 -0.0396,-0.165642 -0.0527,-0.248047 -0.0262,-0.164809 -0.0428,-0.349686 -0.0563,-0.562755 -0.0271,-0.426138 -0.0381,-0.959967 -0.0351,-1.529107 0.006,-1.138274 0.0568,-2.365282 0.19119,-3.117122 0.47595,-2.662229 1.54061,-4.655624 3.54708,-6.662126 2.04589,-2.045891 4.23971,-3.19286 6.93703,-3.611666 v 0 c 0.57457,-0.08915 1.26018,-0.128233 1.96731,-0.120922 z m -4.46588,9.669696 c 0.45265,0.01 0.90895,0.135974 1.32242,0.388606 1.17371,0.71713 1.76799,2.011294 1.76577,3.584276 -0.003,1.42529 -0.71249,2.583265 -1.78128,3.245798 v 0.234611 l -0.4904,0.173633 c -0.30012,0.106992 -0.47551,0.197932 -0.78497,0.212907 -0.30946,0.01498 -0.49787,-0.06447 -0.77928,-0.142629 -0.87368,-0.24263 -1.59604,-0.88728 -2.0252,-1.72444 -0.25937,-0.505931 -0.36346,-1.098068 -0.41238,-1.714624 -0.0489,-0.616559 -0.0392,-1.21592 0.13849,-1.755966 0.3289,-0.99958 0.94829,-1.782619 1.74614,-2.199349 0.39894,-0.208359 0.84807,-0.312835 1.30069,-0.302823 z m 9.06148,0.01344 c 0.4695,0.0069 0.92845,0.13412 1.32963,0.375172 1.06982,0.64285 1.76829,1.952196 1.75753,3.539318 -0.0117,1.717624 -0.86461,3.189478 -2.32598,3.695382 -0.81127,0.280863 -1.65166,0.140682 -2.28513,-0.265618 -0.63344,-0.406296 -1.08775,-1.034838 -1.37509,-1.746146 -0.5747,-1.42262 -0.51155,-3.276974 0.68159,-4.597652 0.49766,-0.550849 1.11757,-0.868106 1.74615,-0.966867 0.15716,-0.02469 0.3148,-0.03589 0.4713,-0.03359 z m -9.14519,2.625162 c -0.0585,0.003 -0.2304,0.04861 -0.39272,0.476975 -0.11944,0.315169 -0.13468,0.854255 -0.029,1.294495 0.10573,0.440238 0.36835,0.71673 0.35139,0.708999 0.0825,0.03762 0.11208,0.04593 0.13955,0.05478 0.0264,-0.02162 0.0612,-0.0495 0.13176,-0.125055 0.14965,-0.16021 0.31329,-0.521967 0.36327,-0.917773 0.05,-0.395807 -0.0124,-0.811993 -0.13279,-1.056783 -0.20175,-0.409967 -0.37299,-0.438494 -0.43151,-0.435634 z m 9.09351,0.0016 c -0.0228,0.0048 -0.0523,0.01749 -0.0956,0.04393 -0.17324,0.10587 -0.4668,0.506229 -0.46868,1.148249 -0.003,0.697468 0.1705,1.04358 0.43561,1.252119 0.0723,0.0569 0.10848,0.07613 0.13385,0.08992 0.0193,-0.01159 0.0408,-0.02365 0.10078,-0.0708 0.16137,-0.126939 0.36386,-0.504225 0.41392,-0.964801 0.0501,-0.460573 -0.0485,-0.966173 -0.23823,-1.273307 -0.11483,-0.185798 -0.19405,-0.214085 -0.22686,-0.222724 -0.0164,-0.0045 -0.0321,-0.0074 -0.0548,-0.0026 z m -16.00729,4.575948 c 0.0931,-0.007 0.18518,-0.0051 0.27491,0.0047 0.35893,0.03897 0.75493,0.210701 0.97877,0.628904 0.13927,0.260188 0.26752,0.554013 0.21651,0.918289 -0.051,0.364276 -0.25226,0.59228 -0.39997,0.75551 l -0.75034,0.83044 c 0.20331,0.02172 0.42773,0.04888 0.6232,0.210838 0.24451,0.202562 0.36328,0.476224 0.42376,0.726572 0.12097,0.500698 0.10028,1.054145 0.0527,1.937348 -0.16913,3.140742 -0.7038,5.681189 -1.72445,8.117335 -0.29853,0.712544 -0.40574,1.042818 -0.46096,1.243851 0.085,-0.01471 0.12872,-0.01841 0.36536,-0.07803 0.40093,-0.100989 0.66569,-0.18187 1.02114,-0.156062 0.35541,0.02582 0.61507,0.163062 0.92397,0.316259 0.31092,0.15421 0.63162,0.353058 0.879,0.666118 0.24739,0.313049 0.42492,0.672059 0.72864,1.279499 0.2236,0.44719 0.37938,0.7164 0.48421,0.87489 0.0101,-0.003 0.013,-0.004 0.0233,-0.008 0.18938,-0.0679 0.43963,-0.17557 0.67593,-0.29507 0.82028,-0.41484 1.54344,-0.65109 2.27531,-0.53692 0.73186,0.11418 1.31596,0.61382 1.75596,1.26556 0.0984,0.14578 0.15708,0.21307 0.18346,0.24029 0.0201,-0.002 0.36206,-0.0508 1.04902,-0.27957 3.44196,-1.14608 6.2067,-2.774709 8.16385,-4.767666 0.41206,-0.419603 0.72737,-0.713997 1.14671,-0.894519 0.20968,-0.09026 0.46934,-0.145463 0.73432,-0.09767 0.26498,0.0478 0.49326,0.194575 0.64852,0.349851 0.29975,0.300008 0.37105,0.516398 0.37105,0.914157 0,0.385116 -0.11898,0.46414 -0.20153,0.591693 -0.0826,0.127553 -0.17558,0.246157 -0.28681,0.376721 -0.22246,0.261128 -0.51112,0.559324 -0.84182,0.876954 -0.66136,0.635259 -1.48207,1.338119 -2.20502,1.853639 -1.41684,1.01032 -3.96673,2.23059 -5.99604,2.99051 v 0.076 l -0.49815,0.17209 c -1.06754,0.36857 -1.83293,0.57716 -2.58795,0.4625 -0.75501,-0.11466 -1.33021,-0.63382 -1.76577,-1.27899 -0.0815,-0.12077 -0.11663,-0.15997 -0.15039,-0.19947 0.0167,0.0133 -0.21662,0.0572 -0.76946,0.32453 -0.32594,0.15761 -0.65974,0.29767 -0.95499,0.40411 -0.29525,0.10643 -0.44953,0.19947 -0.83767,0.19947 -0.57653,0 -1.15898,-0.22737 -1.60197,-0.63717 -0.44299,-0.40981 -0.77997,-0.96285 -1.11517,-1.68362 -0.30559,-0.65711 -0.48839,-0.88564 -0.45476,-0.87488 -0.0678,0.009 -0.18569,0.0291 -0.39482,0.0822 -0.64206,0.16295 -1.25658,0.18941 -1.82004,0.0134 -0.56343,-0.17596 -1.04148,-0.56919 -1.35392,-1.08159 -0.25025,-0.41041 -0.37822,-0.914409 -0.33745,-1.420068 0.0408,-0.505653 0.21463,-1.007293 0.48421,-1.595768 1.12445,-2.454699 1.84176,-5.840143 1.84176,-8.742101 0,-0.531728 -0.009,-0.90551 0.19532,-1.326018 0.10224,-0.210254 0.30067,-0.424955 0.5271,-0.535368 0.22646,-0.110414 0.44056,-0.130741 0.62529,-0.130741 0.032,0 0.0743,0.03464 0.10904,0.03721 l -0.15605,-0.373105 c -0.36711,-0.0117 -0.67644,-0.186034 -0.87128,-0.380854 -0.5448,-0.544838 -0.64963,-1.40298 -0.0486,-2.004013 0.23847,-0.238397 0.52387,-0.343225 0.80306,-0.36432 z m 19.13578,3.290755 c 0.0481,0.0013 0.0952,0.0072 0.14108,0.01707 0.36729,0.07879 0.58253,0.280408 0.77774,0.496094 0.15788,0.174471 0.32366,0.4979 0.35914,0.790649 0.0355,0.292745 0.0127,0.565303 -0.0254,0.980818 -0.0776,0.848249 -0.22314,1.810964 -0.39637,2.601391 -0.0866,0.395214 -0.17732,0.743826 -0.28524,1.037146 -0.054,0.146661 -0.10864,0.278196 -0.19535,0.418063 -0.0861,0.138835 -0.19092,0.354205 -0.586,0.447 -0.0228,0.0064 -0.21584,0.06345 -0.48421,0.08578 -0.14171,0.0118 -0.30244,0.02013 -0.50591,-0.02326 -0.20346,-0.0434 -0.51715,-0.166576 -0.6935,-0.496093 -0.20598,-0.384853 -0.13602,-0.617953 -0.0977,-0.902269 0.0384,-0.284319 0.11274,-0.613492 0.22479,-1.033013 0.15293,-0.572699 0.33433,-1.632701 0.37672,-2.193666 0.0593,-0.785415 0.0954,-1.322932 0.50178,-1.827794 0.1778,-0.220877 0.55166,-0.40758 0.88831,-0.39791 z"
       id="use9429"
       inkscape:tile-x0="15"
       inkscape:tile-y0="15" />
  </g>
</svg>
