<?xml version="1.0" encoding="UTF-8" standalone="no"?>
<!-- Created with Inkscape (http://www.inkscape.org/) -->

<svg
   xmlns:dc="http://purl.org/dc/elements/1.1/"
   xmlns:cc="http://creativecommons.org/ns#"
   xmlns:rdf="http://www.w3.org/1999/02/22-rdf-syntax-ns#"
   xmlns:svg="http://www.w3.org/2000/svg"
   xmlns="http://www.w3.org/2000/svg"
   xmlns:sodipodi="http://sodipodi.sourceforge.net/DTD/sodipodi-0.dtd"
   xmlns:inkscape="http://www.inkscape.org/namespaces/inkscape"
   width="137.80849mm"
   height="134.37416mm"
   viewBox="0 0 137.80849 134.37416"
   version="1.1"
   id="svg8430"
   inkscape:version="0.92.5 (2060ec1f9f, 2020-04-08)"
   sodipodi:docname="musical-pattern.svg">
  <defs
     id="defs8424" />
  <sodipodi:namedview
     id="base"
     pagecolor="#ffffff"
     bordercolor="#666666"
     borderopacity="1.0"
     inkscape:pageopacity="0.0"
     inkscape:pageshadow="2"
     inkscape:zoom="0.35"
     inkscape:cx="-98.960771"
     inkscape:cy="668.18503"
     inkscape:document-units="mm"
     inkscape:current-layer="layer1"
     showgrid="false"
     fit-margin-top="15"
     fit-margin-left="15"
     fit-margin-right="15"
     fit-margin-bottom="15"
     inkscape:window-width="1920"
     inkscape:window-height="1016"
     inkscape:window-x="0"
     inkscape:window-y="27"
     inkscape:window-maximized="1" />
  <metadata
     id="metadata8427">
    <rdf:RDF>
      <cc:Work
         rdf:about="">
        <dc:format>image/svg+xml</dc:format>
        <dc:type
           rdf:resource="http://purl.org/dc/dcmitype/StillImage" />
        <dc:title></dc:title>
      </cc:Work>
    </rdf:RDF>
  </metadata>
  <g
     inkscape:label="Calque 1"
     inkscape:groupmode="layer"
     id="layer1"
     transform="translate(123.27247,-127.81251)">
    <path
       inkscape:tile-y0="36.926831"
       inkscape:tile-x0="16.292685"
       id="use9238"
       d="m -65.614343,143.16013 -4.263311,1.2206 c -1.101487,0.3154 -2.130954,0.62541 -2.906262,0.87126 -0.387668,0.12292 -0.711809,0.22882 -0.953453,0.31419 -0.120782,0.0427 -0.220054,0.0796 -0.302286,0.11318 -0.08231,0.0335 -0.106786,0.0166 -0.256329,0.13694 -0.0771,0.062 -0.244078,0.24571 -0.30644,0.44132 -0.06239,0.19561 -0.08075,0.39845 -0.09766,0.7307 -0.03371,0.66451 -0.03307,1.85085 -0.03307,4.18527 0,1.30944 -0.0034,2.49973 -0.01032,3.36156 -0.0026,0.27737 -0.0048,0.45432 -0.0077,0.65629 -0.900774,-0.40351 -2.136854,-0.47825 -3.081973,-0.16433 -1.363106,0.45275 -2.401093,1.68503 -2.695442,3.15071 -0.394547,1.96463 0.85762,4.00872 2.806541,4.64416 0,0 0,0 0,0 0,2.2e-4 0.0026,2.6e-4 0.0026,5.3e-4 l 0.0744,0.0248 h 0.01958 c 0.931571,0.27144 2.084096,0.15016 2.993098,-0.29456 0.856324,-0.41896 1.519529,-1.11446 1.933734,-2.00969 0.132847,-0.28701 0.231537,-0.60929 0.271833,-1.26763 0.0403,-0.65833 0.05101,-1.72184 0.06821,-3.72483 l 0.03307,-3.86333 0.46302,-0.13488 c 0.441458,-0.12985 2.073831,-0.59847 3.615267,-1.03715 1.037034,-0.2951 1.757389,-0.51351 2.253615,-0.68729 0.248126,-0.0869 0.440743,-0.16251 0.597906,-0.23823 0.157162,-0.0757 0.28141,-0.13434 0.413914,-0.29507 0.158697,-0.19251 0.255931,-0.4839 0.289401,-0.87282 0.0335,-0.38893 0.03876,-0.95406 0.03876,-1.92391 0,-1.09925 0.0032,-1.64597 -0.04289,-2.02934 -0.04572,-0.38336 -0.259344,-0.69076 -0.411876,-0.83405 z m -31.585667,0.10904 c -0.430496,0.013 -0.692626,0.30369 -0.921906,0.6196 -0.22927,0.31591 -0.45546,0.73176 -0.73639,1.27692 -0.19741,0.38307 -0.33073,0.65781 -0.43149,0.82838 -0.10075,0.17057 -0.15004,0.22045 -0.21291,0.25993 -0.12578,0.079 -0.553454,0.14759 -1.603534,0.29249 -0.5778,0.0797 -1.00301,0.17212 -1.34977,0.35398 -0.34679,0.18186 -0.62116,0.56654 -0.62116,0.94878 0,0.2109 0.0516,0.24389 0.0822,0.30076 0.0307,0.0569 0.0633,0.10475 0.0997,0.15658 0.0728,0.10366 0.16465,0.21952 0.27543,0.3514 0.22159,0.26377 0.51668,0.58733 0.84336,0.91984 l 0.97877,0.99425 -0.1974,1.08004 c -0.14754,0.8118 -0.22675,1.26359 -0.23617,1.61902 0,0.0103 0.01,0.0155 0.01,0.0258 h -0.54105 l 0.85162,0.85317 c 0.10763,0.10762 0.26175,0.22675 0.45889,0.28112 0.19714,0.0544 0.39992,0.0376 0.593754,-0.01 0.0716,-0.0174 0.21291,-0.0995 0.2894,-0.12506 h 0.21654 l -0.0646,-0.0646 c 0.31231,-0.11734 0.5901,-0.2208 1.12344,-0.48628 l 1.152396,-0.57206 1.07021,0.57413 c 0.53681,0.28795 0.96224,0.49984 1.33583,0.62322 0.37362,0.12337 0.7733,0.19236 1.12294,-0.061 0.34965,-0.2533 0.40984,-0.65317 0.41392,-1.04852 0.004,-0.39535 -0.0582,-0.86915 -0.15605,-1.47484 l -0.2031,-1.26142 0.93379,-0.89246 c 0.4322,-0.41384 0.72121,-0.70812 0.92345,-0.95911 0.20228,-0.25099 0.35105,-0.48798 0.34986,-0.79478 0,-0.18206 -0.0326,-0.39289 -0.15039,-0.58602 -0.11774,-0.19313 -0.30231,-0.33271 -0.50022,-0.42581 -0.39581,-0.1862 -0.89387,-0.27028 -1.70688,-0.38861 l -1.24589,-0.17983 -0.60153,-1.20148 c -0.26538,-0.52938 -0.48096,-0.93356 -0.70538,-1.24178 -0.22442,-0.30821 -0.50898,-0.59906 -0.93949,-0.58601 z m 30.06844,2.82256 c 0.0079,0.1712 0.01773,0.27337 0.01746,0.66043 l -0.0026,0.94723 -2.59207,0.73432 c -0.813488,0.23076 -1.570355,0.44847 -2.134764,0.61133 -0.193755,0.0559 -0.327607,0.0946 -0.470773,0.13643 -0.0079,-0.17667 -0.01905,-0.31054 -0.01905,-0.64027 v -0.95343 l 2.5332,-0.73019 c 1.368028,-0.39356 2.289228,-0.65758 2.668032,-0.76585 z m -30.0545,1.11983 c 0.22426,0.46016 0.42953,0.8258 0.76327,1.07384 0.3538,0.26294 0.76968,0.3489 1.28519,0.40411 0.004,5.3e-4 0.006,0.002 0.01,0.002 -0.0259,0.0264 -0.039,0.0435 -0.0662,0.0703 -0.37428,0.36964 -0.6505,0.66133 -0.7617,1.08572 -0.0988,0.37696 -0.0228,0.77218 0.0703,1.27382 -0.0616,-0.0293 -0.10311,-0.0466 -0.16796,-0.0786 l -1.12914,-0.5581 -0.984426,0.49609 -0.10541,0.0522 c -0.0723,0.0364 -0.12407,0.0603 -0.19328,0.0941 0.0399,-0.20978 0.0774,-0.41961 0.10543,-0.59377 0.0307,-0.19115 0.0518,-0.29765 0.0548,-0.45113 0.006,-0.28024 -0.0733,-0.31597 -0.12713,-0.40411 -0.0538,-0.0881 -0.11697,-0.17492 -0.19119,-0.26768 -0.14843,-0.18554 -0.34041,-0.39445 -0.55448,-0.60152 -0.0421,-0.0408 -0.0644,-0.0678 -0.10388,-0.10749 0.005,-5.2e-4 0.008,-10e-4 0.014,-0.002 0.24861,-0.0257 0.4993,-0.0676 0.71676,-0.11731 0.21746,-0.0497 0.36608,-0.0696 0.57825,-0.20515 0.25463,-0.16265 0.30964,-0.30376 0.43513,-0.50178 0.122816,-0.19384 0.244626,-0.42546 0.351896,-0.66353 z m 11.77708,2.39262 c -0.33647,-0.0242 -0.69119,0.12168 -0.94361,0.37414 -0.34573,0.34578 -0.38332,0.75351 -0.39637,1.1622 -0.013,0.40869 -0.0167,0.81751 0.34573,1.17978 0.0474,0.0474 0.10483,0.0255 0.15449,0.0605 0.22482,0.15831 0.46083,0.26244 0.69919,0.27182 0.29107,0.0114 0.61841,5.2e-4 0.88678,-0.33435 0.34097,-0.42623 0.42312,-0.9866 0.31988,-1.53686 -0.0908,-0.48381 -0.32541,-0.90111 -0.74001,-1.09399 -0.10367,-0.0482 -0.21392,-0.0751 -0.32608,-0.0832 z m -2.69906,2.90577 c -0.40871,0.003 -0.79865,-0.002 -1.17203,0.33589 -0.48659,0.44048 -0.51564,1.20314 -0.0491,1.66967 0.21603,0.21604 0.39378,0.23114 0.59013,0.27182 0.19635,0.0407 0.40769,0.0605 0.62116,0.0661 0.21344,0.006 0.42439,-0.002 0.62114,-0.0331 0.19674,-0.0308 0.37674,-0.0295 0.60721,-0.25993 0.2725,-0.27253 0.29824,-0.58133 0.28525,-0.8692 -0.013,-0.28788 -0.0759,-0.58536 -0.33022,-0.83974 -0.18855,-0.18853 -0.37873,-0.23773 -0.57206,-0.28112 -0.19333,-0.0434 -0.39717,-0.0618 -0.6015,-0.0605 z m 5.13455,0.004 c -0.55784,0 -1.04931,0.16568 -1.34977,0.55087 -0.15023,0.19259 -0.23714,0.45153 -0.21497,0.709 0.0222,0.25747 0.1451,0.49752 0.32245,0.6935 0.14041,0.15509 0.35009,0.27025 0.5607,0.32246 0.21058,0.0522 0.43042,0.0641 0.709,0.0641 0.42096,0 0.75938,-0.0166 1.07434,-0.2341 0.31496,-0.21751 0.4253,-0.61892 0.4253,-0.95704 0,-0.34467 -0.18349,-0.72239 -0.48419,-0.91209 -0.30073,-0.1897 -0.64342,-0.23616 -1.04286,-0.23616 z m -2.57243,2.20917 c -0.29105,0.003 -0.58262,0.11262 -0.80823,0.31677 -0.20235,0.18312 -0.265,0.37981 -0.31678,0.57775 -0.0518,0.19794 -0.0741,0.40576 -0.078,0.61546 -0.004,0.20971 0.0106,0.41904 0.0548,0.61909 0.0379,0.17196 0.0901,0.34258 0.22376,0.50849 l 0.0222,0.0382 0.045,0.0429 c 0.26194,0.26185 0.56267,0.32085 0.85368,0.33227 0.29104,0.0114 0.61841,0.001 0.88678,-0.33382 0.28628,-0.35785 0.36227,-0.79466 0.35139,-1.21698 -0.0109,-0.42235 -0.10364,-0.85194 -0.43357,-1.18185 -0.21963,-0.21962 -0.50993,-0.32165 -0.80097,-0.31832 z m 9.105393,2.47737 c 0.208412,0.005 0.420766,0.0507 0.627327,0.14211 0.654685,0.28958 0.942578,0.70114 0.995812,1.43712 0.05411,0.74819 -0.181637,1.20919 -0.77515,1.55701 -1.173929,0.68798 -2.597943,-0.11503 -2.590006,-1.44539 0.0056,-0.98716 0.838835,-1.71426 1.742017,-1.69085 z m -8.957603,3.94911 c -0.058,5.3e-4 -0.10274,0.0121 -0.15917,0.017 -0.11285,0.01 -0.23514,0.0279 -0.37156,0.0527 -0.27278,0.0496 -0.59668,0.12482 -0.92344,0.21084 -0.32677,0.086 -0.65472,0.1815 -0.92811,0.27543 -0.27339,0.0939 -0.44228,0.12178 -0.68162,0.3204 -0.31192,0.25889 -0.38433,0.63626 -0.3457,0.96273 0.0386,0.32647 0.19097,0.65982 0.51366,0.87127 0.1896,0.12424 0.4989,0.22617 0.79891,0.19895 0.18756,-0.017 0.47977,-0.10697 0.73639,-0.1757 0.008,0.16948 0.0175,0.2812 0.0175,0.68006 v 0.94723 l -3.38635,0.95498 c -2.06208,0.58215 -4.11517,1.16415 -4.57441,1.29656 l -0.1855,0.0527 v -0.65991 -0.94361 l 0.33383,-0.0894 c 0.5485,-0.15017 0.90418,-0.25836 1.203,-0.45527 0.29885,-0.19691 0.48059,-0.56543 0.51007,-0.86713 0.0185,-0.18993 0.0185,-0.40037 -0.078,-0.60771 -0.0967,-0.20734 -0.26241,-0.34366 -0.42013,-0.447 -0.16661,-0.10915 -0.46762,-0.23333 -0.75964,-0.20723 -0.29203,0.0261 -0.60116,0.11788 -1.18753,0.28164 -0.34648,0.0968 -0.68215,0.20127 -0.95343,0.29456 -0.13565,0.0466 -0.25506,0.0901 -0.35502,0.13074 -0.10001,0.0407 -0.15817,0.0533 -0.28318,0.14469 -0.15698,0.1147 -0.26191,0.32895 -0.30284,0.5178 -0.0409,0.18886 -0.0611,0.41224 -0.078,0.76378 -0.0339,0.70309 -0.0469,1.90992 -0.0625,4.08398 l -0.0294,4.04472 c -2.67779,-1.22553 -5.77292,0.76498 -5.77744,3.71657 -0.003,1.84219 1.18726,3.38361 3.01945,3.96306 l 0.0217,0.008 0.0212,0.004 c 0.711634,0.2169 1.336044,0.20561 2.134774,-0.0315 1.276186,-0.379 2.245826,-1.24603 2.785346,-2.48409 0.0888,-0.20369 0.088,-0.32466 0.11112,-0.55087 0.023,-0.22621 0.0434,-0.52066 0.061,-0.9002 0.0353,-0.75908 0.0613,-1.85432 0.0837,-3.34605 l 0.0584,-3.88865 3.84008,-1.08779 c 1.1539,-0.32726 2.24235,-0.63433 3.06441,-0.86351 0.41103,-0.11459 0.75493,-0.20999 1.00769,-0.27906 0.10173,-0.0278 0.10491,-0.0277 0.17777,-0.047 v 1.44952 c 0,0.52213 -0.006,0.97558 -0.0135,1.3379 -0.0101,-0.005 -0.0172,-0.007 -0.0274,-0.0119 -1.58908,-0.73977 -3.48707,-0.34075 -4.6855,0.97049 -1.0514,1.15043 -1.36351,2.55052 -0.91207,4.07055 0.16869,0.56808 0.54083,1.09882 0.99425,1.55288 0.45341,0.45407 0.98962,0.82877 1.56218,1.0113 2.03739,0.64955 4.09879,-0.20112 5.02965,-2.09134 l 0.45114,-0.91622 0.0331,-6.57841 c 0.0172,-3.4148 0.0267,-5.14102 -0.0429,-6.09524 -0.0348,-0.47711 -0.0748,-0.77061 -0.2191,-1.04128 -0.14425,-0.27066 -0.43934,-0.41912 -0.58962,-0.47284 -0.10814,-0.0386 -0.17923,-0.0487 -0.2372,-0.0481 z m -5.41517,1.48363 c -0.33954,0 -0.5823,0.0883 -0.83198,0.33796 -0.24974,0.24973 -0.33798,0.49248 -0.33798,0.83199 0,0.33952 0.0883,0.58226 0.33798,0.832 0.24971,0.24974 0.49246,0.33589 0.83198,0.33589 0.33954,0 0.58018,-0.0862 0.82992,-0.33589 0.24976,-0.24974 0.33797,-0.4925 0.33795,-0.832 0,-0.33953 -0.0883,-0.58227 -0.33795,-0.83199 -0.24974,-0.24976 -0.49041,-0.33796 -0.82992,-0.33796 z m 16.983972,2.09651 c -0.06715,-0.001 -0.135149,0.001 -0.204629,0.007 -0.113294,0.01 -0.277945,0.0383 -0.431509,0.12867 -0.153564,0.0904 -0.268605,0.21692 -0.373115,0.36329 -0.208968,0.29273 -0.424736,0.71433 -0.826294,1.50016 -0.233971,0.45783 -0.467069,0.88524 -0.648547,1.19735 -0.0907,0.15606 -0.169889,0.28448 -0.22479,0.3669 l -0.0037,0.006 c -0.0069,0.002 -0.01005,0.002 -0.01746,0.004 -0.09649,0.0201 -0.236696,0.0459 -0.402537,0.0739 -0.331708,0.056 -0.771816,0.12076 -1.234572,0.1819 -0.633439,0.0837 -1.083443,0.15541 -1.417982,0.23254 -0.334539,0.0771 -0.565811,0.13071 -0.78859,0.35347 -0.1406,0.14061 -0.288661,0.31389 -0.345731,0.56637 -0.0571,0.25248 0.0127,0.51902 0.130757,0.73432 0.236405,0.43061 0.657145,0.84016 1.394221,1.54874 l 1.201473,1.15446 -0.271806,1.57975 c -0.233177,1.36274 -0.333296,1.87774 -0.181398,2.32233 v 0.0212 l 0.04498,0.0997 c 0,0 0,5.3e-4 0,5.3e-4 0.08408,0.18451 0.238469,0.39368 0.476461,0.49971 0.237967,0.10603 0.486093,0.0942 0.724483,0.0413 0.476805,-0.10586 1.035023,-0.37986 1.937861,-0.85163 l 1.398375,-0.73071 1.384406,0.73071 c 0.454078,0.23965 0.902732,0.45627 1.266084,0.61701 0.18169,0.0804 0.33999,0.1479 0.476462,0.19741 0.136446,0.0495 0.190712,0.0956 0.419603,0.0956 0.379756,0 0.709348,-0.19235 0.912098,-0.50178 0.121285,-0.18514 0.203385,-0.49583 0.181901,-0.84181 -0.02143,-0.34599 -0.09797,-0.82065 -0.240295,-1.66605 l -0.273367,-1.61954 1.120854,-1.11311 c 0.779833,-0.77371 1.182238,-1.16027 1.422136,-1.51928 0.119935,-0.17951 0.213704,-0.39912 0.195341,-0.63304 -0.01852,-0.23393 -0.123428,-0.38885 -0.197405,-0.50178 -0.114432,-0.17462 -0.386292,-0.44691 -0.753957,-0.5488 -0.367691,-0.10188 -0.893815,-0.17254 -1.959054,-0.3266 -0.444368,-0.0643 -0.851906,-0.12666 -1.148265,-0.1757 -0.108162,-0.0179 -0.180288,-0.0317 -0.253736,-0.045 -0.0422,-0.0816 -0.08858,-0.17323 -0.152426,-0.29869 -0.15457,-0.30385 -0.364781,-0.71835 -0.590153,-1.16996 -0.228521,-0.45798 -0.450506,-0.88519 -0.628915,-1.20871 -0.08919,-0.16175 -0.166899,-0.29651 -0.232013,-0.40256 -0.0326,-0.053 -0.06128,-0.0994 -0.092,-0.14263 -0.03069,-0.0433 -0.0082,-0.0654 -0.172085,-0.1757 -0.194945,-0.13156 -0.295222,-0.12292 -0.42373,-0.13849 -0.06424,-0.008 -0.130254,-0.0124 -0.197406,-0.0134 z m -0.07183,3.84886 0.101282,0.20309 c 0.34798,0.69662 0.536231,1.08828 0.818568,1.39061 0.28231,0.30232 0.665559,0.4058 1.030949,0.45734 0.263895,0.0372 0.754195,0.11587 1.15443,0.18138 l -0.3302,0.33022 -1.191154,1.19941 0.255799,1.60507 c 0.029,0.18197 0.04493,0.31094 0.06821,0.47077 -0.10504,-0.0551 -0.181743,-0.0919 -0.296598,-0.154 -0.311441,-0.16841 -0.619337,-0.32146 -0.871273,-0.43563 -0.125968,-0.0571 -0.237252,-0.10384 -0.335889,-0.14056 -0.09872,-0.0367 -0.126233,-0.0783 -0.340042,-0.0801 -0.205396,-0.002 -0.235585,0.0369 -0.333825,0.0703 -0.09821,0.0334 -0.210397,0.0762 -0.335915,0.12868 -0.25101,0.10494 -0.554884,0.24472 -0.865055,0.40049 -0.161237,0.081 -0.286544,0.13835 -0.429948,0.20722 0.05062,-0.34672 0.109484,-0.73083 0.232542,-1.418 0.03971,-0.22178 0.01482,-0.58333 -0.160179,-0.85369 -0.175101,-0.27036 -0.429974,-0.52606 -0.894529,-1.00201 -0.152797,-0.15654 -0.222515,-0.23106 -0.330227,-0.34158 0.122026,-0.0151 0.183701,-0.0248 0.34417,-0.045 0.733743,-0.0923 1.184566,-0.12403 1.597316,-0.42168 0.412777,-0.29765 0.592376,-0.71594 0.935858,-1.40043 z m -14.608922,4.24264 c 0.18333,-10e-4 0.36756,0.0276 0.54414,0.0837 0.47088,0.14977 0.88858,0.49475 1.0976,0.99219 0.35076,0.83466 -0.24111,2.01816 -1.1875,2.281 -0.11263,0.0313 -0.23072,0.0587 -0.31988,0.0765 -0.0892,0.0177 -0.22871,0.005 -0.0703,0.0212 h -0.003 -0.003 c -0.91593,-0.0896 -1.47018,-0.6533 -1.65621,-1.30844 -0.18605,-0.65515 -0.0124,-1.37886 0.72448,-1.88051 0.263,-0.17901 0.56624,-0.26383 0.8718,-0.26562 z m -10.478416,2.99361 c 0.3689,0.006 0.73445,0.13798 1.03817,0.40463 0.977656,0.85842 0.755196,2.36979 -0.40206,2.86494 -0.71671,0.30667 -1.50392,0.10005 -2.058784,-0.58549 -0.31403,-0.38798 -0.39677,-1.30191 -0.17002,-1.71308 0.28395,-0.51491 0.738954,-0.83423 1.224734,-0.93586 0.12144,-0.0254 0.24498,-0.0372 0.36796,-0.0351 z"
       style="fill:#000000;stroke:none;stroke-width:0.99811208;stroke-miterlimit:4;stroke-dasharray:none;stroke-opacity:1"
       inkscape:connector-curvature="0" />
    <path
       inkscape:tile-y0="36.926831"
       inkscape:tile-x0="16.292685"
       id="use9240"
       d="m -107.31167,244.89353 4.26331,-1.2206 c 1.10149,-0.3154 2.13095,-0.62541 2.90626,-0.87126 0.38767,-0.12292 0.711811,-0.22882 0.953455,-0.31419 0.120782,-0.0427 0.220054,-0.0796 0.302286,-0.11318 0.08231,-0.0335 0.106786,-0.0166 0.256329,-0.13694 0.0771,-0.062 0.244078,-0.24571 0.30644,-0.44132 0.06239,-0.19561 0.08075,-0.39845 0.09766,-0.7307 0.03371,-0.66451 0.03307,-1.85085 0.03307,-4.18527 0,-1.30944 0.0034,-2.49973 0.01032,-3.36156 0.0026,-0.27737 0.0048,-0.45432 0.0077,-0.65629 0.900774,0.40351 2.136854,0.47825 3.081973,0.16433 1.363106,-0.45275 2.401093,-1.68503 2.695442,-3.15071 0.394547,-1.96463 -0.85762,-4.00872 -2.806541,-4.64416 0,0 0,0 0,0 0,-2.2e-4 -0.0026,-2.6e-4 -0.0026,-5.3e-4 l -0.0744,-0.0248 h -0.01958 c -0.931571,-0.27144 -2.084096,-0.15016 -2.993098,0.29456 -0.856324,0.41896 -1.519529,1.11446 -1.933736,2.00969 -0.13285,0.28701 -0.23154,0.60929 -0.27183,1.26763 -0.0403,0.65833 -0.051,1.72184 -0.0682,3.72483 l -0.0331,3.86333 -0.46302,0.13488 c -0.44146,0.12985 -2.07383,0.59847 -3.61527,1.03715 -1.03703,0.2951 -1.75739,0.51351 -2.25361,0.68729 -0.24813,0.0869 -0.44075,0.16251 -0.59791,0.23823 -0.15716,0.0757 -0.28141,0.13434 -0.41391,0.29507 -0.1587,0.19251 -0.25593,0.4839 -0.2894,0.87282 -0.0335,0.38893 -0.0388,0.95406 -0.0388,1.92391 0,1.09925 -0.003,1.64597 0.0429,2.02934 0.0457,0.38336 0.25934,0.69076 0.41187,0.83405 z m 31.585666,-0.10904 c 0.430496,-0.013 0.692626,-0.30369 0.921906,-0.6196 0.22927,-0.31591 0.45546,-0.73176 0.73639,-1.27692 0.19741,-0.38307 0.33073,-0.65781 0.43149,-0.82838 0.10075,-0.17057 0.15004,-0.22045 0.21291,-0.25993 0.12578,-0.079 0.55345,-0.14759 1.60353,-0.29249 0.5778,-0.0797 1.00301,-0.17212 1.34977,-0.35398 0.34679,-0.18186 0.62116,-0.56654 0.62116,-0.94878 0,-0.2109 -0.0516,-0.24389 -0.0822,-0.30076 -0.0307,-0.0569 -0.0633,-0.10475 -0.0997,-0.15658 -0.0728,-0.10366 -0.16465,-0.21952 -0.27543,-0.3514 -0.22159,-0.26377 -0.51668,-0.58733 -0.84336,-0.91984 l -0.97877,-0.99425 0.1974,-1.08004 c 0.14754,-0.8118 0.22675,-1.26359 0.23617,-1.61902 0,-0.0103 -0.01,-0.0155 -0.01,-0.0258 h 0.54105 l -0.85162,-0.85317 c -0.10763,-0.10762 -0.26175,-0.22675 -0.45889,-0.28112 -0.19714,-0.0544 -0.39992,-0.0376 -0.59375,0.01 -0.0716,0.0174 -0.21291,0.0995 -0.2894,0.12506 h -0.21654 l 0.0646,0.0646 c -0.31231,0.11734 -0.5901,0.2208 -1.12344,0.48628 l -1.152396,0.57206 -1.07021,-0.57413 c -0.53681,-0.28795 -0.96224,-0.49984 -1.33583,-0.62322 -0.37362,-0.12337 -0.7733,-0.19236 -1.12294,0.061 -0.34965,0.2533 -0.40984,0.65317 -0.41392,1.04852 -0.004,0.39535 0.0582,0.86915 0.15605,1.47484 l 0.2031,1.26142 -0.93379,0.89246 c -0.4322,0.41384 -0.72121,0.70812 -0.92345,0.95911 -0.20228,0.25099 -0.35105,0.48798 -0.34986,0.79478 0,0.18206 0.0326,0.39289 0.15039,0.58602 0.11774,0.19313 0.30231,0.33271 0.50022,0.42581 0.39581,0.1862 0.89387,0.27028 1.70688,0.38861 l 1.24589,0.17983 0.60153,1.20148 c 0.26538,0.52938 0.48096,0.93356 0.70538,1.24178 0.22442,0.30821 0.50898,0.59906 0.93949,0.58601 z m -30.068436,-2.82256 c -0.008,-0.1712 -0.0177,-0.27337 -0.0175,-0.66043 l 0.003,-0.94723 2.59207,-0.73432 c 0.81348,-0.23076 1.57035,-0.44847 2.13476,-0.61133 0.19376,-0.0559 0.32761,-0.0946 0.47077,-0.13643 0.008,0.17667 0.019,0.31054 0.019,0.64027 v 0.95343 l -2.5332,0.73019 c -1.36802,0.39356 -2.28922,0.65758 -2.66803,0.76585 z m 30.054496,-1.11983 c -0.22426,-0.46016 -0.42953,-0.8258 -0.76327,-1.07384 -0.3538,-0.26294 -0.76968,-0.3489 -1.28519,-0.40411 -0.004,-5.3e-4 -0.006,-0.002 -0.01,-0.002 0.0259,-0.0264 0.039,-0.0435 0.0662,-0.0703 0.37428,-0.36964 0.6505,-0.66133 0.7617,-1.08572 0.0988,-0.37696 0.0228,-0.77218 -0.0703,-1.27382 0.0616,0.0293 0.10311,0.0466 0.16796,0.0786 l 1.12914,0.5581 0.984426,-0.49609 0.10541,-0.0522 c 0.0723,-0.0364 0.12407,-0.0603 0.19328,-0.0941 -0.0399,0.20978 -0.0774,0.41961 -0.10543,0.59377 -0.0307,0.19115 -0.0518,0.29765 -0.0548,0.45113 -0.006,0.28024 0.0733,0.31597 0.12713,0.40411 0.0538,0.0881 0.11697,0.17492 0.19119,0.26768 0.14843,0.18554 0.34041,0.39445 0.55448,0.60152 0.0421,0.0408 0.0644,0.0678 0.10388,0.10749 -0.005,5.2e-4 -0.008,0.001 -0.014,0.002 -0.24861,0.0257 -0.4993,0.0676 -0.71676,0.11731 -0.21746,0.0497 -0.36608,0.0696 -0.57825,0.20515 -0.25463,0.16265 -0.30964,0.30376 -0.43513,0.50178 -0.122816,0.19384 -0.244626,0.42546 -0.351896,0.66353 z m -11.77708,-2.39262 c 0.33647,0.0242 0.69119,-0.12168 0.94361,-0.37414 0.34573,-0.34578 0.38332,-0.75351 0.39637,-1.1622 0.013,-0.40869 0.0167,-0.81751 -0.34573,-1.17978 -0.0474,-0.0474 -0.10483,-0.0255 -0.15449,-0.0605 -0.22482,-0.15831 -0.46083,-0.26244 -0.69919,-0.27182 -0.29107,-0.0114 -0.61841,-5.2e-4 -0.88678,0.33435 -0.34097,0.42623 -0.42312,0.9866 -0.31988,1.53686 0.0908,0.48381 0.32541,0.90111 0.74001,1.09399 0.10367,0.0482 0.21392,0.0751 0.32608,0.0832 z m 2.69906,-2.90577 c 0.40871,-0.003 0.79865,0.002 1.17203,-0.33589 0.48659,-0.44048 0.51564,-1.20314 0.0491,-1.66967 -0.21603,-0.21604 -0.39378,-0.23114 -0.59013,-0.27182 -0.19635,-0.0407 -0.40769,-0.0605 -0.62116,-0.0661 -0.21344,-0.006 -0.42439,0.002 -0.62114,0.0331 -0.19674,0.0308 -0.37674,0.0295 -0.60721,0.25993 -0.2725,0.27253 -0.29824,0.58133 -0.28525,0.8692 0.013,0.28788 0.0759,0.58536 0.33022,0.83974 0.18855,0.18853 0.37873,0.23773 0.57206,0.28112 0.19333,0.0434 0.39717,0.0618 0.6015,0.0605 z m -5.13455,-0.004 c 0.55784,0 1.04931,-0.16568 1.34977,-0.55087 0.15023,-0.19259 0.23714,-0.45153 0.21497,-0.709 -0.0222,-0.25747 -0.1451,-0.49752 -0.32245,-0.6935 -0.14041,-0.15509 -0.35009,-0.27025 -0.5607,-0.32246 -0.21058,-0.0522 -0.43042,-0.0641 -0.709,-0.0641 -0.42096,0 -0.75938,0.0166 -1.07434,0.2341 -0.31496,0.21751 -0.4253,0.61892 -0.4253,0.95704 0,0.34467 0.18349,0.72239 0.48419,0.91209 0.30073,0.1897 0.64342,0.23616 1.04286,0.23616 z m 2.57243,-2.20917 c 0.29105,-0.003 0.58262,-0.11262 0.80823,-0.31677 0.20235,-0.18312 0.265,-0.37981 0.31678,-0.57775 0.0518,-0.19794 0.0741,-0.40576 0.078,-0.61546 0.004,-0.20971 -0.0106,-0.41904 -0.0548,-0.61909 -0.0379,-0.17196 -0.0901,-0.34258 -0.22376,-0.50849 l -0.0222,-0.0382 -0.045,-0.0429 c -0.26194,-0.26185 -0.56267,-0.32085 -0.85368,-0.33227 -0.29104,-0.0114 -0.61841,-0.001 -0.88678,0.33382 -0.28628,0.35785 -0.36227,0.79466 -0.35139,1.21698 0.0109,0.42235 0.10364,0.85194 0.43357,1.18185 0.21963,0.21962 0.50993,0.32165 0.80097,0.31832 z m -9.105393,-2.47737 c -0.208412,-0.005 -0.420766,-0.0507 -0.627327,-0.14211 -0.654685,-0.28958 -0.942578,-0.70114 -0.995812,-1.43712 -0.05411,-0.74819 0.181637,-1.20919 0.77515,-1.55701 1.173929,-0.68798 2.597943,0.11503 2.590006,1.44539 -0.0056,0.98716 -0.838835,1.71426 -1.742017,1.69085 z m 8.957603,-3.94911 c 0.058,-5.3e-4 0.10274,-0.0121 0.15917,-0.017 0.11285,-0.01 0.23514,-0.0279 0.37156,-0.0527 0.27278,-0.0496 0.59668,-0.12482 0.92344,-0.21084 0.32677,-0.086 0.65472,-0.1815 0.92811,-0.27543 0.27339,-0.0939 0.44228,-0.12178 0.68162,-0.3204 0.31192,-0.25889 0.38433,-0.63626 0.3457,-0.96273 -0.0386,-0.32647 -0.19097,-0.65982 -0.51366,-0.87127 -0.1896,-0.12424 -0.4989,-0.22617 -0.79891,-0.19895 -0.18756,0.017 -0.47977,0.10697 -0.73639,0.1757 -0.008,-0.16948 -0.0175,-0.2812 -0.0175,-0.68006 v -0.94723 l 3.38635,-0.95498 c 2.06208,-0.58215 4.11517,-1.16415 4.57441,-1.29656 l 0.1855,-0.0527 v 0.65991 0.94361 l -0.33383,0.0894 c -0.5485,0.15017 -0.90418,0.25836 -1.203,0.45527 -0.29885,0.19691 -0.48059,0.56543 -0.51007,0.86713 -0.0185,0.18993 -0.0185,0.40037 0.078,0.60771 0.0967,0.20734 0.26241,0.34366 0.42013,0.447 0.16661,0.10915 0.46762,0.23333 0.75964,0.20723 0.29203,-0.0261 0.60116,-0.11788 1.18753,-0.28164 0.34648,-0.0968 0.68215,-0.20127 0.95343,-0.29456 0.13565,-0.0466 0.25506,-0.0901 0.35502,-0.13074 0.10001,-0.0407 0.15817,-0.0533 0.28318,-0.14469 0.15698,-0.1147 0.26191,-0.32895 0.30284,-0.5178 0.0409,-0.18886 0.0611,-0.41224 0.078,-0.76378 0.0339,-0.70309 0.0469,-1.90992 0.0625,-4.08398 l 0.0294,-4.04472 c 2.677786,1.22553 5.772916,-0.76498 5.777436,-3.71657 0.003,-1.84219 -1.18726,-3.38361 -3.01945,-3.96306 l -0.0217,-0.008 -0.0212,-0.004 c -0.71163,-0.2169 -1.33604,-0.20561 -2.13477,0.0315 -1.276186,0.379 -2.245826,1.24603 -2.785346,2.48409 -0.0888,0.20369 -0.088,0.32466 -0.11112,0.55087 -0.023,0.22621 -0.0434,0.52066 -0.061,0.9002 -0.0353,0.75908 -0.0613,1.85432 -0.0837,3.34605 l -0.0584,3.88865 -3.84008,1.08779 c -1.1539,0.32726 -2.24235,0.63433 -3.06441,0.86351 -0.41103,0.11459 -0.75493,0.20999 -1.00769,0.27906 -0.10173,0.0278 -0.10491,0.0277 -0.17777,0.047 v -1.44952 c 0,-0.52213 0.006,-0.97558 0.0135,-1.3379 0.0101,0.005 0.0172,0.007 0.0274,0.0119 1.58908,0.73977 3.48707,0.34075 4.6855,-0.97049 1.0514,-1.15043 1.36351,-2.55052 0.91207,-4.07055 -0.16869,-0.56808 -0.54083,-1.09882 -0.99425,-1.55288 -0.45341,-0.45407 -0.98962,-0.82877 -1.56218,-1.0113 -2.03739,-0.64955 -4.09879,0.20112 -5.02965,2.09134 l -0.45114,0.91622 -0.0331,6.57841 c -0.0172,3.4148 -0.0267,5.14102 0.0429,6.09524 0.0348,0.47711 0.0748,0.77061 0.2191,1.04128 0.14425,0.27066 0.43934,0.41912 0.58962,0.47284 0.10814,0.0386 0.17923,0.0487 0.2372,0.0481 z m 5.41517,-1.48363 c 0.33954,0 0.5823,-0.0883 0.83198,-0.33796 0.24974,-0.24973 0.33798,-0.49248 0.33798,-0.83199 0,-0.33952 -0.0883,-0.58226 -0.33798,-0.832 -0.24971,-0.24974 -0.49246,-0.33589 -0.83198,-0.33589 -0.33954,0 -0.58018,0.0862 -0.82992,0.33589 -0.24976,0.24974 -0.33797,0.4925 -0.33795,0.832 0,0.33953 0.0883,0.58227 0.33795,0.83199 0.24974,0.24976 0.49041,0.33796 0.82992,0.33796 z m -16.983972,-2.09651 c 0.06715,0.001 0.135149,-10e-4 0.204629,-0.007 0.113294,-0.01 0.277945,-0.0383 0.431509,-0.12867 0.153564,-0.0904 0.268605,-0.21692 0.373115,-0.36329 0.208968,-0.29273 0.424736,-0.71433 0.826294,-1.50016 0.233971,-0.45783 0.467069,-0.88524 0.648547,-1.19735 0.0907,-0.15606 0.169889,-0.28448 0.22479,-0.3669 l 0.0037,-0.006 c 0.0069,-0.002 0.01005,-0.002 0.01746,-0.004 0.09649,-0.0201 0.236696,-0.0459 0.402537,-0.0739 0.331708,-0.056 0.771816,-0.12076 1.234572,-0.1819 0.633439,-0.0837 1.083443,-0.15541 1.417982,-0.23254 0.334539,-0.0771 0.565811,-0.13071 0.78859,-0.35347 0.1406,-0.14061 0.288661,-0.31389 0.345731,-0.56637 0.0571,-0.25248 -0.0127,-0.51902 -0.130757,-0.73432 -0.236405,-0.43061 -0.657145,-0.84016 -1.394221,-1.54874 l -1.201473,-1.15446 0.271806,-1.57975 c 0.233177,-1.36274 0.333296,-1.87774 0.181398,-2.32233 v -0.0212 l -0.04498,-0.0997 c 0,0 0,-5.3e-4 0,-5.3e-4 -0.08408,-0.18451 -0.238469,-0.39368 -0.476461,-0.49971 -0.237967,-0.10603 -0.486093,-0.0942 -0.724483,-0.0413 -0.476805,0.10586 -1.035023,0.37986 -1.937861,0.85163 l -1.398375,0.73071 -1.384403,-0.73071 c -0.45408,-0.23965 -0.90274,-0.45627 -1.26609,-0.61701 -0.18169,-0.0804 -0.33999,-0.1479 -0.47646,-0.19741 -0.13645,-0.0495 -0.19071,-0.0956 -0.4196,-0.0956 -0.37976,0 -0.70935,0.19235 -0.9121,0.50178 -0.12129,0.18514 -0.20339,0.49583 -0.1819,0.84181 0.0214,0.34599 0.098,0.82065 0.24029,1.66605 l 0.27337,1.61954 -1.12085,1.11311 c -0.77984,0.77371 -1.18224,1.16027 -1.42214,1.51928 -0.11993,0.17951 -0.2137,0.39912 -0.19534,0.63304 0.0185,0.23393 0.12343,0.38885 0.1974,0.50178 0.11444,0.17462 0.3863,0.44691 0.75396,0.5488 0.36769,0.10188 0.89382,0.17254 1.95906,0.3266 0.44436,0.0643 0.8519,0.12666 1.14826,0.1757 0.10816,0.0179 0.18029,0.0317 0.25374,0.045 0.0422,0.0816 0.0886,0.17323 0.15242,0.29869 0.15457,0.30385 0.36478,0.71835 0.59016,1.16996 0.22852,0.45798 0.4505,0.88519 0.62891,1.20871 0.0892,0.16175 0.1669,0.29651 0.232014,0.40256 0.0326,0.053 0.06128,0.0994 0.092,0.14263 0.03069,0.0433 0.0082,0.0654 0.172085,0.1757 0.194945,0.13156 0.295222,0.12292 0.42373,0.13849 0.06424,0.008 0.130254,0.0124 0.197406,0.0134 z m 0.07183,-3.84886 -0.101282,-0.20309 c -0.34798,-0.69662 -0.536231,-1.08828 -0.818568,-1.39061 -0.282314,-0.30232 -0.665554,-0.4058 -1.030944,-0.45734 -0.2639,-0.0372 -0.7542,-0.11587 -1.15443,-0.18138 l 0.3302,-0.33022 1.19115,-1.19941 -0.2558,-1.60507 c -0.029,-0.18197 -0.0449,-0.31094 -0.0682,-0.47077 0.10504,0.0551 0.18174,0.0919 0.2966,0.154 0.31144,0.16841 0.61934,0.32146 0.871271,0.43563 0.125968,0.0571 0.237252,0.10384 0.335889,0.14056 0.09872,0.0367 0.126233,0.0783 0.340042,0.0801 0.205396,0.002 0.235585,-0.0369 0.333825,-0.0703 0.09821,-0.0334 0.210397,-0.0762 0.335915,-0.12868 0.25101,-0.10494 0.554884,-0.24472 0.865055,-0.40049 0.161237,-0.081 0.286544,-0.13835 0.429948,-0.20722 -0.05062,0.34672 -0.109484,0.73083 -0.232542,1.418 -0.03971,0.22178 -0.01482,0.58333 0.160179,0.85369 0.175101,0.27036 0.429974,0.52606 0.894529,1.00201 0.152797,0.15654 0.222515,0.23106 0.330227,0.34158 -0.122026,0.0151 -0.183701,0.0248 -0.34417,0.045 -0.733743,0.0923 -1.184566,0.12403 -1.597316,0.42168 -0.412777,0.29765 -0.592376,0.71594 -0.935858,1.40043 z m 14.608922,-4.24264 c -0.18333,0.001 -0.36756,-0.0276 -0.54414,-0.0837 -0.47088,-0.14977 -0.88858,-0.49475 -1.0976,-0.99219 -0.35076,-0.83466 0.24111,-2.01816 1.1875,-2.281 0.11263,-0.0313 0.23072,-0.0587 0.31988,-0.0765 0.0892,-0.0177 0.22871,-0.005 0.0703,-0.0212 h 0.003 0.003 c 0.91593,0.0896 1.47018,0.6533 1.65621,1.30844 0.18605,0.65515 0.0124,1.37886 -0.72448,1.88051 -0.263,0.17901 -0.56624,0.26383 -0.8718,0.26562 z m 10.478416,-2.99361 c -0.3689,-0.006 -0.73445,-0.13798 -1.03817,-0.40463 -0.977656,-0.85842 -0.755196,-2.36979 0.40206,-2.86494 0.71671,-0.30667 1.50392,-0.10005 2.05878,0.58549 0.31403,0.38798 0.39677,1.30191 0.17002,1.71308 -0.28395,0.51491 -0.73895,0.83423 -1.22473,0.93586 -0.12144,0.0254 -0.24498,0.0372 -0.36796,0.0351 z"
       style="fill:#000000;stroke:none;stroke-width:0.99811208;stroke-miterlimit:4;stroke-dasharray:none;stroke-opacity:1"
       inkscape:connector-curvature="0" />
    <path
       inkscape:tile-y0="36.926831"
       inkscape:tile-x0="16.292685"
       id="use9242"
       d="m -1.424727,181.29829 -4.263311,-1.2206 c -1.101487,-0.3154 -2.130954,-0.62541 -2.906262,-0.87126 -0.387668,-0.12292 -0.711809,-0.22882 -0.953453,-0.31419 -0.120782,-0.0427 -0.220054,-0.0796 -0.302286,-0.11318 -0.08231,-0.0335 -0.106786,-0.0166 -0.256329,-0.13694 -0.0771,-0.062 -0.244078,-0.24571 -0.30644,-0.44132 -0.06239,-0.19561 -0.08075,-0.39845 -0.09766,-0.7307 -0.03371,-0.66451 -0.03307,-1.85085 -0.03307,-4.18527 0,-1.30944 -0.0034,-2.49973 -0.01032,-3.36156 -0.0026,-0.27737 -0.0048,-0.45432 -0.0077,-0.65629 -0.900774,0.40351 -2.136854,0.47825 -3.081973,0.16433 -1.363106,-0.45275 -2.401093,-1.68503 -2.695442,-3.15071 -0.394547,-1.96463 0.85762,-4.00872 2.806541,-4.64416 0,0 0,0 0,0 0,-2.2e-4 0.0026,-2.6e-4 0.0026,-5.3e-4 l 0.0744,-0.0248 h 0.01958 c 0.931571,-0.27144 2.084096,-0.15016 2.993098,0.29456 0.856324,0.41896 1.519529,1.11446 1.933734,2.00969 0.132847,0.28701 0.231537,0.60929 0.271833,1.26763 0.0403,0.65833 0.05101,1.72184 0.06821,3.72483 l 0.03307,3.86333 0.46302,0.13488 c 0.441458,0.12985 2.073831,0.59847 3.615267,1.03715 1.037034,0.2951 1.757389,0.51351 2.253615,0.68729 0.248126,0.0869 0.440743,0.16251 0.597906,0.23823 0.157162,0.0757 0.28141,0.13434 0.413914,0.29507 0.158697,0.19251 0.255931,0.4839 0.289401,0.87282 0.0335,0.38893 0.03876,0.95406 0.03876,1.92391 0,1.09925 0.0032,1.64597 -0.04289,2.02934 -0.04572,0.38336 -0.259344,0.69076 -0.411876,0.83405 z m -31.585667,-0.10904 c -0.430496,-0.013 -0.692626,-0.30369 -0.921906,-0.6196 -0.22927,-0.31591 -0.45546,-0.73176 -0.73639,-1.27692 -0.19741,-0.38307 -0.33073,-0.65781 -0.43149,-0.82838 -0.10075,-0.17057 -0.15004,-0.22045 -0.21291,-0.25993 -0.12578,-0.079 -0.55345,-0.14759 -1.60353,-0.29249 -0.5778,-0.0797 -1.00301,-0.17212 -1.34977,-0.35398 -0.34679,-0.18186 -0.62116,-0.56654 -0.62116,-0.94878 0,-0.2109 0.0516,-0.24389 0.0822,-0.30076 0.0307,-0.0569 0.0633,-0.10475 0.0997,-0.15658 0.0728,-0.10366 0.16465,-0.21952 0.27543,-0.3514 0.22159,-0.26377 0.51668,-0.58733 0.84336,-0.91984 l 0.97877,-0.99425 -0.1974,-1.08004 c -0.14754,-0.8118 -0.22675,-1.26359 -0.23617,-1.61902 0,-0.0103 0.01,-0.0155 0.01,-0.0258 h -0.54105 l 0.85162,-0.85317 c 0.10763,-0.10762 0.26175,-0.22675 0.45889,-0.28112 0.19714,-0.0544 0.39992,-0.0376 0.59375,0.01 0.0716,0.0174 0.21291,0.0995 0.2894,0.12506 h 0.21654 l -0.0646,0.0646 c 0.31231,0.11734 0.5901,0.2208 1.12344,0.48628 l 1.152396,0.57206 1.07021,-0.57413 c 0.53681,-0.28795 0.96224,-0.49984 1.33583,-0.62322 0.37362,-0.12337 0.7733,-0.19236 1.12294,0.061 0.34965,0.2533 0.40984,0.65317 0.41392,1.04852 0.004,0.39535 -0.0582,0.86915 -0.15605,1.47484 l -0.2031,1.26142 0.93379,0.89246 c 0.4322,0.41384 0.72121,0.70812 0.92345,0.95911 0.20228,0.25099 0.35105,0.48798 0.34986,0.79478 0,0.18206 -0.0326,0.39289 -0.15039,0.58602 -0.11774,0.19313 -0.30231,0.33271 -0.50022,0.42581 -0.39581,0.1862 -0.89387,0.27028 -1.70688,0.38861 l -1.24589,0.17983 -0.60153,1.20148 c -0.26538,0.52938 -0.48096,0.93356 -0.70538,1.24178 -0.22442,0.30821 -0.50898,0.59906 -0.93949,0.58601 z m 30.06844,-2.82256 c 0.0079,-0.1712 0.01773,-0.27337 0.01746,-0.66043 l -0.0026,-0.94723 -2.59207,-0.73432 c -0.813488,-0.23076 -1.570355,-0.44847 -2.134764,-0.61133 -0.193755,-0.0559 -0.327607,-0.0946 -0.470773,-0.13643 -0.0079,0.17667 -0.01905,0.31054 -0.01905,0.64027 v 0.95343 l 2.5332,0.73019 c 1.368028,0.39356 2.289228,0.65758 2.668032,0.76585 z m -30.0545,-1.11983 c 0.22426,-0.46016 0.42953,-0.8258 0.76327,-1.07384 0.3538,-0.26294 0.76968,-0.3489 1.28519,-0.40411 0.004,-5.3e-4 0.006,-0.002 0.01,-0.002 -0.0259,-0.0264 -0.039,-0.0435 -0.0662,-0.0703 -0.37428,-0.36964 -0.6505,-0.66133 -0.7617,-1.08572 -0.0988,-0.37696 -0.0228,-0.77218 0.0703,-1.27382 -0.0616,0.0293 -0.10311,0.0466 -0.16796,0.0786 l -1.12914,0.5581 -0.984426,-0.49609 -0.10541,-0.0522 c -0.0723,-0.0364 -0.12407,-0.0603 -0.19328,-0.0941 0.0399,0.20978 0.0774,0.41961 0.10543,0.59377 0.0307,0.19115 0.0518,0.29765 0.0548,0.45113 0.006,0.28024 -0.0733,0.31597 -0.12713,0.40411 -0.0538,0.0881 -0.11697,0.17492 -0.19119,0.26768 -0.14843,0.18554 -0.34041,0.39445 -0.55448,0.60152 -0.0421,0.0408 -0.0644,0.0678 -0.10388,0.10749 0.005,5.2e-4 0.008,0.001 0.014,0.002 0.24861,0.0257 0.4993,0.0676 0.71676,0.11731 0.21746,0.0497 0.36608,0.0696 0.57825,0.20515 0.25463,0.16265 0.30964,0.30376 0.43513,0.50178 0.122816,0.19384 0.244626,0.42546 0.351896,0.66353 z m 11.77708,-2.39262 c -0.33647,0.0242 -0.69119,-0.12168 -0.94361,-0.37414 -0.34573,-0.34578 -0.38332,-0.75351 -0.39637,-1.1622 -0.013,-0.40869 -0.0167,-0.81751 0.34573,-1.17978 0.0474,-0.0474 0.10483,-0.0255 0.15449,-0.0605 0.22482,-0.15831 0.46083,-0.26244 0.69919,-0.27182 0.29107,-0.0114 0.61841,-5.2e-4 0.88678,0.33435 0.34097,0.42623 0.42312,0.9866 0.31988,1.53686 -0.0908,0.48381 -0.32541,0.90111 -0.74001,1.09399 -0.10367,0.0482 -0.21392,0.0751 -0.32608,0.0832 z m -2.69906,-2.90577 c -0.40871,-0.003 -0.79865,0.002 -1.17203,-0.33589 -0.48659,-0.44048 -0.51564,-1.20314 -0.0491,-1.66967 0.21603,-0.21604 0.39378,-0.23114 0.59013,-0.27182 0.19635,-0.0407 0.40769,-0.0605 0.62116,-0.0661 0.21344,-0.006 0.42439,0.002 0.62114,0.0331 0.19674,0.0308 0.37674,0.0295 0.60721,0.25993 0.2725,0.27253 0.29824,0.58133 0.28525,0.8692 -0.013,0.28788 -0.0759,0.58536 -0.33022,0.83974 -0.18855,0.18853 -0.37873,0.23773 -0.57206,0.28112 -0.19333,0.0434 -0.39717,0.0618 -0.6015,0.0605 z m 5.13455,-0.004 c -0.55784,0 -1.04931,-0.16568 -1.34977,-0.55087 -0.15023,-0.19259 -0.23714,-0.45153 -0.21497,-0.709 0.0222,-0.25747 0.1451,-0.49752 0.32245,-0.6935 0.14041,-0.15509 0.35009,-0.27025 0.5607,-0.32246 0.21058,-0.0522 0.43042,-0.0641 0.709,-0.0641 0.42096,0 0.75938,0.0166 1.07434,0.2341 0.31496,0.21751 0.4253,0.61892 0.4253,0.95704 0,0.34467 -0.18349,0.72239 -0.48419,0.91209 -0.30073,0.1897 -0.64342,0.23616 -1.04286,0.23616 z m -2.57243,-2.20917 c -0.29105,-0.003 -0.58262,-0.11262 -0.80823,-0.31677 -0.20235,-0.18312 -0.265,-0.37981 -0.31678,-0.57775 -0.0518,-0.19794 -0.0741,-0.40576 -0.078,-0.61546 -0.004,-0.20971 0.0106,-0.41904 0.0548,-0.61909 0.0379,-0.17196 0.0901,-0.34258 0.22376,-0.50849 l 0.0222,-0.0382 0.045,-0.0429 c 0.26194,-0.26185 0.56267,-0.32085 0.85368,-0.33227 0.29104,-0.0114 0.61841,-0.001 0.88678,0.33382 0.28628,0.35785 0.36227,0.79466 0.35139,1.21698 -0.0109,0.42235 -0.10364,0.85194 -0.43357,1.18185 -0.21963,0.21962 -0.50993,0.32165 -0.80097,0.31832 z m 9.105393,-2.47737 c 0.208412,-0.005 0.420766,-0.0507 0.627327,-0.14211 0.654685,-0.28958 0.942578,-0.70114 0.995812,-1.43712 0.05411,-0.74819 -0.181637,-1.20919 -0.77515,-1.55701 -1.173929,-0.68798 -2.597943,0.11503 -2.590006,1.44539 0.0056,0.98716 0.838835,1.71426 1.742017,1.69085 z m -8.957603,-3.94911 c -0.058,-5.3e-4 -0.10274,-0.0121 -0.15917,-0.017 -0.11285,-0.01 -0.23514,-0.0279 -0.37156,-0.0527 -0.27278,-0.0496 -0.59668,-0.12482 -0.92344,-0.21084 -0.32677,-0.086 -0.65472,-0.1815 -0.92811,-0.27543 -0.27339,-0.0939 -0.44228,-0.12178 -0.68162,-0.3204 -0.31192,-0.25889 -0.38433,-0.63626 -0.3457,-0.96273 0.0386,-0.32647 0.19097,-0.65982 0.51366,-0.87127 0.1896,-0.12424 0.4989,-0.22617 0.79891,-0.19895 0.18756,0.017 0.47977,0.10697 0.73639,0.1757 0.008,-0.16948 0.0175,-0.2812 0.0175,-0.68006 v -0.94723 l -3.38635,-0.95498 c -2.06208,-0.58215 -4.11517,-1.16415 -4.57441,-1.29656 l -0.1855,-0.0527 v 0.65991 0.94361 l 0.33383,0.0894 c 0.5485,0.15017 0.90418,0.25836 1.203,0.45527 0.29885,0.19691 0.48059,0.56543 0.51007,0.86713 0.0185,0.18993 0.0185,0.40037 -0.078,0.60771 -0.0967,0.20734 -0.26241,0.34366 -0.42013,0.447 -0.16661,0.10915 -0.46762,0.23333 -0.75964,0.20723 -0.29203,-0.0261 -0.60116,-0.11788 -1.18753,-0.28164 -0.34648,-0.0968 -0.68215,-0.20127 -0.95343,-0.29456 -0.13565,-0.0466 -0.25506,-0.0901 -0.35502,-0.13074 -0.10001,-0.0407 -0.15817,-0.0533 -0.28318,-0.14469 -0.15698,-0.1147 -0.26191,-0.32895 -0.30284,-0.5178 -0.0409,-0.18886 -0.0611,-0.41224 -0.078,-0.76378 -0.0339,-0.70309 -0.0469,-1.90992 -0.0625,-4.08398 l -0.0294,-4.04472 c -2.677786,1.22553 -5.772916,-0.76498 -5.777436,-3.71657 -0.003,-1.84219 1.18726,-3.38361 3.01945,-3.96306 l 0.0217,-0.008 0.0212,-0.004 c 0.71163,-0.2169 1.33604,-0.20561 2.13477,0.0315 1.276186,0.379 2.245826,1.24603 2.785346,2.48409 0.0888,0.20369 0.088,0.32466 0.11112,0.55087 0.023,0.22621 0.0434,0.52066 0.061,0.9002 0.0353,0.75908 0.0613,1.85432 0.0837,3.34605 l 0.0584,3.88865 3.84008,1.08779 c 1.1539,0.32726 2.24235,0.63433 3.06441,0.86351 0.41103,0.11459 0.75493,0.20999 1.00769,0.27906 0.10173,0.0278 0.10491,0.0277 0.17777,0.047 v -1.44952 c 0,-0.52213 -0.006,-0.97558 -0.0135,-1.3379 -0.0101,0.005 -0.0172,0.007 -0.0274,0.0119 -1.58908,0.73977 -3.48707,0.34075 -4.6855,-0.97049 -1.0514,-1.15043 -1.36351,-2.55052 -0.91207,-4.07055 0.16869,-0.56808 0.54083,-1.09882 0.99425,-1.55288 0.45341,-0.45407 0.98962,-0.82877 1.56218,-1.0113 2.03739,-0.64955 4.09879,0.20112 5.02965,2.09134 l 0.45114,0.91622 0.0331,6.57841 c 0.0172,3.4148 0.0267,5.14102 -0.0429,6.09524 -0.0348,0.47711 -0.0748,0.77061 -0.2191,1.04128 -0.14425,0.27066 -0.43934,0.41912 -0.58962,0.47284 -0.10814,0.0386 -0.17923,0.0487 -0.2372,0.0481 z m -5.41517,-1.48363 c -0.33954,0 -0.5823,-0.0883 -0.83198,-0.33796 -0.24974,-0.24973 -0.33798,-0.49248 -0.33798,-0.83199 0,-0.33952 0.0883,-0.58226 0.33798,-0.832 0.24971,-0.24974 0.49246,-0.33589 0.83198,-0.33589 0.33954,0 0.58018,0.0862 0.82992,0.33589 0.24976,0.24974 0.33797,0.4925 0.33795,0.832 0,0.33953 -0.0883,0.58227 -0.33795,0.83199 -0.24974,0.24976 -0.49041,0.33796 -0.82992,0.33796 z m 16.983972,-2.09651 c -0.06715,0.001 -0.135149,-0.001 -0.204629,-0.007 -0.113294,-0.01 -0.277945,-0.0383 -0.431509,-0.12867 -0.153564,-0.0904 -0.268605,-0.21692 -0.373115,-0.36329 -0.208968,-0.29273 -0.424736,-0.71433 -0.826294,-1.50016 -0.233971,-0.45783 -0.467069,-0.88524 -0.648547,-1.19735 -0.0907,-0.15606 -0.169889,-0.28448 -0.22479,-0.3669 l -0.0037,-0.006 c -0.0069,-0.002 -0.01005,-0.002 -0.01746,-0.004 -0.09649,-0.0201 -0.236696,-0.0459 -0.402537,-0.0739 -0.331708,-0.056 -0.771816,-0.12076 -1.234572,-0.1819 -0.633439,-0.0837 -1.083443,-0.15541 -1.417982,-0.23254 -0.334539,-0.0771 -0.565811,-0.13071 -0.78859,-0.35347 -0.1406,-0.14061 -0.288661,-0.31389 -0.345731,-0.56637 -0.0571,-0.25248 0.0127,-0.51902 0.130757,-0.73432 0.236405,-0.43061 0.657145,-0.84016 1.394221,-1.54874 l 1.201473,-1.15446 -0.271806,-1.57975 c -0.233177,-1.36274 -0.333296,-1.87774 -0.181398,-2.32233 v -0.0212 l 0.04498,-0.0997 c 0,0 0,-5.3e-4 0,-5.3e-4 0.08408,-0.18451 0.238469,-0.39368 0.476461,-0.49971 0.237967,-0.10603 0.486093,-0.0942 0.724483,-0.0413 0.476805,0.10586 1.035023,0.37986 1.937861,0.85163 l 1.398375,0.73071 1.384406,-0.73071 c 0.454078,-0.23965 0.902732,-0.45627 1.266084,-0.61701 0.18169,-0.0804 0.33999,-0.1479 0.476462,-0.19741 0.136446,-0.0495 0.190712,-0.0956 0.419603,-0.0956 0.379756,0 0.709348,0.19235 0.912098,0.50178 0.121285,0.18514 0.203385,0.49583 0.181901,0.84181 -0.02143,0.34599 -0.09797,0.82065 -0.240295,1.66605 l -0.273367,1.61954 1.120854,1.11311 c 0.779833,0.77371 1.182238,1.16027 1.422136,1.51928 0.119935,0.17951 0.213704,0.39912 0.195341,0.63304 -0.01852,0.23393 -0.123428,0.38885 -0.197405,0.50178 -0.114432,0.17462 -0.386292,0.44691 -0.753957,0.5488 -0.367691,0.10188 -0.893815,0.17254 -1.959054,0.3266 -0.444368,0.0643 -0.851906,0.12666 -1.148265,0.1757 -0.108162,0.0179 -0.180288,0.0317 -0.253736,0.045 -0.0422,0.0816 -0.08858,0.17323 -0.152426,0.29869 -0.15457,0.30385 -0.364781,0.71835 -0.590153,1.16996 -0.228521,0.45798 -0.450506,0.88519 -0.628915,1.20871 -0.08919,0.16175 -0.166899,0.29651 -0.232013,0.40256 -0.0326,0.053 -0.06128,0.0994 -0.092,0.14263 -0.03069,0.0433 -0.0082,0.0654 -0.172085,0.1757 -0.194945,0.13156 -0.295222,0.12292 -0.42373,0.13849 -0.06424,0.008 -0.130254,0.0124 -0.197406,0.0134 z m -0.07183,-3.84886 0.101282,-0.20309 c 0.34798,-0.69662 0.536231,-1.08828 0.818568,-1.39061 0.28231,-0.30232 0.665559,-0.4058 1.030949,-0.45734 0.263895,-0.0372 0.754195,-0.11587 1.15443,-0.18138 l -0.3302,-0.33022 -1.191154,-1.19941 0.255799,-1.60507 c 0.029,-0.18197 0.04493,-0.31094 0.06821,-0.47077 -0.10504,0.0551 -0.181743,0.0919 -0.296598,0.154 -0.311441,0.16841 -0.619337,0.32146 -0.871273,0.43563 -0.125968,0.0571 -0.237252,0.10384 -0.335889,0.14056 -0.09872,0.0367 -0.126233,0.0783 -0.340042,0.0801 -0.205396,0.002 -0.235585,-0.0369 -0.333825,-0.0703 -0.09821,-0.0334 -0.210397,-0.0762 -0.335915,-0.12868 -0.25101,-0.10494 -0.554884,-0.24472 -0.865055,-0.40049 -0.161237,-0.081 -0.286544,-0.13835 -0.429948,-0.20722 0.05062,0.34672 0.109484,0.73083 0.232542,1.418 0.03971,0.22178 0.01482,0.58333 -0.160179,0.85369 -0.175101,0.27036 -0.429974,0.52606 -0.894529,1.00201 -0.152797,0.15654 -0.222515,0.23106 -0.330227,0.34158 0.122026,0.0151 0.183701,0.0248 0.34417,0.045 0.733743,0.0923 1.184566,0.12403 1.597316,0.42168 0.412777,0.29765 0.592376,0.71594 0.935858,1.40043 z m -14.608922,-4.24264 c 0.18333,0.001 0.36756,-0.0276 0.54414,-0.0837 0.47088,-0.14977 0.88858,-0.49475 1.0976,-0.99219 0.35076,-0.83466 -0.24111,-2.01816 -1.1875,-2.281 -0.11263,-0.0313 -0.23072,-0.0587 -0.31988,-0.0765 -0.0892,-0.0177 -0.22871,-0.005 -0.0703,-0.0212 h -0.003 -0.003 c -0.91593,0.0896 -1.47018,0.6533 -1.65621,1.30844 -0.18605,0.65515 -0.0124,1.37886 0.72448,1.88051 0.263,0.17901 0.56624,0.26383 0.8718,0.26562 z m -10.478416,-2.99361 c 0.3689,-0.006 0.73445,-0.13798 1.03817,-0.40463 0.977656,-0.85842 0.755196,-2.36979 -0.40206,-2.86494 -0.71671,-0.30667 -1.50392,-0.10005 -2.05878,0.58549 -0.31403,0.38798 -0.39677,1.30191 -0.17002,1.71308 0.28395,0.51491 0.73895,0.83423 1.22473,0.93586 0.12144,0.0254 0.24498,0.0372 0.36796,0.0351 z"
       style="fill:#000000;stroke:none;stroke-width:0.99811208;stroke-miterlimit:4;stroke-dasharray:none;stroke-opacity:1"
       inkscape:connector-curvature="0" />
    <path
       inkscape:tile-y0="36.926831"
       inkscape:tile-x0="16.292685"
       id="use9244"
       d="m -38.942023,208.70088 4.263311,1.2206 c 1.101487,0.3154 2.130954,0.62541 2.906262,0.87126 0.387668,0.12292 0.711809,0.22882 0.953453,0.31419 0.120782,0.0427 0.220054,0.0796 0.302286,0.11318 0.08231,0.0335 0.106786,0.0166 0.256329,0.13694 0.0771,0.062 0.244078,0.24571 0.30644,0.44132 0.06239,0.19561 0.08075,0.39845 0.09766,0.7307 0.03371,0.66451 0.03307,1.85085 0.03307,4.18527 0,1.30944 0.0034,2.49973 0.01032,3.36156 0.0026,0.27737 0.0048,0.45432 0.0077,0.65629 0.900774,-0.40351 2.136854,-0.47825 3.081973,-0.16433 1.363106,0.45275 2.401093,1.68503 2.695442,3.15071 0.394547,1.96463 -0.85762,4.00872 -2.806541,4.64416 0,0 0,0 0,0 0,2.2e-4 -0.0026,2.6e-4 -0.0026,5.3e-4 l -0.0744,0.0248 h -0.01958 c -0.931571,0.27144 -2.084096,0.15016 -2.993098,-0.29456 -0.856324,-0.41896 -1.519529,-1.11446 -1.933734,-2.00969 -0.132847,-0.28701 -0.231537,-0.60929 -0.271833,-1.26763 -0.0403,-0.65833 -0.05101,-1.72184 -0.06821,-3.72483 l -0.03307,-3.86333 -0.46302,-0.13488 c -0.441458,-0.12985 -2.073831,-0.59847 -3.615267,-1.03715 -1.037034,-0.2951 -1.757389,-0.51351 -2.253615,-0.68729 -0.248126,-0.0869 -0.440743,-0.16251 -0.597906,-0.23823 -0.157162,-0.0757 -0.28141,-0.13434 -0.413914,-0.29507 -0.158697,-0.19251 -0.255931,-0.4839 -0.289401,-0.87282 -0.0335,-0.38893 -0.03876,-0.95406 -0.03876,-1.92391 0,-1.09925 -0.0032,-1.64597 0.04289,-2.02934 0.04572,-0.38336 0.259344,-0.69076 0.411876,-0.83405 z m 31.585667,0.10904 c 0.430496,0.013 0.692626,0.30369 0.921906,0.6196 0.22927,0.31591 0.45546,0.73176 0.73639,1.27692 0.19741,0.38307 0.33073,0.65781 0.43149,0.82838 0.10075,0.17057 0.15004,0.22045 0.21291,0.25993 0.12578,0.079 0.55345,0.14759 1.60353,0.29249 0.5778,0.0797 1.00301,0.17212 1.34977,0.35398 0.34679,0.18186 0.62116,0.56654 0.62116,0.94878 0,0.2109 -0.0516,0.24389 -0.0822,0.30076 -0.0307,0.0569 -0.0633,0.10475 -0.0997,0.15658 -0.0728,0.10366 -0.16465,0.21952 -0.27543,0.3514 -0.22159,0.26377 -0.51668,0.58733 -0.84336,0.91984 l -0.97877,0.99425 0.1974,1.08004 c 0.14754,0.8118 0.22675,1.26359 0.23617,1.61902 0,0.0103 -0.01,0.0155 -0.01,0.0258 h 0.54105 l -0.85162,0.85317 c -0.10763,0.10762 -0.26175,0.22675 -0.45889,0.28112 -0.19714,0.0544 -0.39992,0.0376 -0.59375,-0.01 -0.0716,-0.0174 -0.21291,-0.0995 -0.2894,-0.12506 h -0.21654 l 0.0646,-0.0646 c -0.31231,-0.11734 -0.5901,-0.2208 -1.12344,-0.48628 l -1.152396,-0.57206 -1.07021,0.57413 c -0.53681,0.28795 -0.96224,0.49984 -1.33583,0.62322 -0.37362,0.12337 -0.7733,0.19236 -1.12294,-0.061 -0.34965,-0.2533 -0.40984,-0.65317 -0.41392,-1.04852 -0.004,-0.39535 0.0582,-0.86915 0.15605,-1.47484 l 0.2031,-1.26142 -0.93379,-0.89246 c -0.4322,-0.41384 -0.72121,-0.70812 -0.92345,-0.95911 -0.20228,-0.25099 -0.35105,-0.48798 -0.34986,-0.79478 0,-0.18206 0.0326,-0.39289 0.15039,-0.58602 0.11774,-0.19313 0.30231,-0.33271 0.50022,-0.42581 0.39581,-0.1862 0.89387,-0.27028 1.70688,-0.38861 l 1.24589,-0.17983 0.60153,-1.20148 c 0.26538,-0.52938 0.48096,-0.93356 0.70538,-1.24178 0.22442,-0.30821 0.50898,-0.59906 0.93949,-0.58601 z m -30.06844,2.82256 c -0.0079,0.1712 -0.01773,0.27337 -0.01746,0.66043 l 0.0026,0.94723 2.59207,0.73432 c 0.813488,0.23076 1.570355,0.44847 2.134764,0.61133 0.193755,0.0559 0.327607,0.0946 0.470773,0.13643 0.0079,-0.17667 0.01905,-0.31054 0.01905,-0.64027 v -0.95343 l -2.5332,-0.73019 c -1.368028,-0.39356 -2.289228,-0.65758 -2.668032,-0.76585 z m 30.0545,1.11983 c -0.22426,0.46016 -0.42953,0.8258 -0.76327,1.07384 -0.3538,0.26294 -0.76968,0.3489 -1.28519,0.40411 -0.004,5.3e-4 -0.006,0.002 -0.01,0.002 0.0259,0.0264 0.039,0.0435 0.0662,0.0703 0.37428,0.36964 0.6505,0.66133 0.7617,1.08572 0.0988,0.37696 0.0228,0.77218 -0.0703,1.27382 0.0616,-0.0293 0.10311,-0.0466 0.16796,-0.0786 l 1.12914,-0.5581 0.984426,0.49609 0.10541,0.0522 c 0.0723,0.0364 0.12407,0.0603 0.19328,0.0941 -0.0399,-0.20978 -0.0774,-0.41961 -0.10543,-0.59377 -0.0307,-0.19115 -0.0518,-0.29765 -0.0548,-0.45113 -0.006,-0.28024 0.0733,-0.31597 0.12713,-0.40411 0.0538,-0.0881 0.11697,-0.17492 0.19119,-0.26768 0.14843,-0.18554 0.34041,-0.39445 0.55448,-0.60152 0.0421,-0.0408 0.0644,-0.0678 0.10388,-0.10749 -0.005,-5.2e-4 -0.008,-10e-4 -0.014,-0.002 -0.24861,-0.0257 -0.4993,-0.0676 -0.71676,-0.11731 -0.21746,-0.0497 -0.36608,-0.0696 -0.57825,-0.20515 -0.25463,-0.16265 -0.30964,-0.30376 -0.43513,-0.50178 -0.122816,-0.19384 -0.244626,-0.42546 -0.351896,-0.66353 z m -11.77708,2.39262 c 0.33647,-0.0242 0.69119,0.12168 0.94361,0.37414 0.34573,0.34578 0.38332,0.75351 0.39637,1.1622 0.013,0.40869 0.0167,0.81751 -0.34573,1.17978 -0.0474,0.0474 -0.10483,0.0255 -0.15449,0.0605 -0.22482,0.15831 -0.46083,0.26244 -0.69919,0.27182 -0.29107,0.0114 -0.61841,5.2e-4 -0.88678,-0.33435 -0.34097,-0.42623 -0.42312,-0.9866 -0.31988,-1.53686 0.0908,-0.48381 0.32541,-0.90111 0.74001,-1.09399 0.10367,-0.0482 0.21392,-0.0751 0.32608,-0.0832 z m 2.69906,2.90577 c 0.40871,0.003 0.79865,-0.002 1.17203,0.33589 0.48659,0.44048 0.51564,1.20314 0.0491,1.66967 -0.21603,0.21604 -0.39378,0.23114 -0.59013,0.27182 -0.19635,0.0407 -0.40769,0.0605 -0.62116,0.0661 -0.21344,0.006 -0.42439,-0.002 -0.62114,-0.0331 -0.19674,-0.0308 -0.37674,-0.0295 -0.60721,-0.25993 -0.2725,-0.27253 -0.29824,-0.58133 -0.28525,-0.8692 0.013,-0.28788 0.0759,-0.58536 0.33022,-0.83974 0.18855,-0.18853 0.37873,-0.23773 0.57206,-0.28112 0.19333,-0.0434 0.39717,-0.0618 0.6015,-0.0605 z m -5.13455,0.004 c 0.55784,0 1.04931,0.16568 1.34977,0.55087 0.15023,0.19259 0.23714,0.45153 0.21497,0.709 -0.0222,0.25747 -0.1451,0.49752 -0.32245,0.6935 -0.14041,0.15509 -0.35009,0.27025 -0.5607,0.32246 -0.21058,0.0522 -0.43042,0.0641 -0.709,0.0641 -0.42096,0 -0.75938,-0.0166 -1.07434,-0.2341 -0.31496,-0.21751 -0.4253,-0.61892 -0.4253,-0.95704 0,-0.34467 0.18349,-0.72239 0.48419,-0.91209 0.30073,-0.1897 0.64342,-0.23616 1.04286,-0.23616 z m 2.57243,2.20917 c 0.29105,0.003 0.58262,0.11262 0.80823,0.31677 0.20235,0.18312 0.265,0.37981 0.31678,0.57775 0.0518,0.19794 0.0741,0.40576 0.078,0.61546 0.004,0.20971 -0.0106,0.41904 -0.0548,0.61909 -0.0379,0.17196 -0.0901,0.34258 -0.22376,0.50849 l -0.0222,0.0382 -0.045,0.0429 c -0.26194,0.26185 -0.56267,0.32085 -0.85368,0.33227 -0.29104,0.0114 -0.61841,0.001 -0.88678,-0.33382 -0.28628,-0.35785 -0.36227,-0.79466 -0.35139,-1.21698 0.0109,-0.42235 0.10364,-0.85194 0.43357,-1.18185 0.21963,-0.21962 0.50993,-0.32165 0.80097,-0.31832 z m -9.105393,2.47737 c -0.208412,0.005 -0.420766,0.0507 -0.627327,0.14211 -0.654685,0.28958 -0.942578,0.70114 -0.995812,1.43712 -0.05411,0.74819 0.181637,1.20919 0.77515,1.55701 1.173929,0.68798 2.597943,-0.11503 2.590006,-1.44539 -0.0056,-0.98716 -0.838835,-1.71426 -1.742017,-1.69085 z m 8.957603,3.94911 c 0.058,5.3e-4 0.10274,0.0121 0.15917,0.017 0.11285,0.01 0.23514,0.0279 0.37156,0.0527 0.27278,0.0496 0.59668,0.12482 0.92344,0.21084 0.32677,0.086 0.65472,0.1815 0.92811,0.27543 0.27339,0.0939 0.44228,0.12178 0.68162,0.3204 0.31192,0.25889 0.38433,0.63626 0.3457,0.96273 -0.0386,0.32647 -0.19097,0.65982 -0.51366,0.87127 -0.1896,0.12424 -0.4989,0.22617 -0.79891,0.19895 -0.18756,-0.017 -0.47977,-0.10697 -0.73639,-0.1757 -0.008,0.16948 -0.0175,0.2812 -0.0175,0.68006 v 0.94723 l 3.38635,0.95498 c 2.06208,0.58215 4.11517,1.16415 4.57441,1.29656 l 0.1855,0.0527 v -0.65991 -0.94361 l -0.33383,-0.0894 c -0.5485,-0.15017 -0.90418,-0.25836 -1.203,-0.45527 -0.29885,-0.19691 -0.48059,-0.56543 -0.51007,-0.86713 -0.0185,-0.18993 -0.0185,-0.40037 0.078,-0.60771 0.0967,-0.20734 0.26241,-0.34366 0.42013,-0.447 0.16661,-0.10915 0.46762,-0.23333 0.75964,-0.20723 0.29203,0.0261 0.60116,0.11788 1.18753,0.28164 0.34648,0.0968 0.68215,0.20127 0.95343,0.29456 0.13565,0.0466 0.25506,0.0901 0.35502,0.13074 0.10001,0.0407 0.15817,0.0533 0.28318,0.14469 0.15698,0.1147 0.26191,0.32895 0.30284,0.5178 0.0409,0.18886 0.0611,0.41224 0.078,0.76378 0.0339,0.70309 0.0469,1.90992 0.0625,4.08398 l 0.0294,4.04472 c 2.677786,-1.22553 5.772916,0.76498 5.777436,3.71657 0.003,1.84219 -1.18726,3.38361 -3.01945,3.96306 l -0.0217,0.008 -0.0212,0.004 c -0.71163,0.2169 -1.33604,0.20561 -2.13477,-0.0315 -1.276186,-0.379 -2.245826,-1.24603 -2.785346,-2.48409 -0.0888,-0.20369 -0.088,-0.32466 -0.11112,-0.55087 -0.023,-0.22621 -0.0434,-0.52066 -0.061,-0.9002 -0.0353,-0.75908 -0.0613,-1.85432 -0.0837,-3.34605 l -0.0584,-3.88865 -3.84008,-1.08779 c -1.1539,-0.32726 -2.24235,-0.63433 -3.06441,-0.86351 -0.41103,-0.11459 -0.75493,-0.20999 -1.00769,-0.27906 -0.10173,-0.0278 -0.10491,-0.0277 -0.17777,-0.047 v 1.44952 c 0,0.52213 0.006,0.97558 0.0135,1.3379 0.0101,-0.005 0.0172,-0.007 0.0274,-0.0119 1.58908,-0.73977 3.48707,-0.34075 4.6855,0.97049 1.0514,1.15043 1.36351,2.55052 0.91207,4.07055 -0.16869,0.56808 -0.54083,1.09882 -0.99425,1.55288 -0.45341,0.45407 -0.98962,0.82877 -1.56218,1.0113 -2.03739,0.64955 -4.09879,-0.20112 -5.02965,-2.09134 l -0.45114,-0.91622 -0.0331,-6.57841 c -0.0172,-3.4148 -0.0267,-5.14102 0.0429,-6.09524 0.0348,-0.47711 0.0748,-0.77061 0.2191,-1.04128 0.14425,-0.27066 0.43934,-0.41912 0.58962,-0.47284 0.10814,-0.0386 0.17923,-0.0487 0.2372,-0.0481 z m 5.41517,1.48363 c 0.33954,0 0.5823,0.0883 0.83198,0.33796 0.24974,0.24973 0.33798,0.49248 0.33798,0.83199 0,0.33952 -0.0883,0.58226 -0.33798,0.832 -0.24971,0.24974 -0.49246,0.33589 -0.83198,0.33589 -0.33954,0 -0.58018,-0.0862 -0.82992,-0.33589 -0.24976,-0.24974 -0.33797,-0.4925 -0.33795,-0.832 0,-0.33953 0.0883,-0.58227 0.33795,-0.83199 0.24974,-0.24976 0.49041,-0.33796 0.82992,-0.33796 z m -16.983972,2.09651 c 0.06715,-0.001 0.135149,0.001 0.204629,0.007 0.113294,0.01 0.277945,0.0383 0.431509,0.12867 0.153564,0.0904 0.268605,0.21692 0.373115,0.36329 0.208968,0.29273 0.424736,0.71433 0.826294,1.50016 0.233971,0.45783 0.467069,0.88524 0.648547,1.19735 0.0907,0.15606 0.169889,0.28448 0.22479,0.3669 l 0.0037,0.006 c 0.0069,0.002 0.01005,0.002 0.01746,0.004 0.09649,0.0201 0.236696,0.0459 0.402537,0.0739 0.331708,0.056 0.771816,0.12076 1.234572,0.1819 0.633439,0.0837 1.083443,0.15541 1.417982,0.23254 0.334539,0.0771 0.565811,0.13071 0.78859,0.35347 0.1406,0.14061 0.288661,0.31389 0.345731,0.56637 0.0571,0.25248 -0.0127,0.51902 -0.130757,0.73432 -0.236405,0.43061 -0.657145,0.84016 -1.394221,1.54874 l -1.201473,1.15446 0.271806,1.57975 c 0.233177,1.36274 0.333296,1.87774 0.181398,2.32233 v 0.0212 l -0.04498,0.0997 c 0,0 0,5.3e-4 0,5.3e-4 -0.08408,0.18451 -0.238469,0.39368 -0.476461,0.49971 -0.237967,0.10603 -0.486093,0.0942 -0.724483,0.0413 -0.476805,-0.10586 -1.035023,-0.37986 -1.937861,-0.85163 l -1.398375,-0.73071 -1.384406,0.73071 c -0.454078,0.23965 -0.902732,0.45627 -1.266084,0.61701 -0.18169,0.0804 -0.33999,0.1479 -0.476462,0.19741 -0.136446,0.0495 -0.190712,0.0956 -0.419603,0.0956 -0.379756,0 -0.709348,-0.19235 -0.912098,-0.50178 -0.121285,-0.18514 -0.203385,-0.49583 -0.181901,-0.84181 0.02143,-0.34599 0.09797,-0.82065 0.240295,-1.66605 l 0.273367,-1.61954 -1.120854,-1.11311 c -0.779833,-0.77371 -1.182238,-1.16027 -1.422136,-1.51928 -0.119935,-0.17951 -0.213704,-0.39912 -0.195341,-0.63304 0.01852,-0.23393 0.123428,-0.38885 0.197405,-0.50178 0.114432,-0.17462 0.386292,-0.44691 0.753957,-0.5488 0.367691,-0.10188 0.893815,-0.17254 1.959054,-0.3266 0.444368,-0.0643 0.851906,-0.12666 1.148265,-0.1757 0.108162,-0.0179 0.180288,-0.0317 0.253736,-0.045 0.0422,-0.0816 0.08858,-0.17323 0.152426,-0.29869 0.15457,-0.30385 0.364781,-0.71835 0.590153,-1.16996 0.228521,-0.45798 0.450506,-0.88519 0.628915,-1.20871 0.08919,-0.16175 0.166899,-0.29651 0.232013,-0.40256 0.0326,-0.053 0.06128,-0.0994 0.092,-0.14263 0.03069,-0.0433 0.0082,-0.0654 0.172085,-0.1757 0.194945,-0.13156 0.295222,-0.12292 0.42373,-0.13849 0.06424,-0.008 0.130254,-0.0124 0.197406,-0.0134 z m 0.07183,3.84886 -0.101282,0.20309 c -0.34798,0.69662 -0.536231,1.08828 -0.818568,1.39061 -0.28231,0.30232 -0.665559,0.4058 -1.030949,0.45734 -0.263895,0.0372 -0.754195,0.11587 -1.15443,0.18138 l 0.3302,0.33022 1.191154,1.19941 -0.255799,1.60507 c -0.029,0.18197 -0.04493,0.31094 -0.06821,0.47077 0.10504,-0.0551 0.181743,-0.0919 0.296598,-0.154 0.311441,-0.16841 0.619337,-0.32146 0.871273,-0.43563 0.125968,-0.0571 0.237252,-0.10384 0.335889,-0.14056 0.09872,-0.0367 0.126233,-0.0783 0.340042,-0.0801 0.205396,-0.002 0.235585,0.0369 0.333825,0.0703 0.09821,0.0334 0.210397,0.0762 0.335915,0.12868 0.25101,0.10494 0.554884,0.24472 0.865055,0.40049 0.161237,0.081 0.286544,0.13835 0.429948,0.20722 -0.05062,-0.34672 -0.109484,-0.73083 -0.232542,-1.418 -0.03971,-0.22178 -0.01482,-0.58333 0.160179,-0.85369 0.175101,-0.27036 0.429974,-0.52606 0.894529,-1.00201 0.152797,-0.15654 0.222515,-0.23106 0.330227,-0.34158 -0.122026,-0.0151 -0.183701,-0.0248 -0.34417,-0.045 -0.733743,-0.0923 -1.184566,-0.12403 -1.597316,-0.42168 -0.412777,-0.29765 -0.592376,-0.71594 -0.935858,-1.40043 z m 14.608922,4.24264 c -0.18333,-0.001 -0.36756,0.0276 -0.54414,0.0837 -0.47088,0.14977 -0.88858,0.49475 -1.0976,0.99219 -0.35076,0.83466 0.24111,2.01816 1.1875,2.281 0.11263,0.0313 0.23072,0.0587 0.31988,0.0765 0.0892,0.0177 0.22871,0.005 0.0703,0.0212 h 0.003 0.003 c 0.91593,-0.0896 1.47018,-0.6533 1.65621,-1.30844 0.18605,-0.65515 0.0124,-1.37886 -0.72448,-1.88051 -0.263,-0.17901 -0.56624,-0.26383 -0.8718,-0.26562 z m 10.478416,2.99361 c -0.3689,0.006 -0.73445,0.13798 -1.03817,0.40463 -0.977656,0.85842 -0.755196,2.36979 0.40206,2.86494 0.71671,0.30667 1.50392,0.10005 2.05878,-0.58549 0.31403,-0.38798 0.39677,-1.30191 0.17002,-1.71308 -0.28395,-0.51491 -0.73895,-0.83423 -1.22473,-0.93586 -0.12144,-0.0254 -0.24498,-0.0372 -0.36796,-0.0351 z"
       style="fill:#000000;stroke:none;stroke-width:0.99811208;stroke-miterlimit:4;stroke-dasharray:none;stroke-opacity:1"
       inkscape:connector-curvature="0" />
  </g>
</svg>
