<?xml version="1.0" encoding="UTF-8" standalone="no"?>
<!-- Created with Inkscape (http://www.inkscape.org/) -->

<svg
   xmlns:dc="http://purl.org/dc/elements/1.1/"
   xmlns:cc="http://creativecommons.org/ns#"
   xmlns:rdf="http://www.w3.org/1999/02/22-rdf-syntax-ns#"
   xmlns:svg="http://www.w3.org/2000/svg"
   xmlns="http://www.w3.org/2000/svg"
   xmlns:sodipodi="http://sodipodi.sourceforge.net/DTD/sodipodi-0.dtd"
   xmlns:inkscape="http://www.inkscape.org/namespaces/inkscape"
   width="141.2986mm"
   height="131.7319mm"
   viewBox="0 0 141.2986 131.7319"
   version="1.1"
   id="svg8430"
   inkscape:version="0.92.5 (2060ec1f9f, 2020-04-08)"
   sodipodi:docname="romance-pattern.svg">
  <defs
     id="defs8424" />
  <sodipodi:namedview
     id="base"
     pagecolor="#ffffff"
     bordercolor="#666666"
     borderopacity="1.0"
     inkscape:pageopacity="0.0"
     inkscape:pageshadow="2"
     inkscape:zoom="0.35"
     inkscape:cx="116.1515"
     inkscape:cy="374.19551"
     inkscape:document-units="mm"
     inkscape:current-layer="layer1"
     showgrid="false"
     fit-margin-top="15"
     fit-margin-left="15"
     fit-margin-right="15"
     fit-margin-bottom="15"
     inkscape:window-width="1920"
     inkscape:window-height="1016"
     inkscape:window-x="0"
     inkscape:window-y="27"
     inkscape:window-maximized="1" />
  <metadata
     id="metadata8427">
    <rdf:RDF>
      <cc:Work
         rdf:about="">
        <dc:format>image/svg+xml</dc:format>
        <dc:type
           rdf:resource="http://purl.org/dc/dcmitype/StillImage" />
        <dc:title></dc:title>
      </cc:Work>
    </rdf:RDF>
  </metadata>
  <g
     inkscape:label="Calque 1"
     inkscape:groupmode="layer"
     id="layer1"
     transform="translate(158.10973,-116.10732)">
    <path
       inkscape:tile-y0="134.19187"
       inkscape:tile-x0="-142.46365"
       inkscape:connector-curvature="0"
       id="use8990"
       d="m -113.01958,131.10757 c -1.11378,-5.9e-4 -2.22408,0.11065 -3.04022,0.3321 -1.16934,0.31729 -2.44162,0.86675 -3.54646,1.5324 l -0.68568,0.41317 -0.68618,-0.41317 c -1.10961,-0.66852 -2.37864,-1.21454 -3.54596,-1.52821 -1.63708,-0.4398 -4.45874,-0.44286 -6.08408,-0.006 -4.23169,1.138 -7.46486,4.37065 -8.60287,8.60235 -0.43275,1.60883 -0.43446,4.45171 -0.004,6.05061 0.41205,1.53116 1.48107,3.54671 2.51825,4.74834 0.21934,0.25411 1.13661,1.20048 2.40216,2.47851 1.26556,1.27803 2.89129,2.90256 4.5721,4.56425 3.16521,3.12926 4.88672,4.80742 5.98731,5.73054 1.10062,0.92312 1.54141,1.08199 2.27507,1.23324 0.87834,0.18107 2.35542,0.0471 3.33468,-0.31433 0.42501,-0.15687 0.82784,-0.41106 2.34828,-1.83992 1.52042,-1.42885 4.12963,-4.01037 8.92293,-8.77651 1.98921,-1.9779 3.20849,-3.30023 4.01093,-4.47533 0.80243,-1.1751 1.19667,-2.20575 1.55175,-3.65318 0.35446,-1.44486 0.31369,-4.26441 -0.0873,-5.76401 -1.12592,-4.20994 -4.36587,-7.44957 -8.57882,-8.57881 -0.83099,-0.22275 -1.94787,-0.33571 -3.06166,-0.33629 z m -14.69272,3.5653 c 2.22604,-0.0473 4.0255,0.59514 5.80115,2.05645 0.46975,0.38658 0.74184,0.59196 0.94713,0.69194 0.20531,0.1 0.35604,0.11453 0.67208,0.11453 0.31413,0 0.46578,-0.0156 0.66787,-0.11244 0.20214,-0.0968 0.46818,-0.29469 0.92155,-0.66631 1.93381,-1.58511 3.8496,-2.21455 6.28176,-2.06167 2.74924,0.1728 4.98593,1.45833 6.49518,3.73423 0.81321,1.22632 1.20256,2.48772 1.29495,4.1767 0.0931,1.70046 -0.15065,2.88473 -0.9032,4.39637 -0.43741,0.87857 -1.40713,1.90733 -6.91047,7.43238 -1.75947,1.76646 -3.407,3.39712 -4.64162,4.60138 -0.61733,0.60213 -1.13078,1.0977 -1.50624,1.45134 -0.18777,0.17681 -0.34166,0.31855 -0.4566,0.42101 -0.0575,0.0512 -0.10477,0.0919 -0.14435,0.12448 -0.0396,0.0325 -0.0587,0.0526 -0.11244,0.0811 -0.64519,0.34175 -1.47538,0.31013 -2.09359,-0.0795 -0.0802,-0.0505 -0.13623,-0.10565 -0.2526,-0.2113 -0.11638,-0.10564 -0.27026,-0.24977 -0.45868,-0.42886 -0.37678,-0.35817 -0.8902,-0.85664 -1.50467,-1.45865 -1.22898,-1.20402 -2.86126,-2.8235 -4.59981,-4.57052 -5.41672,-5.44306 -6.39873,-6.4847 -6.83304,-7.35708 -2.76865,-5.56153 0.79468,-11.94709 6.88481,-12.31671 0.15232,-0.009 0.30243,-0.0157 0.45083,-0.0188 z"
       style="fill:#000000;stroke-width:0.15172802" />
    <path
       inkscape:tile-y0="134.19187"
       inkscape:tile-x0="-142.46365"
       inkscape:connector-curvature="0"
       id="use8992"
       d="m -131.14004,232.83898 c 1.11378,5.9e-4 2.22408,-0.11065 3.04022,-0.3321 1.16934,-0.31729 2.44162,-0.86675 3.54646,-1.5324 l 0.68568,-0.41317 0.68618,0.41317 c 1.10961,0.66852 2.37864,1.21454 3.54596,1.52821 1.63708,0.4398 4.45874,0.44286 6.08408,0.006 4.23169,-1.138 7.46486,-4.37065 8.60287,-8.60235 0.43275,-1.60883 0.43446,-4.45171 0.004,-6.05061 -0.41205,-1.53116 -1.48107,-3.54671 -2.51825,-4.74834 -0.21934,-0.25411 -1.13661,-1.20048 -2.40216,-2.47851 -1.26556,-1.27803 -2.89129,-2.90256 -4.5721,-4.56425 -3.16521,-3.12926 -4.88672,-4.80742 -5.98731,-5.73054 -1.10062,-0.92312 -1.54141,-1.08199 -2.27507,-1.23324 -0.87834,-0.18107 -2.35542,-0.0471 -3.33468,0.31433 -0.42501,0.15687 -0.82784,0.41106 -2.34828,1.83992 -1.52042,1.42885 -4.12963,4.01037 -8.92293,8.77651 -1.98921,1.9779 -3.20849,3.30023 -4.01093,4.47533 -0.80243,1.1751 -1.19667,2.20575 -1.55175,3.65318 -0.35446,1.44486 -0.31369,4.26441 0.0873,5.76401 1.12592,4.20994 4.36587,7.44957 8.57882,8.57881 0.83099,0.22275 1.94787,0.33571 3.06166,0.33629 z m 14.69272,-3.5653 c -2.22604,0.0473 -4.0255,-0.59514 -5.80115,-2.05645 -0.46975,-0.38658 -0.74184,-0.59196 -0.94713,-0.69194 -0.20531,-0.1 -0.35604,-0.11453 -0.67208,-0.11453 -0.31413,0 -0.46578,0.0156 -0.66787,0.11244 -0.20214,0.0968 -0.46818,0.29469 -0.92155,0.66631 -1.93381,1.58511 -3.8496,2.21455 -6.28176,2.06167 -2.74924,-0.1728 -4.98593,-1.45833 -6.49518,-3.73423 -0.81321,-1.22632 -1.20256,-2.48772 -1.29495,-4.1767 -0.0931,-1.70046 0.15065,-2.88473 0.9032,-4.39637 0.43741,-0.87857 1.40713,-1.90733 6.91047,-7.43238 1.75947,-1.76646 3.407,-3.39712 4.64162,-4.60138 0.61733,-0.60213 1.13078,-1.0977 1.50624,-1.45134 0.18777,-0.17681 0.34166,-0.31855 0.4566,-0.42101 0.0575,-0.0512 0.10477,-0.0919 0.14435,-0.12448 0.0396,-0.0325 0.0587,-0.0526 0.11244,-0.0811 0.64519,-0.34175 1.47538,-0.31013 2.09359,0.0795 0.0802,0.0505 0.13623,0.10565 0.2526,0.2113 0.11638,0.10564 0.27026,0.24977 0.45868,0.42886 0.37678,0.35817 0.8902,0.85664 1.50467,1.45865 1.22898,1.20402 2.86126,2.8235 4.59981,4.57052 5.41672,5.44306 6.39873,6.4847 6.83304,7.35708 2.76865,5.56153 -0.79468,11.94709 -6.88481,12.31671 -0.15232,0.009 -0.30243,0.0157 -0.45083,0.0188 z"
       style="fill:#000000;stroke-width:0.15172802" />
    <path
       inkscape:tile-y0="134.19187"
       inkscape:tile-x0="-142.46365"
       inkscape:connector-curvature="0"
       id="use8994"
       d="m -51.073282,167.06408 c -1.11378,5.9e-4 -2.22408,-0.11065 -3.04022,-0.3321 -1.16934,-0.31729 -2.44162,-0.86675 -3.54646,-1.5324 l -0.68568,-0.41317 -0.68618,0.41317 c -1.10961,0.66852 -2.37864,1.21454 -3.54596,1.52821 -1.63708,0.4398 -4.45874,0.44286 -6.08408,0.006 -4.23169,-1.138 -7.46486,-4.37065 -8.60287,-8.60235 -0.43275,-1.60883 -0.43446,-4.45171 -0.004,-6.05061 0.41205,-1.53116 1.48107,-3.54671 2.51825,-4.74834 0.21934,-0.25411 1.13661,-1.20048 2.40216,-2.47851 1.26556,-1.27803 2.89129,-2.90256 4.5721,-4.56425 3.16521,-3.12926 4.88672,-4.80742 5.98731,-5.73054 1.10062,-0.92312 1.54141,-1.08199 2.27507,-1.23324 0.87834,-0.18107 2.35542,-0.0471 3.33468,0.31433 0.42501,0.15687 0.82784,0.41106 2.34828,1.83992 1.52042,1.42885 4.12963,4.01037 8.92293,8.77651 1.98921,1.9779 3.20849,3.30023 4.01093,4.47533 0.80243,1.1751 1.19667,2.20575 1.55175,3.65318 0.35446,1.44486 0.31369,4.26441 -0.0873,5.76401 -1.12592,4.20994 -4.36587,7.44957 -8.57882,8.57881 -0.83099,0.22275 -1.94787,0.33571 -3.06166,0.33629 z m -14.69272,-3.5653 c 2.22604,0.0473 4.0255,-0.59514 5.80115,-2.05645 0.46975,-0.38658 0.74184,-0.59196 0.94713,-0.69194 0.20531,-0.1 0.35604,-0.11453 0.67208,-0.11453 0.31413,0 0.46578,0.0156 0.66787,0.11244 0.20214,0.0968 0.46818,0.29469 0.92155,0.66631 1.93381,1.58511 3.8496,2.21455 6.28176,2.06167 2.74924,-0.1728 4.98593,-1.45833 6.49518,-3.73423 0.81321,-1.22632 1.20256,-2.48772 1.29495,-4.1767 0.0931,-1.70046 -0.15065,-2.88473 -0.9032,-4.39637 -0.43741,-0.87857 -1.40713,-1.90733 -6.91047,-7.43238 -1.75947,-1.76646 -3.407,-3.39712 -4.64162,-4.60138 -0.61733,-0.60213 -1.13078,-1.0977 -1.50624,-1.45134 -0.18777,-0.17681 -0.34166,-0.31855 -0.4566,-0.42101 -0.0575,-0.0512 -0.10477,-0.0919 -0.14435,-0.12448 -0.0396,-0.0325 -0.0587,-0.0526 -0.11244,-0.0811 -0.64519,-0.34175 -1.47538,-0.31013 -2.09359,0.0795 -0.0802,0.0505 -0.13623,0.10565 -0.2526,0.2113 -0.11638,0.10564 -0.27026,0.24977 -0.45868,0.42886 -0.37678,0.35817 -0.8902,0.85664 -1.50467,1.45865 -1.22898,1.20402 -2.86126,2.8235 -4.59981,4.57052 -5.41672,5.44306 -6.39873,6.4847 -6.83304,7.35708 -2.76865,5.56153 0.79468,11.94709 6.88481,12.31671 0.15232,0.009 0.30243,0.0157 0.45083,0.0188 z"
       style="fill:#000000;stroke-width:0.15172802" />
    <path
       inkscape:tile-y0="134.19187"
       inkscape:tile-x0="-142.46365"
       inkscape:connector-curvature="0"
       id="use8996"
       d="m -58.32829,198.31823 c 1.11378,-5.9e-4 2.22408,0.11065 3.04022,0.3321 1.16934,0.31729 2.44162,0.86675 3.54646,1.5324 l 0.68568,0.41317 0.68618,-0.41317 c 1.10961,-0.66852 2.37864,-1.21454 3.54596,-1.52821 1.63708,-0.4398 4.45874,-0.44286 6.08408,-0.006 4.23169,1.138 7.46486,4.37065 8.60287,8.60235 0.43275,1.60883 0.43446,4.45171 0.004,6.05061 -0.41205,1.53116 -1.48107,3.54671 -2.51825,4.74834 -0.21934,0.25411 -1.13661,1.20048 -2.40216,2.47851 -1.26556,1.27803 -2.89129,2.90256 -4.5721,4.56425 -3.16521,3.12926 -4.88672,4.80742 -5.98731,5.73054 -1.10062,0.92312 -1.54141,1.08199 -2.27507,1.23324 -0.87834,0.18107 -2.35542,0.0471 -3.33468,-0.31433 -0.42501,-0.15687 -0.82784,-0.41106 -2.34828,-1.83992 -1.52042,-1.42885 -4.12963,-4.01037 -8.92293,-8.77651 -1.98921,-1.9779 -3.20849,-3.30023 -4.01093,-4.47533 -0.80243,-1.1751 -1.19667,-2.20575 -1.55175,-3.65318 -0.35446,-1.44486 -0.31369,-4.26441 0.0873,-5.76401 1.12592,-4.20994 4.36587,-7.44957 8.57882,-8.57881 0.83099,-0.22275 1.94787,-0.33571 3.06166,-0.33629 z m 14.69272,3.5653 c -2.22604,-0.0473 -4.0255,0.59514 -5.80115,2.05645 -0.46975,0.38659 -0.74184,0.59196 -0.94713,0.69194 -0.20531,0.1 -0.35604,0.11453 -0.67208,0.11453 -0.31413,0 -0.46578,-0.0156 -0.66787,-0.11244 -0.20214,-0.0968 -0.46818,-0.29469 -0.92155,-0.66631 -1.93381,-1.58511 -3.8496,-2.21455 -6.28176,-2.06167 -2.74924,0.1728 -4.98593,1.45833 -6.49518,3.73423 -0.81321,1.22632 -1.20256,2.48772 -1.29495,4.1767 -0.0931,1.70046 0.15065,2.88473 0.9032,4.39637 0.43741,0.87857 1.40713,1.90733 6.91047,7.43238 1.75947,1.76646 3.407,3.39712 4.64162,4.60138 0.61733,0.60213 1.13078,1.0977 1.50624,1.45134 0.18777,0.17681 0.34166,0.31855 0.4566,0.42101 0.0575,0.0512 0.10477,0.0919 0.14435,0.12448 0.0396,0.0325 0.0587,0.0526 0.11244,0.0811 0.64519,0.34175 1.47538,0.31013 2.09359,-0.0795 0.0802,-0.0505 0.13623,-0.10565 0.2526,-0.2113 0.11638,-0.10564 0.27026,-0.24977 0.45868,-0.42886 0.37678,-0.35817 0.8902,-0.85664 1.50467,-1.45865 1.22898,-1.20402 2.86126,-2.8235 4.59981,-4.57051 5.41672,-5.44307 6.39873,-6.48471 6.83304,-7.35708 2.76865,-5.56154 -0.79468,-11.94709 -6.88481,-12.31671 -0.15232,-0.009 -0.30243,-0.0157 -0.45083,-0.0188 z"
       style="fill:#000000;stroke-width:0.15172802" />
  </g>
</svg>
