<?xml version="1.0" encoding="UTF-8" standalone="no"?>
<!-- Created with Inkscape (http://www.inkscape.org/) -->

<svg
   xmlns:dc="http://purl.org/dc/elements/1.1/"
   xmlns:cc="http://creativecommons.org/ns#"
   xmlns:rdf="http://www.w3.org/1999/02/22-rdf-syntax-ns#"
   xmlns:svg="http://www.w3.org/2000/svg"
   xmlns="http://www.w3.org/2000/svg"
   xmlns:sodipodi="http://sodipodi.sourceforge.net/DTD/sodipodi-0.dtd"
   xmlns:inkscape="http://www.inkscape.org/namespaces/inkscape"
   width="124.57823mm"
   height="137.14693mm"
   viewBox="0 0 124.57823 137.14693"
   version="1.1"
   id="svg8430"
   inkscape:version="0.92.5 (2060ec1f9f, 2020-04-08)"
   sodipodi:docname="sci-fi-pattern.svg">
  <defs
     id="defs8424" />
  <sodipodi:namedview
     id="base"
     pagecolor="#ffffff"
     bordercolor="#666666"
     borderopacity="1.0"
     inkscape:pageopacity="0.0"
     inkscape:pageshadow="2"
     inkscape:zoom="0.35"
     inkscape:cx="-66.762869"
     inkscape:cy="450.53592"
     inkscape:document-units="mm"
     inkscape:current-layer="layer1"
     showgrid="false"
     fit-margin-top="15"
     fit-margin-left="15"
     fit-margin-right="15"
     fit-margin-bottom="15"
     inkscape:window-width="1920"
     inkscape:window-height="1016"
     inkscape:window-x="0"
     inkscape:window-y="27"
     inkscape:window-maximized="1" />
  <metadata
     id="metadata8427">
    <rdf:RDF>
      <cc:Work
         rdf:about="">
        <dc:format>image/svg+xml</dc:format>
        <dc:type
           rdf:resource="http://purl.org/dc/dcmitype/StillImage" />
        <dc:title></dc:title>
      </cc:Work>
    </rdf:RDF>
  </metadata>
  <g
     inkscape:label="Calque 1"
     inkscape:groupmode="layer"
     id="layer1"
     transform="translate(131.7915,-67.45341)">
    <path
       inkscape:tile-y0="9.8660001"
       inkscape:tile-x0="14.761119"
       id="use9357"
       d="m -97.74563,82.594801 c -1.03756,0.0036 -2.08282,0.07353 -2.86596,0.207738 -7.09549,1.215932 -12.76726,6.932504 -13.887,14.002247 -0.30645,1.934824 -0.20744,4.682344 0.24598,6.480224 0.98676,3.9128 3.10189,7.82475 5.69526,10.98641 2.59334,3.16166 5.65462,5.58979 8.67026,6.43578 l 1.13843,0.31833 -0.076,-0.30075 c 1.03601,0.13372 2.14593,0.27414 3.072156,0.0506 0.56335,-0.13594 1.4392,-0.48601 2.15802,-0.83199 5.78184,-2.78292 11.38664,-10.64741 12.677776,-17.63872 0.293027,-1.58651 0.291809,-4.103538 0,-5.707145 -0.425476,-2.338303 -1.407446,-4.723599 -2.744016,-6.66006 -0.39511,-0.57244 -0.67564,-0.950926 -0.97669,-1.230416 -0.15052,-0.13975 -0.31271,-0.261223 -0.5271,-0.337963 -0.18452,-0.0661 -0.4019,-0.05179 -0.59169,-0.01188 0,-0.004 0.005,-0.0058 0.006,-0.0098 0.0684,-0.234971 0.0391,-0.509685 -0.045,-0.714687 -0.16819,-0.410009 -0.44701,-0.650777 -0.82994,-0.980818 -2.30571,-1.98727 -5.17864,-3.322487 -8.30078,-3.866947 -0.7521,-0.131135 -1.781886,-0.193802 -2.819476,-0.190169 z m 0.27183,2.536796 c 3.238346,0.04641 6.477346,1.22473 9.049576,3.333128 0.43579,0.357201 0.72755,0.597041 1.13069,0.728639 0.19466,0.0636 0.43868,0.07827 0.66196,0.01757 -0.0703,0.26008 -0.13073,0.577999 -0.0233,0.824238 0.13544,0.310431 0.33409,0.572487 0.64855,0.984438 2.27959,2.98645 3.26816,7.381193 2.5001,11.17968 -1.18007,5.83606 -6.27192,12.90228 -10.96677,15.33756 -1.37054,0.71092 -2.524676,0.98845 -3.699506,0.8847 -1.17483,-0.10374 -2.41162,-0.6008 -3.89072,-1.57768 -4.25839,-2.81243 -8.43452,-8.88778 -9.71879,-14.18363 -0.27117,-1.11821 -0.39325,-4.055714 -0.21084,-5.303034 0.70342,-4.810778 3.95002,-9.023971 8.51574,-11.029301 1.62396,-0.713248 2.68801,-0.977972 4.6173,-1.146183 0.46064,-0.04016 0.92334,-0.05676 1.38597,-0.05012 z m 8.956036,12.879835 c -0.16306,-0.0034 -0.32853,5.29e-4 -0.49453,0.01188 -0.66405,0.04502 -1.33921,0.203985 -1.93942,0.449066 -2.24187,0.915427 -4.05514,2.621812 -5.11133,4.492232 -1.056186,1.87042 -1.387416,3.99416 -0.340006,5.60948 0.475396,0.73317 1.194796,1.21203 2.129046,1.46296 l 0.86352,0.23254 v -0.20929 c 0.49154,0.0513 0.97197,0.16119 1.53117,0.0429 2.53015,-0.53528 5.21015,-2.70786 6.35362,-5.11131 0.61407,-1.29073 0.84807,-2.29064 0.7674,-3.41375 -0.11089,-1.54451 -0.98983,-2.786655 -2.38694,-3.320208 -0.41383,-0.158038 -0.88331,-0.236297 -1.37253,-0.246497 z m -18.253646,0.03876 c -0.95224,-0.0028 -1.72046,0.209362 -2.389,0.694015 -0.86167,0.624613 -1.31109,1.657523 -1.47072,2.605523 -0.0798,0.474 -0.091,0.93116 0.0625,1.37304 0.13812,0.39764 0.55989,0.76513 1.04646,0.84336 -0.1107,0.12069 -0.24093,0.24125 -0.293,0.35554 -0.0831,0.18233 -0.16605,0.46733 -0.12507,0.74052 0.041,0.27319 0.14324,0.4605 0.26768,0.69505 1.12347,2.11778 3.58576,4.15086 5.78932,4.70927 0.89897,0.22782 2.1078,0.1939 3.00395,-0.0744 0.83256,-0.24928 1.52365,-0.79911 1.99575,-1.56269 0.17809,-0.28805 0.32848,-0.55871 0.39841,-0.89607 0.0699,-0.33737 0.0687,-0.66821 0.0667,-1.21285 -0.007,-2.08932 -0.78523,-3.66981 -2.67012,-5.5547 -1.74567,-1.745661 -3.32938,-2.580553 -5.26378,-2.70164 -0.14377,-0.009 -0.28305,-0.01355 -0.41907,-0.01394 z m 0.10697,2.497008 c 0.24072,0.004 0.50189,0.0424 0.78287,0.11679 0.74933,0.19833 1.59629,0.65763 2.36162,1.2795 1.53067,1.24376 2.67094,3.13285 2.56625,4.58008 -0.0393,0.54388 -0.16521,0.76456 -0.34777,0.90434 -0.18259,0.13978 -0.55599,0.25306 -1.23042,0.21859 -0.76152,-0.0389 -0.83336,-0.061 -1.67174,-0.47645 -1.09456,-0.54238 -2.26714,-1.5828 -3.0334,-2.71508 -0.23743,-0.35087 -0.41478,-0.59743 -0.61907,-0.80099 -0.20272,-0.20195 -0.49136,-0.37029 -0.7793,-0.40617 0.0907,-0.0693 0.22259,-0.0481 0.28321,-0.14418 0.21815,-0.34594 0.23079,-0.67766 0.23254,-1.06092 0,-0.24988 0.07,-0.56463 0.17206,-0.81235 0.10205,-0.24772 0.26199,-0.41867 0.25789,-0.416 0.28059,-0.18299 0.62404,-0.27347 1.02526,-0.26716 z m 17.939966,0.1974 c 0.63933,-0.001 0.99314,0.10703 1.13998,0.22014 0.16785,0.12927 0.27863,0.34227 0.27906,0.97255 0,1.17186 -0.64053,2.53014 -1.93734,3.80856 -0.80301,0.79162 -1.20729,1.07302 -2.22054,1.54719 -0.56123,0.26263 -0.80184,0.32178 -1.45314,0.35553 -0.5224,0.0271 -0.8163,-0.0239 -0.97256,-0.0961 -0.15623,-0.0723 -0.25892,-0.16637 -0.42373,-0.48007 -0.20931,-0.39826 -0.19058,-0.3131 -0.13901,-0.91209 0.14745,-1.71368 1.82896,-4.03036 3.75997,-4.98471 0.75229,-0.3718 0.7965,-0.38168 1.67587,-0.42375 0.10321,-0.005 0.20013,-0.007 0.29144,-0.007 z m -10.736286,11.03137 c -0.12568,0.007 -0.25477,0.0328 -0.38756,0.0832 -0.26559,0.10084 -0.50062,0.33818 -0.6072,0.59169 -0.1066,0.25352 -0.11702,0.50771 -0.0879,0.75809 0.0277,0.23763 0.16513,0.55036 0.3633,0.74415 0.19818,0.19378 0.41029,0.30884 0.68729,0.4532 l 0.99994,0.52348 v -0.2775 c 0.85616,0.18026 1.7409,0.17046 2.539386,-0.23823 0.40709,-0.20838 0.71093,-0.37942 0.95858,-0.68575 0.12383,-0.15316 0.23493,-0.36511 0.2522,-0.60719 0.0172,-0.24209 -0.0661,-0.47396 -0.17002,-0.63872 -0.17581,-0.27871 -0.46852,-0.59946 -0.89246,-0.66612 -0.42395,-0.0666 -0.737736,0.083 -1.072276,0.25012 -0.53843,0.26891 -1.18126,0.24433 -1.51567,0.047 -0.34205,-0.20181 -0.69059,-0.35747 -1.06764,-0.33745 z"
       style="opacity:0.97000002;fill:#000000;stroke:none;stroke-width:1.36996043;stroke-miterlimit:4;stroke-dasharray:none;stroke-opacity:1"
       inkscape:connector-curvature="0" />
    <path
       inkscape:tile-y0="9.8660001"
       inkscape:tile-x0="14.761119"
       id="use9359"
       d="m -99.74326,189.59995 c 1.03756,-0.004 2.08282,-0.0735 2.86596,-0.20774 7.09549,-1.21593 12.76726,-6.9325 13.887,-14.00225 0.30645,-1.93482 0.20744,-4.68234 -0.24598,-6.48022 -0.98676,-3.9128 -3.10189,-7.82475 -5.69526,-10.98641 -2.59334,-3.16166 -5.65462,-5.58979 -8.67026,-6.43578 l -1.13843,-0.31833 0.076,0.30075 c -1.03601,-0.13372 -2.14593,-0.27414 -3.07216,-0.0506 -0.56335,0.13594 -1.4392,0.48601 -2.15802,0.83199 -5.78184,2.78292 -11.38664,10.64741 -12.67777,17.63872 -0.29303,1.58651 -0.29181,4.10354 0,5.70715 0.42547,2.3383 1.40744,4.72359 2.74401,6.66006 0.39511,0.57244 0.67564,0.95092 0.97669,1.23041 0.15052,0.13975 0.31271,0.26122 0.5271,0.33796 0.18452,0.0661 0.4019,0.0518 0.59169,0.0119 0,0.004 -0.005,0.006 -0.006,0.01 -0.0684,0.23498 -0.0391,0.50969 0.045,0.71469 0.16819,0.41001 0.44701,0.65078 0.82994,0.98082 2.30571,1.98727 5.17864,3.32249 8.30078,3.86695 0.7521,0.13113 1.78189,0.1938 2.81948,0.19017 z m -0.27183,-2.5368 c -3.23835,-0.0464 -6.47735,-1.22473 -9.04958,-3.33312 -0.43579,-0.35721 -0.72755,-0.59705 -1.13069,-0.72864 -0.19466,-0.0636 -0.43868,-0.0783 -0.66196,-0.0176 0.0703,-0.26008 0.13073,-0.578 0.0233,-0.82424 -0.13544,-0.31043 -0.33409,-0.57249 -0.64855,-0.98444 -2.27959,-2.98645 -3.26816,-7.38119 -2.5001,-11.17968 1.18007,-5.83606 6.27192,-12.90228 10.96677,-15.33756 1.37054,-0.71092 2.52468,-0.98845 3.69951,-0.8847 1.17483,0.10374 2.41162,0.6008 3.89072,1.57768 4.25839,2.81243 8.43452,8.88778 9.71879,14.18363 0.27117,1.11821 0.39325,4.05571 0.21084,5.30303 -0.70342,4.81078 -3.95002,9.02398 -8.51574,11.02931 -1.62396,0.71324 -2.68801,0.97797 -4.6173,1.14618 -0.46064,0.0402 -0.92334,0.0568 -1.38597,0.0501 z m -8.95604,-12.87983 c 0.16306,0.003 0.32853,-5.3e-4 0.49453,-0.0119 0.66405,-0.045 1.33921,-0.20399 1.93942,-0.44907 2.24187,-0.91542 4.05514,-2.62181 5.11133,-4.49223 1.05619,-1.87042 1.38742,-3.99416 0.34001,-5.60948 -0.4754,-0.73317 -1.1948,-1.21203 -2.12905,-1.46296 l -0.86352,-0.23254 v 0.20929 c -0.49154,-0.0513 -0.97197,-0.16119 -1.53117,-0.0429 -2.53015,0.53528 -5.21015,2.70786 -6.35362,5.11131 -0.61407,1.29073 -0.84807,2.29064 -0.7674,3.41375 0.11089,1.54451 0.98983,2.78666 2.38694,3.32021 0.41383,0.15804 0.88331,0.2363 1.37253,0.2465 z m 18.25365,-0.0388 c 0.95224,0.003 1.72046,-0.20936 2.389,-0.69402 0.86167,-0.62461 1.31109,-1.65752 1.47072,-2.60552 0.0798,-0.474 0.091,-0.93116 -0.0625,-1.37304 -0.13812,-0.39764 -0.55989,-0.76513 -1.04646,-0.84336 0.1107,-0.12069 0.24093,-0.24125 0.293,-0.35554 0.0831,-0.18233 0.16605,-0.46733 0.12507,-0.74052 -0.041,-0.27319 -0.14324,-0.4605 -0.26768,-0.69505 -1.12347,-2.11778 -3.58576,-4.15086 -5.78932,-4.70927 -0.89897,-0.22782 -2.1078,-0.1939 -3.00395,0.0744 -0.83256,0.24928 -1.52365,0.79911 -1.99575,1.56269 -0.17809,0.28805 -0.32848,0.55871 -0.39841,0.89607 -0.0699,0.33737 -0.0687,0.66821 -0.0667,1.21285 0.007,2.08932 0.78523,3.66981 2.67012,5.5547 1.74567,1.74566 3.32938,2.58055 5.26378,2.70164 0.14377,0.009 0.28305,0.0135 0.41907,0.0139 z m -0.10697,-2.49701 c -0.24072,-0.004 -0.50189,-0.0424 -0.78287,-0.11679 -0.74933,-0.19833 -1.59629,-0.65763 -2.36162,-1.2795 -1.53067,-1.24376 -2.67094,-3.13285 -2.56625,-4.58008 0.0393,-0.54388 0.16521,-0.76456 0.34777,-0.90434 0.18259,-0.13978 0.55599,-0.25306 1.23042,-0.21859 0.76152,0.0389 0.83336,0.061 1.67174,0.47645 1.09456,0.54238 2.26714,1.5828 3.0334,2.71508 0.23743,0.35087 0.41478,0.59743 0.61907,0.80099 0.20272,0.20195 0.49136,0.37029 0.7793,0.40617 -0.0907,0.0693 -0.22259,0.0481 -0.28321,0.14418 -0.21815,0.34594 -0.23079,0.67766 -0.23254,1.06092 0,0.24988 -0.07,0.56463 -0.17206,0.81235 -0.10205,0.24772 -0.26199,0.41867 -0.25789,0.416 -0.28059,0.18299 -0.62404,0.27347 -1.02526,0.26716 z m -17.93997,-0.1974 c -0.63933,0.001 -0.99314,-0.10703 -1.13998,-0.22014 -0.16785,-0.12927 -0.27863,-0.34227 -0.27906,-0.97255 0,-1.17186 0.64053,-2.53014 1.93734,-3.80856 0.80301,-0.79162 1.20729,-1.07302 2.22054,-1.54719 0.56123,-0.26263 0.80184,-0.32178 1.45314,-0.35553 0.5224,-0.0271 0.8163,0.0239 0.97256,0.0961 0.15623,0.0723 0.25892,0.16637 0.42373,0.48007 0.20931,0.39826 0.19058,0.3131 0.13901,0.91209 -0.14745,1.71368 -1.82896,4.03036 -3.75997,4.98471 -0.75229,0.3718 -0.7965,0.38168 -1.67587,0.42375 -0.10321,0.005 -0.20013,0.007 -0.29144,0.007 z m 10.73629,-11.03137 c 0.12568,-0.007 0.25477,-0.0328 0.38756,-0.0832 0.26559,-0.10084 0.50062,-0.33818 0.6072,-0.59169 0.1066,-0.25352 0.11702,-0.50771 0.0879,-0.75809 -0.0277,-0.23763 -0.16513,-0.55036 -0.3633,-0.74415 -0.19818,-0.19378 -0.41029,-0.30884 -0.68729,-0.4532 l -0.99994,-0.52348 v 0.2775 c -0.85616,-0.18026 -1.7409,-0.17046 -2.53939,0.23823 -0.40709,0.20838 -0.71093,0.37942 -0.95858,0.68575 -0.12383,0.15316 -0.23493,0.36511 -0.2522,0.60719 -0.0172,0.24209 0.0661,0.47396 0.17002,0.63872 0.17581,0.27871 0.46852,0.59946 0.89246,0.66612 0.42395,0.0666 0.73774,-0.083 1.07228,-0.25012 0.53843,-0.26891 1.18126,-0.24433 1.51567,-0.047 0.34205,0.20181 0.69059,0.35747 1.06764,0.33745 z"
       style="opacity:0.97000002;fill:#000000;stroke:none;stroke-width:1.36996043;stroke-miterlimit:4;stroke-dasharray:none;stroke-opacity:1"
       inkscape:connector-curvature="0" />
    <path
       inkscape:tile-y0="9.8660001"
       inkscape:tile-x0="14.761119"
       id="use9361"
       d="m -39.261499,120.88414 c -1.03756,-0.004 -2.08282,-0.0735 -2.86596,-0.20774 -7.09549,-1.21593 -12.76726,-6.9325 -13.887,-14.00224 -0.30645,-1.93483 -0.20744,-4.68235 0.24598,-6.48023 0.98676,-3.9128 3.10189,-7.82475 5.69526,-10.98641 2.59334,-3.16166 5.65462,-5.58979 8.67026,-6.43578 l 1.13843,-0.31833 -0.076,0.30075 c 1.03601,-0.13372 2.14593,-0.27414 3.072156,-0.0506 0.56335,0.13594 1.4392,0.48601 2.15802,0.83199 5.78184,2.78292 11.38664,10.64741 12.677776,17.63872 0.293027,1.58651 0.291809,4.10354 0,5.70715 -0.425476,2.3383 -1.407446,4.72359 -2.744016,6.66006 -0.39511,0.57244 -0.67564,0.95092 -0.97669,1.23041 -0.15052,0.13975 -0.31271,0.26122 -0.5271,0.33796 -0.18452,0.0661 -0.4019,0.0518 -0.59169,0.0119 0,0.004 0.005,0.006 0.006,0.01 0.0684,0.23497 0.0391,0.50968 -0.045,0.71468 -0.16819,0.41001 -0.44701,0.65078 -0.82994,0.98082 -2.30571,1.98727 -5.17864,3.32249 -8.30078,3.86695 -0.7521,0.13113 -1.781886,0.1938 -2.819476,0.19017 z m 0.27183,-2.5368 c 3.238346,-0.0464 6.477346,-1.22473 9.049576,-3.33312 0.43579,-0.3572 0.72755,-0.59704 1.13069,-0.72864 0.19466,-0.0636 0.43868,-0.0783 0.66196,-0.0176 -0.0703,-0.26008 -0.13073,-0.578 -0.0233,-0.82424 0.13544,-0.31043 0.33409,-0.57249 0.64855,-0.98444 2.27959,-2.98645 3.26816,-7.38119 2.5001,-11.17968 -1.18007,-5.83606 -6.27192,-12.90228 -10.96677,-15.33756 -1.37054,-0.71092 -2.524676,-0.98845 -3.699506,-0.8847 -1.17483,0.10374 -2.41162,0.6008 -3.89072,1.57768 -4.25839,2.81243 -8.43452,8.88778 -9.71879,14.18363 -0.27117,1.11822 -0.39325,4.05572 -0.21084,5.30304 0.70342,4.81077 3.95002,9.02397 8.51574,11.0293 1.62396,0.71324 2.68801,0.97797 4.6173,1.14618 0.46064,0.0402 0.92334,0.0568 1.38597,0.0501 z m 8.956036,-12.87983 c -0.16306,0.003 -0.32853,-5.3e-4 -0.49453,-0.0119 -0.66405,-0.045 -1.33921,-0.20399 -1.93942,-0.44907 -2.24187,-0.91542 -4.05514,-2.62181 -5.11133,-4.49223 -1.056186,-1.87042 -1.387416,-3.99416 -0.340006,-5.60948 0.475396,-0.73317 1.194796,-1.21203 2.129046,-1.46296 l 0.86352,-0.23254 v 0.20929 c 0.49154,-0.0513 0.97197,-0.16119 1.53117,-0.0429 2.53015,0.53528 5.21015,2.70786 6.35362,5.11131 0.61407,1.29073 0.84807,2.29064 0.7674,3.41375 -0.11089,1.54451 -0.98983,2.78666 -2.38694,3.32021 -0.41383,0.15804 -0.88331,0.2363 -1.37253,0.2465 z m -18.253646,-0.0388 c -0.95224,0.003 -1.72046,-0.20936 -2.389,-0.69402 -0.86167,-0.62461 -1.31109,-1.65752 -1.47072,-2.60552 -0.0798,-0.474 -0.091,-0.93116 0.0625,-1.37304 0.13812,-0.39764 0.55989,-0.76513 1.04646,-0.84336 -0.1107,-0.12069 -0.24093,-0.24125 -0.293,-0.35554 -0.0831,-0.18233 -0.16605,-0.46733 -0.12507,-0.74052 0.041,-0.27319 0.14324,-0.4605 0.26768,-0.69505 1.12347,-2.11778 3.58576,-4.15086 5.78932,-4.70927 0.89897,-0.22782 2.1078,-0.1939 3.00395,0.0744 0.83256,0.24928 1.52365,0.79911 1.99575,1.56269 0.17809,0.28805 0.32848,0.55871 0.39841,0.89607 0.0699,0.33737 0.0687,0.66821 0.0667,1.21285 -0.007,2.08932 -0.78523,3.66981 -2.67012,5.5547 -1.74567,1.74566 -3.32938,2.58055 -5.26378,2.70164 -0.14377,0.009 -0.28305,0.0136 -0.41907,0.0139 z m 0.10697,-2.49701 c 0.24072,-0.004 0.50189,-0.0424 0.78287,-0.11679 0.74933,-0.19833 1.59629,-0.65763 2.36162,-1.2795 1.53067,-1.24376 2.67094,-3.13285 2.56625,-4.58008 -0.0393,-0.54388 -0.16521,-0.76456 -0.34777,-0.90434 -0.18259,-0.13978 -0.55599,-0.25306 -1.23042,-0.21859 -0.76152,0.0389 -0.83336,0.061 -1.67174,0.47645 -1.09456,0.54238 -2.26714,1.5828 -3.0334,2.71508 -0.23743,0.35087 -0.41478,0.59743 -0.61907,0.80099 -0.20272,0.20195 -0.49136,0.37029 -0.7793,0.40617 0.0907,0.0693 0.22259,0.0481 0.28321,0.14418 0.21815,0.34594 0.23079,0.67766 0.23254,1.06092 0,0.24988 0.07,0.56463 0.17206,0.81235 0.10205,0.24772 0.26199,0.41867 0.25789,0.416 0.28059,0.183 0.62404,0.27347 1.02526,0.26716 z m 17.939966,-0.1974 c 0.63933,10e-4 0.99314,-0.10703 1.13998,-0.22014 0.16785,-0.12927 0.27863,-0.34227 0.27906,-0.97255 0,-1.17186 -0.64053,-2.53014 -1.93734,-3.80856 -0.80301,-0.79162 -1.20729,-1.07302 -2.22054,-1.54719 -0.56123,-0.26263 -0.80184,-0.32178 -1.45314,-0.35553 -0.5224,-0.0271 -0.8163,0.0239 -0.97256,0.0961 -0.15623,0.0723 -0.25892,0.16637 -0.42373,0.48007 -0.20931,0.39826 -0.19058,0.3131 -0.13901,0.91209 0.14745,1.71368 1.82896,4.03036 3.75997,4.98471 0.75229,0.3718 0.7965,0.38168 1.67587,0.42375 0.10321,0.005 0.20013,0.007 0.29144,0.007 z M -40.976629,91.70297 c -0.12568,-0.007 -0.25477,-0.0328 -0.38756,-0.0832 -0.26559,-0.10084 -0.50062,-0.33818 -0.6072,-0.59169 -0.1066,-0.25352 -0.11702,-0.50771 -0.0879,-0.75809 0.0277,-0.23763 0.16513,-0.55036 0.3633,-0.74415 0.19818,-0.19378 0.41029,-0.30884 0.68729,-0.4532 l 0.99994,-0.52348 v 0.2775 c 0.85616,-0.18026 1.7409,-0.17046 2.539386,0.23823 0.40709,0.20838 0.71093,0.37942 0.95858,0.68575 0.12383,0.15316 0.23493,0.36511 0.2522,0.60719 0.0172,0.24209 -0.0661,0.47396 -0.17002,0.63872 -0.17581,0.27871 -0.46852,0.59946 -0.89246,0.66612 -0.42395,0.0666 -0.737736,-0.083 -1.072276,-0.25012 -0.53843,-0.26891 -1.18126,-0.24433 -1.51567,-0.047 -0.34205,0.20181 -0.69059,0.35747 -1.06764,0.33745 z"
       style="opacity:0.97000002;fill:#000000;stroke:none;stroke-width:1.36996043;stroke-miterlimit:4;stroke-dasharray:none;stroke-opacity:1"
       inkscape:connector-curvature="0" />
    <path
       inkscape:tile-y0="9.8660001"
       inkscape:tile-x0="14.761119"
       id="use9363"
       d="m -39.7121,149.37516 c 1.03756,0.004 2.08282,0.0735 2.86596,0.20773 7.09549,1.21594 12.76726,6.93251 13.887,14.00225 0.30645,1.93483 0.20744,4.68235 -0.24598,6.48023 -0.98676,3.9128 -3.10189,7.82475 -5.69526,10.98641 -2.59334,3.16166 -5.65462,5.58979 -8.67026,6.43578 l -1.13843,0.31833 0.076,-0.30075 c -1.03601,0.13372 -2.14593,0.27414 -3.072156,0.0506 -0.56335,-0.13594 -1.4392,-0.48601 -2.15802,-0.83199 -5.78184,-2.78292 -11.38664,-10.64741 -12.677776,-17.63872 -0.293027,-1.58651 -0.291809,-4.10354 0,-5.70715 0.425476,-2.3383 1.407446,-4.7236 2.744016,-6.66006 0.39511,-0.57244 0.67564,-0.95092 0.97669,-1.23041 0.15052,-0.13976 0.31271,-0.26123 0.5271,-0.33797 0.18452,-0.0661 0.4019,-0.0518 0.59169,-0.0119 0,-0.004 -0.005,-0.006 -0.006,-0.01 -0.0684,-0.23497 -0.0391,-0.50968 0.045,-0.71469 0.16819,-0.41 0.44701,-0.65077 0.82994,-0.98081 2.30571,-1.98727 5.17864,-3.32249 8.30078,-3.86695 0.7521,-0.13114 1.781886,-0.1938 2.819476,-0.19017 z m -0.27183,2.53679 c -3.238346,0.0464 -6.477346,1.22473 -9.049576,3.33313 -0.43579,0.3572 -0.72755,0.59704 -1.13069,0.72864 -0.19466,0.0636 -0.43868,0.0783 -0.66196,0.0176 0.0703,0.26008 0.13073,0.578 0.0233,0.82424 -0.13544,0.31043 -0.33409,0.57248 -0.64855,0.98444 -2.27959,2.98645 -3.26816,7.38119 -2.5001,11.17967 1.18007,5.83607 6.27192,12.90229 10.96677,15.33757 1.37054,0.71092 2.524676,0.98845 3.699506,0.8847 1.17483,-0.10374 2.41162,-0.6008 3.89072,-1.57768 4.25839,-2.81243 8.43452,-8.88778 9.71879,-14.18363 0.27117,-1.11822 0.39325,-4.05572 0.21084,-5.30304 -0.70342,-4.81078 -3.95002,-9.02397 -8.51574,-11.0293 -1.62396,-0.71325 -2.68801,-0.97797 -4.6173,-1.14618 -0.46064,-0.0402 -0.92334,-0.0568 -1.38597,-0.0501 z m -8.956036,12.87984 c 0.16306,-0.003 0.32853,5.3e-4 0.49453,0.0119 0.66405,0.045 1.33921,0.20398 1.93942,0.44906 2.24187,0.91543 4.05514,2.62182 5.11133,4.49224 1.056186,1.87042 1.387416,3.99416 0.340006,5.60948 -0.475396,0.73317 -1.194796,1.21203 -2.129046,1.46296 l -0.86352,0.23254 v -0.20929 c -0.49154,0.0513 -0.97197,0.16119 -1.53117,0.0429 -2.53015,-0.53528 -5.21015,-2.70786 -6.35362,-5.11131 -0.61407,-1.29073 -0.84807,-2.29064 -0.7674,-3.41375 0.11089,-1.54451 0.98983,-2.78666 2.38694,-3.32021 0.41383,-0.15804 0.88331,-0.2363 1.37253,-0.2465 z m 18.253646,0.0388 c 0.95224,-0.003 1.72046,0.20936 2.389,0.69401 0.86167,0.62462 1.31109,1.65753 1.47072,2.60553 0.0798,0.474 0.091,0.93115 -0.0625,1.37304 -0.13812,0.39764 -0.55989,0.76513 -1.04646,0.84336 0.1107,0.12069 0.24093,0.24125 0.293,0.35554 0.0831,0.18233 0.16605,0.46733 0.12507,0.74052 -0.041,0.27319 -0.14324,0.4605 -0.26768,0.69505 -1.12347,2.11778 -3.58576,4.15086 -5.78932,4.70927 -0.89897,0.22782 -2.1078,0.1939 -3.00395,-0.0744 -0.83256,-0.24928 -1.52365,-0.79911 -1.99575,-1.56269 -0.17809,-0.28805 -0.32848,-0.55871 -0.39841,-0.89607 -0.0699,-0.33737 -0.0687,-0.66821 -0.0667,-1.21285 0.007,-2.08932 0.78523,-3.66981 2.67012,-5.5547 1.74567,-1.74567 3.32938,-2.58056 5.26378,-2.70164 0.14377,-0.009 0.28305,-0.0135 0.41907,-0.0139 z m -0.10697,2.497 c -0.24072,0.004 -0.50189,0.0424 -0.78287,0.11679 -0.74933,0.19834 -1.59629,0.65763 -2.36162,1.27951 -1.53067,1.24376 -2.67094,3.13285 -2.56625,4.58008 0.0393,0.54388 0.16521,0.76456 0.34777,0.90434 0.18259,0.13978 0.55599,0.25306 1.23042,0.21859 0.76152,-0.0389 0.83336,-0.061 1.67174,-0.47645 1.09456,-0.54238 2.26714,-1.5828 3.0334,-2.71508 0.23743,-0.35087 0.41478,-0.59743 0.61907,-0.80099 0.20272,-0.20195 0.49136,-0.37029 0.7793,-0.40617 -0.0907,-0.0693 -0.22259,-0.0481 -0.28321,-0.14418 -0.21815,-0.34594 -0.23079,-0.67766 -0.23254,-1.06092 0,-0.24988 -0.07,-0.56463 -0.17206,-0.81236 -0.10205,-0.24771 -0.26199,-0.41866 -0.25789,-0.41599 -0.28059,-0.183 -0.62404,-0.27347 -1.02526,-0.26717 z m -17.939966,0.19741 c -0.63933,-0.001 -0.99314,0.10703 -1.13998,0.22014 -0.16785,0.12927 -0.27863,0.34227 -0.27906,0.97255 0,1.17186 0.64053,2.53014 1.93734,3.80856 0.80301,0.79162 1.20729,1.07302 2.22054,1.54719 0.56123,0.26263 0.80184,0.32178 1.45314,0.35553 0.5224,0.0271 0.8163,-0.0239 0.97256,-0.0961 0.15623,-0.0723 0.25892,-0.16637 0.42373,-0.48007 0.20931,-0.39826 0.19058,-0.3131 0.13901,-0.91209 -0.14745,-1.71368 -1.82896,-4.03037 -3.75997,-4.98471 -0.75229,-0.37181 -0.7965,-0.38168 -1.67587,-0.42375 -0.10321,-0.005 -0.20013,-0.007 -0.29144,-0.007 z m 10.736286,11.03137 c 0.12568,0.007 0.25477,0.0328 0.38756,0.0832 0.26559,0.10084 0.50062,0.33818 0.6072,0.59169 0.1066,0.25352 0.11702,0.50771 0.0879,0.75809 -0.0277,0.23763 -0.16513,0.55036 -0.3633,0.74415 -0.19818,0.19378 -0.41029,0.30884 -0.68729,0.4532 l -0.99994,0.52348 v -0.2775 c -0.85616,0.18026 -1.7409,0.17046 -2.539386,-0.23823 -0.40709,-0.20838 -0.71093,-0.37942 -0.95858,-0.68575 -0.12383,-0.15316 -0.23493,-0.36511 -0.2522,-0.60719 -0.0172,-0.24209 0.0661,-0.47396 0.17002,-0.63872 0.17581,-0.27871 0.46852,-0.59946 0.89246,-0.66612 0.42395,-0.0666 0.737736,0.083 1.072276,0.25012 0.53843,0.26891 1.18126,0.24433 1.51567,0.047 0.34205,-0.20181 0.69059,-0.35747 1.06764,-0.33745 z"
       style="opacity:0.97000002;fill:#000000;stroke:none;stroke-width:1.36996043;stroke-miterlimit:4;stroke-dasharray:none;stroke-opacity:1"
       inkscape:connector-curvature="0" />
  </g>
</svg>
