<?xml version="1.0" encoding="UTF-8" standalone="no"?>
<!-- Created with Inkscape (http://www.inkscape.org/) -->

<svg
   xmlns:dc="http://purl.org/dc/elements/1.1/"
   xmlns:cc="http://creativecommons.org/ns#"
   xmlns:rdf="http://www.w3.org/1999/02/22-rdf-syntax-ns#"
   xmlns:svg="http://www.w3.org/2000/svg"
   xmlns="http://www.w3.org/2000/svg"
   xmlns:sodipodi="http://sodipodi.sourceforge.net/DTD/sodipodi-0.dtd"
   xmlns:inkscape="http://www.inkscape.org/namespaces/inkscape"
   width="145.88745mm"
   height="135.67073mm"
   viewBox="0 0 145.88745 135.67073"
   version="1.1"
   id="svg8430"
   inkscape:version="0.92.5 (2060ec1f9f, 2020-04-08)"
   sodipodi:docname="thriller-pattern.svg">
  <defs
     id="defs8424" />
  <sodipodi:namedview
     id="base"
     pagecolor="#ffffff"
     bordercolor="#666666"
     borderopacity="1.0"
     inkscape:pageopacity="0.0"
     inkscape:pageshadow="2"
     inkscape:zoom="0.35"
     inkscape:cx="-61.995544"
     inkscape:cy="455.97367"
     inkscape:document-units="mm"
     inkscape:current-layer="layer1"
     showgrid="false"
     fit-margin-top="15"
     fit-margin-left="15"
     fit-margin-right="15"
     fit-margin-bottom="15"
     inkscape:window-width="1920"
     inkscape:window-height="1016"
     inkscape:window-x="0"
     inkscape:window-y="27"
     inkscape:window-maximized="1" />
  <metadata
     id="metadata8427">
    <rdf:RDF>
      <cc:Work
         rdf:about="">
        <dc:format>image/svg+xml</dc:format>
        <dc:type
           rdf:resource="http://purl.org/dc/dcmitype/StillImage" />
        <dc:title></dc:title>
      </cc:Work>
    </rdf:RDF>
  </metadata>
  <g
     inkscape:label="Calque 1"
     inkscape:groupmode="layer"
     id="layer1"
     transform="translate(133.05285,-70.368345)">
    <path
       inkscape:tile-y0="-40.543755"
       inkscape:tile-x0="8.7268277"
       inkscape:connector-curvature="0"
       id="use9307"
       d="m -92.100072,129.72916 c -0.69404,-0.37658 -0.72057,-0.55566 -0.72057,-4.86352 v -3.94629 l -2.258023,2.22073 c -1.24387,1.22333 -2.65446,2.48456 -3.1407,2.80815 -3.624055,2.41181 -9.611435,2.40644 -16.628755,-0.0149 -2.3222,-0.80129 -2.82188,-1.05482 -3.05901,-1.55209 -0.12945,-0.27145 -0.17624,-0.56476 -0.12589,-0.7891 0.0581,-0.25886 4.45625,-4.71518 15.99118,-16.20268 l 15.911019,-15.845608 0.626309,-0.004 0.626311,-0.004 2.65608,2.65824 2.656089,2.65824 v 0.62491 0.6249 l -3.876059,3.874538 -3.87605,3.87455 2.066509,2.0692 c 2.737591,2.74114 2.744211,2.77903 0.817992,4.68231 l -1.009431,0.99741 v 4.04381 c 0,2.73196 -0.0453,4.13241 -0.139681,4.31693 -0.40377,0.78953 -1.382149,0.95879 -1.995689,0.34527 l -0.365501,-0.36551 v -2.91441 -2.91441 l -1.187929,1.18297 -1.18791,1.18297 v 5.29378 c 0,3.39167 -0.0463,5.38021 -0.128741,5.53435 -0.14854,0.27756 -0.75501,0.62061 -1.084209,0.61328 -0.123771,-0.003 -0.379071,-0.0886 -0.567341,-0.19073 z m -10.101858,-4.81262 c 0.5829,-0.13924 1.48321,-0.45467 2.00069,-0.70095 0.901415,-0.42902 1.217585,-0.72372 7.540708,-7.02884 l 6.599831,-6.58104 -3.900961,-3.81384 c -2.14553,-2.0976 -3.93834,-3.81383 -3.98401,-3.81383 -0.0457,0 -4.705143,4.58459 -10.354378,10.18798 -6.77333,6.71835 -10.21744,10.21814 -10.11307,10.27654 0.36972,0.20691 3.16973,0.98997 4.60006,1.28647 2.98942,0.6197 5.53884,0.68251 7.61113,0.18751 z m -3.35436,-4.93597 c -0.43625,-0.36708 -0.59809,-0.92166 -0.38916,-1.33351 0.27717,-0.54635 10.038925,-10.22348 10.449625,-10.35903 0.775153,-0.25585 1.549793,0.3354 1.549793,1.1829 0,0.49999 -0.063,0.56916 -5.159723,5.6659 -4.916495,4.91649 -5.181305,5.15973 -5.617375,5.15973 -0.30701,0 -0.58123,-0.104 -0.83316,-0.31599 z m 19.833258,-19.22343 3.282011,-3.283758 -1.533631,-1.52995 -1.533639,-1.52995 -3.31089,3.31266 -3.310881,3.312648 1.497141,1.50106 c 0.823439,0.82558 1.52657,1.50106 1.562508,1.50106 0.036,0 1.542272,-1.4777 3.347381,-3.28377 z m -1.422119,26.66938 c -0.42259,-0.17074 -0.798791,-0.74385 -0.798791,-1.21688 0,-0.99688 1.360051,-1.56335 2.063811,-0.85959 0.61028,0.61027 0.53094,1.43257 -0.185031,1.91768 -0.44105,0.29883 -0.655399,0.33035 -1.079989,0.15879 z"
       style="fill:#000000;stroke-width:0.12504344" />
    <path
       inkscape:tile-y0="-40.543755"
       inkscape:tile-x0="8.7268277"
       inkscape:connector-curvature="0"
       id="use9309"
       d="m -105.27687,152.84577 c 0.69404,0.37658 0.72057,0.55566 0.72057,4.86352 v 3.94629 l 2.25802,-2.22073 c 1.24387,-1.22333 2.654459,-2.48456 3.140699,-2.80815 3.62406,-2.41181 9.611433,-2.40644 16.628753,0.0149 2.3222,0.80129 2.82188,1.05482 3.05901,1.55209 0.12945,0.27145 0.17624,0.56476 0.12589,0.7891 -0.0581,0.25886 -4.45625,4.71518 -15.991173,16.20268 l -15.911029,15.84561 -0.6263,0.004 -0.62632,0.004 -2.65608,-2.65824 -2.65608,-2.65824 v -0.62491 -0.6249 l 3.87605,-3.87454 3.87605,-3.87455 -2.0665,-2.0692 c -2.73759,-2.74114 -2.74421,-2.77903 -0.818,-4.68231 l 1.00943,-0.99741 v -4.04381 c 0,-2.73196 0.0453,-4.13241 0.13969,-4.31693 0.40377,-0.78953 1.38214,-0.95879 1.99568,-0.34527 l 0.36551,0.36551 v 2.91441 2.91441 l 1.18792,-1.18297 1.18791,-1.18297 v -5.29378 c 0,-3.39167 0.0463,-5.38021 0.12875,-5.53435 0.14854,-0.27756 0.75501,-0.62061 1.0842,-0.61328 0.12378,0.003 0.37908,0.0886 0.56735,0.19073 z m 10.101859,4.81262 c -0.5829,0.13924 -1.48321,0.45467 -2.00069,0.70095 -0.90142,0.42902 -1.21759,0.72372 -7.540709,7.02884 l -6.59983,6.58104 3.90096,3.81384 c 2.14553,2.0976 3.93834,3.81383 3.98401,3.81383 0.0457,0 4.705139,-4.58459 10.354372,-10.18798 6.77333,-6.71835 10.21744,-10.21814 10.11307,-10.27654 -0.36972,-0.20691 -3.16973,-0.98997 -4.60006,-1.28647 -2.98942,-0.6197 -5.53884,-0.68251 -7.611123,-0.18751 z m 3.354353,4.93597 c 0.43625,0.36708 0.59809,0.92166 0.38916,1.33351 -0.27717,0.54635 -10.038922,10.22348 -10.449622,10.35903 -0.77515,0.25585 -1.54979,-0.3354 -1.54979,-1.1829 0,-0.49999 0.063,-0.56916 5.159719,-5.6659 4.916493,-4.91649 5.181303,-5.15973 5.617373,-5.15973 0.30701,0 0.58123,0.104 0.83316,0.31599 z m -19.833252,19.22343 -3.28201,3.28376 1.53363,1.52995 1.53363,1.52995 3.31089,-3.31266 3.31089,-3.31265 -1.49715,-1.50106 c -0.82343,-0.82558 -1.52657,-1.50106 -1.5625,-1.50106 -0.036,0 -1.54228,1.4777 -3.34738,3.28377 z m 1.42211,-26.66938 c 0.42259,0.17074 0.7988,0.74385 0.7988,1.21688 0,0.99688 -1.36006,1.56335 -2.06382,0.85959 -0.61028,-0.61027 -0.53094,-1.43257 0.18504,-1.91768 0.44105,-0.29883 0.65539,-0.33035 1.07998,-0.15879 z"
       style="fill:#000000;stroke-width:0.12504344" />
    <path
       inkscape:tile-y0="-40.543755"
       inkscape:tile-x0="8.7268277"
       inkscape:connector-curvature="0"
       id="use9311"
       d="m -20.436831,85.55848 c -0.69404,0.37658 -0.72057,0.55566 -0.72057,4.86352 v 3.94629 l -2.258023,-2.22073 c -1.24387,-1.22333 -2.65446,-2.48456 -3.1407,-2.80815 -3.62406,-2.41181 -9.611433,-2.40644 -16.628753,0.0149 -2.3222,0.80129 -2.82188,1.05482 -3.05901,1.55209 -0.12945,0.27145 -0.17624,0.56476 -0.12589,0.7891 0.0581,0.25886 4.45625,4.71518 15.991173,16.20268 l 15.911024,15.84561 0.626309,0.004 0.626311,0.004 2.65608,-2.65824 2.656089,-2.65824 v -0.62491 -0.6249 l -3.876059,-3.87454 -3.87605,-3.87455 2.066509,-2.0692 c 2.737591,-2.74114 2.744211,-2.77903 0.817992,-4.68231 l -1.009431,-0.99741 v -4.04381 c 0,-2.73196 -0.0453,-4.13241 -0.139681,-4.31693 -0.40377,-0.78953 -1.382149,-0.95879 -1.995689,-0.34527 l -0.365501,0.36551 v 2.91441 2.91441 l -1.187929,-1.18297 -1.18791,-1.18297 v -5.29378 c 0,-3.39167 -0.0463,-5.38021 -0.128741,-5.53435 -0.14854,-0.27756 -0.75501,-0.62061 -1.084209,-0.61328 -0.123771,0.003 -0.379071,0.0886 -0.567341,0.19073 z m -10.101863,4.81262 c 0.5829,0.13924 1.48321,0.45467 2.00069,0.70095 0.90142,0.42902 1.21759,0.72372 7.540713,7.02884 l 6.599831,6.58104 -3.900961,3.81384 c -2.14553,2.0976 -3.93834,3.81383 -3.98401,3.81383 -0.0457,0 -4.705143,-4.58459 -10.354376,-10.18798 -6.77333,-6.71835 -10.21744,-10.21814 -10.11307,-10.27654 0.36972,-0.20691 3.16973,-0.98997 4.60006,-1.28647 2.98942,-0.6197 5.53884,-0.68251 7.611123,-0.18751 z m -3.354353,4.93597 c -0.43625,0.36708 -0.59809,0.92166 -0.38916,1.33351 0.27717,0.54635 10.038923,10.22348 10.449623,10.35903 0.775153,0.25585 1.549793,-0.3354 1.549793,-1.1829 0,-0.49999 -0.063,-0.56916 -5.159723,-5.6659 -4.916493,-4.91649 -5.181303,-5.15973 -5.617373,-5.15973 -0.30701,0 -0.58123,0.104 -0.83316,0.31599 z m 19.833256,19.22343 3.282011,3.28376 -1.533631,1.52995 -1.533639,1.52995 -3.31089,-3.31266 -3.310881,-3.31265 1.497141,-1.50106 c 0.823439,-0.82558 1.52657,-1.50106 1.562508,-1.50106 0.036,0 1.542272,1.4777 3.347381,3.28377 z M -15.48191,87.86112 c -0.42259,0.17074 -0.798791,0.74385 -0.798791,1.21688 0,0.99688 1.360051,1.56335 2.063811,0.85959 0.61028,-0.61027 0.53094,-1.43257 -0.185031,-1.91768 -0.44105,-0.29883 -0.655399,-0.33035 -1.079989,-0.15879 z"
       style="fill:#000000;stroke-width:0.12504344" />
    <path
       inkscape:tile-y0="-40.543755"
       inkscape:tile-x0="8.7268277"
       inkscape:connector-curvature="0"
       id="use9313"
       d="m -28.118186,190.23632 c 0.69404,-0.37658 0.72057,-0.55566 0.72057,-4.86352 v -3.94629 l 2.258023,2.22073 c 1.24387,1.22333 2.65446,2.48456 3.1407,2.80815 3.62406,2.41181 9.611433,2.40644 16.628753,-0.0149 2.3222,-0.80129 2.82188,-1.05482 3.05901,-1.55209 0.12945,-0.27145 0.17624,-0.56476 0.12589,-0.7891 -0.0581,-0.25886 -4.45625,-4.71518 -15.991173,-16.20268 l -15.911024,-15.84562 -0.626309,-0.004 -0.626311,-0.004 -2.65608,2.65824 -2.656089,2.65824 v 0.62491 0.6249 l 3.876059,3.87454 3.87605,3.87456 -2.066509,2.0692 c -2.737591,2.74114 -2.744211,2.77903 -0.817992,4.68231 l 1.009431,0.99741 v 4.04381 c 0,2.73196 0.0453,4.13241 0.139681,4.31693 0.40377,0.78953 1.382149,0.95879 1.995689,0.34527 l 0.365501,-0.36551 v -2.91441 -2.91441 l 1.187929,1.18297 1.18791,1.18297 v 5.29378 c 0,3.39167 0.0463,5.38021 0.128741,5.53435 0.14854,0.27756 0.75501,0.62061 1.084209,0.61328 0.123771,-0.003 0.379071,-0.0886 0.567341,-0.19073 z m 10.101863,-4.81262 c -0.5829,-0.13924 -1.48321,-0.45467 -2.00069,-0.70095 -0.90142,-0.42902 -1.21759,-0.72372 -7.540713,-7.02884 l -6.599831,-6.58104 3.900961,-3.81384 c 2.14553,-2.0976 3.93834,-3.81384 3.98401,-3.81384 0.0457,0 4.705143,4.5846 10.354376,10.18799 6.77333,6.71835 10.21744,10.21814 10.11307,10.27654 -0.36972,0.20691 -3.16973,0.98997 -4.60006,1.28647 -2.98942,0.6197 -5.53884,0.68251 -7.611123,0.18751 z m 3.354353,-4.93597 c 0.43625,-0.36708 0.59809,-0.92166 0.38916,-1.33351 -0.27717,-0.54635 -10.038923,-10.22348 -10.449623,-10.35903 -0.775153,-0.25585 -1.549793,0.3354 -1.549793,1.1829 0,0.49999 0.063,0.56916 5.159723,5.6659 4.916493,4.91649 5.181303,5.15973 5.617373,5.15973 0.30701,0 0.58123,-0.104 0.83316,-0.31599 z m -19.833256,-19.22344 -3.282011,-3.28376 1.533631,-1.52995 1.533639,-1.52995 3.31089,3.31266 3.310881,3.31266 -1.497141,1.50106 c -0.823439,0.82558 -1.52657,1.50105 -1.562508,1.50105 -0.036,0 -1.542272,-1.4777 -3.347381,-3.28377 z m 1.422119,26.66939 c 0.42259,-0.17074 0.798791,-0.74385 0.798791,-1.21688 0,-0.99688 -1.360051,-1.56335 -2.063811,-0.85959 -0.61028,0.61027 -0.53094,1.43257 0.185031,1.91768 0.44105,0.29883 0.655399,0.33035 1.079989,0.15879 z"
       style="fill:#000000;stroke-width:0.12504344" />
  </g>
</svg>
