<?xml version="1.0" encoding="UTF-8" standalone="no"?>
<!-- Created with Inkscape (http://www.inkscape.org/) -->

<svg
   xmlns:dc="http://purl.org/dc/elements/1.1/"
   xmlns:cc="http://creativecommons.org/ns#"
   xmlns:rdf="http://www.w3.org/1999/02/22-rdf-syntax-ns#"
   xmlns:svg="http://www.w3.org/2000/svg"
   xmlns="http://www.w3.org/2000/svg"
   xmlns:sodipodi="http://sodipodi.sourceforge.net/DTD/sodipodi-0.dtd"
   xmlns:inkscape="http://www.inkscape.org/namespaces/inkscape"
   width="142.93678mm"
   height="108.33163mm"
   viewBox="0 0 142.93679 108.33163"
   version="1.1"
   id="svg8430"
   inkscape:version="0.92.5 (2060ec1f9f, 2020-04-08)"
   sodipodi:docname="war-pattern.svg">
  <defs
     id="defs8424" />
  <sodipodi:namedview
     id="base"
     pagecolor="#ffffff"
     bordercolor="#666666"
     borderopacity="1.0"
     inkscape:pageopacity="0.0"
     inkscape:pageshadow="2"
     inkscape:zoom="0.35"
     inkscape:cx="57.075049"
     inkscape:cy="556.99103"
     inkscape:document-units="mm"
     inkscape:current-layer="layer1"
     showgrid="false"
     fit-margin-top="15"
     fit-margin-left="15"
     fit-margin-right="15"
     fit-margin-bottom="15"
     inkscape:window-width="1920"
     inkscape:window-height="1016"
     inkscape:window-x="0"
     inkscape:window-y="27"
     inkscape:window-maximized="1" />
  <metadata
     id="metadata8427">
    <rdf:RDF>
      <cc:Work
         rdf:about="">
        <dc:format>image/svg+xml</dc:format>
        <dc:type
           rdf:resource="http://purl.org/dc/dcmitype/StillImage" />
        <dc:title></dc:title>
      </cc:Work>
    </rdf:RDF>
  </metadata>
  <g
     inkscape:label="Calque 1"
     inkscape:groupmode="layer"
     id="layer1"
     transform="translate(164.55695,-124.43495)">
    <path
       inkscape:tile-y0="4.7853402"
       inkscape:tile-x0="11.75048"
       id="use9090"
       d="m -129.20987,141.49143 c -0.9212,0 -1.84303,0.0123 -2.5549,0.0408 -0.35591,0.0142 -0.65682,0.0321 -0.89037,0.0548 -0.11679,0.0114 -0.21609,0.0235 -0.30697,0.0408 -0.0454,0.009 -0.0876,0.0177 -0.14055,0.0351 -0.0529,0.0174 -0.11578,0.0182 -0.24029,0.14262 -0.18804,0.18788 -0.14978,0.24624 -0.16796,0.31833 -0.0183,0.0721 -0.0297,0.14121 -0.0408,0.21911 -0.0222,0.15581 -0.0385,0.34151 -0.0527,0.5426 -0.0284,0.40219 -0.0429,0.86048 -0.0429,1.18752 v 0.5178 h -0.32247 c -0.25247,0 -0.49731,0.018 -0.70692,0.0506 -0.1048,0.0163 -0.19904,0.0361 -0.29302,0.0646 -0.094,0.0284 -0.18296,0.0324 -0.33589,0.18552 -0.0766,0.0766 -0.0779,0.0962 -0.0956,0.12506 -0.0177,0.0289 -0.0325,0.0548 -0.0491,0.0858 -0.0333,0.062 -0.072,0.13851 -0.11679,0.23048 -0.0896,0.18393 -0.20381,0.43326 -0.34002,0.73277 -0.27244,0.59902 -0.6269,1.39875 -0.99634,2.26136 l -1.20663,2.8205 h -1.387 -1.85518 l -2.47271,1.42575 -2.60348,1.50379 -0.0372,2.43344 c -0.009,0.59871 -0.003,1.16416 0.0135,1.5999 0.008,0.21787 0.0193,0.40261 0.0336,0.55087 0.007,0.0741 0.014,0.13771 0.0254,0.20102 0.0114,0.0633 -0.0116,0.0966 0.0956,0.26355 0.19651,0.30602 0.38989,0.31276 0.59375,0.36742 0.20387,0.0547 0.43815,0.0896 0.70694,0.10904 0.29335,0.0212 0.42913,0.0487 0.47078,0.0589 0.0217,0.049 0.0428,0.1 0.0703,0.15038 0.0419,0.0767 0.0964,0.17247 0.16433,0.28887 0.13589,0.23279 0.32441,0.5456 0.55243,0.91984 0.45601,0.74848 1.06976,1.7415 1.73633,2.79725 1.3091,2.07344 2.09907,3.27591 2.75383,4.05866 0.65477,0.78275 1.22484,1.15072 1.8986,1.40974 l 0.0156,0.006 0.0175,0.004 0.40616,0.12661 0.0434,0.006 c 0.28533,0.036 0.50626,0.0788 1.71048,0.10749 1.20425,0.0287 3.43395,0.0471 7.87551,0.0506 4.51387,0.003 6.81617,0.005 8.09924,-0.0294 1.28307,-0.0345 1.64528,-0.13 2.01745,-0.26924 0.6908,-0.25846 1.28312,-0.64786 1.95749,-1.44745 0.67437,-0.79959 1.47505,-2.01544 2.75952,-4.05454 0.63736,-1.01178 1.23225,-1.96966 1.67587,-2.70112 0.22181,-0.36573 0.40609,-0.67597 0.54105,-0.90847 0.0675,-0.11625 0.12115,-0.2126 0.16383,-0.29094 0.0426,-0.0783 0.0656,-0.10815 0.10388,-0.21498 0.003,-0.008 0.003,-0.008 0.004,-0.0145 0.0453,-0.008 0.18521,-0.0351 0.47284,-0.0558 0.26799,-0.0194 0.49956,-0.0528 0.70281,-0.10749 0.20323,-0.0548 0.39915,-0.0634 0.59375,-0.37103 0.0999,-0.15861 0.0824,-0.19408 0.0941,-0.2558 0.0119,-0.0621 0.0188,-0.12619 0.0269,-0.19947 0.0161,-0.14655 0.0301,-0.32901 0.0413,-0.54467 0.0225,-0.43132 0.0367,-0.98996 0.0372,-1.58234 0,-0.94931 -0.003,-1.48076 -0.0393,-1.84329 -0.0185,-0.18126 -0.041,-0.32648 -0.11317,-0.48266 -0.0722,-0.15618 -0.23333,-0.30496 -0.35192,-0.36535 -0.11358,-0.0578 -0.17039,-0.0707 -0.28681,-0.10904 -0.11641,-0.0384 -0.26156,-0.084 -0.4315,-0.13488 -0.33984,-0.10168 -0.77325,-0.22509 -1.22111,-0.34571 l -1.89447,-0.51005 -0.47437,0.47491 c -0.14716,0.14716 -0.27257,0.31182 -0.33435,0.5271 -0.0618,0.21527 -0.0266,0.48324 0.0899,0.67592 0.23313,0.3854 0.60994,0.52746 1.08212,0.66043 0.39156,0.11026 1.03648,0.29225 1.43351,0.40411 l 0.35552,0.0997 v 0.98598 0.86351 h -9.56632 c -3.82964,0 -6.35842,0.0106 -7.94941,0.0351 -0.7955,0.0122 -1.35432,0.0275 -1.73427,0.0486 -0.18994,0.0106 -0.33385,0.0215 -0.45111,0.0372 -0.0586,0.008 -0.11068,0.0162 -0.17002,0.0315 -0.0593,0.0154 -0.12187,-0.005 -0.27906,0.15193 -0.22116,0.22118 -0.33692,0.55283 -0.28731,0.85576 0.0496,0.30292 0.23879,0.55746 0.48834,0.73225 0.34589,0.24231 0.67612,0.23081 1.69344,0.25994 0.007,1.9e-4 0.0306,-1.8e-4 0.0372,0 -0.31334,0.0724 -0.68281,0.0426 -1.06868,0.23254 -0.64566,0.31785 -1.19702,0.73655 -1.67171,1.26918 l -0.2522,0.28163 c -1.7629,-2.35216 -5.25434,-2.74798 -7.53907,-0.75602 -0.35025,0.30537 -0.68463,0.77626 -0.97824,1.25573 -0.13399,0.2188 -0.24813,0.43173 -0.34364,0.63459 -0.0832,-0.11459 -0.0889,-0.10105 -0.18966,-0.25942 -0.1837,-0.2886 -0.35089,-0.55362 -0.47077,-0.74827 -0.0524,-0.085 -0.0921,-0.14907 -0.12298,-0.20102 v -0.004 l -0.0661,-0.1173 c -0.20807,-0.36414 -0.21855,-0.579 -0.1819,-0.71469 0.0366,-0.13568 0.13964,-0.26377 0.37515,-0.39843 0.4699,-0.26862 1.39763,-0.42745 2.2929,-0.43924 h 0.87281 c 1.14422,0 1.72858,-0.97307 1.72858,-0.97307 l 0.0863,-0.14625 -0.11369,-0.99787 -4.61317,-0.0393 -3.65402,-0.031 0.0233,-0.94361 0.0294,-1.17357 1.65415,-0.95705 1.7813,-1.03146 11.07787,-0.002 11.14867,-0.002 1.75596,0.46715 c 0.98623,0.26246 1.52305,0.41246 2.00557,0.38654 0.24127,-0.013 0.52556,-0.11472 0.69143,-0.32401 0.16587,-0.20928 0.19574,-0.42312 0.2186,-0.6134 0.0156,-0.13027 0.0418,-0.32833 -0.0641,-0.5488 -0.10594,-0.22046 -0.29951,-0.35234 -0.49403,-0.44545 -0.38907,-0.18623 -0.94679,-0.32778 -2.03346,-0.61547 -1.39943,-0.37048 -2.12616,-0.48989 -3.03342,-0.48989 -0.50117,0 -0.72221,-0.0197 -0.77515,-0.0253 0,-0.002 0,-1.1e-4 0,-0.002 -0.014,-0.039 -0.0296,-0.0733 -0.045,-0.11524 0.32962,-0.0176 0.7955,-0.0295 1.82211,-0.0295 1.21512,0 1.86507,0.006 2.16627,0.0351 0.14198,0.0138 0.18238,0.034 0.16227,0.0233 0.0702,0.1017 0.17328,0.24174 0.32814,0.30902 0.18624,0.0809 0.36054,0.10024 0.61497,0.11886 0.50882,0.0372 1.36199,0.0372 3.01739,0.0372 1.25476,0 2.13016,-0.009 2.7192,-0.0351 0.29451,-0.0129 0.51718,-0.0287 0.69297,-0.0527 0.0879,-0.012 0.16272,-0.0265 0.24238,-0.0491 0.0796,-0.0226 0.16854,-0.0316 0.30488,-0.16795 0.12623,-0.12625 0.13642,-0.2027 0.15968,-0.27337 0.0233,-0.0707 0.0383,-0.13639 0.0512,-0.20671 0.0257,-0.14064 0.0419,-0.29999 0.0563,-0.48266 0.0289,-0.36532 0.0434,-0.81577 0.0434,-1.26762 0,-0.45185 -0.0143,-0.9023 -0.0434,-1.26762 -0.0145,-0.18266 -0.0306,-0.34358 -0.0563,-0.48421 -0.013,-0.0703 -0.0279,-0.13448 -0.0512,-0.20515 -0.0233,-0.0707 -0.0334,-0.1492 -0.15968,-0.27544 -0.13634,-0.13632 -0.22526,-0.14536 -0.30488,-0.16795 -0.0796,-0.0226 -0.15446,-0.035 -0.24238,-0.047 -0.17579,-0.024 -0.39846,-0.0399 -0.69297,-0.0527 -0.58904,-0.0257 -1.46444,-0.0367 -2.7192,-0.0367 -1.66032,0 -2.51479,0.002 -3.02308,0.0388 -0.25416,0.0188 -0.42659,0.0368 -0.61341,0.11938 -0.15155,0.067 -0.24799,0.20229 -0.31832,0.30282 0.0156,-0.008 -0.0456,0.0164 -0.22842,0.0289 -0.38766,0.0264 -1.20403,0.0209 -2.76365,0.004 l -2.89854,-0.031 -0.31625,-0.74259 c -0.12766,-0.29925 -0.26157,-0.58093 -0.37931,-0.8046 -0.0589,-0.11183 -0.1125,-0.20917 -0.16587,-0.29301 -0.0534,-0.0838 -0.0293,-0.13407 -0.25167,-0.27543 -0.15623,-0.0989 -0.21386,-0.0925 -0.29715,-0.10904 -0.0838,-0.0167 -0.17209,-0.0289 -0.2713,-0.0393 -0.19839,-0.0207 -0.43382,-0.0326 -0.67591,-0.0331 h -0.31628 v -0.51935 c 0,-0.32706 -0.0164,-0.78535 -0.045,-1.18753 -0.0143,-0.20108 -0.0306,-0.38732 -0.0527,-0.54312 -0.0111,-0.0779 -0.0233,-0.14652 -0.0413,-0.21859 -0.0182,-0.0721 0.022,-0.13042 -0.16589,-0.31833 -0.12451,-0.12452 -0.18738,-0.12525 -0.2403,-0.14262 -0.0529,-0.0174 -0.0971,-0.0264 -0.14263,-0.0351 -0.0909,-0.0173 -0.18759,-0.03 -0.30438,-0.0413 -0.23355,-0.0227 -0.5365,-0.0405 -0.89244,-0.0548 -0.71186,-0.0285 -1.63163,-0.0408 -2.55281,-0.0408 z m -2.24999,2.06602 h 2.24999 2.24793 v 0.88315 0.15038 h -2.24793 -2.24999 v -0.15038 z m 6.96854,3.221 0.54314,1.29707 c 0.37134,0.88595 0.88262,2.09421 1.14049,2.69286 l 0.16433,0.37931 h -6.56085 -6.56031 l 0.83976,-1.9513 1.01182,-2.35335 4.71495,-0.0315 z m -4.70098,0.43563 c -0.16243,0 -0.34674,0.0288 -0.51782,0.13074 -0.17108,0.10192 -0.30056,0.26934 -0.37309,0.43563 -0.14504,0.33259 -0.15607,0.68271 -0.15607,1.18339 0,0.29437 0.0164,0.5615 0.0491,0.78703 0.0164,0.11277 0.0361,0.21497 0.0661,0.31471 0.03,0.0997 0.0443,0.19831 0.18965,0.34365 0.18928,0.1893 0.45051,0.32318 0.72811,0.31833 0.27763,-0.005 0.52165,-0.14564 0.68781,-0.32246 0.33234,-0.35363 0.46665,-0.85367 0.46665,-1.44126 0,-0.42363 -0.0704,-0.80273 -0.23408,-1.12293 -0.16373,-0.32019 -0.48416,-0.62683 -0.90641,-0.62683 z m 3.14656,0 c -0.16238,0 -0.34671,0.0288 -0.51779,0.13074 -0.17108,0.10192 -0.29851,0.26934 -0.37103,0.43563 -0.14504,0.33259 -0.15814,0.68271 -0.15814,1.18339 0,0.29437 0.0159,0.5615 0.0486,0.78703 0.0164,0.11277 0.0367,0.21497 0.0667,0.31471 0.03,0.0997 0.0438,0.19831 0.18913,0.34365 0.18931,0.1893 0.45101,0.32318 0.72863,0.31833 0.27763,-0.005 0.52165,-0.14564 0.68781,-0.32246 0.33235,-0.35363 0.46871,-0.85367 0.46871,-1.44126 0,-0.42363 -0.0729,-0.80273 -0.23667,-1.12293 -0.16369,-0.32019 -0.48363,-0.62683 -0.9059,-0.62683 z m -6.31278,0.002 c -0.19359,0 -0.36457,0.0734 -0.49609,0.15606 -0.20966,0.13176 -0.35383,0.38256 -0.41188,0.61908 -0.058,0.23653 -0.0766,0.50085 -0.092,0.87902 -0.0127,0.3108 -0.01,0.58553 0.014,0.81649 0.0233,0.23095 -0.006,0.39103 0.21653,0.6599 0.21381,0.25748 0.4223,0.36742 0.76946,0.36742 0.16968,0 0.36801,-0.0364 0.53949,-0.15038 0.1715,-0.11397 0.28845,-0.2908 0.35348,-0.46302 0.13004,-0.34445 0.13023,-0.71118 0.10904,-1.23041 -0.0154,-0.37816 -0.0355,-0.64251 -0.0935,-0.87902 -0.058,-0.23651 -0.20066,-0.48731 -0.41032,-0.61908 -0.13152,-0.0826 -0.30456,-0.15606 -0.49816,-0.15606 z m 18.07435,1.40043 h 2.05465 2.05259 v 0.34726 0.34778 h -2.05259 -2.05465 v -0.34778 z m -18.33324,8.8408 c -0.11372,-0.005 -0.23069,-0.002 -0.35452,0.003 -0.30191,0.0117 -0.49268,0.0112 -0.66196,0.0253 -0.16941,0.0141 -0.39574,0.0562 -0.56433,0.22479 -0.25582,0.25584 -0.30895,0.65938 -0.21497,0.94723 0.0555,0.16992 0.196,0.27441 0.30853,0.40049 v 0.12713 l 0.21497,0.15037 c 0.5102,0.35729 1.18317,0.41819 1.76372,0.10749 0.25556,-0.1368 0.46336,-0.36109 0.55448,-0.63717 0.0911,-0.27609 0.0542,-0.58772 -0.0837,-0.84543 -0.13018,-0.24319 -0.3955,-0.40234 -0.62323,-0.45733 -0.11385,-0.0275 -0.22513,-0.0404 -0.33898,-0.0455 z m 17.06872,2.03812 c 0.20222,2e-5 0.38708,0.005 0.54208,0.0176 0.94826,0.0765 1.60578,0.29569 1.80866,0.49609 0.10144,0.1002 0.13169,0.16657 0.12454,0.33745 -0.007,0.17088 -0.0902,0.45239 -0.3121,0.82837 l -0.0703,0.11937 v 0.008 c -0.0309,0.0519 -0.0706,0.11602 -0.12298,0.20102 -0.11988,0.19466 -0.28554,0.45969 -0.46924,0.74828 -0.10104,0.15875 -0.10787,0.14519 -0.19119,0.25993 -0.0955,-0.20286 -0.20965,-0.4163 -0.34364,-0.6351 -0.29363,-0.47947 -0.62851,-0.95037 -0.97877,-1.25574 -0.58949,-0.51396 -1.26156,-0.86102 -1.96265,-1.07022 0.60351,-0.0111 1.36893,-0.0548 1.97559,-0.0548 z m -4.80745,0.0977 c -1.06014,0.2833 -2.06278,0.80494 -2.77194,1.74769 l -0.003,0.004 -0.22892,-0.2558 c -0.4699,-0.52722 -1.02272,-0.94678 -1.66606,-1.26349 -0.36139,-0.1779 -0.70844,-0.14358 -0.99994,-0.21704 0.98883,0.007 1.5825,0.0196 3.31248,0.0196 h 0.003 0.003 c 0.87276,-0.004 1.49495,-0.004 2.35181,-0.0351 z m 1.30222,1.86913 c 0.78626,8e-4 1.58663,0.32278 2.22674,0.98599 0.56462,0.58501 0.77983,1.1255 0.78705,1.99213 0.0101,1.20114 -0.59417,2.18248 -1.62266,2.66805 -0.86916,0.41036 -1.69275,0.44547 -2.39882,0.18965 -0.70604,-0.25582 -1.31236,-0.80844 -1.71254,-1.67793 -0.35174,-0.76415 -0.29671,-1.89303 0.1266,-2.61534 0.52914,-0.90293 1.36792,-1.42011 2.25774,-1.52343 0.11123,-0.0129 0.22358,-0.0192 0.33589,-0.0191 z m -16.34318,0.0212 c 1.57118,0.007 2.78241,1.14284 2.90007,2.78742 0.0523,0.73013 0.0438,0.78629 -0.21497,1.35134 -0.34216,0.74741 -0.91345,1.32479 -1.48206,1.56838 -2.10215,0.90053 -4.26334,-0.50581 -4.25194,-2.75177 0.004,-0.87105 0.16767,-1.28931 0.76946,-1.95544 0.56796,-0.62865 1.132,-0.91082 1.96059,-0.98598 0.10774,-0.01 0.2141,-0.0144 0.31885,-0.0139 z m 8.14525,0.002 c 1.95726,-0.0198 3.46141,1.83561 2.8856,3.81631 -0.22114,0.76069 -0.93358,1.56996 -1.59369,1.84743 -1.41557,0.595 -2.64559,0.32081 -3.58016,-0.77101 -1.45708,-1.70228 -0.5407,-4.36121 1.66812,-4.82451 0.21037,-0.0441 0.41765,-0.0662 0.62013,-0.0682 z"
       style="fill:#000000;stroke:none;stroke-width:1.00789452;stroke-miterlimit:4;stroke-dasharray:none;stroke-opacity:1"
       inkscape:connector-curvature="0" />
    <path
       inkscape:tile-y0="4.7853402"
       inkscape:tile-x0="11.75048"
       id="use9092"
       d="m -128.32978,217.76611 c 0.9212,0 1.84303,-0.0123 2.5549,-0.0408 0.35591,-0.0142 0.65682,-0.0321 0.89037,-0.0548 0.11679,-0.0114 0.21609,-0.0235 0.30697,-0.0408 0.0454,-0.009 0.0876,-0.0177 0.14055,-0.0351 0.0529,-0.0174 0.11578,-0.0182 0.24029,-0.14262 0.18804,-0.18788 0.14978,-0.24624 0.16796,-0.31833 0.0183,-0.0721 0.0297,-0.14121 0.0408,-0.21911 0.0222,-0.15581 0.0385,-0.34151 0.0527,-0.5426 0.0284,-0.40219 0.0429,-0.86048 0.0429,-1.18752 v -0.5178 h 0.32247 c 0.25247,0 0.49731,-0.018 0.70692,-0.0506 0.1048,-0.0163 0.19904,-0.0361 0.29302,-0.0646 0.094,-0.0284 0.18296,-0.0324 0.33589,-0.18552 0.0766,-0.0766 0.0779,-0.0962 0.0956,-0.12506 0.0177,-0.0289 0.0325,-0.0548 0.0491,-0.0858 0.0333,-0.062 0.072,-0.13851 0.11679,-0.23048 0.0896,-0.18393 0.20381,-0.43326 0.34002,-0.73277 0.27244,-0.59902 0.6269,-1.39875 0.99634,-2.26136 l 1.20663,-2.8205 h 1.387 1.85518 l 2.47271,-1.42575 2.60348,-1.50379 0.0372,-2.43344 c 0.009,-0.59871 0.003,-1.16416 -0.0135,-1.5999 -0.008,-0.21787 -0.0193,-0.40261 -0.0336,-0.55087 -0.007,-0.0741 -0.014,-0.13771 -0.0254,-0.20102 -0.0114,-0.0633 0.0116,-0.0966 -0.0956,-0.26355 -0.19651,-0.30602 -0.38989,-0.31276 -0.59375,-0.36742 -0.20387,-0.0547 -0.43815,-0.0896 -0.70694,-0.10904 -0.29335,-0.0212 -0.42913,-0.0487 -0.47078,-0.0589 -0.0217,-0.049 -0.0428,-0.1 -0.0703,-0.15038 -0.0419,-0.0767 -0.0964,-0.17247 -0.16433,-0.28887 -0.13589,-0.23279 -0.32441,-0.5456 -0.55243,-0.91984 -0.45601,-0.74848 -1.06976,-1.7415 -1.73633,-2.79725 -1.3091,-2.07344 -2.09907,-3.27591 -2.75383,-4.05866 -0.65477,-0.78275 -1.22484,-1.15072 -1.8986,-1.40974 l -0.0156,-0.006 -0.0175,-0.004 -0.40616,-0.12661 -0.0434,-0.006 c -0.28533,-0.036 -0.50626,-0.0788 -1.71048,-0.10749 -1.20425,-0.0287 -3.43395,-0.0471 -7.87551,-0.0506 -4.51387,-0.003 -6.81617,-0.005 -8.09924,0.0294 -1.28307,0.0345 -1.64528,0.13 -2.01745,0.26924 -0.6908,0.25846 -1.28312,0.64786 -1.95749,1.44745 -0.67437,0.79959 -1.47505,2.01544 -2.75952,4.05454 -0.63736,1.01178 -1.23225,1.96966 -1.67587,2.70112 -0.22181,0.36573 -0.40609,0.67597 -0.54105,0.90847 -0.0675,0.11625 -0.12115,0.2126 -0.16383,0.29094 -0.0426,0.0783 -0.0656,0.10815 -0.10388,0.21498 -0.003,0.008 -0.003,0.008 -0.004,0.0145 -0.0453,0.008 -0.18521,0.0351 -0.47284,0.0558 -0.26799,0.0194 -0.49956,0.0528 -0.70281,0.10749 -0.20323,0.0548 -0.39915,0.0634 -0.59375,0.37103 -0.0999,0.15861 -0.0824,0.19408 -0.0941,0.2558 -0.0119,0.0621 -0.0188,0.12619 -0.0269,0.19947 -0.0161,0.14655 -0.0301,0.32901 -0.0413,0.54467 -0.0225,0.43132 -0.0367,0.98996 -0.0372,1.58234 0,0.94931 0.003,1.48076 0.0393,1.84329 0.0185,0.18126 0.041,0.32648 0.11317,0.48266 0.0722,0.15618 0.23333,0.30496 0.35192,0.36535 0.11358,0.0578 0.17039,0.0707 0.28681,0.10904 0.11641,0.0384 0.26156,0.084 0.4315,0.13488 0.33984,0.10168 0.77325,0.22509 1.22111,0.34571 l 1.89447,0.51005 0.47437,-0.47491 c 0.14716,-0.14716 0.27257,-0.31182 0.33435,-0.5271 0.0618,-0.21527 0.0266,-0.48324 -0.0899,-0.67592 -0.23313,-0.3854 -0.60994,-0.52746 -1.08212,-0.66043 -0.39156,-0.11026 -1.03648,-0.29225 -1.43351,-0.40411 l -0.35552,-0.0997 v -0.98598 -0.86351 h 9.56632 c 3.82964,0 6.35842,-0.0106 7.94941,-0.0351 0.7955,-0.0122 1.35432,-0.0275 1.73427,-0.0486 0.18994,-0.0106 0.33385,-0.0215 0.45111,-0.0372 0.0586,-0.008 0.11068,-0.0162 0.17002,-0.0315 0.0593,-0.0154 0.12187,0.005 0.27906,-0.15193 0.22116,-0.22118 0.33692,-0.55283 0.28731,-0.85576 -0.0496,-0.30292 -0.23879,-0.55746 -0.48834,-0.73225 -0.34589,-0.24231 -0.67612,-0.23081 -1.69344,-0.25994 -0.007,-1.9e-4 -0.0306,1.8e-4 -0.0372,0 0.31334,-0.0724 0.68281,-0.0426 1.06868,-0.23254 0.64566,-0.31785 1.19702,-0.73655 1.67171,-1.26918 l 0.2522,-0.28163 c 1.7629,2.35216 5.25434,2.74798 7.53907,0.75602 0.35025,-0.30537 0.68463,-0.77626 0.97824,-1.25573 0.13399,-0.2188 0.24813,-0.43173 0.34364,-0.63459 0.0832,0.11459 0.0889,0.10105 0.18966,0.25942 0.1837,0.2886 0.35089,0.55362 0.47077,0.74827 0.0524,0.085 0.0921,0.14907 0.12298,0.20102 v 0.004 l 0.0661,0.1173 c 0.20807,0.36414 0.21855,0.579 0.1819,0.71469 -0.0366,0.13568 -0.13964,0.26377 -0.37515,0.39843 -0.4699,0.26862 -1.39763,0.42745 -2.2929,0.43924 h -0.87281 c -1.14422,0 -1.72858,0.97307 -1.72858,0.97307 l -0.0863,0.14625 0.11369,0.99787 4.61317,0.0393 3.65402,0.031 -0.0233,0.94361 -0.0294,1.17357 -1.65415,0.95705 -1.7813,1.03146 -11.07787,0.002 -11.14867,0.002 -1.75596,-0.46715 c -0.98623,-0.26246 -1.52305,-0.41246 -2.00557,-0.38654 -0.24127,0.013 -0.52556,0.11472 -0.69143,0.32401 -0.16587,0.20928 -0.19574,0.42312 -0.2186,0.6134 -0.0156,0.13027 -0.0418,0.32833 0.0641,0.5488 0.10594,0.22046 0.29951,0.35234 0.49403,0.44545 0.38907,0.18623 0.94679,0.32778 2.03346,0.61547 1.39943,0.37048 2.12616,0.48989 3.03342,0.48989 0.50117,0 0.72221,0.0197 0.77515,0.0253 0,0.002 0,1.1e-4 0,0.002 0.014,0.039 0.0296,0.0733 0.045,0.11524 -0.32962,0.0176 -0.7955,0.0295 -1.82211,0.0295 -1.21512,0 -1.86507,-0.006 -2.16627,-0.0351 -0.14198,-0.0138 -0.18238,-0.034 -0.16227,-0.0233 -0.0702,-0.1017 -0.17328,-0.24174 -0.32814,-0.30902 -0.18624,-0.0809 -0.36054,-0.10024 -0.61497,-0.11886 -0.50882,-0.0372 -1.36199,-0.0372 -3.01739,-0.0372 -1.25476,0 -2.13016,0.009 -2.7192,0.0351 -0.29451,0.0129 -0.51718,0.0287 -0.69297,0.0527 -0.0879,0.012 -0.16272,0.0265 -0.24238,0.0491 -0.0796,0.0226 -0.16854,0.0316 -0.30488,0.16795 -0.12623,0.12625 -0.13642,0.2027 -0.15968,0.27337 -0.0233,0.0707 -0.0383,0.13639 -0.0512,0.20671 -0.0257,0.14064 -0.0419,0.29999 -0.0563,0.48266 -0.0289,0.36532 -0.0434,0.81577 -0.0434,1.26762 0,0.45185 0.0143,0.9023 0.0434,1.26762 0.0145,0.18266 0.0306,0.34358 0.0563,0.48421 0.013,0.0703 0.0279,0.13448 0.0512,0.20515 0.0233,0.0707 0.0334,0.1492 0.15968,0.27544 0.13634,0.13632 0.22526,0.14536 0.30488,0.16795 0.0796,0.0226 0.15446,0.035 0.24238,0.047 0.17579,0.024 0.39846,0.0399 0.69297,0.0527 0.58904,0.0257 1.46444,0.0367 2.7192,0.0367 1.66032,0 2.51479,-0.002 3.02308,-0.0388 0.25416,-0.0188 0.42659,-0.0368 0.61341,-0.11938 0.15155,-0.067 0.24799,-0.20229 0.31832,-0.30282 -0.0156,0.008 0.0456,-0.0164 0.22842,-0.0289 0.38766,-0.0264 1.20403,-0.0209 2.76365,-0.004 l 2.89854,0.031 0.31625,0.74259 c 0.12766,0.29925 0.26157,0.58093 0.37931,0.8046 0.0589,0.11183 0.1125,0.20917 0.16587,0.29301 0.0534,0.0838 0.0293,0.13407 0.25167,0.27543 0.15623,0.0989 0.21386,0.0925 0.29715,0.10904 0.0838,0.0167 0.17209,0.0289 0.2713,0.0393 0.19839,0.0207 0.43382,0.0326 0.67591,0.0331 h 0.31628 v 0.51935 c 0,0.32706 0.0164,0.78535 0.045,1.18753 0.0143,0.20108 0.0306,0.38732 0.0527,0.54312 0.0111,0.0779 0.0233,0.14652 0.0413,0.21859 0.0182,0.0721 -0.022,0.13042 0.16589,0.31833 0.12451,0.12452 0.18738,0.12525 0.2403,0.14262 0.0529,0.0174 0.0971,0.0264 0.14263,0.0351 0.0909,0.0173 0.18759,0.03 0.30438,0.0413 0.23355,0.0227 0.5365,0.0405 0.89244,0.0548 0.71186,0.0285 1.63163,0.0408 2.55281,0.0408 z m 2.24999,-2.06602 h -2.24999 -2.24793 v -0.88315 -0.15038 h 2.24793 2.24999 v 0.15038 z m -6.96854,-3.221 -0.54314,-1.29707 c -0.37134,-0.88595 -0.88262,-2.09421 -1.14049,-2.69286 l -0.16433,-0.37931 h 6.56085 6.56031 l -0.83976,1.9513 -1.01182,2.35335 -4.71495,0.0315 z m 4.70098,-0.43563 c 0.16243,0 0.34674,-0.0288 0.51782,-0.13074 0.17108,-0.10192 0.30056,-0.26934 0.37309,-0.43563 0.14504,-0.33259 0.15607,-0.68271 0.15607,-1.18339 0,-0.29437 -0.0164,-0.5615 -0.0491,-0.78703 -0.0164,-0.11277 -0.0361,-0.21497 -0.0661,-0.31471 -0.03,-0.0997 -0.0443,-0.19831 -0.18965,-0.34365 -0.18928,-0.1893 -0.45051,-0.32318 -0.72811,-0.31833 -0.27763,0.005 -0.52165,0.14564 -0.68781,0.32246 -0.33234,0.35363 -0.46665,0.85367 -0.46665,1.44126 0,0.42363 0.0704,0.80273 0.23408,1.12293 0.16373,0.32019 0.48416,0.62683 0.90641,0.62683 z m -3.14656,0 c 0.16238,0 0.34671,-0.0288 0.51779,-0.13074 0.17108,-0.10192 0.29851,-0.26934 0.37103,-0.43563 0.14504,-0.33259 0.15814,-0.68271 0.15814,-1.18339 0,-0.29437 -0.0159,-0.5615 -0.0486,-0.78703 -0.0164,-0.11277 -0.0367,-0.21497 -0.0667,-0.31471 -0.03,-0.0997 -0.0438,-0.19831 -0.18913,-0.34365 -0.18931,-0.1893 -0.45101,-0.32318 -0.72863,-0.31833 -0.27763,0.005 -0.52165,0.14564 -0.68781,0.32246 -0.33235,0.35363 -0.46871,0.85367 -0.46871,1.44126 0,0.42363 0.0729,0.80273 0.23667,1.12293 0.16369,0.32019 0.48363,0.62683 0.9059,0.62683 z m 6.31278,-0.002 c 0.19359,0 0.36457,-0.0734 0.49609,-0.15606 0.20966,-0.13176 0.35383,-0.38256 0.41188,-0.61908 0.058,-0.23653 0.0766,-0.50085 0.092,-0.87902 0.0127,-0.3108 0.01,-0.58553 -0.014,-0.81649 -0.0233,-0.23095 0.006,-0.39103 -0.21653,-0.6599 -0.21381,-0.25748 -0.4223,-0.36742 -0.76946,-0.36742 -0.16968,0 -0.36801,0.0364 -0.53949,0.15038 -0.1715,0.11397 -0.28845,0.2908 -0.35348,0.46302 -0.13004,0.34445 -0.13023,0.71118 -0.10904,1.23041 0.0154,0.37816 0.0355,0.64251 0.0935,0.87902 0.058,0.23651 0.20066,0.48731 0.41032,0.61908 0.13152,0.0826 0.30456,0.15606 0.49816,0.15606 z m -18.07435,-1.40043 h -2.05465 -2.05259 v -0.34726 -0.34778 h 2.05259 2.05465 v 0.34778 z m 18.33324,-8.8408 c 0.11372,0.005 0.23069,0.002 0.35452,-0.003 0.30191,-0.0117 0.49268,-0.0112 0.66196,-0.0253 0.16941,-0.0141 0.39574,-0.0562 0.56433,-0.22479 0.25582,-0.25584 0.30895,-0.65938 0.21497,-0.94723 -0.0555,-0.16992 -0.196,-0.27441 -0.30853,-0.40049 v -0.12713 l -0.21497,-0.15037 c -0.5102,-0.35729 -1.18317,-0.41819 -1.76372,-0.10749 -0.25556,0.1368 -0.46336,0.36109 -0.55448,0.63717 -0.0911,0.27609 -0.0542,0.58772 0.0837,0.84543 0.13018,0.24319 0.3955,0.40234 0.62323,0.45733 0.11385,0.0275 0.22513,0.0404 0.33898,0.0455 z m -17.06872,-2.03812 c -0.20222,-2e-5 -0.38708,-0.005 -0.54208,-0.0176 -0.94826,-0.0765 -1.60578,-0.29569 -1.80866,-0.49609 -0.10144,-0.1002 -0.13169,-0.16657 -0.12454,-0.33745 0.007,-0.17088 0.0902,-0.45239 0.3121,-0.82837 l 0.0703,-0.11937 v -0.008 c 0.0309,-0.0519 0.0706,-0.11602 0.12298,-0.20102 0.11988,-0.19466 0.28554,-0.45969 0.46924,-0.74828 0.10104,-0.15875 0.10787,-0.14519 0.19119,-0.25993 0.0955,0.20286 0.20965,0.4163 0.34364,0.6351 0.29363,0.47947 0.62851,0.95037 0.97877,1.25574 0.58949,0.51396 1.26156,0.86102 1.96265,1.07022 -0.60351,0.0111 -1.36893,0.0548 -1.97559,0.0548 z m 4.80745,-0.0977 c 1.06014,-0.2833 2.06278,-0.80494 2.77194,-1.74769 l 0.003,-0.004 0.22892,0.2558 c 0.4699,0.52722 1.02272,0.94678 1.66606,1.26349 0.36139,0.1779 0.70844,0.14358 0.99994,0.21704 -0.98883,-0.007 -1.5825,-0.0196 -3.31248,-0.0196 h -0.003 -0.003 c -0.87276,0.004 -1.49495,0.004 -2.35181,0.0351 z m -1.30222,-1.86913 c -0.78626,-8e-4 -1.58663,-0.32278 -2.22674,-0.98599 -0.56462,-0.58501 -0.77983,-1.1255 -0.78705,-1.99213 -0.0101,-1.20114 0.59417,-2.18248 1.62266,-2.66805 0.86916,-0.41036 1.69275,-0.44547 2.39882,-0.18965 0.70604,0.25582 1.31236,0.80844 1.71254,1.67793 0.35174,0.76415 0.29671,1.89303 -0.1266,2.61534 -0.52914,0.90293 -1.36792,1.42011 -2.25774,1.52343 -0.11123,0.0129 -0.22358,0.0192 -0.33589,0.0191 z m 16.34318,-0.0212 c -1.57118,-0.007 -2.78241,-1.14284 -2.90007,-2.78742 -0.0523,-0.73013 -0.0438,-0.78629 0.21497,-1.35134 0.34216,-0.74741 0.91345,-1.32479 1.48206,-1.56838 2.10215,-0.90053 4.26334,0.50581 4.25194,2.75177 -0.004,0.87105 -0.16767,1.28931 -0.76946,1.95544 -0.56796,0.62865 -1.132,0.91082 -1.96059,0.98598 -0.10774,0.01 -0.2141,0.0144 -0.31885,0.0139 z m -8.14525,-0.002 c -1.95726,0.0198 -3.46141,-1.83561 -2.8856,-3.81631 0.22114,-0.76069 0.93358,-1.56996 1.59369,-1.84743 1.41557,-0.595 2.64559,-0.32081 3.58016,0.77101 1.45708,1.70228 0.5407,4.36121 -1.66812,4.82451 -0.21037,0.0441 -0.41765,0.0662 -0.62013,0.0682 z"
       style="fill:#000000;stroke:none;stroke-width:1.00789452;stroke-miterlimit:4;stroke-dasharray:none;stroke-opacity:1"
       inkscape:connector-curvature="0" />
    <path
       inkscape:tile-y0="4.7853402"
       inkscape:tile-x0="11.75048"
       id="use9094"
       d="m -57.847333,167.53176 c -0.9212,0 -1.84303,-0.0123 -2.5549,-0.0408 -0.35591,-0.0142 -0.65682,-0.0321 -0.89037,-0.0548 -0.11679,-0.0114 -0.21609,-0.0235 -0.30697,-0.0408 -0.0454,-0.009 -0.0876,-0.0177 -0.14055,-0.0351 -0.0529,-0.0174 -0.11578,-0.0182 -0.24029,-0.14262 -0.18804,-0.18788 -0.14978,-0.24624 -0.16796,-0.31833 -0.0183,-0.0721 -0.0297,-0.14121 -0.0408,-0.21911 -0.0222,-0.15581 -0.0385,-0.34151 -0.0527,-0.5426 -0.0284,-0.40219 -0.0429,-0.86048 -0.0429,-1.18752 v -0.5178 h -0.32247 c -0.25247,0 -0.49731,-0.018 -0.70692,-0.0506 -0.1048,-0.0163 -0.19904,-0.0361 -0.29302,-0.0646 -0.094,-0.0284 -0.18296,-0.0324 -0.33589,-0.18552 -0.0766,-0.0766 -0.0779,-0.0962 -0.0956,-0.12506 -0.0177,-0.0289 -0.0325,-0.0548 -0.0491,-0.0858 -0.0333,-0.062 -0.072,-0.13851 -0.11679,-0.23048 -0.0896,-0.18393 -0.20381,-0.43326 -0.34002,-0.73277 -0.27244,-0.59902 -0.6269,-1.39875 -0.99634,-2.26136 l -1.20663,-2.8205 h -1.387 -1.85518 l -2.47271,-1.42575 -2.60348,-1.50379 -0.0372,-2.43344 c -0.009,-0.59871 -0.003,-1.16416 0.0135,-1.5999 0.008,-0.21787 0.0193,-0.40261 0.0336,-0.55087 0.007,-0.0741 0.014,-0.13771 0.0254,-0.20102 0.0114,-0.0633 -0.0116,-0.0966 0.0956,-0.26355 0.19651,-0.30602 0.38989,-0.31276 0.59375,-0.36742 0.20387,-0.0547 0.43815,-0.0896 0.70694,-0.10904 0.29335,-0.0212 0.42913,-0.0487 0.47078,-0.0589 0.0217,-0.049 0.0428,-0.1 0.0703,-0.15038 0.0419,-0.0767 0.0964,-0.17247 0.16433,-0.28887 0.13589,-0.23279 0.32441,-0.5456 0.55243,-0.91984 0.45601,-0.74848 1.06976,-1.7415 1.73633,-2.79725 1.3091,-2.07344 2.09907,-3.27591 2.75383,-4.05866 0.65477,-0.78275 1.22484,-1.15072 1.8986,-1.40974 l 0.0156,-0.006 0.0175,-0.004 0.40616,-0.12661 0.0434,-0.006 c 0.28533,-0.036 0.50626,-0.0788 1.71048,-0.10749 1.20425,-0.0287 3.43395,-0.0471 7.87551,-0.0506 4.51387,-0.003 6.81617,-0.005 8.09924,0.0294 1.28307,0.0345 1.64528,0.13 2.01745,0.26924 0.6908,0.25846 1.28312,0.64786 1.95749,1.44745 0.67437,0.79959 1.47505,2.01544 2.75952,4.05454 0.63736,1.01178 1.23225,1.96966 1.67587,2.70112 0.22181,0.36573 0.40609,0.67597 0.54105,0.90847 0.0675,0.11625 0.12115,0.2126 0.16383,0.29094 0.0426,0.0783 0.0656,0.10815 0.10388,0.21498 0.003,0.008 0.003,0.008 0.004,0.0145 0.0453,0.008 0.18521,0.0351 0.47284,0.0558 0.26799,0.0194 0.49956,0.0528 0.70281,0.10749 0.20323,0.0548 0.39915,0.0634 0.59375,0.37103 0.0999,0.15861 0.0824,0.19408 0.0941,0.2558 0.0119,0.0621 0.0188,0.12619 0.0269,0.19947 0.0161,0.14655 0.0301,0.32901 0.0413,0.54467 0.0225,0.43132 0.0367,0.98996 0.0372,1.58234 0,0.94931 -0.003,1.48076 -0.0393,1.84329 -0.0185,0.18126 -0.041,0.32648 -0.11317,0.48266 -0.0722,0.15618 -0.23333,0.30496 -0.35192,0.36535 -0.11358,0.0578 -0.17039,0.0707 -0.28681,0.10904 -0.11641,0.0384 -0.26156,0.084 -0.4315,0.13488 -0.33984,0.10168 -0.77325,0.22509 -1.22111,0.34571 l -1.89447,0.51005 -0.47437,-0.47491 c -0.14716,-0.14716 -0.27257,-0.31182 -0.33435,-0.5271 -0.0618,-0.21527 -0.0266,-0.48324 0.0899,-0.67592 0.23313,-0.3854 0.60994,-0.52746 1.08212,-0.66043 0.39156,-0.11026 1.03648,-0.29225 1.43351,-0.40411 l 0.35552,-0.0997 v -0.98598 -0.86351 h -9.56632 c -3.82964,0 -6.35842,-0.0106 -7.94941,-0.0351 -0.7955,-0.0122 -1.35432,-0.0275 -1.73427,-0.0486 -0.18994,-0.0106 -0.33385,-0.0215 -0.45111,-0.0372 -0.0586,-0.008 -0.11068,-0.0162 -0.17002,-0.0315 -0.0593,-0.0154 -0.12187,0.005 -0.27906,-0.15193 -0.22116,-0.22118 -0.33692,-0.55283 -0.28731,-0.85576 0.0496,-0.30292 0.23879,-0.55746 0.48834,-0.73225 0.34589,-0.24231 0.67612,-0.23081 1.69344,-0.25994 0.007,-1.9e-4 0.0306,1.8e-4 0.0372,0 -0.31334,-0.0724 -0.68281,-0.0426 -1.06868,-0.23254 -0.64566,-0.31785 -1.19702,-0.73655 -1.67171,-1.26918 l -0.2522,-0.28163 c -1.7629,2.35216 -5.25434,2.74798 -7.53907,0.75602 -0.35025,-0.30537 -0.68463,-0.77626 -0.97824,-1.25573 -0.13399,-0.2188 -0.24813,-0.43173 -0.34364,-0.63459 -0.0832,0.11459 -0.0889,0.10105 -0.18966,0.25942 -0.1837,0.2886 -0.35089,0.55362 -0.47077,0.74827 -0.0524,0.085 -0.0921,0.14907 -0.12298,0.20102 v 0.004 l -0.0661,0.1173 c -0.20807,0.36414 -0.21855,0.579 -0.1819,0.71469 0.0366,0.13568 0.13964,0.26377 0.37515,0.39843 0.4699,0.26862 1.39763,0.42745 2.2929,0.43924 h 0.87281 c 1.14422,0 1.72858,0.97307 1.72858,0.97307 l 0.0863,0.14625 -0.11369,0.99787 -4.61317,0.0393 -3.65402,0.031 0.0233,0.94361 0.0294,1.17357 1.65415,0.95705 1.7813,1.03146 11.07787,0.002 11.14867,0.002 1.75596,-0.46715 c 0.98623,-0.26246 1.52305,-0.41246 2.00557,-0.38654 0.24127,0.013 0.52556,0.11472 0.69143,0.32401 0.16587,0.20928 0.19574,0.42312 0.2186,0.6134 0.0156,0.13027 0.0418,0.32833 -0.0641,0.5488 -0.10594,0.22046 -0.29951,0.35234 -0.49403,0.44545 -0.38907,0.18623 -0.94679,0.32778 -2.03346,0.61547 -1.39943,0.37048 -2.12616,0.48989 -3.03342,0.48989 -0.50117,0 -0.72221,0.0197 -0.77515,0.0253 0,0.002 0,1.1e-4 0,0.002 -0.014,0.039 -0.0296,0.0733 -0.045,0.11524 0.32962,0.0176 0.7955,0.0295 1.82211,0.0295 1.21512,0 1.86507,-0.006 2.16627,-0.0351 0.14198,-0.0138 0.18238,-0.034 0.16227,-0.0233 0.0702,-0.1017 0.17328,-0.24174 0.32814,-0.30902 0.18624,-0.0809 0.36054,-0.10024 0.61497,-0.11886 0.50882,-0.0372 1.36199,-0.0372 3.01739,-0.0372 1.25476,0 2.13016,0.009 2.7192,0.0351 0.29451,0.0129 0.51718,0.0287 0.69297,0.0527 0.0879,0.012 0.16272,0.0265 0.24238,0.0491 0.0796,0.0226 0.16854,0.0316 0.30488,0.16795 0.12623,0.12625 0.13642,0.2027 0.15968,0.27337 0.0233,0.0707 0.0383,0.13639 0.0512,0.20671 0.0257,0.14064 0.0419,0.29999 0.0563,0.48266 0.0289,0.36532 0.0434,0.81577 0.0434,1.26762 0,0.45185 -0.0143,0.9023 -0.0434,1.26762 -0.0145,0.18266 -0.0306,0.34358 -0.0563,0.48421 -0.013,0.0703 -0.0279,0.13448 -0.0512,0.20515 -0.0233,0.0707 -0.0334,0.1492 -0.15968,0.27544 -0.13634,0.13632 -0.22526,0.14536 -0.30488,0.16795 -0.0796,0.0226 -0.15446,0.035 -0.24238,0.047 -0.17579,0.024 -0.39846,0.0399 -0.69297,0.0527 -0.58904,0.0257 -1.46444,0.0367 -2.7192,0.0367 -1.66032,0 -2.51479,-0.002 -3.02308,-0.0388 -0.25416,-0.0188 -0.42659,-0.0368 -0.61341,-0.11938 -0.15155,-0.067 -0.24799,-0.20229 -0.31832,-0.30282 0.0156,0.008 -0.0456,-0.0164 -0.22842,-0.0289 -0.38766,-0.0264 -1.20403,-0.0209 -2.76365,-0.004 l -2.89854,0.031 -0.31625,0.74259 c -0.12766,0.29925 -0.26157,0.58093 -0.37931,0.8046 -0.0589,0.11183 -0.1125,0.20917 -0.16587,0.29301 -0.0534,0.0838 -0.0293,0.13407 -0.25167,0.27543 -0.15623,0.0989 -0.21386,0.0925 -0.29715,0.10904 -0.0838,0.0167 -0.17209,0.0289 -0.2713,0.0393 -0.19839,0.0207 -0.43382,0.0326 -0.67591,0.0331 h -0.31628 v 0.51935 c 0,0.32706 -0.0164,0.78535 -0.045,1.18753 -0.0143,0.20108 -0.0306,0.38732 -0.0527,0.54312 -0.0111,0.0779 -0.0233,0.14652 -0.0413,0.21859 -0.0182,0.0721 0.022,0.13042 -0.16589,0.31833 -0.12451,0.12452 -0.18738,0.12525 -0.2403,0.14262 -0.0529,0.0174 -0.0971,0.0264 -0.14263,0.0351 -0.0909,0.0173 -0.18759,0.03 -0.30438,0.0413 -0.23355,0.0227 -0.5365,0.0405 -0.89244,0.0548 -0.71186,0.0285 -1.63163,0.0408 -2.55281,0.0408 z m -2.24999,-2.06602 h 2.24999 2.24793 v -0.88315 -0.15038 h -2.24793 -2.24999 v 0.15038 z m 6.96854,-3.221 0.54314,-1.29707 c 0.37134,-0.88595 0.88262,-2.09421 1.14049,-2.69286 l 0.16433,-0.37931 h -6.56085 -6.56031 l 0.83976,1.9513 1.01182,2.35335 4.71495,0.0315 z m -4.70098,-0.43563 c -0.16243,0 -0.34674,-0.0288 -0.51782,-0.13074 -0.17108,-0.10192 -0.30056,-0.26934 -0.37309,-0.43563 -0.14504,-0.33259 -0.15607,-0.68271 -0.15607,-1.18339 0,-0.29437 0.0164,-0.5615 0.0491,-0.78703 0.0164,-0.11277 0.0361,-0.21497 0.0661,-0.31471 0.03,-0.0997 0.0443,-0.19831 0.18965,-0.34365 0.18928,-0.1893 0.45051,-0.32318 0.72811,-0.31833 0.27763,0.005 0.52165,0.14564 0.68781,0.32246 0.33234,0.35363 0.46665,0.85367 0.46665,1.44126 0,0.42363 -0.0704,0.80273 -0.23408,1.12293 -0.16373,0.32019 -0.48416,0.62683 -0.90641,0.62683 z m 3.14656,0 c -0.16238,0 -0.34671,-0.0288 -0.51779,-0.13074 -0.17108,-0.10192 -0.29851,-0.26934 -0.37103,-0.43563 -0.14504,-0.33259 -0.15814,-0.68271 -0.15814,-1.18339 0,-0.29437 0.0159,-0.5615 0.0486,-0.78703 0.0164,-0.11277 0.0367,-0.21497 0.0667,-0.31471 0.03,-0.0997 0.0438,-0.19831 0.18913,-0.34365 0.18931,-0.1893 0.45101,-0.32318 0.72863,-0.31833 0.27763,0.005 0.52165,0.14564 0.68781,0.32246 0.33235,0.35363 0.46871,0.85367 0.46871,1.44126 0,0.42363 -0.0729,0.80273 -0.23667,1.12293 -0.16369,0.32019 -0.48363,0.62683 -0.9059,0.62683 z m -6.31278,-0.002 c -0.19359,0 -0.36457,-0.0734 -0.49609,-0.15606 -0.20966,-0.13176 -0.35383,-0.38256 -0.41188,-0.61908 -0.058,-0.23653 -0.0766,-0.50085 -0.092,-0.87902 -0.0127,-0.3108 -0.01,-0.58553 0.014,-0.81649 0.0233,-0.23095 -0.006,-0.39103 0.21653,-0.6599 0.21381,-0.25748 0.4223,-0.36742 0.76946,-0.36742 0.16968,0 0.36801,0.0364 0.53949,0.15038 0.1715,0.11397 0.28845,0.2908 0.35348,0.46302 0.13004,0.34445 0.13023,0.71118 0.10904,1.23041 -0.0154,0.37816 -0.0355,0.64251 -0.0935,0.87902 -0.058,0.23651 -0.20066,0.48731 -0.41032,0.61908 -0.13152,0.0826 -0.30456,0.15606 -0.49816,0.15606 z m 18.07435,-1.40043 h 2.05465 2.05259 v -0.34726 -0.34778 h -2.05259 -2.05465 v 0.34778 z m -18.33324,-8.8408 c -0.11372,0.005 -0.23069,0.002 -0.35452,-0.003 -0.30191,-0.0117 -0.49268,-0.0112 -0.66196,-0.0253 -0.16941,-0.0141 -0.39574,-0.0562 -0.56433,-0.22479 -0.25582,-0.25584 -0.30895,-0.65938 -0.21497,-0.94723 0.0555,-0.16992 0.196,-0.27441 0.30853,-0.40049 v -0.12713 l 0.21497,-0.15037 c 0.5102,-0.35729 1.18317,-0.41819 1.76372,-0.10749 0.25556,0.1368 0.46336,0.36109 0.55448,0.63717 0.0911,0.27609 0.0542,0.58772 -0.0837,0.84543 -0.13018,0.24319 -0.3955,0.40234 -0.62323,0.45733 -0.11385,0.0275 -0.22513,0.0404 -0.33898,0.0455 z m 17.06872,-2.03812 c 0.20222,-2e-5 0.38708,-0.005 0.54208,-0.0176 0.94826,-0.0765 1.60578,-0.29569 1.80866,-0.49609 0.10144,-0.1002 0.13169,-0.16657 0.12454,-0.33745 -0.007,-0.17088 -0.0902,-0.45239 -0.3121,-0.82837 l -0.0703,-0.11937 v -0.008 c -0.0309,-0.0519 -0.0706,-0.11602 -0.12298,-0.20102 -0.11988,-0.19466 -0.28554,-0.45969 -0.46924,-0.74828 -0.10104,-0.15875 -0.10787,-0.14519 -0.19119,-0.25993 -0.0955,0.20286 -0.20965,0.4163 -0.34364,0.6351 -0.29363,0.47947 -0.62851,0.95037 -0.97877,1.25574 -0.58949,0.51396 -1.26156,0.86102 -1.96265,1.07022 0.60351,0.0111 1.36893,0.0548 1.97559,0.0548 z m -4.80745,-0.0977 c -1.06014,-0.2833 -2.06278,-0.80494 -2.77194,-1.74769 l -0.003,-0.004 -0.22892,0.2558 c -0.4699,0.52722 -1.02272,0.94678 -1.66606,1.26349 -0.36139,0.1779 -0.70844,0.14358 -0.99994,0.21704 0.98883,-0.007 1.5825,-0.0196 3.31248,-0.0196 h 0.003 0.003 c 0.87276,0.004 1.49495,0.004 2.35181,0.0351 z m 1.30222,-1.86913 c 0.78626,-8e-4 1.58663,-0.32278 2.22674,-0.98599 0.56462,-0.58501 0.77983,-1.1255 0.78705,-1.99213 0.0101,-1.20114 -0.59417,-2.18248 -1.62266,-2.66805 -0.86916,-0.41036 -1.69275,-0.44547 -2.39882,-0.18965 -0.70604,0.25582 -1.31236,0.80844 -1.71254,1.67793 -0.35174,0.76415 -0.29671,1.89303 0.1266,2.61534 0.52914,0.90293 1.36792,1.42011 2.25774,1.52343 0.11123,0.0129 0.22358,0.0192 0.33589,0.0191 z m -16.34318,-0.0212 c 1.57118,-0.007 2.78241,-1.14284 2.90007,-2.78742 0.0523,-0.73013 0.0438,-0.78629 -0.21497,-1.35134 -0.34216,-0.74741 -0.91345,-1.32479 -1.48206,-1.56838 -2.10215,-0.90053 -4.26334,0.50581 -4.25194,2.75177 0.004,0.87105 0.16767,1.28931 0.76946,1.95544 0.56796,0.62865 1.132,0.91082 1.96059,0.98598 0.10774,0.01 0.2141,0.0144 0.31885,0.0139 z m 8.14525,-0.002 c 1.95726,0.0198 3.46141,-1.83561 2.8856,-3.81631 -0.22114,-0.76069 -0.93358,-1.56996 -1.59369,-1.84743 -1.41557,-0.595 -2.64559,-0.32081 -3.58016,0.77101 -1.45708,1.70228 -0.5407,4.36121 1.66812,4.82451 0.21037,0.0441 0.41765,0.0662 0.62013,0.0682 z"
       style="fill:#000000;stroke:none;stroke-width:1.00789452;stroke-miterlimit:4;stroke-dasharray:none;stroke-opacity:1"
       inkscape:connector-curvature="0" />
    <path
       inkscape:tile-y0="4.7853402"
       inkscape:tile-x0="11.75048"
       id="use9096"
       d="m -59.60921,188.07617 c 0.9212,0 1.84303,0.0123 2.5549,0.0408 0.35591,0.0142 0.65682,0.0321 0.89037,0.0548 0.11679,0.0114 0.21609,0.0235 0.30697,0.0408 0.0454,0.009 0.0876,0.0177 0.14055,0.0351 0.0529,0.0174 0.11578,0.0182 0.24029,0.14262 0.18804,0.18788 0.14978,0.24624 0.16796,0.31833 0.0183,0.0721 0.0297,0.14121 0.0408,0.21911 0.0222,0.15581 0.0385,0.34151 0.0527,0.5426 0.0284,0.40219 0.0429,0.86048 0.0429,1.18752 v 0.5178 h 0.32247 c 0.25247,0 0.49731,0.018 0.70692,0.0506 0.1048,0.0163 0.19904,0.0361 0.29302,0.0646 0.094,0.0284 0.18296,0.0324 0.33589,0.18552 0.0766,0.0766 0.0779,0.0962 0.0956,0.12506 0.0177,0.0289 0.0325,0.0548 0.0491,0.0858 0.0333,0.062 0.072,0.13851 0.11679,0.23048 0.0896,0.18393 0.20381,0.43326 0.34002,0.73277 0.27244,0.59902 0.6269,1.39875 0.99634,2.26136 l 1.20663,2.8205 h 1.387 1.85518 l 2.47271,1.42575 2.60348,1.50379 0.0372,2.43344 c 0.009,0.59871 0.003,1.16416 -0.0135,1.5999 -0.008,0.21787 -0.0193,0.40261 -0.0336,0.55087 -0.007,0.0741 -0.014,0.13771 -0.0254,0.20102 -0.0114,0.0633 0.0116,0.0966 -0.0956,0.26355 -0.19651,0.30602 -0.38989,0.31276 -0.59375,0.36742 -0.20387,0.0547 -0.43815,0.0896 -0.70694,0.10904 -0.29335,0.0212 -0.42913,0.0487 -0.47078,0.0589 -0.0217,0.049 -0.0428,0.1 -0.0703,0.15038 -0.0419,0.0767 -0.0964,0.17247 -0.16433,0.28887 -0.13589,0.23279 -0.32441,0.5456 -0.55243,0.91984 -0.45601,0.74848 -1.06976,1.7415 -1.73633,2.79725 -1.3091,2.07344 -2.09907,3.27591 -2.75383,4.05866 -0.65477,0.78275 -1.22484,1.15072 -1.8986,1.40974 l -0.0156,0.006 -0.0175,0.004 -0.40616,0.12661 -0.0434,0.006 c -0.28533,0.036 -0.50626,0.0788 -1.71048,0.10749 -1.20425,0.0287 -3.43395,0.0471 -7.87551,0.0506 -4.51387,0.003 -6.81617,0.005 -8.09924,-0.0294 -1.28307,-0.0345 -1.64528,-0.13 -2.01745,-0.26924 -0.6908,-0.25846 -1.28312,-0.64786 -1.95749,-1.44745 -0.67437,-0.79959 -1.47505,-2.01544 -2.75952,-4.05454 -0.63736,-1.01178 -1.23225,-1.96966 -1.67587,-2.70112 -0.22181,-0.36573 -0.40609,-0.67597 -0.54105,-0.90847 -0.0675,-0.11625 -0.12115,-0.2126 -0.16383,-0.29094 -0.0426,-0.0783 -0.0656,-0.10815 -0.10388,-0.21498 -0.003,-0.008 -0.003,-0.008 -0.004,-0.0145 -0.0453,-0.008 -0.18521,-0.0351 -0.47284,-0.0558 -0.26799,-0.0194 -0.49956,-0.0528 -0.70281,-0.10749 -0.20323,-0.0548 -0.39915,-0.0634 -0.59375,-0.37103 -0.0999,-0.15861 -0.0824,-0.19408 -0.0941,-0.2558 -0.0119,-0.0621 -0.0188,-0.12619 -0.0269,-0.19947 -0.0161,-0.14655 -0.0301,-0.32901 -0.0413,-0.54467 -0.0225,-0.43132 -0.0367,-0.98996 -0.0372,-1.58234 0,-0.94931 0.003,-1.48076 0.0393,-1.84329 0.0185,-0.18126 0.041,-0.32648 0.11317,-0.48266 0.0722,-0.15618 0.23333,-0.30496 0.35192,-0.36535 0.11358,-0.0578 0.17039,-0.0707 0.28681,-0.10904 0.11641,-0.0384 0.26156,-0.084 0.4315,-0.13488 0.33984,-0.10168 0.77325,-0.22509 1.22111,-0.34571 l 1.89447,-0.51005 0.47437,0.47491 c 0.14716,0.14716 0.27257,0.31182 0.33435,0.5271 0.0618,0.21527 0.0266,0.48324 -0.0899,0.67592 -0.23313,0.3854 -0.60994,0.52746 -1.08212,0.66043 -0.39156,0.11026 -1.03648,0.29225 -1.43351,0.40411 l -0.35552,0.0997 v 0.98598 0.86351 h 9.56632 c 3.82964,0 6.35842,0.0106 7.94941,0.0351 0.7955,0.0122 1.35432,0.0275 1.73427,0.0486 0.18994,0.0106 0.33385,0.0215 0.45111,0.0372 0.0586,0.008 0.11068,0.0162 0.17002,0.0315 0.0593,0.0154 0.12187,-0.005 0.27906,0.15193 0.22116,0.22118 0.33692,0.55283 0.28731,0.85576 -0.0496,0.30292 -0.23879,0.55746 -0.48834,0.73225 -0.34589,0.24231 -0.67612,0.23081 -1.69344,0.25994 -0.007,1.9e-4 -0.0306,-1.8e-4 -0.0372,0 0.31334,0.0724 0.68281,0.0426 1.06868,0.23254 0.64566,0.31785 1.19702,0.73655 1.67171,1.26918 l 0.2522,0.28163 c 1.7629,-2.35216 5.25434,-2.74798 7.53907,-0.75602 0.35025,0.30537 0.68463,0.77626 0.97824,1.25573 0.13399,0.2188 0.24813,0.43173 0.34364,0.63459 0.0832,-0.11459 0.0889,-0.10105 0.18966,-0.25942 0.1837,-0.2886 0.35089,-0.55362 0.47077,-0.74827 0.0524,-0.085 0.0921,-0.14907 0.12298,-0.20102 v -0.004 l 0.0661,-0.1173 c 0.20807,-0.36414 0.21855,-0.579 0.1819,-0.71469 -0.0366,-0.13568 -0.13964,-0.26377 -0.37515,-0.39843 -0.4699,-0.26862 -1.39763,-0.42745 -2.2929,-0.43924 h -0.87281 c -1.14422,0 -1.72858,-0.97307 -1.72858,-0.97307 l -0.0863,-0.14625 0.11369,-0.99787 4.61317,-0.0393 3.65402,-0.031 -0.0233,-0.94361 -0.0294,-1.17357 -1.65415,-0.95705 -1.7813,-1.03146 -11.07787,-0.002 -11.14867,-0.002 -1.75596,0.46715 c -0.98623,0.26246 -1.52305,0.41246 -2.00557,0.38654 -0.24127,-0.013 -0.52556,-0.11472 -0.69143,-0.32401 -0.16587,-0.20928 -0.19574,-0.42312 -0.2186,-0.6134 -0.0156,-0.13027 -0.0418,-0.32833 0.0641,-0.5488 0.10594,-0.22046 0.29951,-0.35234 0.49403,-0.44545 0.38907,-0.18623 0.94679,-0.32778 2.03346,-0.61547 1.39943,-0.37048 2.12616,-0.48989 3.03342,-0.48989 0.50117,0 0.72221,-0.0197 0.77515,-0.0253 0,-0.002 0,-1.1e-4 0,-0.002 0.014,-0.039 0.0296,-0.0733 0.045,-0.11524 -0.32962,-0.0176 -0.7955,-0.0295 -1.82211,-0.0295 -1.21512,0 -1.86507,0.006 -2.16627,0.0351 -0.14198,0.0138 -0.18238,0.034 -0.16227,0.0233 -0.0702,0.1017 -0.17328,0.24174 -0.32814,0.30902 -0.18624,0.0809 -0.36054,0.10024 -0.61497,0.11886 -0.50882,0.0372 -1.36199,0.0372 -3.01739,0.0372 -1.25476,0 -2.13016,-0.009 -2.7192,-0.0351 -0.29451,-0.0129 -0.51718,-0.0287 -0.69297,-0.0527 -0.0879,-0.012 -0.16272,-0.0265 -0.24238,-0.0491 -0.0796,-0.0226 -0.16854,-0.0316 -0.30488,-0.16795 -0.12623,-0.12625 -0.13642,-0.2027 -0.15968,-0.27337 -0.0233,-0.0707 -0.0383,-0.13639 -0.0512,-0.20671 -0.0257,-0.14064 -0.0419,-0.29999 -0.0563,-0.48266 -0.0289,-0.36532 -0.0434,-0.81577 -0.0434,-1.26762 0,-0.45185 0.0143,-0.9023 0.0434,-1.26762 0.0145,-0.18266 0.0306,-0.34358 0.0563,-0.48421 0.013,-0.0703 0.0279,-0.13448 0.0512,-0.20515 0.0233,-0.0707 0.0334,-0.1492 0.15968,-0.27544 0.13634,-0.13632 0.22526,-0.14536 0.30488,-0.16795 0.0796,-0.0226 0.15446,-0.035 0.24238,-0.047 0.17579,-0.024 0.39846,-0.0399 0.69297,-0.0527 0.58904,-0.0257 1.46444,-0.0367 2.7192,-0.0367 1.66032,0 2.51479,0.002 3.02308,0.0388 0.25416,0.0188 0.42659,0.0368 0.61341,0.11938 0.15155,0.067 0.24799,0.20229 0.31832,0.30282 -0.0156,-0.008 0.0456,0.0164 0.22842,0.0289 0.38766,0.0264 1.20403,0.0209 2.76365,0.004 l 2.89854,-0.031 0.31625,-0.74259 c 0.12766,-0.29925 0.26157,-0.58093 0.37931,-0.8046 0.0589,-0.11183 0.1125,-0.20917 0.16587,-0.29301 0.0534,-0.0838 0.0293,-0.13407 0.25167,-0.27543 0.15623,-0.0989 0.21386,-0.0925 0.29715,-0.10904 0.0838,-0.0167 0.17209,-0.0289 0.2713,-0.0393 0.19839,-0.0207 0.43382,-0.0326 0.67591,-0.0331 h 0.31628 v -0.51935 c 0,-0.32706 0.0164,-0.78535 0.045,-1.18753 0.0143,-0.20108 0.0306,-0.38732 0.0527,-0.54312 0.0111,-0.0779 0.0233,-0.14652 0.0413,-0.21859 0.0182,-0.0721 -0.022,-0.13042 0.16589,-0.31833 0.12451,-0.12452 0.18738,-0.12525 0.2403,-0.14262 0.0529,-0.0174 0.0971,-0.0264 0.14263,-0.0351 0.0909,-0.0173 0.18759,-0.03 0.30438,-0.0413 0.23355,-0.0227 0.5365,-0.0405 0.89244,-0.0548 0.71186,-0.0285 1.63163,-0.0408 2.55281,-0.0408 z m 2.24999,2.06602 h -2.24999 -2.24793 v 0.88315 0.15038 h 2.24793 2.24999 v -0.15038 z m -6.96854,3.221 -0.54314,1.29707 c -0.37134,0.88595 -0.88262,2.09421 -1.14049,2.69286 l -0.16433,0.37931 h 6.56085 6.56031 l -0.83976,-1.9513 -1.01182,-2.35335 -4.71495,-0.0315 z m 4.70098,0.43563 c 0.16243,0 0.34674,0.0288 0.51782,0.13074 0.17108,0.10192 0.30056,0.26934 0.37309,0.43563 0.14504,0.33259 0.15607,0.68271 0.15607,1.18339 0,0.29437 -0.0164,0.5615 -0.0491,0.78703 -0.0164,0.11277 -0.0361,0.21497 -0.0661,0.31471 -0.03,0.0997 -0.0443,0.19831 -0.18965,0.34365 -0.18928,0.1893 -0.45051,0.32318 -0.72811,0.31833 -0.27763,-0.005 -0.52165,-0.14564 -0.68781,-0.32246 -0.33234,-0.35363 -0.46665,-0.85367 -0.46665,-1.44126 0,-0.42363 0.0704,-0.80273 0.23408,-1.12293 0.16373,-0.32019 0.48416,-0.62683 0.90641,-0.62683 z m -3.14656,0 c 0.16238,0 0.34671,0.0288 0.51779,0.13074 0.17108,0.10192 0.29851,0.26934 0.37103,0.43563 0.14504,0.33259 0.15814,0.68271 0.15814,1.18339 0,0.29437 -0.0159,0.5615 -0.0486,0.78703 -0.0164,0.11277 -0.0367,0.21497 -0.0667,0.31471 -0.03,0.0997 -0.0438,0.19831 -0.18913,0.34365 -0.18931,0.1893 -0.45101,0.32318 -0.72863,0.31833 -0.27763,-0.005 -0.52165,-0.14564 -0.68781,-0.32246 -0.33235,-0.35363 -0.46871,-0.85367 -0.46871,-1.44126 0,-0.42363 0.0729,-0.80273 0.23667,-1.12293 0.16369,-0.32019 0.48363,-0.62683 0.9059,-0.62683 z m 6.31278,0.002 c 0.19359,0 0.36457,0.0734 0.49609,0.15606 0.20966,0.13176 0.35383,0.38256 0.41188,0.61908 0.058,0.23653 0.0766,0.50085 0.092,0.87902 0.0127,0.3108 0.01,0.58553 -0.014,0.81649 -0.0233,0.23095 0.006,0.39103 -0.21653,0.6599 -0.21381,0.25748 -0.4223,0.36742 -0.76946,0.36742 -0.16968,0 -0.36801,-0.0364 -0.53949,-0.15038 -0.1715,-0.11397 -0.28845,-0.2908 -0.35348,-0.46302 -0.13004,-0.34445 -0.13023,-0.71118 -0.10904,-1.23041 0.0154,-0.37816 0.0355,-0.64251 0.0935,-0.87902 0.058,-0.23651 0.20066,-0.48731 0.41032,-0.61908 0.13152,-0.0826 0.30456,-0.15606 0.49816,-0.15606 z m -18.07435,1.40043 h -2.05465 -2.05259 v 0.34726 0.34778 h 2.05259 2.05465 v -0.34778 z m 18.33324,8.8408 c 0.11372,-0.005 0.23069,-0.002 0.35452,0.003 0.30191,0.0117 0.49268,0.0112 0.66196,0.0253 0.16941,0.0141 0.39574,0.0562 0.56433,0.22479 0.25582,0.25584 0.30895,0.65938 0.21497,0.94723 -0.0555,0.16992 -0.196,0.27441 -0.30853,0.40049 v 0.12713 l -0.21497,0.15037 c -0.5102,0.35729 -1.18317,0.41819 -1.76372,0.10749 -0.25556,-0.1368 -0.46336,-0.36109 -0.55448,-0.63717 -0.0911,-0.27609 -0.0542,-0.58772 0.0837,-0.84543 0.13018,-0.24319 0.3955,-0.40234 0.62323,-0.45733 0.11385,-0.0275 0.22513,-0.0404 0.33898,-0.0455 z m -17.06872,2.03812 c -0.20222,2e-5 -0.38708,0.005 -0.54208,0.0176 -0.94826,0.0765 -1.60578,0.29569 -1.80866,0.49609 -0.10144,0.1002 -0.13169,0.16657 -0.12454,0.33745 0.007,0.17088 0.0902,0.45239 0.3121,0.82837 l 0.0703,0.11937 v 0.008 c 0.0309,0.0519 0.0706,0.11602 0.12298,0.20102 0.11988,0.19466 0.28554,0.45969 0.46924,0.74828 0.10104,0.15875 0.10787,0.14519 0.19119,0.25993 0.0955,-0.20286 0.20965,-0.4163 0.34364,-0.6351 0.29363,-0.47947 0.62851,-0.95037 0.97877,-1.25574 0.58949,-0.51396 1.26156,-0.86102 1.96265,-1.07022 -0.60351,-0.0111 -1.36893,-0.0548 -1.97559,-0.0548 z m 4.80745,0.0977 c 1.06014,0.2833 2.06278,0.80494 2.77194,1.74769 l 0.003,0.004 0.22892,-0.2558 c 0.4699,-0.52722 1.02272,-0.94678 1.66606,-1.26349 0.36139,-0.1779 0.70844,-0.14358 0.99994,-0.21704 -0.98883,0.007 -1.5825,0.0196 -3.31248,0.0196 h -0.003 -0.003 c -0.87276,-0.004 -1.49495,-0.004 -2.35181,-0.0351 z m -1.30222,1.86913 c -0.78626,8e-4 -1.58663,0.32278 -2.22674,0.98599 -0.56462,0.58501 -0.77983,1.1255 -0.78705,1.99213 -0.0101,1.20114 0.59417,2.18248 1.62266,2.66805 0.86916,0.41036 1.69275,0.44547 2.39882,0.18965 0.70604,-0.25582 1.31236,-0.80844 1.71254,-1.67793 0.35174,-0.76415 0.29671,-1.89303 -0.1266,-2.61534 -0.52914,-0.90293 -1.36792,-1.42011 -2.25774,-1.52343 -0.11123,-0.0129 -0.22358,-0.0192 -0.33589,-0.0191 z m 16.34318,0.0212 c -1.57118,0.007 -2.78241,1.14284 -2.90007,2.78742 -0.0523,0.73013 -0.0438,0.78629 0.21497,1.35134 0.34216,0.74741 0.91345,1.32479 1.48206,1.56838 2.10215,0.90053 4.26334,-0.50581 4.25194,-2.75177 -0.004,-0.87105 -0.16767,-1.28931 -0.76946,-1.95544 -0.56796,-0.62865 -1.132,-0.91082 -1.96059,-0.98598 -0.10774,-0.01 -0.2141,-0.0144 -0.31885,-0.0139 z m -8.14525,0.002 c -1.95726,-0.0198 -3.46141,1.83561 -2.8856,3.81631 0.22114,0.76069 0.93358,1.56996 1.59369,1.84743 1.41557,0.595 2.64559,0.32081 3.58016,-0.77101 1.45708,-1.70228 0.5407,-4.36121 -1.66812,-4.82451 -0.21037,-0.0441 -0.41765,-0.0662 -0.62013,-0.0682 z"
       style="fill:#000000;stroke:none;stroke-width:1.00789452;stroke-miterlimit:4;stroke-dasharray:none;stroke-opacity:1"
       inkscape:connector-curvature="0" />
  </g>
</svg>
