<?xml version="1.0" encoding="UTF-8" standalone="no"?>
<!-- Created with Inkscape (http://www.inkscape.org/) -->

<svg
   xmlns:dc="http://purl.org/dc/elements/1.1/"
   xmlns:cc="http://creativecommons.org/ns#"
   xmlns:rdf="http://www.w3.org/1999/02/22-rdf-syntax-ns#"
   xmlns:svg="http://www.w3.org/2000/svg"
   xmlns="http://www.w3.org/2000/svg"
   xmlns:sodipodi="http://sodipodi.sourceforge.net/DTD/sodipodi-0.dtd"
   xmlns:inkscape="http://www.inkscape.org/namespaces/inkscape"
   width="121.10998mm"
   height="145.66272mm"
   viewBox="0 0 121.10998 145.66272"
   version="1.1"
   id="svg8430"
   inkscape:version="0.92.5 (2060ec1f9f, 2020-04-08)"
   sodipodi:docname="western-pattern.svg">
  <defs
     id="defs8424" />
  <sodipodi:namedview
     id="base"
     pagecolor="#ffffff"
     bordercolor="#666666"
     borderopacity="1.0"
     inkscape:pageopacity="0.0"
     inkscape:pageshadow="2"
     inkscape:zoom="0.35"
     inkscape:cx="57.075097"
     inkscape:cy="742.29113"
     inkscape:document-units="mm"
     inkscape:current-layer="layer1"
     showgrid="false"
     fit-margin-top="15"
     fit-margin-left="15"
     fit-margin-right="15"
     fit-margin-bottom="15"
     inkscape:window-width="1920"
     inkscape:window-height="1016"
     inkscape:window-x="0"
     inkscape:window-y="27"
     inkscape:window-maximized="1" />
  <metadata
     id="metadata8427">
    <rdf:RDF>
      <cc:Work
         rdf:about="">
        <dc:format>image/svg+xml</dc:format>
        <dc:type
           rdf:resource="http://purl.org/dc/dcmitype/StillImage" />
        <dc:title></dc:title>
      </cc:Work>
    </rdf:RDF>
  </metadata>
  <g
     inkscape:label="Calque 1"
     inkscape:groupmode="layer"
     id="layer1"
     transform="translate(164.55696,-136.13117)">
    <path
       inkscape:tile-y0="139.79037"
       inkscape:tile-x0="-47.753201"
       id="use9523"
       d="m -137.84394,156.55544 c -0.21508,0 -0.25868,0.0584 -0.32038,0.0935 -0.0617,0.0352 -0.11441,0.0714 -0.17002,0.11318 -0.11126,0.0836 -0.23331,0.18675 -0.37103,0.31057 -0.27551,0.24763 -0.60587,0.57084 -0.92966,0.90279 -0.32383,0.33195 -0.63911,0.67063 -0.88056,0.95291 -0.12073,0.14115 -0.22167,0.26729 -0.30285,0.38086 -0.0406,0.0568 -0.0779,0.11 -0.11162,0.17208 -0.0337,0.0621 -0.0858,0.10628 -0.0858,0.31213 0,0.18172 0.0487,0.24594 0.0842,0.3147 0.0355,0.0688 0.0733,0.12878 0.11885,0.19327 0.091,0.12898 0.20981,0.27297 0.35967,0.44545 0.29972,0.34498 0.72327,0.7946 1.25934,1.33171 0.67143,0.6727 1.11167,1.0971 1.44179,1.37304 0.27295,0.22816 0.50044,0.32603 0.76325,0.37517 -1.06895,1.06456 -2.18078,2.1768 -2.60707,2.5647 -0.29845,0.2716 -0.48353,0.40952 -0.56068,0.45475 -0.0124,0.007 -0.0143,0.0101 -0.0185,0.0139 -0.1555,-0.0138 -0.38669,0.0207 -0.56743,0.11886 -0.19404,0.10543 -0.38084,0.25487 -0.65627,0.50178 -0.55089,0.49381 -1.44751,1.38769 -3.11095,3.05666 -1.94984,1.95637 -2.86771,2.83642 -3.30313,3.47266 -0.21773,0.31812 -0.33796,0.69307 -0.23411,1.01802 0.0996,0.31158 0.27443,0.4533 0.4217,0.6289 -0.28401,0.10486 -0.56076,0.23908 -0.83201,0.4315 -0.33293,0.23618 -0.63392,0.48049 -0.83611,0.7891 -0.20077,0.30641 -0.32552,0.63952 -0.23204,1.00356 0.0935,0.36403 0.4691,0.62005 0.82425,0.66042 0.18648,0.0212 0.39717,0.0111 0.59169,-0.0724 0.1945,-0.0834 0.34248,-0.22128 0.46302,-0.36897 0.0849,-0.10396 0.31618,-0.30044 0.53486,-0.4377 0.0541,-0.034 0.0965,-0.053 0.14676,-0.0801 0.003,0.0644 0.0153,0.0867 0.01,0.17002 -0.0277,0.39817 -0.16835,0.96095 -0.39068,1.40612 -0.0958,0.19187 -0.47183,0.68095 -0.71882,0.90433 -0.37,0.33463 -0.59952,0.51394 -0.75189,0.83406 -0.0762,0.16006 -0.10438,0.35471 -0.0899,0.51366 0.0143,0.15896 0.054,0.28842 0.0961,0.42995 0.0735,0.24717 0.0774,0.55505 -0.0511,1.48415 -0.2645,1.91228 -0.0341,3.6548 0.70901,5.13457 0.10453,0.20819 0.20124,0.39002 0.39634,0.54105 0.19511,0.15103 0.44797,0.19327 0.64286,0.19327 0.006,0 0.0132,-0.006 0.0196,-0.006 -0.1356,0.20825 -0.29858,0.41887 -0.20153,0.72451 0.11618,0.36599 0.35266,0.6743 0.68368,1.11931 0.33102,0.44501 0.75036,0.96067 1.18547,1.46502 0.4351,0.50436 0.88606,0.99702 1.28156,1.39423 0.35592,0.35746 0.62121,0.59545 0.91416,0.77153 0.0326,0.0196 0.0679,0.0685 0.10128,0.0858 0.2594,0.1345 0.51033,0.25576 0.81857,0.28733 0.30821,0.0316 0.63489,-0.0551 0.93946,-0.22842 0.60912,-0.34658 1.27338,-1.01048 2.51923,-2.25205 1.12805,-1.12419 1.73953,-1.74171 2.08206,-2.27325 0.17123,-0.26577 0.27974,-0.53468 0.29093,-0.8108 0.0111,-0.27613 -0.0694,-0.51439 -0.15814,-0.72864 -0.1664,-0.40167 -0.4671,-0.69419 -0.81029,-0.96067 -1.08487,-0.84237 -1.90402,-1.61753 -2.43758,-2.28719 -0.53353,-0.66968 -0.76086,-1.2271 -0.76583,-1.58802 -0.003,-0.18289 0.0356,-0.29779 0.13695,-0.4315 0.10107,-0.13342 0.28508,-0.28486 0.58393,-0.43357 0.15185,-0.0754 0.21193,-0.0906 0.21085,-0.0925 0.007,0.004 0.022,0.011 0.0687,0.0357 0.35591,0.18806 0.74604,0.22062 1.15808,0.21498 0.41203,-0.006 0.82259,-0.0603 1.18131,-0.23048 0.48361,-0.22949 0.95724,-0.70785 1.46502,-1.25212 0.50782,-0.54427 0.96573,-1.08772 1.18185,-1.57613 0.53874,-1.2174 0.34678,-2.67081 -0.49454,-3.69125 -0.14155,-0.17169 -0.22209,-0.29781 -0.24804,-0.36328 -0.0259,-0.0655 -0.0241,-0.058 -0.006,-0.11731 0.037,-0.1186 0.30958,-0.48917 0.91572,-1.08572 0.23222,-0.22858 0.44304,-0.45772 0.60357,-0.65267 0.0803,-0.0975 0.14819,-0.18438 0.20515,-0.27131 0.0285,-0.0435 0.0543,-0.0864 0.0801,-0.14056 0.0214,-0.045 0.043,-0.11684 0.0527,-0.22272 0.0101,0.10633 0.0333,0.17762 0.0548,0.22272 0.0257,0.0541 0.0516,0.0971 0.0801,0.14056 0.057,0.0869 0.12491,0.17383 0.20516,0.27131 0.16052,0.19495 0.37134,0.4241 0.6036,0.65267 0.6061,0.59655 0.87873,0.96712 0.91569,1.08572 0.0185,0.0593 0.0183,0.0518 -0.008,0.11731 -0.0259,0.0655 -0.10443,0.19159 -0.24598,0.36328 -0.84082,1.01981 -1.0341,2.47337 -0.49609,3.68918 0.21351,0.48252 0.65516,1.01475 1.14826,1.54306 0.49308,0.52832 0.98332,0.9992 1.45105,1.23868 0.36508,0.18695 0.78457,0.26243 1.20304,0.27699 0.41846,0.0145 0.82412,-0.0217 1.18597,-0.21291 0.0466,-0.0247 0.0613,-0.0319 0.0682,-0.0357 -0.0122,-1.9e-4 0.0463,0.0118 0.20878,0.0925 0.40876,0.20305 0.60873,0.43149 0.68937,0.65836 0.0806,0.22688 0.0676,0.5016 -0.12507,0.88057 -0.32781,0.64461 -1.44483,1.92292 -2.46859,2.7404 -0.49072,0.39186 -0.87219,0.69958 -1.15236,1.04077 -0.28017,0.34117 -0.45262,0.78742 -0.36693,1.23041 0.17143,0.88598 0.95176,1.57357 2.34768,2.96519 0.58372,0.58195 1.1476,1.12253 1.59163,1.53118 0.22201,0.20432 0.41357,0.37503 0.56636,0.50384 0.0764,0.0644 0.14227,0.11839 0.2031,0.16382 0.0608,0.0454 0.0848,0.0781 0.22066,0.13125 0.0545,0.0213 0.11806,-0.028 0.17415,-0.0119 0.46365,0.13348 0.96896,0.15634 1.43711,-0.0899 0.5248,-0.27604 1.02777,-0.7507 1.66246,-1.46089 2.14683,-2.40229 3.57917,-4.65678 4.05037,-6.52156 0.25897,-1.02507 0.27445,-2.4165 0.0724,-3.76721 -0.10851,-0.72549 -0.0949,-0.98897 -0.0372,-1.15446 0.0405,-0.11619 0.078,-0.23155 0.10591,-0.33021 0.014,-0.0493 0.0251,-0.0926 0.0352,-0.13642 0.01,-0.0438 0.0233,-0.0607 0.0233,-0.17622 0,-0.27453 -0.0635,-0.25331 -0.0878,-0.29301 -0.0243,-0.0397 -0.0464,-0.0698 -0.0703,-0.10128 -0.0478,-0.0629 -0.10559,-0.13099 -0.17415,-0.20929 -0.13708,-0.15661 -0.3172,-0.34923 -0.51728,-0.55242 -0.74412,-0.75569 -0.9515,-1.12792 -1.10535,-1.94717 -0.0462,-0.24616 -0.0376,-0.40102 -0.0315,-0.54725 0.0482,0.0262 0.0891,0.0442 0.14057,0.0765 0.21868,0.13725 0.45051,0.33169 0.53536,0.43563 0.12057,0.14771 0.2685,0.28556 0.46302,0.36897 0.19452,0.0834 0.40317,0.0935 0.58962,0.0724 0.35515,-0.0404 0.73285,-0.29639 0.82632,-0.66043 0.0935,-0.36403 -0.0338,-0.69715 -0.2346,-1.00355 -0.20222,-0.30861 -0.50062,-0.55293 -0.83355,-0.7891 -0.27048,-0.19188 -0.54734,-0.32502 -0.83044,-0.42995 0.14832,-0.18048 0.28712,-0.32853 0.39274,-0.55862 0.11055,-0.24089 0.10404,-0.5973 -0.0233,-0.85732 -0.25466,-0.52002 -0.75668,-0.95986 -1.77146,-1.9823 -0.61368,-0.6183 -1.10649,-1.09191 -1.47693,-1.42007 -0.18521,-0.16407 -0.33936,-0.29152 -0.47437,-0.38861 -0.0675,-0.0485 -0.12825,-0.0899 -0.19947,-0.12712 -0.0712,-0.0373 -0.13812,-0.0879 -0.31988,-0.0879 -0.16307,0 -0.29584,0.0973 -0.43977,0.16433 0.0483,-0.0926 0.12637,-0.15663 0.13695,-0.26975 0.0222,-0.23736 -0.0587,-0.45054 -0.1664,-0.63872 -0.21545,-0.37636 -0.57652,-0.75654 -1.18134,-1.35909 -0.5453,-0.54323 -0.85515,-0.84515 -1.12913,-1.0449 -0.27395,-0.19975 -0.64998,-0.27303 -0.88056,-0.22686 0,-5.3e-4 -0.0338,-0.01 -0.12144,-0.076 -0.1904,-0.14446 -0.55761,-0.49434 -1.19888,-1.1312 -0.62035,-0.61607 -0.9842,-0.97093 -1.27384,-1.19527 -0.14481,-0.11217 -0.27591,-0.19686 -0.43717,-0.25167 -0.006,-0.002 -0.0132,0.002 -0.0196,0 0.9393,-0.94776 1.99094,-2.0048 2.55487,-2.59571 0.43254,-0.45321 0.75599,-0.80154 0.97824,-1.05678 0.1111,-0.12762 0.19693,-0.23173 0.26406,-0.32246 0.0336,-0.0454 0.0619,-0.0865 0.0915,-0.13849 0.0296,-0.052 0.0842,-0.0814 0.0842,-0.29663 0,-0.20349 -0.0527,-0.25025 -0.0863,-0.31264 -0.0336,-0.0624 -0.0685,-0.11504 -0.10904,-0.17208 -0.0812,-0.11409 -0.18423,-0.23939 -0.30488,-0.38085 -0.24135,-0.28293 -0.55533,-0.62272 -0.87902,-0.95499 -0.32369,-0.33225 -0.65546,-0.6565 -0.9312,-0.90433 -0.1379,-0.12392 -0.25993,-0.2269 -0.37156,-0.31058 -0.0558,-0.0418 -0.1075,-0.08 -0.16952,-0.11524 -0.062,-0.0352 -0.10731,-0.0915 -0.32038,-0.0915 -0.25837,0 -0.27525,0.0632 -0.34571,0.10335 -0.0705,0.0401 -0.1371,0.0858 -0.20931,0.1385 -0.14438,0.1054 -0.30638,0.23898 -0.46868,0.38861 l -0.24392,0.22685 -0.0569,-0.0413 c -0.2481,-0.17667 -0.53462,-0.32922 -0.88056,-0.26561 -0.34597,0.0636 -0.56375,0.31566 -0.72451,0.5705 -0.0997,0.15811 -0.15338,0.42698 -0.0997,0.63098 0.0536,0.20399 0.15296,0.34666 0.27337,0.50952 l 0.0217,0.0295 -1.73477,1.73633 c -0.0233,-0.11456 -0.0436,-0.23444 -0.0992,-0.32608 -0.15578,-0.25698 -0.37245,-0.46349 -0.76171,-0.85576 l -0.53123,-0.53485 0.031,-0.0413 c 0.12261,-0.16592 0.22236,-0.3075 0.27752,-0.5116 0.0552,-0.20409 0.003,-0.47704 -0.0977,-0.63665 -0.16073,-0.25485 -0.37904,-0.50691 -0.72501,-0.57051 -0.34594,-0.0636 -0.63248,0.089 -0.88056,0.26562 l -0.0569,0.0413 -0.24389,-0.22686 c -0.16232,-0.14963 -0.32639,-0.28322 -0.47077,-0.38861 -0.0722,-0.0527 -0.13833,-0.0984 -0.20879,-0.13849 -0.0705,-0.0401 -0.0857,-0.10335 -0.34417,-0.10335 z m -0.0315,2.57245 1.11517,1.10123 c 0.81182,0.80257 1.26534,1.25275 1.73479,1.48053 0.0471,0.0228 0.1151,-0.0182 0.17,-0.002 l -1.07228,1.07435 c -0.0154,-0.11266 0.0706,-0.21692 0.0135,-0.32039 -0.0877,-0.15847 -0.12658,-0.17534 -0.21497,-0.27544 -0.0884,-0.1001 -0.20313,-0.22417 -0.33798,-0.3669 -0.26972,-0.28547 -0.62106,-0.64612 -0.99373,-1.01596 l -1.00822,-0.99994 0.31679,-0.35915 z m 8.63666,0.002 0.28528,0.31265 0.31263,0.34365 -4.51186,4.51962 c -1.33226,1.33475 -2.54984,2.54873 -3.43908,3.42769 -0.44461,0.43948 -0.80688,0.79664 -1.05884,1.04128 -0.0307,0.0298 -0.0429,0.0417 -0.0703,0.0682 -0.11102,-0.10627 -0.22905,-0.21752 -0.36742,-0.35915 l -0.31989,-0.32814 4.59352,-4.52169 z m -1.98591,6.25389 c 0.003,0.006 0,0.0155 0.003,0.0217 0.0625,0.14878 0.14894,0.27314 0.26356,0.41806 0.22923,0.28983 0.58565,0.66463 1.17355,1.25987 l 1.0785,1.09141 -0.34777,0.34778 -0.34573,0.34571 -1.0237,-1.02164 c -0.53639,-0.53485 -0.90371,-0.88368 -1.19528,-1.11879 -0.21924,-0.17677 -0.42566,-0.24187 -0.64648,-0.29869 l 0.83613,-0.83613 c 0.092,-0.0919 0.11562,-0.11975 0.20516,-0.20929 z m -2.12701,2.12906 c 0.0106,0.0598 -0.0324,0.11728 -0.014,0.17571 0.0439,0.1383 0.0757,0.1611 0.10957,0.20928 0.0338,0.0482 0.0699,0.0954 0.11316,0.14832 0.0866,0.10586 0.19767,0.23187 0.3302,0.37672 0.26506,0.28968 0.6159,0.65083 0.99219,1.02164 l 0.99012,0.97462 -1.11723,1.12138 c -0.41069,0.41165 -0.7824,0.8054 -1.05833,1.11672 -0.13798,0.15567 -0.25109,0.28974 -0.33798,0.40256 -0.0435,0.0564 -0.0804,0.10612 -0.11523,0.16227 -0.0313,0.0505 -0.0839,0.0909 -0.0956,0.29662 -0.0119,-0.20401 -0.0628,-0.24619 -0.094,-0.29662 -0.0348,-0.0561 -0.0719,-0.10595 -0.11525,-0.16227 -0.0867,-0.11263 -0.19833,-0.2473 -0.33589,-0.40256 -0.27514,-0.3105 -0.64685,-0.70271 -1.05627,-1.11311 l -1.11363,-1.11724 z m 6.51383,1.79524 0.67953,0.61702 c 0.52546,0.47704 0.83294,0.7549 1.16015,0.92398 0.16361,0.0845 0.36541,0.14626 0.5798,0.1111 0.0793,-0.013 0.11142,-0.066 0.17571,-0.0977 -0.0565,0.1193 -0.1597,0.21084 -0.1597,0.35553 0,0.15158 0.0344,0.19554 0.0543,0.23823 0.0198,0.0427 0.0388,0.0712 0.0569,0.0997 0.0363,0.0571 0.0744,0.11008 0.12092,0.1695 0.093,0.11884 0.2159,0.26061 0.36536,0.42788 0.29887,0.33455 0.70242,0.76249 1.14824,1.20923 l 1.31466,1.3162 -0.0879,0.13694 c -0.5887,0.90343 -0.81301,1.86916 -0.74983,3.12487 0.0271,0.5383 0.12504,0.90651 0.24186,1.27331 l -0.27337,-0.0196 c -1.25005,-0.0882 -2.39009,0.0929 -3.43958,0.55707 l -0.0191,0.008 c -0.0824,-0.9393 -0.60746,-1.81662 -1.70739,-2.86908 -0.79785,-0.76341 -1.25666,-1.12114 -1.78903,-1.26607 -0.21585,-0.0588 -0.36153,-0.0974 -0.49197,-0.13281 -0.0103,-0.0297 -0.0204,-0.0508 -0.0274,-0.0858 -0.0532,-0.26623 -0.17846,-0.45622 -0.34157,-0.68574 -0.16312,-0.22952 -0.37412,-0.47843 -0.62529,-0.74001 l -0.41961,-0.4377 2.11305,-2.11098 z m -13.4302,0.004 2.11926,2.11719 2.11355,2.11357 -0.42011,0.43718 c -0.25119,0.26157 -0.46373,0.51099 -0.62685,0.74052 -0.16311,0.22953 -0.28681,0.4189 -0.34001,0.68523 -0.007,0.0342 -0.0172,0.0549 -0.0274,0.0842 -0.13052,0.0354 -0.27604,0.0761 -0.49194,0.13488 -0.53205,0.14483 -0.99068,0.50049 -1.78544,1.26348 -0.29794,0.28604 -0.5928,0.60015 -0.83767,0.88264 -0.24484,0.28249 -0.42889,0.50004 -0.55086,0.73845 l -0.26768,0.52349 0.10591,0.0331 c -0.0727,0.23174 -0.1697,0.45094 -0.19947,0.67799 l -0.0156,-0.008 c -1.02767,-0.45186 -2.16913,-0.62834 -3.40651,-0.54105 l -0.31832,0.0212 c 0.22077,-0.63696 0.37375,-1.32665 0.30491,-2.05827 -0.0837,-0.88913 -0.34536,-1.77125 -0.82426,-2.44378 l -0.0274,-0.0388 1.4609,-1.46865 c 0.96163,-0.96708 2.34958,-2.32079 3.06647,-2.99051 z m 13.64465,0.83613 c -0.20312,0 -0.25202,0.0551 -0.31626,0.0899 -0.0642,0.0349 -0.11882,0.0707 -0.17777,0.11317 -0.1179,0.0849 -0.24821,0.19178 -0.39429,0.31833 -0.29215,0.25309 -0.64402,0.58379 -0.98649,0.92397 -0.34251,0.34019 -0.67448,0.68725 -0.92967,0.97824 -0.12758,0.14549 -0.23461,0.27674 -0.32038,0.39481 -0.0429,0.059 -0.0799,0.11303 -0.11526,0.17776 -0.0353,0.0647 -0.0899,0.11614 -0.0899,0.31833 0,0.1977 0.0547,0.25986 0.094,0.33176 0.0393,0.0719 0.0824,0.13472 0.13438,0.20516 0.10391,0.14088 0.24149,0.30422 0.42011,0.50384 0.35727,0.39924 0.87604,0.93658 1.55289,1.60921 0.5932,0.58948 1.13557,1.10389 1.55237,1.47691 0.20838,0.18651 0.3842,0.33698 0.5276,0.44907 0.0717,0.056 0.13346,0.10332 0.19897,0.14469 0.0655,0.0414 0.0578,0.11524 0.35345,0.11524 0.19085,0 0.24199,-0.0478 0.30491,-0.0801 0.0629,-0.0323 0.11618,-0.0661 0.17362,-0.10542 0.11488,-0.0786 0.24138,-0.17815 0.38293,-0.29507 0.28311,-0.23384 0.62217,-0.53933 0.95705,-0.85731 0.33489,-0.31799 0.66368,-0.64676 0.92189,-0.92759 0.12912,-0.14042 0.23995,-0.2669 0.33023,-0.38293 0.0903,-0.11602 0.16502,-0.16589 0.22632,-0.40049 0.06,-0.22954 -0.0161,-0.43559 -0.10128,-0.58808 -0.0852,-0.15248 -0.19788,-0.29643 -0.35965,-0.48421 -0.32356,-0.37554 -0.84947,-0.91611 -1.70894,-1.7756 -0.58349,-0.58349 -1.13261,-1.11332 -1.55237,-1.50171 -0.20989,-0.1942 -0.38727,-0.35252 -0.52554,-0.46871 -0.0691,-0.0581 -0.12586,-0.10537 -0.18346,-0.14676 -0.0288,-0.0207 -0.0579,-0.04 -0.0982,-0.0625 -0.0403,-0.0225 -0.0547,-0.0739 -0.2713,-0.0739 z m -13.5077,0.0801 c -0.21658,0 -0.231,0.0514 -0.2713,0.0739 -0.0403,0.0225 -0.0689,0.0418 -0.0977,0.0625 -0.0576,0.0414 -0.11636,0.0887 -0.1855,0.14676 -0.1383,0.11619 -0.31361,0.27451 -0.52348,0.4687 -0.41979,0.3884 -0.96941,0.91823 -1.55289,1.50172 -0.43177,0.43178 -0.78034,0.78418 -1.0604,1.07436 -0.41746,0.43254 -0.68096,0.72164 -0.8573,0.95704 -0.0882,0.1177 -0.15714,0.22272 -0.20929,0.34779 -0.0204,0.049 -0.006,0.123 -0.0175,0.18345 -0.0354,0.0673 -0.0894,0.12549 -0.0935,0.18965 -0.008,0.12117 0.0217,0.19419 0.0429,0.24391 0.0851,0.19888 0.13568,0.21112 0.24239,0.32608 0.10668,0.11497 0.26236,0.27632 0.50384,0.51573 0.4971,0.49289 0.9619,0.9286 1.32602,1.24799 0.18206,0.15969 0.33795,0.28851 0.46871,0.38705 0.0654,0.0493 0.12414,0.0908 0.18756,0.12868 0.0634,0.0379 0.0758,0.10542 0.33591,0.10542 0.27723,0 0.29446,-0.0754 0.3674,-0.12093 0.0729,-0.0455 0.14206,-0.0965 0.22067,-0.15812 0.15721,-0.12327 0.34435,-0.28754 0.56017,-0.48266 0.43164,-0.39025 0.96827,-0.90499 1.4945,-1.43144 0.5262,-0.52645 1.04135,-1.06265 1.43142,-1.49448 0.19503,-0.21592 0.35738,-0.40496 0.48059,-0.56224 0.0616,-0.0786 0.1147,-0.14769 0.16021,-0.22066 0.0455,-0.073 0.11885,-0.0883 0.11885,-0.36535 0,-0.18361 -0.0473,-0.24095 -0.0801,-0.30489 -0.0327,-0.0639 -0.0676,-0.11865 -0.10697,-0.17571 -0.0789,-0.11411 -0.17566,-0.23751 -0.29147,-0.37465 -0.23161,-0.27427 -0.53252,-0.59919 -0.84336,-0.91622 -0.31083,-0.31703 -0.62941,-0.62295 -0.89865,-0.85938 -0.13462,-0.11821 -0.25644,-0.21788 -0.36896,-0.29869 -0.0563,-0.0404 -0.11026,-0.0777 -0.17415,-0.11162 -0.0639,-0.0339 -0.11933,-0.0837 -0.30851,-0.0837 z m 13.46687,2.49597 1.17978,1.17977 1.10535,1.10536 -0.73999,0.74208 -1.14464,-1.14825 -1.14051,-1.14257 0.0703,-0.0682 0.004,-0.002 c 0.38396,-0.38306 0.52152,-0.52185 0.66611,-0.66611 z m -13.46118,0.11317 0.008,0.01 0.43564,0.43564 0.0739,0.0744 -1.14411,1.14049 -1.14464,1.14257 -0.51367,-0.51573 0.66765,-0.66766 0.47284,-0.47491 z m 10.29343,2.60553 c 0.005,0.001 0.003,0.003 0.006,0.004 0,-1.9e-4 -0.005,-0.002 -0.006,-0.002 z m -14.35521,0.1881 c 0.003,0.002 0.006,0.005 0.008,0.008 -0.16285,0.1377 -0.21235,0.10312 -0.18602,0.0971 0.0164,-0.004 0.10189,-0.0566 0.17827,-0.1049 z m 6.9722,1.95854 c 0.21802,0 0.3052,0.0321 0.37671,0.0822 0.0715,0.0501 0.16161,0.15565 0.27181,0.39842 0.24619,0.54207 0.25238,0.74072 0.0527,1.21853 -0.0297,0.0711 -0.38944,0.57901 -0.76586,0.9865 -0.37643,0.4075 -0.85321,0.80648 -0.92552,0.84388 -0.18351,0.0949 -0.25786,0.10466 -0.31472,0.10129 -0.0569,-0.003 -0.15634,-0.0313 -0.35758,-0.154 -0.17929,-0.1093 -0.24453,-0.34242 -0.34161,-0.55294 0.19736,0.0184 0.38698,0.0614 0.58809,0.0527 0.36743,-0.0159 0.688,-0.0397 1.00769,-0.21084 0.32838,-0.17573 0.48374,-0.48263 0.52711,-0.78341 0.0434,-0.30078 -0.0283,-0.68611 -0.37105,-0.90796 -0.14621,-0.0947 -0.20553,-0.0905 -0.28525,-0.10748 -0.0797,-0.017 -0.16203,-0.0311 -0.25374,-0.0413 -0.1039,-0.0116 -0.23013,-0.0121 -0.34933,-0.0176 0.0788,-0.0771 0.13402,-0.13749 0.22067,-0.21859 0.34126,-0.31948 0.57023,-0.51178 0.71053,-0.60358 0.14031,-0.0918 0.15521,-0.0858 0.20932,-0.0858 z m 7.32202,0 c 0.0541,0 0.069,-0.006 0.20929,0.0858 0.14031,0.0918 0.36928,0.2841 0.71057,0.60358 0.0866,0.0811 0.14239,0.14147 0.22116,0.21859 -0.11919,0.005 -0.24596,0.006 -0.34986,0.0176 -0.0917,0.0102 -0.1761,0.0244 -0.2558,0.0413 -0.0797,0.017 -0.13708,0.013 -0.28318,0.10749 -0.34277,0.22184 -0.41439,0.60511 -0.37103,0.90588 0.0434,0.30078 0.19873,0.60974 0.52711,0.78548 0.31914,0.17033 0.6409,0.19497 1.00769,0.21084 0.2305,0.01 0.44987,-0.0335 0.67384,-0.0605 -0.0287,0.0741 -0.0249,0.12285 -0.0739,0.19896 -0.11623,0.18053 -0.28334,0.33637 -0.39635,0.39481 -0.27762,0.14356 -0.33144,0.15047 -0.52969,0.0641 -0.19825,-0.0864 -0.55076,-0.36974 -1.06402,-0.91571 -0.48144,-0.51212 -0.72594,-0.89504 -0.81079,-1.19734 -0.0849,-0.3023 -0.0532,-0.56167 0.13695,-0.9803 0.11022,-0.24277 0.19978,-0.34833 0.2713,-0.39843 0.0715,-0.0501 0.1587,-0.0822 0.37671,-0.0822 z m -14.31075,3.69331 v 0 c 0.72609,0.0119 1.44526,0.19023 2.12079,0.53124 0.0732,0.0369 0.11936,0.0646 0.1855,0.0997 -0.0249,0.0254 -0.0401,0.0422 -0.0661,0.0682 -0.45648,0.45648 -0.72104,1.0477 -0.76171,1.68361 -0.0407,0.63592 0.12637,1.30851 0.46665,2.00402 0.46699,0.95447 1.7304,2.30101 3.00963,3.3476 0.21276,0.17405 0.4004,0.3429 0.53952,0.47852 -0.0915,0.10417 -0.19259,0.21629 -0.33436,0.36535 -0.35795,0.37641 -0.84383,0.86296 -1.33789,1.34152 -0.49408,0.47857 -0.99782,0.95031 -1.3865,1.29708 -0.17761,0.15846 -0.32199,0.28138 -0.43563,0.37311 -0.0188,-0.0149 -0.0259,-0.0174 -0.047,-0.0351 -0.16063,-0.13577 -0.38484,-0.35109 -0.63873,-0.61754 -0.50774,-0.53289 -1.14536,-1.27533 -1.76731,-2.07584 -0.27081,-0.34849 -0.53804,-0.67415 -0.75965,-0.92398 -0.11081,-0.12491 -0.21034,-0.23087 -0.29715,-0.31625 -0.0434,-0.0427 -0.0833,-0.079 -0.12711,-0.11524 -0.0438,-0.0362 -0.0703,-0.0728 -0.20103,-0.12299 -0.13909,-0.0534 -0.20466,0.0758 -0.32607,0.0915 0.0623,-0.10645 0.1628,-0.19606 0.17774,-0.30438 0.0566,-0.4096 -0.069,-0.78125 -0.26767,-1.30896 -0.4903,-1.30259 -0.57291,-2.12422 -0.3514,-3.51761 0.0566,-0.35595 0.0998,-0.7161 0.12298,-1.02113 0.0214,-0.28144 0.0361,-0.46324 -0.006,-0.69918 0.0243,-0.007 0.0784,-0.0461 0.33229,-0.16227 0.69784,-0.31947 1.42981,-0.47286 2.15593,-0.46095 z m 21.3987,0.0393 c 1.17227,0.002 1.15494,-0.007 1.89858,0.33951 l 0.53538,0.25012 v 0.31833 c 0,0.409 0.0647,1.15186 0.14417,1.75183 0.32999,2.49386 -0.87593,5.04824 -4.20129,8.49044 -0.15208,0.15743 -0.3183,0.30237 -0.44702,0.39842 -0.0111,0.008 -0.0148,0.0101 -0.0254,0.0176 -0.11575,-0.0912 -0.27408,-0.22385 -0.46095,-0.39068 -0.38918,-0.34745 -0.88887,-0.82306 -1.37922,-1.30483 -0.49038,-0.48176 -0.97168,-0.97241 -1.32398,-1.3534 -0.14639,-0.15834 -0.25135,-0.28088 -0.34157,-0.38861 0.12525,-0.12165 0.29519,-0.27294 0.48783,-0.42013 0.99423,-0.75957 1.86045,-1.65807 2.49029,-2.54661 0.62987,-0.88854 1.04696,-1.75054 1.04696,-2.56057 0,-0.82731 -0.2635,-1.44073 -0.82786,-1.98024 0.57952,-0.3922 1.2201,-0.62282 2.40401,-0.62115 z"
       style="fill:#000000;stroke:none;stroke-width:0.99842978;stroke-miterlimit:4;stroke-dasharray:none;stroke-opacity:1"
       inkscape:connector-curvature="0" />
    <path
       inkscape:tile-y0="139.79037"
       inkscape:tile-x0="-47.753201"
       id="use9525"
       d="m -125.96063,266.22835 c 0.21508,0 0.25868,-0.0584 0.32038,-0.0935 0.0617,-0.0352 0.11441,-0.0714 0.17002,-0.11318 0.11126,-0.0836 0.23331,-0.18675 0.37103,-0.31057 0.27551,-0.24763 0.60587,-0.57084 0.92966,-0.90279 0.32383,-0.33195 0.63911,-0.67063 0.88056,-0.95291 0.12073,-0.14115 0.22167,-0.26729 0.30285,-0.38086 0.0406,-0.0568 0.0779,-0.11 0.11162,-0.17208 0.0337,-0.0621 0.0858,-0.10628 0.0858,-0.31213 0,-0.18172 -0.0487,-0.24594 -0.0842,-0.3147 -0.0355,-0.0688 -0.0733,-0.12878 -0.11885,-0.19327 -0.091,-0.12898 -0.20981,-0.27297 -0.35967,-0.44545 -0.29972,-0.34498 -0.72327,-0.7946 -1.25934,-1.33171 -0.67143,-0.6727 -1.11167,-1.0971 -1.44179,-1.37304 -0.27295,-0.22816 -0.50044,-0.32603 -0.76325,-0.37517 1.06895,-1.06456 2.18078,-2.1768 2.60707,-2.5647 0.29845,-0.2716 0.48353,-0.40952 0.56068,-0.45475 0.0124,-0.007 0.0143,-0.0101 0.0185,-0.0139 0.1555,0.0138 0.38669,-0.0207 0.56743,-0.11886 0.19404,-0.10543 0.38084,-0.25487 0.65627,-0.50178 0.55089,-0.49381 1.44751,-1.38769 3.11095,-3.05666 1.94984,-1.95637 2.86771,-2.83642 3.30313,-3.47266 0.21773,-0.31812 0.33796,-0.69307 0.23411,-1.01802 -0.0996,-0.31158 -0.27443,-0.4533 -0.4217,-0.6289 0.28401,-0.10486 0.56076,-0.23908 0.83201,-0.4315 0.33293,-0.23618 0.63392,-0.48049 0.83611,-0.7891 0.20077,-0.30641 0.32552,-0.63952 0.23204,-1.00356 -0.0935,-0.36403 -0.4691,-0.62005 -0.82425,-0.66042 -0.18648,-0.0212 -0.39717,-0.0111 -0.59169,0.0724 -0.1945,0.0834 -0.34248,0.22128 -0.46302,0.36897 -0.0849,0.10396 -0.31618,0.30044 -0.53486,0.4377 -0.0541,0.034 -0.0965,0.053 -0.14676,0.0801 -0.003,-0.0644 -0.0153,-0.0867 -0.01,-0.17002 0.0277,-0.39817 0.16835,-0.96095 0.39068,-1.40612 0.0958,-0.19187 0.47183,-0.68095 0.71882,-0.90433 0.37,-0.33463 0.59952,-0.51394 0.75189,-0.83406 0.0762,-0.16006 0.10438,-0.35471 0.0899,-0.51366 -0.0143,-0.15896 -0.054,-0.28842 -0.0961,-0.42995 -0.0735,-0.24717 -0.0774,-0.55505 0.0511,-1.48415 0.2645,-1.91228 0.0341,-3.6548 -0.70901,-5.13457 -0.10453,-0.20819 -0.20124,-0.39002 -0.39634,-0.54105 -0.19511,-0.15103 -0.44797,-0.19327 -0.64286,-0.19327 -0.006,0 -0.0132,0.006 -0.0196,0.006 0.1356,-0.20825 0.29858,-0.41887 0.20153,-0.72451 -0.11618,-0.36599 -0.35266,-0.6743 -0.68368,-1.11931 -0.33102,-0.44501 -0.75036,-0.96067 -1.18547,-1.46502 -0.4351,-0.50436 -0.88606,-0.99702 -1.28156,-1.39423 -0.35592,-0.35746 -0.62121,-0.59545 -0.91416,-0.77153 -0.0326,-0.0196 -0.0679,-0.0685 -0.10128,-0.0858 -0.2594,-0.1345 -0.51033,-0.25576 -0.81857,-0.28733 -0.30821,-0.0316 -0.63489,0.0551 -0.93946,0.22842 -0.60912,0.34658 -1.27338,1.01048 -2.51923,2.25205 -1.12805,1.12419 -1.73953,1.74171 -2.08206,2.27325 -0.17123,0.26577 -0.27974,0.53468 -0.29093,0.8108 -0.0111,0.27613 0.0694,0.51439 0.15814,0.72864 0.1664,0.40167 0.4671,0.69419 0.81029,0.96067 1.08487,0.84237 1.90402,1.61753 2.43758,2.28719 0.53353,0.66968 0.76086,1.2271 0.76583,1.58802 0.003,0.18289 -0.0356,0.29779 -0.13695,0.4315 -0.10107,0.13342 -0.28508,0.28486 -0.58393,0.43357 -0.15185,0.0754 -0.21193,0.0906 -0.21085,0.0925 -0.007,-0.004 -0.022,-0.011 -0.0687,-0.0357 -0.35591,-0.18806 -0.74604,-0.22062 -1.15808,-0.21498 -0.41203,0.006 -0.82259,0.0603 -1.18131,0.23048 -0.48361,0.22949 -0.95724,0.70785 -1.46502,1.25212 -0.50782,0.54427 -0.96573,1.08772 -1.18185,1.57613 -0.53874,1.2174 -0.34678,2.67081 0.49454,3.69125 0.14155,0.17169 0.22209,0.29781 0.24804,0.36328 0.0259,0.0655 0.0241,0.058 0.006,0.11731 -0.037,0.1186 -0.30958,0.48917 -0.91572,1.08572 -0.23222,0.22858 -0.44304,0.45772 -0.60357,0.65267 -0.0803,0.0975 -0.14819,0.18438 -0.20515,0.27131 -0.0285,0.0435 -0.0543,0.0864 -0.0801,0.14056 -0.0214,0.045 -0.043,0.11684 -0.0527,0.22272 -0.0101,-0.10633 -0.0333,-0.17762 -0.0548,-0.22272 -0.0257,-0.0541 -0.0516,-0.0971 -0.0801,-0.14056 -0.057,-0.0869 -0.12491,-0.17383 -0.20516,-0.27131 -0.16052,-0.19495 -0.37134,-0.4241 -0.6036,-0.65267 -0.6061,-0.59655 -0.87873,-0.96712 -0.91569,-1.08572 -0.0185,-0.0593 -0.0183,-0.0518 0.008,-0.11731 0.0259,-0.0655 0.10443,-0.19159 0.24598,-0.36328 0.84082,-1.01981 1.0341,-2.47337 0.49609,-3.68918 -0.21351,-0.48252 -0.65516,-1.01475 -1.14826,-1.54306 -0.49308,-0.52832 -0.98332,-0.9992 -1.45105,-1.23868 -0.36508,-0.18695 -0.78457,-0.26243 -1.20304,-0.27699 -0.41846,-0.0145 -0.82412,0.0217 -1.18597,0.21291 -0.0466,0.0247 -0.0613,0.0319 -0.0682,0.0357 0.0122,1.9e-4 -0.0463,-0.0118 -0.20878,-0.0925 -0.40876,-0.20305 -0.60873,-0.43149 -0.68937,-0.65836 -0.0806,-0.22688 -0.0676,-0.5016 0.12507,-0.88057 0.32781,-0.64461 1.44483,-1.92292 2.46859,-2.7404 0.49072,-0.39186 0.87219,-0.69958 1.15236,-1.04077 0.28017,-0.34117 0.45262,-0.78742 0.36693,-1.23041 -0.17143,-0.88598 -0.95176,-1.57357 -2.34768,-2.96519 -0.58372,-0.58195 -1.1476,-1.12253 -1.59163,-1.53118 -0.22201,-0.20432 -0.41357,-0.37503 -0.56636,-0.50384 -0.0764,-0.0644 -0.14227,-0.11839 -0.2031,-0.16382 -0.0608,-0.0454 -0.0848,-0.0781 -0.22066,-0.13125 -0.0545,-0.0213 -0.11806,0.028 -0.17415,0.0119 -0.46365,-0.13348 -0.96896,-0.15634 -1.43711,0.0899 -0.5248,0.27604 -1.02777,0.7507 -1.66246,1.46089 -2.14683,2.40229 -3.57917,4.65678 -4.05037,6.52156 -0.25897,1.02507 -0.27445,2.4165 -0.0724,3.76721 0.10851,0.72549 0.0949,0.98897 0.0372,1.15446 -0.0405,0.11619 -0.078,0.23155 -0.10591,0.33021 -0.014,0.0493 -0.0251,0.0926 -0.0352,0.13642 -0.01,0.0438 -0.0233,0.0607 -0.0233,0.17622 0,0.27453 0.0635,0.25331 0.0878,0.29301 0.0243,0.0397 0.0464,0.0698 0.0703,0.10128 0.0478,0.0629 0.10559,0.13099 0.17415,0.20929 0.13708,0.15661 0.3172,0.34923 0.51728,0.55242 0.74412,0.75569 0.9515,1.12792 1.10535,1.94717 0.0462,0.24616 0.0376,0.40102 0.0315,0.54725 -0.0482,-0.0262 -0.0891,-0.0442 -0.14057,-0.0765 -0.21868,-0.13725 -0.45051,-0.33169 -0.53536,-0.43563 -0.12057,-0.14771 -0.2685,-0.28556 -0.46302,-0.36897 -0.19452,-0.0834 -0.40317,-0.0935 -0.58962,-0.0724 -0.35515,0.0404 -0.73285,0.29639 -0.82632,0.66043 -0.0935,0.36403 0.0338,0.69715 0.2346,1.00355 0.20222,0.30861 0.50062,0.55293 0.83355,0.7891 0.27048,0.19188 0.54734,0.32502 0.83044,0.42995 -0.14832,0.18048 -0.28712,0.32853 -0.39274,0.55862 -0.11055,0.24089 -0.10404,0.5973 0.0233,0.85732 0.25466,0.52002 0.75668,0.95986 1.77146,1.9823 0.61368,0.6183 1.10649,1.09191 1.47693,1.42007 0.18521,0.16407 0.33936,0.29152 0.47437,0.38861 0.0675,0.0485 0.12825,0.0899 0.19947,0.12712 0.0712,0.0373 0.13812,0.0879 0.31988,0.0879 0.16307,0 0.29584,-0.0973 0.43977,-0.16433 -0.0483,0.0926 -0.12637,0.15663 -0.13695,0.26975 -0.0222,0.23736 0.0587,0.45054 0.1664,0.63872 0.21545,0.37636 0.57652,0.75654 1.18134,1.35909 0.5453,0.54323 0.85515,0.84515 1.12913,1.0449 0.27395,0.19975 0.64998,0.27303 0.88056,0.22686 0,5.3e-4 0.0338,0.01 0.12144,0.076 0.1904,0.14446 0.55761,0.49434 1.19888,1.1312 0.62035,0.61607 0.9842,0.97093 1.27384,1.19527 0.14481,0.11217 0.27591,0.19686 0.43717,0.25167 0.006,0.002 0.0132,-0.002 0.0196,0 -0.9393,0.94776 -1.99094,2.0048 -2.55487,2.59571 -0.43254,0.45321 -0.75599,0.80154 -0.97824,1.05678 -0.1111,0.12762 -0.19693,0.23173 -0.26406,0.32246 -0.0336,0.0454 -0.0619,0.0865 -0.0915,0.13849 -0.0296,0.052 -0.0842,0.0814 -0.0842,0.29663 0,0.20349 0.0527,0.25025 0.0863,0.31264 0.0336,0.0624 0.0685,0.11504 0.10904,0.17208 0.0812,0.11409 0.18423,0.23939 0.30488,0.38085 0.24135,0.28293 0.55533,0.62272 0.87902,0.95499 0.32369,0.33225 0.65546,0.6565 0.9312,0.90433 0.1379,0.12392 0.25993,0.2269 0.37156,0.31058 0.0558,0.0418 0.1075,0.08 0.16952,0.11524 0.062,0.0352 0.10731,0.0915 0.32038,0.0915 0.25837,0 0.27525,-0.0632 0.34571,-0.10335 0.0705,-0.0401 0.1371,-0.0858 0.20931,-0.1385 0.14438,-0.1054 0.30638,-0.23898 0.46868,-0.38861 l 0.24392,-0.22685 0.0569,0.0413 c 0.2481,0.17667 0.53462,0.32922 0.88056,0.26561 0.34597,-0.0636 0.56375,-0.31566 0.72451,-0.5705 0.0997,-0.15811 0.15338,-0.42698 0.0997,-0.63098 -0.0536,-0.20399 -0.15296,-0.34666 -0.27337,-0.50952 l -0.0217,-0.0295 1.73477,-1.73633 c 0.0233,0.11456 0.0436,0.23444 0.0992,0.32608 0.15578,0.25698 0.37245,0.46349 0.76171,0.85576 l 0.53123,0.53485 -0.031,0.0413 c -0.12261,0.16592 -0.22236,0.3075 -0.27752,0.5116 -0.0552,0.20409 -0.003,0.47704 0.0977,0.63665 0.16073,0.25485 0.37904,0.50691 0.72501,0.57051 0.34594,0.0636 0.63248,-0.089 0.88056,-0.26562 l 0.0569,-0.0413 0.24389,0.22686 c 0.16232,0.14963 0.32639,0.28322 0.47077,0.38861 0.0722,0.0527 0.13833,0.0984 0.20879,0.13849 0.0705,0.0401 0.0857,0.10335 0.34417,0.10335 z m 0.0315,-2.57245 -1.11517,-1.10123 c -0.81182,-0.80257 -1.26534,-1.25275 -1.73479,-1.48053 -0.0471,-0.0228 -0.1151,0.0182 -0.17,0.002 l 1.07228,-1.07435 c 0.0154,0.11266 -0.0706,0.21692 -0.0135,0.32039 0.0877,0.15847 0.12658,0.17534 0.21497,0.27544 0.0884,0.1001 0.20313,0.22417 0.33798,0.3669 0.26972,0.28547 0.62106,0.64612 0.99373,1.01596 l 1.00822,0.99994 -0.31679,0.35915 z m -8.63666,-0.002 -0.28528,-0.31265 -0.31263,-0.34365 4.51186,-4.51962 c 1.33226,-1.33475 2.54984,-2.54873 3.43908,-3.42769 0.44461,-0.43948 0.80688,-0.79664 1.05884,-1.04128 0.0307,-0.0298 0.0429,-0.0417 0.0703,-0.0682 0.11102,0.10627 0.22905,0.21752 0.36742,0.35915 l 0.31989,0.32814 -4.59352,4.52169 z m 1.98591,-6.25389 c -0.003,-0.006 0,-0.0155 -0.003,-0.0217 -0.0625,-0.14878 -0.14894,-0.27314 -0.26356,-0.41806 -0.22923,-0.28983 -0.58565,-0.66463 -1.17355,-1.25987 l -1.0785,-1.09141 0.34777,-0.34778 0.34573,-0.34571 1.0237,1.02164 c 0.53639,0.53485 0.90371,0.88368 1.19528,1.11879 0.21924,0.17677 0.42566,0.24187 0.64648,0.29869 l -0.83613,0.83613 c -0.092,0.0919 -0.11562,0.11975 -0.20516,0.20929 z m 2.12701,-2.12906 c -0.0106,-0.0598 0.0324,-0.11728 0.014,-0.17571 -0.0439,-0.1383 -0.0757,-0.1611 -0.10957,-0.20928 -0.0338,-0.0482 -0.0699,-0.0954 -0.11316,-0.14832 -0.0866,-0.10586 -0.19767,-0.23187 -0.3302,-0.37672 -0.26506,-0.28968 -0.6159,-0.65083 -0.99219,-1.02164 l -0.99012,-0.97462 1.11723,-1.12138 c 0.41069,-0.41165 0.7824,-0.8054 1.05833,-1.11672 0.13798,-0.15567 0.25109,-0.28974 0.33798,-0.40256 0.0435,-0.0564 0.0804,-0.10612 0.11523,-0.16227 0.0313,-0.0505 0.0839,-0.0909 0.0956,-0.29662 0.0119,0.20401 0.0628,0.24619 0.094,0.29662 0.0348,0.0561 0.0719,0.10595 0.11525,0.16227 0.0867,0.11263 0.19833,0.2473 0.33589,0.40256 0.27514,0.3105 0.64685,0.70271 1.05627,1.11311 l 1.11363,1.11724 z m -6.51383,-1.79524 -0.67953,-0.61702 c -0.52546,-0.47704 -0.83294,-0.7549 -1.16015,-0.92398 -0.16361,-0.0845 -0.36541,-0.14626 -0.5798,-0.1111 -0.0793,0.013 -0.11142,0.066 -0.17571,0.0977 0.0565,-0.1193 0.1597,-0.21084 0.1597,-0.35553 0,-0.15158 -0.0344,-0.19554 -0.0543,-0.23823 -0.0198,-0.0427 -0.0388,-0.0712 -0.0569,-0.0997 -0.0363,-0.0571 -0.0744,-0.11008 -0.12092,-0.1695 -0.093,-0.11884 -0.2159,-0.26061 -0.36536,-0.42788 -0.29887,-0.33455 -0.70242,-0.76249 -1.14824,-1.20923 l -1.31466,-1.3162 0.0879,-0.13694 c 0.5887,-0.90343 0.81301,-1.86916 0.74983,-3.12487 -0.0271,-0.5383 -0.12504,-0.90651 -0.24186,-1.27331 l 0.27337,0.0196 c 1.25005,0.0882 2.39009,-0.0929 3.43958,-0.55707 l 0.0191,-0.008 c 0.0824,0.9393 0.60746,1.81662 1.70739,2.86908 0.79785,0.76341 1.25666,1.12114 1.78903,1.26607 0.21585,0.0588 0.36153,0.0974 0.49197,0.13281 0.0103,0.0297 0.0204,0.0508 0.0274,0.0858 0.0532,0.26623 0.17846,0.45622 0.34157,0.68574 0.16312,0.22952 0.37412,0.47843 0.62529,0.74001 l 0.41961,0.4377 -2.11305,2.11098 z m 13.4302,-0.004 -2.11926,-2.11719 -2.11355,-2.11357 0.42011,-0.43718 c 0.25119,-0.26157 0.46373,-0.51099 0.62685,-0.74052 0.16311,-0.22953 0.28681,-0.4189 0.34001,-0.68523 0.007,-0.0342 0.0172,-0.0549 0.0274,-0.0842 0.13052,-0.0354 0.27604,-0.0761 0.49194,-0.13488 0.53205,-0.14483 0.99068,-0.50049 1.78544,-1.26348 0.29794,-0.28604 0.5928,-0.60015 0.83767,-0.88264 0.24484,-0.28249 0.42889,-0.50004 0.55086,-0.73845 l 0.26768,-0.52349 -0.10591,-0.0331 c 0.0727,-0.23174 0.1697,-0.45094 0.19947,-0.67799 l 0.0156,0.008 c 1.02767,0.45186 2.16913,0.62834 3.40651,0.54105 l 0.31832,-0.0212 c -0.22077,0.63696 -0.37375,1.32665 -0.30491,2.05827 0.0837,0.88913 0.34536,1.77125 0.82426,2.44378 l 0.0274,0.0388 -1.4609,1.46865 c -0.96163,0.96708 -2.34958,2.32079 -3.06647,2.99051 z m -13.64465,-0.83613 c 0.20312,0 0.25202,-0.0551 0.31626,-0.0899 0.0642,-0.0349 0.11882,-0.0707 0.17777,-0.11317 0.1179,-0.0849 0.24821,-0.19178 0.39429,-0.31833 0.29215,-0.25309 0.64402,-0.58379 0.98649,-0.92397 0.34251,-0.34019 0.67448,-0.68725 0.92967,-0.97824 0.12758,-0.14549 0.23461,-0.27674 0.32038,-0.39481 0.0429,-0.059 0.0799,-0.11303 0.11526,-0.17776 0.0353,-0.0647 0.0899,-0.11614 0.0899,-0.31833 0,-0.1977 -0.0547,-0.25986 -0.094,-0.33176 -0.0393,-0.0719 -0.0824,-0.13472 -0.13438,-0.20516 -0.10391,-0.14088 -0.24149,-0.30422 -0.42011,-0.50384 -0.35727,-0.39924 -0.87604,-0.93658 -1.55289,-1.60921 -0.5932,-0.58948 -1.13557,-1.10389 -1.55237,-1.47691 -0.20838,-0.18651 -0.3842,-0.33698 -0.5276,-0.44907 -0.0717,-0.056 -0.13346,-0.10332 -0.19897,-0.14469 -0.0655,-0.0414 -0.0578,-0.11524 -0.35345,-0.11524 -0.19085,0 -0.24199,0.0478 -0.30491,0.0801 -0.0629,0.0323 -0.11618,0.0661 -0.17362,0.10542 -0.11488,0.0786 -0.24138,0.17815 -0.38293,0.29507 -0.28311,0.23384 -0.62217,0.53933 -0.95705,0.85731 -0.33489,0.31799 -0.66368,0.64676 -0.92189,0.92759 -0.12912,0.14042 -0.23995,0.2669 -0.33023,0.38293 -0.0903,0.11602 -0.16502,0.16589 -0.22632,0.40049 -0.06,0.22954 0.0161,0.43559 0.10128,0.58808 0.0852,0.15248 0.19788,0.29643 0.35965,0.48421 0.32356,0.37554 0.84947,0.91611 1.70894,1.7756 0.58349,0.58349 1.13261,1.11332 1.55237,1.50171 0.20989,0.1942 0.38727,0.35252 0.52554,0.46871 0.0691,0.0581 0.12586,0.10537 0.18346,0.14676 0.0288,0.0207 0.0579,0.04 0.0982,0.0625 0.0403,0.0225 0.0547,0.0739 0.2713,0.0739 z m 13.5077,-0.0801 c 0.21658,0 0.231,-0.0514 0.2713,-0.0739 0.0403,-0.0225 0.0689,-0.0418 0.0977,-0.0625 0.0576,-0.0414 0.11636,-0.0887 0.1855,-0.14676 0.1383,-0.11619 0.31361,-0.27451 0.52348,-0.4687 0.41979,-0.3884 0.96941,-0.91823 1.55289,-1.50172 0.43177,-0.43178 0.78034,-0.78418 1.0604,-1.07436 0.41746,-0.43254 0.68096,-0.72164 0.8573,-0.95704 0.0882,-0.1177 0.15714,-0.22272 0.20929,-0.34779 0.0204,-0.049 0.006,-0.123 0.0175,-0.18345 0.0354,-0.0673 0.0894,-0.12549 0.0935,-0.18965 0.008,-0.12117 -0.0217,-0.19419 -0.0429,-0.24391 -0.0851,-0.19888 -0.13568,-0.21112 -0.24239,-0.32608 -0.10668,-0.11497 -0.26236,-0.27632 -0.50384,-0.51573 -0.4971,-0.49289 -0.9619,-0.9286 -1.32602,-1.24799 -0.18206,-0.15969 -0.33795,-0.28851 -0.46871,-0.38705 -0.0654,-0.0493 -0.12414,-0.0908 -0.18756,-0.12868 -0.0634,-0.0379 -0.0758,-0.10542 -0.33591,-0.10542 -0.27723,0 -0.29446,0.0754 -0.3674,0.12093 -0.0729,0.0455 -0.14206,0.0965 -0.22067,0.15812 -0.15721,0.12327 -0.34435,0.28754 -0.56017,0.48266 -0.43164,0.39025 -0.96827,0.90499 -1.4945,1.43144 -0.5262,0.52645 -1.04135,1.06265 -1.43142,1.49448 -0.19503,0.21592 -0.35738,0.40496 -0.48059,0.56224 -0.0616,0.0786 -0.1147,0.14769 -0.16021,0.22066 -0.0455,0.073 -0.11885,0.0883 -0.11885,0.36535 0,0.18361 0.0473,0.24095 0.0801,0.30489 0.0327,0.0639 0.0676,0.11865 0.10697,0.17571 0.0789,0.11411 0.17566,0.23751 0.29147,0.37465 0.23161,0.27427 0.53252,0.59919 0.84336,0.91622 0.31083,0.31703 0.62941,0.62295 0.89865,0.85938 0.13462,0.11821 0.25644,0.21788 0.36896,0.29869 0.0563,0.0404 0.11026,0.0777 0.17415,0.11162 0.0639,0.0339 0.11933,0.0837 0.30851,0.0837 z m -13.46687,-2.49597 -1.17978,-1.17977 -1.10535,-1.10536 0.73999,-0.74208 1.14464,1.14825 1.14051,1.14257 -0.0703,0.0682 -0.004,0.002 c -0.38396,0.38306 -0.52152,0.52185 -0.66611,0.66611 z m 13.46118,-0.11317 -0.008,-0.01 -0.43564,-0.43564 -0.0739,-0.0744 1.14411,-1.14049 1.14464,-1.14257 0.51367,0.51573 -0.66765,0.66766 -0.47284,0.47491 z m -10.29343,-2.60553 c -0.005,-0.001 -0.003,-0.003 -0.006,-0.004 0,1.9e-4 0.005,0.002 0.006,0.002 z m 14.35521,-0.1881 c -0.003,-0.002 -0.006,-0.005 -0.008,-0.008 0.16285,-0.1377 0.21235,-0.10312 0.18602,-0.0971 -0.0164,0.004 -0.10189,0.0566 -0.17827,0.1049 z m -6.9722,-1.95854 c -0.21802,0 -0.3052,-0.0321 -0.37671,-0.0822 -0.0715,-0.0501 -0.16161,-0.15565 -0.27181,-0.39842 -0.24619,-0.54207 -0.25238,-0.74072 -0.0527,-1.21853 0.0297,-0.0711 0.38944,-0.57901 0.76586,-0.9865 0.37643,-0.4075 0.85321,-0.80648 0.92552,-0.84388 0.18351,-0.0949 0.25786,-0.10466 0.31472,-0.10129 0.0569,0.003 0.15634,0.0313 0.35758,0.154 0.17929,0.1093 0.24453,0.34242 0.34161,0.55294 -0.19736,-0.0184 -0.38698,-0.0614 -0.58809,-0.0527 -0.36743,0.0159 -0.688,0.0397 -1.00769,0.21084 -0.32838,0.17573 -0.48374,0.48263 -0.52711,0.78341 -0.0434,0.30078 0.0283,0.68611 0.37105,0.90796 0.14621,0.0947 0.20553,0.0905 0.28525,0.10748 0.0797,0.017 0.16203,0.0311 0.25374,0.0413 0.1039,0.0116 0.23013,0.0121 0.34933,0.0176 -0.0788,0.0771 -0.13402,0.13749 -0.22067,0.21859 -0.34126,0.31948 -0.57023,0.51178 -0.71053,0.60358 -0.14031,0.0918 -0.15521,0.0858 -0.20932,0.0858 z m -7.32202,0 c -0.0541,0 -0.069,0.006 -0.20929,-0.0858 -0.14031,-0.0918 -0.36928,-0.2841 -0.71057,-0.60358 -0.0866,-0.0811 -0.14239,-0.14147 -0.22116,-0.21859 0.11919,-0.005 0.24596,-0.006 0.34986,-0.0176 0.0917,-0.0102 0.1761,-0.0244 0.2558,-0.0413 0.0797,-0.017 0.13708,-0.013 0.28318,-0.10749 0.34277,-0.22184 0.41439,-0.60511 0.37103,-0.90588 -0.0434,-0.30078 -0.19873,-0.60974 -0.52711,-0.78548 -0.31914,-0.17033 -0.6409,-0.19497 -1.00769,-0.21084 -0.2305,-0.01 -0.44987,0.0335 -0.67384,0.0605 0.0287,-0.0741 0.0249,-0.12285 0.0739,-0.19896 0.11623,-0.18053 0.28334,-0.33637 0.39635,-0.39481 0.27762,-0.14356 0.33144,-0.15047 0.52969,-0.0641 0.19825,0.0864 0.55076,0.36974 1.06402,0.91571 0.48144,0.51212 0.72594,0.89504 0.81079,1.19734 0.0849,0.3023 0.0532,0.56167 -0.13695,0.9803 -0.11022,0.24277 -0.19978,0.34833 -0.2713,0.39843 -0.0715,0.0501 -0.1587,0.0822 -0.37671,0.0822 z m 14.31075,-3.69331 v 0 c -0.72609,-0.0119 -1.44526,-0.19023 -2.12079,-0.53124 -0.0732,-0.0369 -0.11936,-0.0646 -0.1855,-0.0997 0.0249,-0.0254 0.0401,-0.0422 0.0661,-0.0682 0.45648,-0.45648 0.72104,-1.0477 0.76171,-1.68361 0.0407,-0.63592 -0.12637,-1.30851 -0.46665,-2.00402 -0.46699,-0.95447 -1.7304,-2.30101 -3.00963,-3.3476 -0.21276,-0.17405 -0.4004,-0.3429 -0.53952,-0.47852 0.0915,-0.10417 0.19259,-0.21629 0.33436,-0.36535 0.35795,-0.37641 0.84383,-0.86296 1.33789,-1.34152 0.49408,-0.47857 0.99782,-0.95031 1.3865,-1.29708 0.17761,-0.15846 0.32199,-0.28138 0.43563,-0.37311 0.0188,0.0149 0.0259,0.0174 0.047,0.0351 0.16063,0.13577 0.38484,0.35109 0.63873,0.61754 0.50774,0.53289 1.14536,1.27533 1.76731,2.07584 0.27081,0.34849 0.53804,0.67415 0.75965,0.92398 0.11081,0.12491 0.21034,0.23087 0.29715,0.31625 0.0434,0.0427 0.0833,0.079 0.12711,0.11524 0.0438,0.0362 0.0703,0.0728 0.20103,0.12299 0.13909,0.0534 0.20466,-0.0758 0.32607,-0.0915 -0.0623,0.10645 -0.1628,0.19606 -0.17774,0.30438 -0.0566,0.4096 0.069,0.78125 0.26767,1.30896 0.4903,1.30259 0.57291,2.12422 0.3514,3.51761 -0.0566,0.35595 -0.0998,0.7161 -0.12298,1.02113 -0.0214,0.28144 -0.0361,0.46324 0.006,0.69918 -0.0243,0.007 -0.0784,0.0461 -0.33229,0.16227 -0.69784,0.31947 -1.42981,0.47286 -2.15593,0.46095 z m -21.3987,-0.0393 c -1.17227,-0.002 -1.15494,0.007 -1.89858,-0.33951 l -0.53538,-0.25012 v -0.31833 c 0,-0.409 -0.0647,-1.15186 -0.14417,-1.75183 -0.32999,-2.49386 0.87593,-5.04824 4.20129,-8.49044 0.15208,-0.15743 0.3183,-0.30237 0.44702,-0.39842 0.0111,-0.008 0.0148,-0.0101 0.0254,-0.0176 0.11575,0.0912 0.27408,0.22385 0.46095,0.39068 0.38918,0.34745 0.88887,0.82306 1.37922,1.30483 0.49038,0.48176 0.97168,0.97241 1.32398,1.3534 0.14639,0.15834 0.25135,0.28088 0.34157,0.38861 -0.12525,0.12165 -0.29519,0.27294 -0.48783,0.42013 -0.99423,0.75957 -1.86045,1.65807 -2.49029,2.54661 -0.62987,0.88854 -1.04696,1.75054 -1.04696,2.56057 0,0.82731 0.2635,1.44073 0.82786,1.98024 -0.57952,0.3922 -1.2201,0.62282 -2.40401,0.62115 z"
       style="fill:#000000;stroke:none;stroke-width:0.99842978;stroke-miterlimit:4;stroke-dasharray:none;stroke-opacity:1"
       inkscape:connector-curvature="0" />
    <path
       inkscape:tile-y0="139.79037"
       inkscape:tile-x0="-47.753201"
       id="use9527"
       d="m -82.299093,189.61749 c -0.21508,0 -0.25868,-0.0584 -0.32038,-0.0935 -0.0617,-0.0352 -0.11441,-0.0714 -0.17002,-0.11318 -0.11126,-0.0836 -0.23331,-0.18675 -0.37103,-0.31057 -0.27551,-0.24763 -0.60587,-0.57084 -0.92966,-0.90279 -0.32383,-0.33195 -0.63911,-0.67063 -0.88056,-0.95291 -0.12073,-0.14115 -0.22167,-0.26729 -0.30285,-0.38086 -0.0406,-0.0568 -0.0779,-0.11 -0.11162,-0.17208 -0.0337,-0.0621 -0.0858,-0.10628 -0.0858,-0.31213 0,-0.18172 0.0487,-0.24594 0.0842,-0.3147 0.0355,-0.0688 0.0733,-0.12878 0.11885,-0.19327 0.091,-0.12898 0.20981,-0.27297 0.35967,-0.44545 0.29972,-0.34498 0.72327,-0.7946 1.25934,-1.33171 0.67143,-0.6727 1.11167,-1.0971 1.44179,-1.37304 0.27295,-0.22816 0.50044,-0.32603 0.76325,-0.37517 -1.06895,-1.06456 -2.18078,-2.1768 -2.60707,-2.5647 -0.29845,-0.2716 -0.48353,-0.40952 -0.56068,-0.45475 -0.0124,-0.007 -0.0143,-0.0101 -0.0185,-0.0139 -0.1555,0.0138 -0.38669,-0.0207 -0.56743,-0.11886 -0.19404,-0.10543 -0.38084,-0.25487 -0.65627,-0.50178 -0.55089,-0.49381 -1.44751,-1.38769 -3.11095,-3.05666 -1.94984,-1.95637 -2.86771,-2.83642 -3.30313,-3.47266 -0.21773,-0.31812 -0.33796,-0.69307 -0.23411,-1.01802 0.0996,-0.31158 0.27443,-0.4533 0.4217,-0.6289 -0.28401,-0.10486 -0.56076,-0.23908 -0.83201,-0.4315 -0.33293,-0.23618 -0.63392,-0.48049 -0.83611,-0.7891 -0.20077,-0.30641 -0.32552,-0.63952 -0.23204,-1.00356 0.0935,-0.36403 0.4691,-0.62005 0.82425,-0.66042 0.18648,-0.0212 0.39717,-0.0111 0.59169,0.0724 0.1945,0.0834 0.34248,0.22128 0.46302,0.36897 0.0849,0.10396 0.31618,0.30044 0.53486,0.4377 0.0541,0.034 0.0965,0.053 0.14676,0.0801 0.003,-0.0644 0.0153,-0.0867 0.01,-0.17002 -0.0277,-0.39817 -0.16835,-0.96095 -0.39068,-1.40612 -0.0958,-0.19187 -0.47183,-0.68095 -0.71882,-0.90433 -0.37,-0.33463 -0.59952,-0.51394 -0.75189,-0.83406 -0.0762,-0.16006 -0.10438,-0.35471 -0.0899,-0.51366 0.0143,-0.15896 0.054,-0.28842 0.0961,-0.42995 0.0735,-0.24717 0.0774,-0.55505 -0.0511,-1.48415 -0.2645,-1.91228 -0.0341,-3.6548 0.70901,-5.13457 0.10453,-0.20819 0.20124,-0.39002 0.39634,-0.54105 0.19511,-0.15103 0.44797,-0.19327 0.64286,-0.19327 0.006,0 0.0132,0.006 0.0196,0.006 -0.1356,-0.20825 -0.29858,-0.41887 -0.20153,-0.72451 0.11618,-0.36599 0.35266,-0.6743 0.68368,-1.11931 0.33102,-0.44501 0.75036,-0.96067 1.18547,-1.46502 0.4351,-0.50436 0.88606,-0.99702 1.28156,-1.39423 0.35592,-0.35746 0.62121,-0.59545 0.91416,-0.77153 0.0326,-0.0196 0.0679,-0.0685 0.10128,-0.0858 0.2594,-0.1345 0.51033,-0.25576 0.81857,-0.28733 0.30821,-0.0316 0.63489,0.0551 0.93946,0.22842 0.60912,0.34658 1.27338,1.01048 2.51923,2.25205 1.12805,1.12419 1.73953,1.74171 2.08206,2.27325 0.17123,0.26577 0.27974,0.53468 0.29093,0.8108 0.0111,0.27613 -0.0694,0.51439 -0.15814,0.72864 -0.1664,0.40167 -0.4671,0.69419 -0.81029,0.96067 -1.08487,0.84237 -1.90402,1.61753 -2.43758,2.28719 -0.53353,0.66968 -0.76086,1.2271 -0.76583,1.58802 -0.003,0.18289 0.0356,0.29779 0.13695,0.4315 0.10107,0.13342 0.28508,0.28486 0.58393,0.43357 0.15185,0.0754 0.21193,0.0906 0.21085,0.0925 0.007,-0.004 0.022,-0.011 0.0687,-0.0357 0.35591,-0.18806 0.74604,-0.22062 1.15808,-0.21498 0.41203,0.006 0.82259,0.0603 1.18131,0.23048 0.48361,0.22949 0.95724,0.70785 1.46502,1.25212 0.50782,0.54427 0.96573,1.08772 1.18185,1.57613 0.53874,1.2174 0.34678,2.67081 -0.49454,3.69125 -0.14155,0.17169 -0.22209,0.29781 -0.24804,0.36328 -0.0259,0.0655 -0.0241,0.058 -0.006,0.11731 0.037,0.1186 0.30958,0.48917 0.91572,1.08572 0.23222,0.22858 0.44304,0.45772 0.60357,0.65267 0.0803,0.0975 0.14819,0.18438 0.20515,0.27131 0.0285,0.0435 0.0543,0.0864 0.0801,0.14056 0.0214,0.045 0.043,0.11684 0.0527,0.22272 0.0101,-0.10633 0.0333,-0.17762 0.0548,-0.22272 0.0257,-0.0541 0.0516,-0.0971 0.0801,-0.14056 0.057,-0.0869 0.12491,-0.17383 0.20516,-0.27131 0.16052,-0.19495 0.37134,-0.4241 0.6036,-0.65267 0.6061,-0.59655 0.87873,-0.96712 0.91569,-1.08572 0.0185,-0.0593 0.0183,-0.0518 -0.008,-0.11731 -0.0259,-0.0655 -0.10443,-0.19159 -0.24598,-0.36328 -0.84082,-1.01981 -1.0341,-2.47337 -0.49609,-3.68918 0.21351,-0.48252 0.65516,-1.01475 1.14826,-1.54306 0.49308,-0.52832 0.98332,-0.9992 1.45105,-1.23868 0.36508,-0.18695 0.78457,-0.26243 1.20304,-0.27699 0.41846,-0.0145 0.82412,0.0217 1.18597,0.21291 0.0466,0.0247 0.0613,0.0319 0.0682,0.0357 -0.0122,1.9e-4 0.0463,-0.0118 0.20878,-0.0925 0.40876,-0.20305 0.60873,-0.43149 0.68937,-0.65836 0.0806,-0.22688 0.0676,-0.5016 -0.12507,-0.88057 -0.32781,-0.64461 -1.44483,-1.92292 -2.46859,-2.7404 -0.49072,-0.39186 -0.87219,-0.69958 -1.15236,-1.04077 -0.28017,-0.34117 -0.45262,-0.78742 -0.36693,-1.23041 0.17143,-0.88598 0.95176,-1.57357 2.34768,-2.96519 0.58372,-0.58195 1.1476,-1.12253 1.59163,-1.53118 0.22201,-0.20432 0.41357,-0.37503 0.56636,-0.50384 0.0764,-0.0644 0.14227,-0.11839 0.2031,-0.16382 0.0608,-0.0454 0.0848,-0.0781 0.22066,-0.13125 0.0545,-0.0213 0.11806,0.028 0.17415,0.0119 0.46365,-0.13348 0.96896,-0.15634 1.43711,0.0899 0.5248,0.27604 1.02777,0.7507 1.66246,1.46089 2.14683,2.40229 3.57917,4.65678 4.05037,6.52156 0.25897,1.02507 0.27445,2.4165 0.0724,3.76721 -0.10851,0.72549 -0.0949,0.98897 -0.0372,1.15446 0.0405,0.11619 0.078,0.23155 0.10591,0.33021 0.014,0.0493 0.0251,0.0926 0.0352,0.13642 0.01,0.0438 0.0233,0.0607 0.0233,0.17622 0,0.27453 -0.0635,0.25331 -0.0878,0.29301 -0.0243,0.0397 -0.0464,0.0698 -0.0703,0.10128 -0.0478,0.0629 -0.10559,0.13099 -0.17415,0.20929 -0.13708,0.15661 -0.3172,0.34923 -0.51728,0.55242 -0.74412,0.75569 -0.9515,1.12792 -1.10535,1.94717 -0.0462,0.24616 -0.0376,0.40102 -0.0315,0.54725 0.0482,-0.0262 0.0891,-0.0442 0.14057,-0.0765 0.21868,-0.13725 0.45051,-0.33169 0.53536,-0.43563 0.12057,-0.14771 0.2685,-0.28556 0.46302,-0.36897 0.19452,-0.0834 0.40317,-0.0935 0.58962,-0.0724 0.35515,0.0404 0.73285,0.29639 0.82632,0.66043 0.0935,0.36403 -0.0338,0.69715 -0.2346,1.00355 -0.20222,0.30861 -0.50062,0.55293 -0.83355,0.7891 -0.27048,0.19188 -0.54734,0.32502 -0.83044,0.42995 0.14832,0.18048 0.28712,0.32853 0.39274,0.55862 0.11055,0.24089 0.10404,0.5973 -0.0233,0.85732 -0.25466,0.52002 -0.75668,0.95986 -1.77146,1.9823 -0.61368,0.6183 -1.10649,1.09191 -1.47693,1.42007 -0.18521,0.16407 -0.33936,0.29152 -0.47437,0.38861 -0.0675,0.0485 -0.12825,0.0899 -0.19947,0.12712 -0.0712,0.0373 -0.13812,0.0879 -0.31988,0.0879 -0.16307,0 -0.29584,-0.0973 -0.43977,-0.16433 0.0483,0.0926 0.12637,0.15663 0.13695,0.26975 0.0222,0.23736 -0.0587,0.45054 -0.1664,0.63872 -0.21545,0.37636 -0.57652,0.75654 -1.18134,1.35909 -0.5453,0.54323 -0.85515,0.84515 -1.12913,1.0449 -0.27395,0.19975 -0.64998,0.27303 -0.88056,0.22686 0,5.3e-4 -0.0338,0.01 -0.12144,0.076 -0.1904,0.14446 -0.55761,0.49434 -1.19888,1.1312 -0.62035,0.61607 -0.9842,0.97093 -1.27384,1.19527 -0.14481,0.11217 -0.27591,0.19686 -0.43717,0.25167 -0.006,0.002 -0.0132,-0.002 -0.0196,0 0.9393,0.94776 1.99094,2.0048 2.55487,2.59571 0.43254,0.45321 0.75599,0.80154 0.97824,1.05678 0.1111,0.12762 0.19693,0.23173 0.26406,0.32246 0.0336,0.0454 0.0619,0.0865 0.0915,0.13849 0.0296,0.052 0.0842,0.0814 0.0842,0.29663 0,0.20349 -0.0527,0.25025 -0.0863,0.31264 -0.0336,0.0624 -0.0685,0.11504 -0.10904,0.17208 -0.0812,0.11409 -0.18423,0.23939 -0.30488,0.38085 -0.24135,0.28293 -0.55533,0.62272 -0.87902,0.95499 -0.32369,0.33225 -0.65546,0.6565 -0.9312,0.90433 -0.1379,0.12392 -0.25993,0.2269 -0.37156,0.31058 -0.0558,0.0418 -0.1075,0.08 -0.16952,0.11524 -0.062,0.0352 -0.10731,0.0915 -0.32038,0.0915 -0.25837,0 -0.27525,-0.0632 -0.34571,-0.10335 -0.0705,-0.0401 -0.1371,-0.0858 -0.20931,-0.1385 -0.14438,-0.1054 -0.30638,-0.23898 -0.46868,-0.38861 l -0.24392,-0.22685 -0.0569,0.0413 c -0.2481,0.17667 -0.53462,0.32922 -0.88056,0.26561 -0.34597,-0.0636 -0.56375,-0.31566 -0.72451,-0.5705 -0.0997,-0.15811 -0.15338,-0.42698 -0.0997,-0.63098 0.0536,-0.20399 0.15296,-0.34666 0.27337,-0.50952 l 0.0217,-0.0295 -1.73477,-1.73633 c -0.0233,0.11456 -0.0436,0.23444 -0.0992,0.32608 -0.15578,0.25698 -0.37245,0.46349 -0.76171,0.85576 l -0.53123,0.53485 0.031,0.0413 c 0.12261,0.16592 0.22236,0.3075 0.27752,0.5116 0.0552,0.20409 0.003,0.47704 -0.0977,0.63665 -0.16073,0.25485 -0.37904,0.50691 -0.72501,0.57051 -0.34594,0.0636 -0.63248,-0.089 -0.88056,-0.26562 l -0.0569,-0.0413 -0.24389,0.22686 c -0.16232,0.14963 -0.32639,0.28322 -0.47077,0.38861 -0.0722,0.0527 -0.13833,0.0984 -0.20879,0.13849 -0.0705,0.0401 -0.0857,0.10335 -0.34417,0.10335 z m -0.0315,-2.57245 1.11517,-1.10123 c 0.81182,-0.80257 1.26534,-1.25275 1.73479,-1.48053 0.0471,-0.0228 0.1151,0.0182 0.17,0.002 l -1.07228,-1.07435 c -0.0154,0.11266 0.0706,0.21692 0.0135,0.32039 -0.0877,0.15847 -0.12658,0.17534 -0.21497,0.27544 -0.0884,0.1001 -0.20313,0.22417 -0.33798,0.3669 -0.26972,0.28547 -0.62106,0.64612 -0.99373,1.01596 l -1.00822,0.99994 0.31679,0.35915 z m 8.63666,-0.002 0.28528,-0.31265 0.31263,-0.34365 -4.51186,-4.51962 c -1.33226,-1.33475 -2.54984,-2.54873 -3.43908,-3.42769 -0.44461,-0.43948 -0.80688,-0.79664 -1.05884,-1.04128 -0.0307,-0.0298 -0.0429,-0.0417 -0.0703,-0.0682 -0.11102,0.10627 -0.22905,0.21752 -0.36742,0.35915 l -0.31989,0.32814 4.59352,4.52169 z m -1.98591,-6.25389 c 0.003,-0.006 0,-0.0155 0.003,-0.0217 0.0625,-0.14878 0.14894,-0.27314 0.26356,-0.41806 0.22923,-0.28983 0.58565,-0.66463 1.17355,-1.25987 l 1.0785,-1.09141 -0.34777,-0.34778 -0.34573,-0.34571 -1.0237,1.02164 c -0.53639,0.53485 -0.90371,0.88368 -1.19528,1.11879 -0.21924,0.17677 -0.42566,0.24187 -0.64648,0.29869 l 0.83613,0.83613 c 0.092,0.0919 0.11562,0.11975 0.20516,0.20929 z m -2.12701,-2.12906 c 0.0106,-0.0598 -0.0324,-0.11728 -0.014,-0.17571 0.0439,-0.1383 0.0757,-0.1611 0.10957,-0.20928 0.0338,-0.0482 0.0699,-0.0954 0.11316,-0.14832 0.0866,-0.10586 0.19767,-0.23187 0.3302,-0.37672 0.26506,-0.28968 0.6159,-0.65083 0.99219,-1.02164 l 0.99012,-0.97462 -1.11723,-1.12138 c -0.41069,-0.41165 -0.7824,-0.8054 -1.05833,-1.11672 -0.13798,-0.15567 -0.25109,-0.28974 -0.33798,-0.40256 -0.0435,-0.0564 -0.0804,-0.10612 -0.11523,-0.16227 -0.0313,-0.0505 -0.0839,-0.0909 -0.0956,-0.29662 -0.0119,0.20401 -0.0628,0.24619 -0.094,0.29662 -0.0348,0.0561 -0.0719,0.10595 -0.11525,0.16227 -0.0867,0.11263 -0.19833,0.2473 -0.33589,0.40256 -0.27514,0.3105 -0.64685,0.70271 -1.05627,1.11311 l -1.11363,1.11724 z m 6.51383,-1.79524 0.67953,-0.61702 c 0.52546,-0.47704 0.83294,-0.7549 1.16015,-0.92398 0.16361,-0.0845 0.36541,-0.14626 0.5798,-0.1111 0.0793,0.013 0.11142,0.066 0.17571,0.0977 -0.0565,-0.1193 -0.1597,-0.21084 -0.1597,-0.35553 0,-0.15158 0.0344,-0.19554 0.0543,-0.23823 0.0198,-0.0427 0.0388,-0.0712 0.0569,-0.0997 0.0363,-0.0571 0.0744,-0.11008 0.12092,-0.1695 0.093,-0.11884 0.2159,-0.26061 0.36536,-0.42788 0.29887,-0.33455 0.70242,-0.76249 1.14824,-1.20923 l 1.31466,-1.3162 -0.0879,-0.13694 c -0.5887,-0.90343 -0.81301,-1.86916 -0.74983,-3.12487 0.0271,-0.5383 0.12504,-0.90651 0.24186,-1.27331 l -0.27337,0.0196 c -1.25005,0.0882 -2.39009,-0.0929 -3.43958,-0.55707 l -0.0191,-0.008 c -0.0824,0.9393 -0.60746,1.81662 -1.70739,2.86908 -0.79785,0.76341 -1.25666,1.12114 -1.78903,1.26607 -0.21585,0.0588 -0.36153,0.0974 -0.49197,0.13281 -0.0103,0.0297 -0.0204,0.0508 -0.0274,0.0858 -0.0532,0.26623 -0.17846,0.45622 -0.34157,0.68574 -0.16312,0.22952 -0.37412,0.47843 -0.62529,0.74001 l -0.41961,0.4377 2.11305,2.11098 z m -13.4302,-0.004 2.11926,-2.11719 2.11355,-2.11357 -0.42011,-0.43718 c -0.25119,-0.26157 -0.46373,-0.51099 -0.62685,-0.74052 -0.16311,-0.22953 -0.28681,-0.4189 -0.34001,-0.68523 -0.007,-0.0342 -0.0172,-0.0549 -0.0274,-0.0842 -0.13052,-0.0354 -0.27604,-0.0761 -0.49194,-0.13488 -0.53205,-0.14483 -0.99068,-0.50049 -1.78544,-1.26348 -0.29794,-0.28604 -0.5928,-0.60015 -0.83767,-0.88264 -0.24484,-0.28249 -0.42889,-0.50004 -0.55086,-0.73845 l -0.26768,-0.52349 0.10591,-0.0331 c -0.0727,-0.23174 -0.1697,-0.45094 -0.19947,-0.67799 l -0.0156,0.008 c -1.02767,0.45186 -2.16913,0.62834 -3.40651,0.54105 l -0.31832,-0.0212 c 0.22077,0.63696 0.37375,1.32665 0.30491,2.05827 -0.0837,0.88913 -0.34536,1.77125 -0.82426,2.44378 l -0.0274,0.0388 1.4609,1.46865 c 0.96163,0.96708 2.34958,2.32079 3.06647,2.99051 z m 13.64465,-0.83613 c -0.20312,0 -0.25202,-0.0551 -0.31626,-0.0899 -0.0642,-0.0349 -0.11882,-0.0707 -0.17777,-0.11317 -0.1179,-0.0849 -0.24821,-0.19178 -0.39429,-0.31833 -0.29215,-0.25309 -0.64402,-0.58379 -0.98649,-0.92397 -0.34251,-0.34019 -0.67448,-0.68725 -0.92967,-0.97824 -0.12758,-0.14549 -0.23461,-0.27674 -0.32038,-0.39481 -0.0429,-0.059 -0.0799,-0.11303 -0.11526,-0.17776 -0.0353,-0.0647 -0.0899,-0.11614 -0.0899,-0.31833 0,-0.1977 0.0547,-0.25986 0.094,-0.33176 0.0393,-0.0719 0.0824,-0.13472 0.13438,-0.20516 0.10391,-0.14088 0.24149,-0.30422 0.42011,-0.50384 0.35727,-0.39924 0.87604,-0.93658 1.55289,-1.60921 0.5932,-0.58948 1.13557,-1.10389 1.55237,-1.47691 0.20838,-0.18651 0.3842,-0.33698 0.5276,-0.44907 0.0717,-0.056 0.13346,-0.10332 0.19897,-0.14469 0.0655,-0.0414 0.0578,-0.11524 0.35345,-0.11524 0.19085,0 0.24199,0.0478 0.30491,0.0801 0.0629,0.0323 0.11618,0.0661 0.17362,0.10542 0.11488,0.0786 0.24138,0.17815 0.38293,0.29507 0.28311,0.23384 0.62217,0.53933 0.95705,0.85731 0.33489,0.31799 0.66368,0.64676 0.92189,0.92759 0.12912,0.14042 0.23995,0.2669 0.33023,0.38293 0.0903,0.11602 0.16502,0.16589 0.22632,0.40049 0.06,0.22954 -0.0161,0.43559 -0.10128,0.58808 -0.0852,0.15248 -0.19788,0.29643 -0.35965,0.48421 -0.32356,0.37554 -0.84947,0.91611 -1.70894,1.7756 -0.58349,0.58349 -1.13261,1.11332 -1.55237,1.50171 -0.20989,0.1942 -0.38727,0.35252 -0.52554,0.46871 -0.0691,0.0581 -0.12586,0.10537 -0.18346,0.14676 -0.0288,0.0207 -0.0579,0.04 -0.0982,0.0625 -0.0403,0.0225 -0.0547,0.0739 -0.2713,0.0739 z m -13.5077,-0.0801 c -0.21658,0 -0.231,-0.0514 -0.2713,-0.0739 -0.0403,-0.0225 -0.0689,-0.0418 -0.0977,-0.0625 -0.0576,-0.0414 -0.11636,-0.0887 -0.1855,-0.14676 -0.1383,-0.11619 -0.31361,-0.27451 -0.52348,-0.4687 -0.41979,-0.3884 -0.96941,-0.91823 -1.55289,-1.50172 -0.43177,-0.43178 -0.78034,-0.78418 -1.0604,-1.07436 -0.41746,-0.43254 -0.68096,-0.72164 -0.8573,-0.95704 -0.0882,-0.1177 -0.15714,-0.22272 -0.20929,-0.34779 -0.0204,-0.049 -0.006,-0.123 -0.0175,-0.18345 -0.0354,-0.0673 -0.0894,-0.12549 -0.0935,-0.18965 -0.008,-0.12117 0.0217,-0.19419 0.0429,-0.24391 0.0851,-0.19888 0.13568,-0.21112 0.24239,-0.32608 0.10668,-0.11497 0.26236,-0.27632 0.50384,-0.51573 0.4971,-0.49289 0.9619,-0.9286 1.32602,-1.24799 0.18206,-0.15969 0.33795,-0.28851 0.46871,-0.38705 0.0654,-0.0493 0.12414,-0.0908 0.18756,-0.12868 0.0634,-0.0379 0.0758,-0.10542 0.33591,-0.10542 0.27723,0 0.29446,0.0754 0.3674,0.12093 0.0729,0.0455 0.14206,0.0965 0.22067,0.15812 0.15721,0.12327 0.34435,0.28754 0.56017,0.48266 0.43164,0.39025 0.96827,0.90499 1.4945,1.43144 0.5262,0.52645 1.04135,1.06265 1.43142,1.49448 0.19503,0.21592 0.35738,0.40496 0.48059,0.56224 0.0616,0.0786 0.1147,0.14769 0.16021,0.22066 0.0455,0.073 0.11885,0.0883 0.11885,0.36535 0,0.18361 -0.0473,0.24095 -0.0801,0.30489 -0.0327,0.0639 -0.0676,0.11865 -0.10697,0.17571 -0.0789,0.11411 -0.17566,0.23751 -0.29147,0.37465 -0.23161,0.27427 -0.53252,0.59919 -0.84336,0.91622 -0.31083,0.31703 -0.62941,0.62295 -0.89865,0.85938 -0.13462,0.11821 -0.25644,0.21788 -0.36896,0.29869 -0.0563,0.0404 -0.11026,0.0777 -0.17415,0.11162 -0.0639,0.0339 -0.11933,0.0837 -0.30851,0.0837 z m 13.46687,-2.49597 1.17978,-1.17977 1.10535,-1.10536 -0.73999,-0.74208 -1.14464,1.14825 -1.14051,1.14257 0.0703,0.0682 0.004,0.002 c 0.38396,0.38306 0.52152,0.52185 0.66611,0.66611 z m -13.46118,-0.11317 0.008,-0.01 0.43564,-0.43564 0.0739,-0.0744 -1.14411,-1.14049 -1.14464,-1.14257 -0.51367,0.51573 0.66765,0.66766 0.47284,0.47491 z m 10.29343,-2.60553 c 0.005,-0.001 0.003,-0.003 0.006,-0.004 0,1.9e-4 -0.005,0.002 -0.006,0.002 z m -14.35521,-0.1881 c 0.003,-0.002 0.006,-0.005 0.008,-0.008 -0.16285,-0.1377 -0.21235,-0.10312 -0.18602,-0.0971 0.0164,0.004 0.10189,0.0566 0.17827,0.1049 z m 6.9722,-1.95854 c 0.21802,0 0.3052,-0.0321 0.37671,-0.0822 0.0715,-0.0501 0.16161,-0.15565 0.27181,-0.39842 0.24619,-0.54207 0.25238,-0.74072 0.0527,-1.21853 -0.0297,-0.0711 -0.38944,-0.57901 -0.76586,-0.9865 -0.37643,-0.4075 -0.85321,-0.80648 -0.92552,-0.84388 -0.18351,-0.0949 -0.25786,-0.10466 -0.31472,-0.10129 -0.0569,0.003 -0.15634,0.0313 -0.35758,0.154 -0.17929,0.1093 -0.24453,0.34242 -0.34161,0.55294 0.19736,-0.0184 0.38698,-0.0614 0.58809,-0.0527 0.36743,0.0159 0.688,0.0397 1.00769,0.21084 0.32838,0.17573 0.48374,0.48263 0.52711,0.78341 0.0434,0.30078 -0.0283,0.68611 -0.37105,0.90796 -0.14621,0.0947 -0.20553,0.0905 -0.28525,0.10748 -0.0797,0.017 -0.16203,0.0311 -0.25374,0.0413 -0.1039,0.0116 -0.23013,0.0121 -0.34933,0.0176 0.0788,0.0771 0.13402,0.13749 0.22067,0.21859 0.34126,0.31948 0.57023,0.51178 0.71053,0.60358 0.14031,0.0918 0.15521,0.0858 0.20932,0.0858 z m 7.32202,0 c 0.0541,0 0.069,0.006 0.20929,-0.0858 0.14031,-0.0918 0.36928,-0.2841 0.71057,-0.60358 0.0866,-0.0811 0.14239,-0.14147 0.22116,-0.21859 -0.11919,-0.005 -0.24596,-0.006 -0.34986,-0.0176 -0.0917,-0.0102 -0.1761,-0.0244 -0.2558,-0.0413 -0.0797,-0.017 -0.13708,-0.013 -0.28318,-0.10749 -0.34277,-0.22184 -0.41439,-0.60511 -0.37103,-0.90588 0.0434,-0.30078 0.19873,-0.60974 0.52711,-0.78548 0.31914,-0.17033 0.6409,-0.19497 1.00769,-0.21084 0.2305,-0.01 0.44987,0.0335 0.67384,0.0605 -0.0287,-0.0741 -0.0249,-0.12285 -0.0739,-0.19896 -0.11623,-0.18053 -0.28334,-0.33637 -0.39635,-0.39481 -0.27762,-0.14356 -0.33144,-0.15047 -0.52969,-0.0641 -0.19825,0.0864 -0.55076,0.36974 -1.06402,0.91571 -0.48144,0.51212 -0.72594,0.89504 -0.81079,1.19734 -0.0849,0.3023 -0.0532,0.56167 0.13695,0.9803 0.11022,0.24277 0.19978,0.34833 0.2713,0.39843 0.0715,0.0501 0.1587,0.0822 0.37671,0.0822 z M -88.658893,164.89 v 0 c 0.72609,-0.0119 1.44526,-0.19023 2.12079,-0.53124 0.0732,-0.0369 0.11936,-0.0646 0.1855,-0.0997 -0.0249,-0.0254 -0.0401,-0.0422 -0.0661,-0.0682 -0.45648,-0.45648 -0.72104,-1.0477 -0.76171,-1.68361 -0.0407,-0.63592 0.12637,-1.30851 0.46665,-2.00402 0.46699,-0.95447 1.7304,-2.30101 3.00963,-3.3476 0.21276,-0.17405 0.4004,-0.3429 0.53952,-0.47852 -0.0915,-0.10417 -0.19259,-0.21629 -0.33436,-0.36535 -0.35795,-0.37641 -0.84383,-0.86296 -1.33789,-1.34152 -0.49408,-0.47857 -0.99782,-0.95031 -1.3865,-1.29708 -0.17761,-0.15846 -0.32199,-0.28138 -0.43563,-0.37311 -0.0188,0.0149 -0.0259,0.0174 -0.047,0.0351 -0.16063,0.13577 -0.38484,0.35109 -0.63873,0.61754 -0.50774,0.53289 -1.14536,1.27533 -1.76731,2.07584 -0.27081,0.34849 -0.53804,0.67415 -0.75965,0.92398 -0.11081,0.12491 -0.21034,0.23087 -0.29715,0.31625 -0.0434,0.0427 -0.0833,0.079 -0.12711,0.11524 -0.0438,0.0362 -0.0703,0.0728 -0.20103,0.12299 -0.13909,0.0534 -0.20466,-0.0758 -0.32607,-0.0915 0.0623,0.10645 0.1628,0.19606 0.17774,0.30438 0.0566,0.4096 -0.069,0.78125 -0.26767,1.30896 -0.4903,1.30259 -0.57291,2.12422 -0.3514,3.51761 0.0566,0.35595 0.0998,0.7161 0.12298,1.02113 0.0214,0.28144 0.0361,0.46324 -0.006,0.69918 0.0243,0.007 0.0784,0.0461 0.33229,0.16227 0.69784,0.31947 1.42981,0.47286 2.15593,0.46095 z m 21.3987,-0.0393 c 1.17227,-0.002 1.15494,0.007 1.89858,-0.33951 l 0.53538,-0.25012 v -0.31833 c 0,-0.409 0.0647,-1.15186 0.14417,-1.75183 0.32999,-2.49386 -0.87593,-5.04824 -4.20129,-8.49044 -0.15208,-0.15743 -0.3183,-0.30237 -0.44702,-0.39842 -0.0111,-0.008 -0.0148,-0.0101 -0.0254,-0.0176 -0.11575,0.0912 -0.27408,0.22385 -0.46095,0.39068 -0.38918,0.34745 -0.88887,0.82306 -1.37922,1.30483 -0.49038,0.48176 -0.97168,0.97241 -1.32398,1.3534 -0.14639,0.15834 -0.25135,0.28088 -0.34157,0.38861 0.12525,0.12165 0.29519,0.27294 0.48783,0.42013 0.99423,0.75957 1.86045,1.65807 2.49029,2.54661 0.62987,0.88854 1.04696,1.75054 1.04696,2.56057 0,0.82731 -0.2635,1.44073 -0.82786,1.98024 0.57952,0.3922 1.2201,0.62282 2.40401,0.62115 z"
       style="fill:#000000;stroke:none;stroke-width:0.99842978;stroke-miterlimit:4;stroke-dasharray:none;stroke-opacity:1"
       inkscape:connector-curvature="0" />
    <path
       inkscape:tile-y0="139.79037"
       inkscape:tile-x0="-47.753201"
       id="use9529"
       d="m -70.16,228.30759 c 0.21508,0 0.25868,0.0584 0.32038,0.0935 0.0617,0.0352 0.11441,0.0714 0.17002,0.11318 0.11126,0.0836 0.23331,0.18674 0.37103,0.31057 0.27551,0.24763 0.60587,0.57084 0.92966,0.90279 0.32383,0.33195 0.63911,0.67063 0.88056,0.95291 0.12073,0.14115 0.22167,0.26729 0.30285,0.38086 0.0406,0.0568 0.0779,0.11 0.11162,0.17208 0.0337,0.0621 0.0858,0.10628 0.0858,0.31213 0,0.18172 -0.0487,0.24594 -0.0842,0.3147 -0.0355,0.0688 -0.0733,0.12878 -0.11885,0.19327 -0.091,0.12898 -0.20981,0.27297 -0.35967,0.44545 -0.29972,0.34498 -0.72327,0.7946 -1.25934,1.33171 -0.67143,0.6727 -1.11167,1.0971 -1.44179,1.37304 -0.27295,0.22816 -0.50044,0.32603 -0.76325,0.37517 1.06895,1.06456 2.18078,2.1768 2.60707,2.5647 0.29845,0.2716 0.48353,0.40951 0.56068,0.45474 0.0124,0.007 0.0143,0.0101 0.0185,0.0139 0.1555,-0.0138 0.38669,0.0207 0.56743,0.11886 0.19404,0.10543 0.38084,0.25487 0.65627,0.50178 0.55089,0.49381 1.44751,1.38769 3.11095,3.05666 1.94984,1.95636 2.86771,2.83642 3.30313,3.47265 0.21773,0.31812 0.33796,0.69308 0.23411,1.01803 -0.0996,0.31157 -0.27443,0.4533 -0.4217,0.62889 0.28401,0.10486 0.56076,0.23908 0.83201,0.4315 0.33293,0.23618 0.63392,0.48049 0.83611,0.7891 0.20077,0.30641 0.32552,0.63952 0.23204,1.00356 -0.0935,0.36403 -0.4691,0.62005 -0.82425,0.66042 -0.18648,0.0212 -0.39717,0.0111 -0.59169,-0.0724 -0.1945,-0.0834 -0.34248,-0.22128 -0.46302,-0.36897 -0.0849,-0.10396 -0.31618,-0.30044 -0.53486,-0.4377 -0.0541,-0.034 -0.0965,-0.053 -0.14676,-0.0801 -0.003,0.0644 -0.0153,0.0867 -0.01,0.17002 0.0277,0.39817 0.16835,0.96095 0.39068,1.40612 0.0958,0.19187 0.47183,0.68095 0.71882,0.90433 0.37,0.33463 0.59952,0.51394 0.75189,0.83406 0.0762,0.16006 0.10438,0.35471 0.0899,0.51366 -0.0143,0.15896 -0.054,0.28842 -0.0961,0.42995 -0.0735,0.24717 -0.0774,0.55505 0.0511,1.48415 0.2645,1.91228 0.0341,3.6548 -0.70901,5.13457 -0.10453,0.20819 -0.20124,0.39002 -0.39634,0.54105 -0.19511,0.15103 -0.44797,0.19327 -0.64286,0.19327 -0.006,0 -0.0132,-0.006 -0.0196,-0.006 0.1356,0.20825 0.29858,0.41887 0.20153,0.72451 -0.11618,0.36599 -0.35266,0.6743 -0.68368,1.11932 -0.33102,0.445 -0.75036,0.96066 -1.18547,1.46501 -0.4351,0.50437 -0.88606,0.99703 -1.28156,1.39423 -0.35592,0.35746 -0.62121,0.59546 -0.91416,0.77153 -0.0326,0.0196 -0.0679,0.0685 -0.10128,0.0858 -0.2594,0.1345 -0.51033,0.25576 -0.81857,0.28733 -0.30821,0.0316 -0.63489,-0.0551 -0.93946,-0.22843 -0.60912,-0.34658 -1.27338,-1.01048 -2.51923,-2.25205 -1.12805,-1.12419 -1.73953,-1.74171 -2.08206,-2.27325 -0.17123,-0.26576 -0.27974,-0.53468 -0.29093,-0.81079 -0.0111,-0.27613 0.0694,-0.51439 0.15814,-0.72865 0.1664,-0.40167 0.4671,-0.69418 0.81029,-0.96066 1.08487,-0.84237 1.90402,-1.61753 2.43758,-2.28719 0.53353,-0.66969 0.76086,-1.22711 0.76583,-1.58803 0.003,-0.18288 -0.0356,-0.29779 -0.13695,-0.4315 -0.10107,-0.13342 -0.28508,-0.28486 -0.58393,-0.43357 -0.15185,-0.0754 -0.21193,-0.0906 -0.21085,-0.0925 -0.007,0.004 -0.022,0.011 -0.0687,0.0357 -0.35591,0.18806 -0.74604,0.22062 -1.15808,0.21498 -0.41203,-0.006 -0.82259,-0.0603 -1.18131,-0.23048 -0.48361,-0.22949 -0.95724,-0.70785 -1.46502,-1.25212 -0.50782,-0.54427 -0.96573,-1.08772 -1.18185,-1.57613 -0.53874,-1.2174 -0.34678,-2.67081 0.49454,-3.69125 0.14155,-0.17169 0.22209,-0.29781 0.24804,-0.36328 0.0259,-0.0655 0.0241,-0.058 0.006,-0.11731 -0.037,-0.1186 -0.30958,-0.48917 -0.91572,-1.08572 -0.23222,-0.22858 -0.44304,-0.45772 -0.60357,-0.65267 -0.0803,-0.0975 -0.14819,-0.18438 -0.20515,-0.27131 -0.0285,-0.0435 -0.0543,-0.0864 -0.0801,-0.14056 -0.0214,-0.045 -0.043,-0.11684 -0.0527,-0.22272 -0.0101,0.10633 -0.0333,0.17762 -0.0548,0.22272 -0.0257,0.0541 -0.0516,0.0971 -0.0801,0.14056 -0.057,0.0869 -0.12491,0.17383 -0.20516,0.27131 -0.16052,0.19495 -0.37134,0.4241 -0.6036,0.65267 -0.6061,0.59655 -0.87873,0.96712 -0.91569,1.08572 -0.0185,0.0593 -0.0183,0.0518 0.008,0.11731 0.0259,0.0655 0.10443,0.19159 0.24598,0.36328 0.84082,1.01981 1.0341,2.47337 0.49609,3.68918 -0.21351,0.48252 -0.65516,1.01475 -1.14826,1.54306 -0.49308,0.52832 -0.98332,0.9992 -1.45105,1.23868 -0.36508,0.18695 -0.78457,0.26243 -1.20304,0.27699 -0.41846,0.0145 -0.82412,-0.0217 -1.18597,-0.21291 -0.0466,-0.0247 -0.0613,-0.0319 -0.0682,-0.0357 0.0122,-1.9e-4 -0.0463,0.0118 -0.20878,0.0925 -0.40876,0.20305 -0.60873,0.43149 -0.68937,0.65836 -0.0806,0.22688 -0.0676,0.5016 0.12507,0.88057 0.32781,0.64461 1.44483,1.92292 2.46859,2.74041 0.49072,0.39185 0.87219,0.69957 1.15236,1.04076 0.28017,0.34117 0.45262,0.78742 0.36693,1.23041 -0.17143,0.88598 -0.95176,1.57357 -2.34768,2.96519 -0.58372,0.58195 -1.1476,1.12254 -1.59163,1.53119 -0.22201,0.20431 -0.41357,0.37503 -0.56636,0.50384 -0.0764,0.0644 -0.14227,0.11838 -0.2031,0.16381 -0.0608,0.0454 -0.0848,0.0781 -0.22066,0.13126 -0.0545,0.0213 -0.11806,-0.028 -0.17415,-0.0119 -0.46365,0.13349 -0.96896,0.15634 -1.43711,-0.0899 -0.5248,-0.27603 -1.02777,-0.7507 -1.66246,-1.46089 -2.14683,-2.40229 -3.57917,-4.65677 -4.05037,-6.52155 -0.25897,-1.02508 -0.27445,-2.41651 -0.0724,-3.76722 0.10851,-0.72549 0.0949,-0.98897 0.0372,-1.15446 -0.0405,-0.11619 -0.078,-0.23155 -0.10591,-0.33021 -0.014,-0.0493 -0.0251,-0.0926 -0.0352,-0.13642 -0.01,-0.0438 -0.0233,-0.0607 -0.0233,-0.17622 0,-0.27453 0.0635,-0.25331 0.0878,-0.29301 0.0243,-0.0397 0.0464,-0.0698 0.0703,-0.10128 0.0478,-0.0629 0.10559,-0.13099 0.17415,-0.20929 0.13708,-0.15661 0.3172,-0.34923 0.51728,-0.55242 0.74412,-0.75569 0.9515,-1.12792 1.10535,-1.94717 0.0462,-0.24616 0.0376,-0.40102 0.0315,-0.54725 -0.0482,0.0262 -0.0891,0.0442 -0.14057,0.0765 -0.21868,0.13725 -0.45051,0.33169 -0.53536,0.43563 -0.12057,0.14771 -0.2685,0.28556 -0.46302,0.36897 -0.19452,0.0834 -0.40317,0.0935 -0.58962,0.0724 -0.35515,-0.0404 -0.73285,-0.29639 -0.82632,-0.66043 -0.0935,-0.36403 0.0338,-0.69715 0.2346,-1.00355 0.20222,-0.30861 0.50062,-0.55293 0.83355,-0.7891 0.27048,-0.19188 0.54734,-0.32502 0.83044,-0.42994 -0.14832,-0.18048 -0.28712,-0.32854 -0.39274,-0.55862 -0.11055,-0.24089 -0.10404,-0.5973 0.0233,-0.85732 0.25466,-0.52002 0.75668,-0.95986 1.77146,-1.9823 0.61368,-0.6183 1.10649,-1.09191 1.47693,-1.42007 0.18521,-0.16408 0.33936,-0.29152 0.47437,-0.38861 0.0675,-0.0485 0.12825,-0.0899 0.19947,-0.12712 0.0712,-0.0373 0.13812,-0.0879 0.31988,-0.0879 0.16307,0 0.29584,0.0973 0.43977,0.16433 -0.0483,-0.0926 -0.12637,-0.15663 -0.13695,-0.26975 -0.0222,-0.23736 0.0587,-0.45054 0.1664,-0.63872 0.21545,-0.37636 0.57652,-0.75654 1.18134,-1.35909 0.5453,-0.54323 0.85515,-0.84515 1.12913,-1.0449 0.27395,-0.19975 0.64998,-0.27303 0.88056,-0.22686 0,-5.3e-4 0.0338,-0.01 0.12144,-0.076 0.1904,-0.14446 0.55761,-0.49434 1.19888,-1.1312 0.62035,-0.61607 0.9842,-0.97093 1.27384,-1.19527 0.14481,-0.11217 0.27591,-0.19686 0.43717,-0.25167 0.006,-0.002 0.0132,0.002 0.0196,0 -0.9393,-0.94776 -1.99094,-2.0048 -2.55487,-2.59571 -0.43254,-0.45321 -0.75599,-0.80154 -0.97824,-1.05678 -0.1111,-0.12762 -0.19693,-0.23173 -0.26406,-0.32246 -0.0336,-0.0454 -0.0619,-0.0865 -0.0915,-0.13849 -0.0296,-0.052 -0.0842,-0.0814 -0.0842,-0.29663 0,-0.20349 0.0527,-0.25025 0.0863,-0.31264 0.0336,-0.0624 0.0685,-0.11504 0.10904,-0.17208 0.0812,-0.11409 0.18423,-0.23939 0.30488,-0.38085 0.24135,-0.28293 0.55533,-0.62272 0.87902,-0.95499 0.32369,-0.33225 0.65546,-0.6565 0.9312,-0.90433 0.1379,-0.12392 0.25993,-0.2269 0.37156,-0.31058 0.0558,-0.0418 0.1075,-0.08 0.16952,-0.11524 0.062,-0.0352 0.10731,-0.0915 0.32038,-0.0915 0.25837,0 0.27525,0.0632 0.34571,0.10335 0.0705,0.0401 0.1371,0.0858 0.20931,0.1385 0.14438,0.1054 0.30638,0.23898 0.46868,0.38861 l 0.24392,0.22685 0.0569,-0.0413 c 0.2481,-0.17667 0.53462,-0.32922 0.88056,-0.26561 0.34597,0.0636 0.56375,0.31566 0.72451,0.5705 0.0997,0.15811 0.15338,0.42698 0.0997,0.63098 -0.0536,0.20399 -0.15296,0.34666 -0.27337,0.50952 l -0.0217,0.0295 1.73477,1.73633 c 0.0233,-0.11456 0.0436,-0.23444 0.0992,-0.32608 0.15578,-0.25698 0.37245,-0.46349 0.76171,-0.85576 l 0.53123,-0.53485 -0.031,-0.0413 c -0.12261,-0.16592 -0.22236,-0.3075 -0.27752,-0.5116 -0.0552,-0.20409 -0.003,-0.47704 0.0977,-0.63665 0.16073,-0.25485 0.37904,-0.50691 0.72501,-0.57051 0.34594,-0.0636 0.63248,0.089 0.88056,0.26562 l 0.0569,0.0413 0.24389,-0.22686 c 0.16232,-0.14963 0.32639,-0.28322 0.47077,-0.38861 0.0722,-0.0527 0.13833,-0.0984 0.20879,-0.13849 0.0705,-0.0401 0.0857,-0.10335 0.34417,-0.10335 z m 0.0315,2.57245 -1.11517,1.10122 c -0.81182,0.80257 -1.26534,1.25275 -1.73479,1.48053 -0.0471,0.0228 -0.1151,-0.0182 -0.17,-0.002 l 1.07228,1.07435 c 0.0154,-0.11266 -0.0706,-0.21692 -0.0135,-0.32039 0.0877,-0.15847 0.12658,-0.17534 0.21497,-0.27544 0.0884,-0.1001 0.20313,-0.22417 0.33798,-0.3669 0.26972,-0.28547 0.62106,-0.64612 0.99373,-1.01596 l 1.00822,-0.99994 -0.31679,-0.35915 z m -8.63666,0.002 -0.28528,0.31265 -0.31263,0.34365 4.51186,4.51962 c 1.33226,1.33475 2.54984,2.54873 3.43908,3.42769 0.44461,0.43948 0.80688,0.79664 1.05884,1.04128 0.0307,0.0298 0.0429,0.0417 0.0703,0.0682 0.11102,-0.10627 0.22905,-0.21752 0.36742,-0.35915 l 0.31989,-0.32814 -4.59352,-4.52169 z m 1.98591,6.25389 c -0.003,0.006 0,0.0155 -0.003,0.0217 -0.0625,0.14878 -0.14894,0.27314 -0.26356,0.41806 -0.22923,0.28983 -0.58565,0.66463 -1.17355,1.25987 l -1.0785,1.09141 0.34777,0.34778 0.34573,0.34571 1.0237,-1.02164 c 0.53639,-0.53485 0.90371,-0.88368 1.19528,-1.11879 0.21924,-0.17677 0.42566,-0.24187 0.64648,-0.29869 l -0.83613,-0.83613 c -0.092,-0.0919 -0.11562,-0.11975 -0.20516,-0.20929 z m 2.12701,2.12906 c -0.0106,0.0598 0.0324,0.11728 0.014,0.17571 -0.0439,0.1383 -0.0757,0.1611 -0.10957,0.20928 -0.0338,0.0482 -0.0699,0.0954 -0.11316,0.14832 -0.0866,0.10586 -0.19767,0.23187 -0.3302,0.37672 -0.26506,0.28968 -0.6159,0.65083 -0.99219,1.02164 l -0.99012,0.97462 1.11723,1.12138 c 0.41069,0.41165 0.7824,0.8054 1.05833,1.11672 0.13798,0.15567 0.25109,0.28974 0.33798,0.40256 0.0435,0.0564 0.0804,0.10612 0.11523,0.16227 0.0313,0.0505 0.0839,0.0909 0.0956,0.29662 0.0119,-0.20401 0.0628,-0.24619 0.094,-0.29662 0.0348,-0.0561 0.0719,-0.10595 0.11525,-0.16227 0.0867,-0.11263 0.19833,-0.2473 0.33589,-0.40256 0.27514,-0.3105 0.64685,-0.70271 1.05627,-1.11311 l 1.11363,-1.11724 z m -6.51383,1.79524 -0.67953,0.61702 c -0.52546,0.47704 -0.83294,0.7549 -1.16015,0.92398 -0.16361,0.0845 -0.36541,0.14626 -0.5798,0.1111 -0.0793,-0.013 -0.11142,-0.066 -0.17571,-0.0977 0.0565,0.1193 0.1597,0.21084 0.1597,0.35553 0,0.15158 -0.0344,0.19554 -0.0543,0.23823 -0.0198,0.0427 -0.0388,0.0712 -0.0569,0.0997 -0.0363,0.0571 -0.0744,0.11008 -0.12092,0.1695 -0.093,0.11884 -0.2159,0.26061 -0.36536,0.42788 -0.29887,0.33455 -0.70242,0.76249 -1.14824,1.20922 l -1.31466,1.31621 0.0879,0.13694 c 0.5887,0.90343 0.81301,1.86916 0.74983,3.12487 -0.0271,0.53829 -0.12504,0.90651 -0.24186,1.27331 l 0.27337,-0.0196 c 1.25005,-0.0882 2.39009,0.0929 3.43958,0.55707 l 0.0191,0.008 c 0.0824,-0.9393 0.60746,-1.81662 1.70739,-2.86908 0.79785,-0.76341 1.25666,-1.12114 1.78903,-1.26607 0.21585,-0.0588 0.36153,-0.0974 0.49197,-0.13281 0.0103,-0.0297 0.0204,-0.0508 0.0274,-0.0858 0.0532,-0.26623 0.17846,-0.45622 0.34157,-0.68574 0.16312,-0.22953 0.37412,-0.47843 0.62529,-0.74002 l 0.41961,-0.4377 -2.11305,-2.11098 z m 13.4302,0.004 -2.11926,2.11719 -2.11355,2.11357 0.42011,0.43718 c 0.25119,0.26157 0.46373,0.51099 0.62685,0.74052 0.16311,0.22953 0.28681,0.4189 0.34001,0.68523 0.007,0.0342 0.0172,0.0549 0.0274,0.0842 0.13052,0.0354 0.27604,0.0761 0.49194,0.13488 0.53205,0.14483 0.99068,0.50049 1.78544,1.26348 0.29794,0.28604 0.5928,0.60015 0.83767,0.88264 0.24484,0.28249 0.42889,0.50004 0.55086,0.73845 l 0.26768,0.52349 -0.10591,0.0331 c 0.0727,0.23174 0.1697,0.45094 0.19947,0.67799 l 0.0156,-0.008 c 1.02767,-0.45186 2.16913,-0.62834 3.40651,-0.54105 l 0.31832,0.0212 c -0.22077,-0.63696 -0.37375,-1.32665 -0.30491,-2.05827 0.0837,-0.88913 0.34536,-1.77125 0.82426,-2.44378 l 0.0274,-0.0388 -1.4609,-1.46865 c -0.96163,-0.96708 -2.34958,-2.32079 -3.06647,-2.99051 z m -13.64465,0.83613 c 0.20312,0 0.25202,0.0551 0.31626,0.0899 0.0642,0.0349 0.11882,0.0707 0.17777,0.11317 0.1179,0.0849 0.24821,0.19178 0.39429,0.31833 0.29215,0.25309 0.64402,0.58379 0.98649,0.92397 0.34251,0.34019 0.67448,0.68725 0.92967,0.97824 0.12758,0.14549 0.23461,0.27674 0.32038,0.39481 0.0429,0.059 0.0799,0.11303 0.11526,0.17776 0.0353,0.0647 0.0899,0.11614 0.0899,0.31833 0,0.1977 -0.0547,0.25986 -0.094,0.33176 -0.0393,0.0719 -0.0824,0.13472 -0.13438,0.20516 -0.10391,0.14088 -0.24149,0.30422 -0.42011,0.50384 -0.35727,0.39924 -0.87604,0.93658 -1.55289,1.60921 -0.5932,0.58948 -1.13557,1.10389 -1.55237,1.47691 -0.20838,0.18651 -0.3842,0.33698 -0.5276,0.44907 -0.0717,0.056 -0.13346,0.10332 -0.19897,0.14469 -0.0655,0.0414 -0.0578,0.11524 -0.35345,0.11524 -0.19085,0 -0.24199,-0.0478 -0.30491,-0.0801 -0.0629,-0.0323 -0.11618,-0.0661 -0.17362,-0.10542 -0.11488,-0.0786 -0.24138,-0.17815 -0.38293,-0.29507 -0.28311,-0.23384 -0.62217,-0.53933 -0.95705,-0.85731 -0.33489,-0.31799 -0.66368,-0.64676 -0.92189,-0.92759 -0.12912,-0.14042 -0.23995,-0.2669 -0.33023,-0.38293 -0.0903,-0.11602 -0.16502,-0.16589 -0.22632,-0.40049 -0.06,-0.22954 0.0161,-0.43559 0.10128,-0.58808 0.0852,-0.15248 0.19788,-0.29643 0.35965,-0.48421 0.32356,-0.37554 0.84947,-0.91611 1.70894,-1.7756 0.58349,-0.58349 1.13261,-1.11332 1.55237,-1.50171 0.20989,-0.1942 0.38727,-0.35252 0.52554,-0.46871 0.0691,-0.0581 0.12586,-0.10537 0.18346,-0.14676 0.0288,-0.0207 0.0579,-0.04 0.0982,-0.0625 0.0403,-0.0225 0.0547,-0.0739 0.2713,-0.0739 z m 13.5077,0.0801 c 0.21658,0 0.231,0.0514 0.2713,0.0739 0.0403,0.0225 0.0689,0.0418 0.0977,0.0625 0.0576,0.0414 0.11636,0.0887 0.1855,0.14676 0.1383,0.11619 0.31361,0.27451 0.52348,0.4687 0.41979,0.3884 0.96941,0.91823 1.55289,1.50172 0.43177,0.43178 0.78034,0.78418 1.0604,1.07436 0.41746,0.43254 0.68096,0.72164 0.8573,0.95704 0.0882,0.1177 0.15714,0.22272 0.20929,0.34779 0.0204,0.049 0.006,0.123 0.0175,0.18345 0.0354,0.0673 0.0894,0.12549 0.0935,0.18965 0.008,0.12117 -0.0217,0.19419 -0.0429,0.24391 -0.0851,0.19888 -0.13568,0.21112 -0.24239,0.32608 -0.10668,0.11497 -0.26236,0.27632 -0.50384,0.51573 -0.4971,0.49289 -0.9619,0.9286 -1.32602,1.24799 -0.18206,0.15969 -0.33795,0.28851 -0.46871,0.38705 -0.0654,0.0493 -0.12414,0.0908 -0.18756,0.12868 -0.0634,0.0379 -0.0758,0.10542 -0.33591,0.10542 -0.27723,0 -0.29446,-0.0754 -0.3674,-0.12093 -0.0729,-0.0455 -0.14206,-0.0965 -0.22067,-0.15812 -0.15721,-0.12327 -0.34435,-0.28754 -0.56017,-0.48266 -0.43164,-0.39025 -0.96827,-0.90499 -1.4945,-1.43144 -0.5262,-0.52645 -1.04135,-1.06265 -1.43142,-1.49448 -0.19503,-0.21592 -0.35738,-0.40496 -0.48059,-0.56224 -0.0616,-0.0786 -0.1147,-0.14769 -0.16021,-0.22066 -0.0455,-0.073 -0.11885,-0.0883 -0.11885,-0.36535 0,-0.18361 0.0473,-0.24095 0.0801,-0.30489 0.0327,-0.0639 0.0676,-0.11865 0.10697,-0.17572 0.0789,-0.11411 0.17566,-0.2375 0.29147,-0.37465 0.23161,-0.27427 0.53252,-0.59919 0.84336,-0.91622 0.31083,-0.31703 0.62941,-0.62295 0.89865,-0.85938 0.13462,-0.11821 0.25644,-0.21788 0.36896,-0.29869 0.0563,-0.0404 0.11026,-0.0777 0.17415,-0.11161 0.0639,-0.0339 0.11933,-0.0837 0.30851,-0.0837 z m -13.46687,2.49597 -1.17978,1.17977 -1.10535,1.10536 0.73999,0.74207 1.14464,-1.14825 1.14051,-1.14257 -0.0703,-0.0682 -0.004,-0.002 c -0.38396,-0.38306 -0.52152,-0.52185 -0.66611,-0.66611 z m 13.46118,0.11317 -0.008,0.01 -0.43564,0.43564 -0.0739,0.0744 1.14411,1.14049 1.14464,1.14257 0.51367,-0.51573 -0.66765,-0.66766 -0.47284,-0.47491 z m -10.29343,2.60553 c -0.005,0.001 -0.003,0.003 -0.006,0.004 0,-1.9e-4 0.005,-0.002 0.006,-0.002 z m 14.35521,0.18809 c -0.003,0.002 -0.006,0.005 -0.008,0.008 0.16285,0.1377 0.21235,0.10311 0.18602,0.0971 -0.0164,-0.004 -0.10189,-0.0566 -0.17827,-0.1049 z m -6.9722,1.95854 c -0.21802,0 -0.3052,0.0321 -0.37671,0.0822 -0.0715,0.0501 -0.16161,0.15566 -0.27181,0.39842 -0.24619,0.54207 -0.25238,0.74072 -0.0527,1.21853 0.0297,0.0711 0.38944,0.57901 0.76586,0.9865 0.37643,0.4075 0.85321,0.80648 0.92552,0.84388 0.18351,0.0949 0.25786,0.10466 0.31472,0.10129 0.0569,-0.003 0.15634,-0.0313 0.35758,-0.15399 0.17929,-0.1093 0.24453,-0.34243 0.34161,-0.55295 -0.19736,0.0184 -0.38698,0.0614 -0.58809,0.0527 -0.36743,-0.0159 -0.688,-0.0397 -1.00769,-0.21084 -0.32838,-0.17572 -0.48374,-0.48263 -0.52711,-0.78341 -0.0434,-0.30078 0.0283,-0.68611 0.37105,-0.90796 0.14621,-0.0947 0.20553,-0.0905 0.28525,-0.10748 0.0797,-0.017 0.16203,-0.0311 0.25374,-0.0413 0.1039,-0.0116 0.23013,-0.0121 0.34933,-0.0176 -0.0788,-0.0771 -0.13402,-0.13749 -0.22067,-0.21859 -0.34126,-0.31948 -0.57023,-0.51178 -0.71053,-0.60358 -0.14031,-0.0918 -0.15521,-0.0858 -0.20932,-0.0858 z m -7.32202,0 c -0.0541,0 -0.069,-0.006 -0.20929,0.0858 -0.14031,0.0918 -0.36928,0.28409 -0.71057,0.60357 -0.0866,0.0811 -0.14239,0.14147 -0.22116,0.2186 0.11919,0.005 0.24596,0.006 0.34986,0.0176 0.0917,0.0102 0.1761,0.0244 0.2558,0.0413 0.0797,0.017 0.13708,0.013 0.28318,0.1075 0.34277,0.22183 0.41439,0.60511 0.37103,0.90588 -0.0434,0.30078 -0.19873,0.60973 -0.52711,0.78548 -0.31914,0.17033 -0.6409,0.19497 -1.00769,0.21084 -0.2305,0.01 -0.44987,-0.0335 -0.67384,-0.0605 0.0287,0.0741 0.0249,0.12285 0.0739,0.19896 0.11623,0.18053 0.28334,0.33637 0.39635,0.39481 0.27762,0.14356 0.33144,0.15047 0.52969,0.0641 0.19825,-0.0864 0.55076,-0.36974 1.06402,-0.91571 0.48144,-0.51212 0.72594,-0.89504 0.81079,-1.19734 0.0849,-0.3023 0.0532,-0.56167 -0.13695,-0.9803 -0.11022,-0.24277 -0.19978,-0.34833 -0.2713,-0.39843 -0.0715,-0.0501 -0.1587,-0.0822 -0.37671,-0.0822 z m 14.31075,3.69331 v 0 c -0.72609,0.0119 -1.44526,0.19024 -2.12079,0.53124 -0.0732,0.0369 -0.11936,0.0646 -0.1855,0.0997 0.0249,0.0254 0.0401,0.0422 0.0661,0.0682 0.45648,0.45648 0.72104,1.0477 0.76171,1.68361 0.0407,0.63592 -0.12637,1.30851 -0.46665,2.00402 -0.46699,0.95447 -1.7304,2.30101 -3.00963,3.34761 -0.21276,0.17404 -0.4004,0.34289 -0.53952,0.47852 0.0915,0.10416 0.19259,0.21628 0.33436,0.36534 0.35795,0.37642 0.84383,0.86296 1.33789,1.34152 0.49408,0.47857 0.99782,0.95031 1.3865,1.29708 0.17761,0.15846 0.32199,0.28138 0.43563,0.37311 0.0188,-0.0149 0.0259,-0.0174 0.047,-0.0351 0.16063,-0.13576 0.38484,-0.35109 0.63873,-0.61753 0.50774,-0.5329 1.14536,-1.27534 1.76731,-2.07585 0.27081,-0.34849 0.53804,-0.67415 0.75965,-0.92397 0.11081,-0.12491 0.21034,-0.23088 0.29715,-0.31626 0.0434,-0.0427 0.0833,-0.079 0.12711,-0.11524 0.0438,-0.0362 0.0703,-0.0728 0.20103,-0.12298 0.13909,-0.0534 0.20466,0.0758 0.32607,0.0915 -0.0623,-0.10645 -0.1628,-0.19606 -0.17774,-0.30439 -0.0566,-0.40959 0.069,-0.78125 0.26767,-1.30895 0.4903,-1.3026 0.57291,-2.12423 0.3514,-3.51762 -0.0566,-0.35595 -0.0998,-0.7161 -0.12298,-1.02113 -0.0214,-0.28144 -0.0361,-0.46324 0.006,-0.69918 -0.0243,-0.007 -0.0784,-0.0461 -0.33229,-0.16227 -0.69784,-0.31947 -1.42981,-0.47286 -2.15593,-0.46095 z m -21.3987,0.0393 c -1.17227,0.002 -1.15494,-0.007 -1.89858,0.33951 l -0.53538,0.25012 v 0.31833 c 0,0.409 -0.0647,1.15186 -0.14417,1.75184 -0.32999,2.49385 0.87593,5.04824 4.20129,8.49043 0.15208,0.15744 0.3183,0.30237 0.44702,0.39842 0.0111,0.008 0.0148,0.0101 0.0254,0.0176 0.11575,-0.0912 0.27408,-0.22384 0.46095,-0.39067 0.38918,-0.34746 0.88887,-0.82307 1.37922,-1.30484 0.49038,-0.48176 0.97168,-0.9724 1.32398,-1.35339 0.14639,-0.15835 0.25135,-0.28089 0.34157,-0.38862 -0.12525,-0.12165 -0.29519,-0.27294 -0.48783,-0.42013 -0.99423,-0.75956 -1.86045,-1.65807 -2.49029,-2.54661 -0.62987,-0.88854 -1.04696,-1.75054 -1.04696,-2.56057 0,-0.82731 0.2635,-1.44073 0.82786,-1.98024 -0.57952,-0.3922 -1.2201,-0.62282 -2.40401,-0.62115 z"
       style="fill:#000000;stroke:none;stroke-width:0.99842978;stroke-miterlimit:4;stroke-dasharray:none;stroke-opacity:1"
       inkscape:connector-curvature="0" />
  </g>
</svg>
