<?xml version="1.0" encoding="UTF-8" standalone="no"?>
<!-- Created with Inkscape (http://www.inkscape.org/) -->

<svg
   xmlns:dc="http://purl.org/dc/elements/1.1/"
   xmlns:cc="http://creativecommons.org/ns#"
   xmlns:rdf="http://www.w3.org/1999/02/22-rdf-syntax-ns#"
   xmlns:svg="http://www.w3.org/2000/svg"
   xmlns="http://www.w3.org/2000/svg"
   xmlns:sodipodi="http://sodipodi.sourceforge.net/DTD/sodipodi-0.dtd"
   xmlns:inkscape="http://www.inkscape.org/namespaces/inkscape"
   width="38.486839mm"
   height="38.486839mm"
   viewBox="0 0 38.486839 38.48684"
   version="1.1"
   id="svg2510"
   inkscape:version="0.92.5 (2060ec1f9f, 2020-04-08)"
   sodipodi:docname="category-icon.svg">
  <defs
     id="defs2504" />
  <sodipodi:namedview
     id="base"
     pagecolor="#ffffff"
     bordercolor="#666666"
     borderopacity="1.0"
     inkscape:pageopacity="0.0"
     inkscape:pageshadow="2"
     inkscape:zoom="0.98994949"
     inkscape:cx="-170.86321"
     inkscape:cy="272.6317"
     inkscape:document-units="mm"
     inkscape:current-layer="layer1"
     showgrid="false"
     fit-margin-top="0"
     fit-margin-left="0"
     fit-margin-right="0"
     fit-margin-bottom="0"
     inkscape:window-width="1920"
     inkscape:window-height="1016"
     inkscape:window-x="0"
     inkscape:window-y="27"
     inkscape:window-maximized="1" />
  <metadata
     id="metadata2507">
    <rdf:RDF>
      <cc:Work
         rdf:about="">
        <dc:format>image/svg+xml</dc:format>
        <dc:type
           rdf:resource="http://purl.org/dc/dcmitype/StillImage" />
        <dc:title></dc:title>
      </cc:Work>
    </rdf:RDF>
  </metadata>
  <g
     inkscape:label="Calque 1"
     inkscape:groupmode="layer"
     id="layer1"
     transform="translate(-49.548248,-97.012732)">
    <path
       style="fill:#000000;stroke:none;stroke-width:0;stroke-miterlimit:4;stroke-dasharray:none;stroke-opacity:1"
       d="m 52.05893,135.38681 c -2.03707,-0.64545 -3.06809,-2.84285 -2.20333,-4.69593 0.32021,-0.68617 1.04697,-1.41378 1.66983,-1.67177 0.27141,-0.11242 0.52144,-0.38005 0.77528,-0.82983 1.17012,-2.07334 4.0072,-2.34675 5.557501,-0.53557 0.25067,0.29286 0.4885,0.66289 0.52851,0.8223 0.0462,0.18402 0.287979,0.39889 0.66235,0.5886 1.113879,0.56444 1.759299,1.55091 1.850719,2.82865 0.0498,0.69631 0.01,0.9375 -0.24778,1.50056 -0.35613,0.77788 -0.91249,1.37607 -1.643519,1.76707 -0.488291,0.26117 -0.682941,0.27753 -3.576451,0.30066 -1.68303,0.0134 -3.20093,-0.0202 -3.37311,-0.0747 z m 6.18904,-2.56694 c 0.301701,-0.3017 0.39572,-0.81459 0.22899,-1.24909 -0.127509,-0.33229 -0.740089,-0.56765 -1.477459,-0.56765 H 56.30634 l -0.004,-0.78062 c -0.004,-0.81176 -0.12074,-1.07709 -0.581099,-1.32228 -0.439851,-0.23426 -0.783461,-0.16989 -1.17314,0.21979 -0.323421,0.32342 -0.365101,0.45173 -0.365101,1.12411 v 0.759 h -0.69315 c -0.85411,0 -1.36144,0.24772 -1.53664,0.75028 -0.16166,0.46374 -0.0241,0.8927 0.3762,1.17307 0.24008,0.16817 0.70892,0.19996 2.94871,0.19996 2.66111,0 2.66349,-2.5e-4 2.96982,-0.30657 z m 4.92788,2.51889 c 0,-0.0884 -0.533629,-5.49817 -1.18585,-12.02165 -0.652219,-6.52347 -1.200219,-12.02948 -1.21778,-12.23556 -0.0275,-0.3228 0.0143,-0.38004 0.3013,-0.41323 l 0.33322,-0.0385 -0.2621,-0.58597 c -0.40129,-0.89715 -0.37091,-2.35486 0.0691,-3.31348 0.373261,-0.81328 0.771941,-1.33215 1.4181,-1.84566 0.405011,-0.32186 0.43776,-0.40164 0.482581,-1.17556 0.0939,-1.62043 1.121429,-3.11705 2.62602,-3.824644 0.870219,-0.40926 1.996959,-0.56051 2.797589,-0.37554 l 0.553501,0.12787 0.68375,-0.62491 c 1.3927,-1.27285 2.84935,-1.85673 4.632109,-1.85673 1.786911,0 3.361621,0.63726 4.631721,1.87438 l 0.635029,0.61854 0.639411,-0.13713 c 2.589929,-0.55544 5.344379,1.635824 5.344379,4.251624 0,0.71055 0.01201,0.73608 0.510101,1.08123 0.280549,0.19443 0.731121,0.66215 1.00125,1.03939 0.97614,1.36316 1.118229,2.87738 0.426249,4.54262 -0.0697,0.16775 -0.0296,0.21858 0.172341,0.21858 0.16582,0 0.26466,0.0808 0.267208,0.21858 0.0021,0.12021 -0.542509,5.71262 -1.210529,12.42757 l -1.21461,12.20899 H 74.392901 c -9.063641,0 -11.217051,-0.0309 -11.217051,-0.16078 z m 4.82277,-4.0546 c -0.0474,-1.01325 -0.16777,-3.47223 -0.26742,-5.46438 -0.0997,-1.99216 -0.267469,-5.44878 -0.372929,-7.68137 -0.105441,-2.23259 -0.221891,-4.29813 -0.258771,-4.59008 l -0.067,-0.53083 h -1.867329 -1.86733 l 0.0673,0.46838 c 0.0854,0.59407 1.934029,19.17954 1.934029,19.44406 0,0.16699 0.209201,0.1965 1.392851,0.1965 h 1.39284 z m 5.14155,0.14127 -0.0347,-1.70102 -0.7494,-0.23016 c -0.41217,-0.1266 -1.058531,-0.41661 -1.436351,-0.64449 l -0.68696,-0.41432 0.0807,1.62732 c 0.0444,0.89503 0.0865,1.95051 0.0937,2.3455 l 0.013,0.71818 h 1.37742 1.37743 z m 5.3262,-0.5595 c 0.0491,-1.24329 0.0638,-2.28596 0.0327,-2.31705 -0.0311,-0.0311 -0.330009,0.11729 -0.664239,0.32975 -0.33424,0.21245 -0.987081,0.50183 -1.450779,0.64306 l -0.843071,0.25677 v 1.67399 1.67399 h 1.418079 1.41808 z m 6.01186,-7.79396 1.002789,-10.05447 H 83.571061 81.66109 v 0.57781 c 0,0.65274 -0.833589,17.70348 -0.91975,18.81295 l -0.0558,0.71818 h 1.394928 1.394931 z m -8.994719,4.24155 c 1.438478,-0.3718 2.671109,-1.49458 3.129039,-2.85021 0.30816,-0.91224 0.197641,-2.56569 -0.22673,-3.39222 -0.39816,-0.77549 -1.410538,-1.73987 -2.19321,-2.08925 -0.89079,-0.39763 -2.386679,-0.44383 -3.29359,-0.10172 -1.472349,0.55542 -2.430959,1.64004 -2.81114,3.18067 -0.344449,1.39577 0.0379,2.84377 1.045331,3.95888 0.566139,0.62664 1.37862,1.10878 2.20746,1.30993 0.872509,0.21174 1.273049,0.20873 2.14284,-0.0161 z m -3.87689,-10.42876 c 0.41217,-0.18705 0.929079,-0.37874 1.14868,-0.42598 l 0.39927,-0.0859 0.0379,-1.6779 0.0379,-1.6779 -1.91571,2.5e-4 -1.915711,2.5e-4 0.0679,0.46837 c 0.0373,0.25761 0.10424,1.40504 0.148711,2.54984 l 0.0808,2.08146 0.58045,-0.44616 c 0.31925,-0.24539 0.91768,-0.59921 1.329851,-0.78625 z m 7.65515,-2.14988 0.0895,-1.71738 H 77.446131 75.541 v 1.66254 1.66254 l 0.597319,0.15309 c 0.827521,0.21209 1.735122,0.65579 2.400281,1.17343 l 0.56206,0.4374 0.0358,-0.82712 c 0.01971,-0.45492 0.0761,-1.59994 0.125302,-2.5445 z m 5.08467,-4.32655 c 0.85802,-0.396 1.31146,-1.0743 1.31146,-1.96183 0,-1.06026 -0.656,-1.77444 -2.006721,-2.18471 -0.47629,-0.14467 -0.86599,-0.28448 -0.86599,-0.31069 0,-0.0262 0.13633,-0.45633 0.302962,-0.95581 0.237759,-0.71271 0.28181,-1.02167 0.204729,-1.43562 -0.136141,-0.73114 -0.63871,-1.34246 -1.316382,-1.60127 -0.762238,-0.29111 -1.416378,-0.18389 -2.334098,0.38255 -0.409969,0.25305 -0.76217,0.44033 -0.78268,0.41618 -0.0205,-0.0241 -0.271881,-0.41865 -0.55861,-0.87668 -0.86791,-1.38645 -1.7708,-2.044524 -3.23633,-2.358824 -1.682471,-0.36083 -3.59352,0.664294 -4.644711,2.491484 -0.240429,0.41793 -0.47366,0.76048 -0.518279,0.76122 -0.0446,9.5e-4 -0.370381,-0.1933 -0.723911,-0.43121 -1.014079,-0.68243 -1.904849,-0.73277 -2.77189,-0.15666 -0.47239,0.31388 -0.981929,1.2152 -0.981929,1.73694 0,0.18996 0.140509,0.71869 0.312249,1.17495 0.17174,0.45627 0.312251,0.84551 0.312251,0.86499 0,0.0195 -0.403831,0.15808 -0.8974,0.30799 -1.046111,0.31775 -1.62096,0.81017 -1.85406,1.58822 -0.298141,0.99509 0.160689,2.01717 1.124009,2.50382 l 0.55628,0.28103 9.434731,-0.003 c 8.905599,-0.003 9.46274,-0.0157 9.93432,-0.23333 z M 72.1439,107.33059 c -0.0365,-0.0365 -0.017,-0.3316 0.0434,-0.65573 0.311429,-1.67176 1.978739,-2.91143 3.681229,-2.73705 1.555243,0.15931 2.846563,1.41246 3.017412,2.92825 l 0.0609,0.54075 -1.17212,-0.0361 c -1.104529,-0.034 -1.174408,-0.0522 -1.21172,-0.31467 -0.0522,-0.36748 -0.594681,-0.78312 -1.02206,-0.78312 -0.429481,0 -0.9469,0.3991 -1.04999,0.80988 -0.0768,0.30597 -0.1078,0.31422 -1.17978,0.31422 -0.605491,0 -1.130781,-0.0299 -1.167311,-0.0664 z"
       id="path1150"
       inkscape:connector-curvature="0" />
  </g>
</svg>
