<?xml version="1.0" encoding="UTF-8" standalone="no"?>
<svg
   xmlns:dc="http://purl.org/dc/elements/1.1/"
   xmlns:cc="http://creativecommons.org/ns#"
   xmlns:rdf="http://www.w3.org/1999/02/22-rdf-syntax-ns#"
   xmlns:svg="http://www.w3.org/2000/svg"
   xmlns="http://www.w3.org/2000/svg"
   xmlns:sodipodi="http://sodipodi.sourceforge.net/DTD/sodipodi-0.dtd"
   xmlns:inkscape="http://www.inkscape.org/namespaces/inkscape"
   version="1.1"
   width="337"
   height="450"
   viewBox="0 0 337 450"
   xml:space="preserve"
   id="svg22"
   sodipodi:docname="default-actor-pic-dark.svg"
   inkscape:version="0.92.5 (2060ec1f9f, 2020-04-08)"><metadata
   id="metadata26"><rdf:RDF><cc:Work
       rdf:about=""><dc:format>image/svg+xml</dc:format><dc:type
         rdf:resource="http://purl.org/dc/dcmitype/StillImage" /><dc:title></dc:title></cc:Work></rdf:RDF></metadata><sodipodi:namedview
   pagecolor="#ffffff"
   bordercolor="#666666"
   borderopacity="1"
   objecttolerance="10"
   gridtolerance="10"
   guidetolerance="10"
   inkscape:pageopacity="0"
   inkscape:pageshadow="2"
   inkscape:window-width="1920"
   inkscape:window-height="1016"
   id="namedview24"
   showgrid="false"
   inkscape:zoom="1.0488889"
   inkscape:cx="89.409037"
   inkscape:cy="49.716597"
   inkscape:window-x="0"
   inkscape:window-y="27"
   inkscape:window-maximized="1"
   inkscape:current-layer="svg22" />
<desc
   id="desc2">Created with Fabric.js 4.2.0</desc>
<defs
   id="defs4">
</defs>
<g
   transform="matrix(1 0 0 1 168.5 225)"
   id="59302597-4fed-4b61-84e2-06e0d7fd5d49"
   style="fill:#5c5c5c;fill-opacity:1">
<rect
   style="stroke:none;stroke-width:1;stroke-dasharray:none;stroke-linecap:butt;stroke-dashoffset:0;stroke-linejoin:miter;stroke-miterlimit:4;fill:#5c5c5c;fill-rule:nonzero;opacity:1;fill-opacity:1"
   vector-effect="non-scaling-stroke"
   x="-168.5"
   y="-225"
   rx="0"
   ry="0"
   width="337"
   height="450"
   id="rect6" />
</g>
<g
   transform="matrix(Infinity NaN NaN Infinity 0 0)"
   id="839ae181-c419-42a0-bb29-30df6d877cff">
</g>
<g
   transform="matrix(2.31,0,0,2.31,170.40678,225)"
   id="g20"
   style="fill:#aaaaaa;fill-opacity:1">
<g
   style="vector-effect:non-scaling-stroke;fill:#aaaaaa;fill-opacity:1"
   id="g18">
		<g
   transform="translate(0.21,-14.88)"
   id="g12"
   style="fill:#aaaaaa;fill-opacity:1">
<ellipse
   style="opacity:1;vector-effect:non-scaling-stroke;fill:#aaaaaa;fill-opacity:1;fill-rule:nonzero;stroke:none;stroke-width:1;stroke-linecap:butt;stroke-linejoin:miter;stroke-miterlimit:4;stroke-dasharray:none;stroke-dashoffset:0"
   cx="0"
   cy="0"
   rx="18.518999"
   ry="20.634001"
   id="ellipse10" />
</g>
		<g
   transform="translate(0,20.02)"
   id="g16"
   style="fill:#aaaaaa;fill-opacity:1">
<polygon
   style="opacity:1;vector-effect:non-scaling-stroke;fill:#aaaaaa;fill-opacity:1;fill-rule:nonzero;stroke:none;stroke-width:1;stroke-linecap:butt;stroke-linejoin:miter;stroke-miterlimit:4;stroke-dasharray:none;stroke-dashoffset:0"
   points="-17.28,-15.45 -16.87,-15.35 -16.46,-15.19 -16.04,-14.99 -15.68,-14.73 -15.22,-14.37 -14.8,-13.9 -14.34,-13.28 -13.88,-12.61 -13.41,-11.84 -13,-10.91 -12.54,-9.98 -12.12,-8.95 -11.71,-7.81 -11.35,-6.68 -10.99,-5.55 -10.63,-4.31 -10.27,-3.12 -9.9,-1.94 -9.54,-0.7 -9.23,0.49 -8.87,1.67 -8.46,2.81 -8.1,3.95 -7.63,5.03 -7.12,6.17 -6.55,7.19 -5.78,8.28 -4.8,9.36 -3.51,10.34 -1.85,11.01 0,11.27 1.91,11.01 3.56,10.29 4.9,9.31 5.83,8.23 6.55,7.14 7.17,6.06 7.69,4.92 8.1,3.84 8.51,2.66 8.87,1.52 9.23,0.34 9.6,-0.85 9.96,-2.09 10.32,-3.33 10.68,-4.51 11.04,-5.7 11.45,-6.89 11.86,-8.02 12.28,-9.11 12.74,-10.14 13.21,-11.06 13.72,-11.94 14.19,-12.72 14.7,-13.39 15.22,-13.95 15.68,-14.42 16.15,-14.73 16.66,-15.04 17.13,-15.24 17.69,-15.4 18.31,-15.45 19.24,-15.5 19.86,-15.45 20.38,-15.4 20.89,-15.35 21.41,-15.24 21.87,-15.14 22.39,-15.04 22.85,-14.88 23.27,-14.68 23.73,-14.52 24.14,-14.32 24.55,-14.06 24.92,-13.85 25.28,-13.59 25.64,-13.33 26,-13.03 26.31,-12.77 26.62,-12.46 26.88,-12.15 27.13,-11.84 27.39,-11.53 27.6,-11.22 27.81,-10.91 28.01,-10.65 28.16,-10.34 28.27,-10.09 28.37,-9.78 28.48,-9.57 28.53,-9.31 28.58,-9.16 28.63,-8.95 28.63,-8.85 28.63,-8.64 28.63,11.73 28.63,12.2 28.58,12.56 28.48,12.92 28.37,13.23 28.22,13.54 28.01,13.85 27.81,14.11 27.55,14.37 27.24,14.62 26.93,14.88 26.62,15.04 26.26,15.19 25.9,15.34 25.53,15.45 25.12,15.5 24.61,15.5 -24.61,15.5 -25.12,15.5 -25.48,15.45 -25.9,15.34 -26.26,15.19 -26.62,15.04 -26.93,14.88 -27.24,14.62 -27.5,14.37 -27.75,14.11 -27.96,13.85 -28.16,13.54 -28.32,13.23 -28.42,12.92 -28.53,12.56 -28.58,12.2 -28.63,11.73 -28.63,-8.64 -28.63,-8.8 -28.58,-8.85 -28.58,-9 -28.53,-9.16 -28.47,-9.36 -28.37,-9.57 -28.27,-9.83 -28.11,-10.09 -27.91,-10.4 -27.7,-10.7 -27.5,-11.01 -27.24,-11.32 -26.93,-11.63 -26.62,-11.94 -26.31,-12.25 -25.95,-12.56 -25.59,-12.87 -25.17,-13.18 -24.76,-13.44 -24.3,-13.7 -23.83,-13.95 -23.37,-14.21 -22.9,-14.42 -22.39,-14.62 -21.87,-14.83 -21.3,-14.99 -20.79,-15.14 -20.22,-15.24 -19.66,-15.35 -19.03,-15.4 -18.47,-15.45 -17.95,-15.45 "
   id="polygon14" />
</g>
</g>
</g>
</svg>