<svg width="60" height="54" viewBox="0 0 60 54" fill="none" xmlns="http://www.w3.org/2000/svg">
<path d="M33.1825 3.43806L32.2798 8.3758H27.0154L26.1127 3.43806H33.1825Z" fill="#EC0000"/>
<path fill-rule="evenodd" clip-rule="evenodd" d="M17.8582 26.6487C17.7855 26.6269 17.7128 26.6054 17.6401 26.5842C12.5356 25.097 7.49004 25.2328 4.35972 25.8261C3.77851 25.9363 3.38192 26.4778 3.45226 27.0651C4.42622 35.1977 8.42974 40.7888 12.9678 44.3957C17.0358 47.629 21.5519 49.2847 24.746 49.7738C26.1043 50.1137 27.912 50.267 29.6492 50.267C31.247 50.267 32.9044 50.1373 34.217 49.852C37.4278 49.4858 42.2564 47.8314 46.579 44.3957C51.1171 40.7888 55.1206 35.1977 56.0946 27.0651C56.1649 26.4778 55.7683 25.9363 55.1871 25.8261C52.0568 25.2328 47.0112 25.097 41.9068 26.5842C41.7606 26.6268 41.6143 26.6707 41.4679 26.7161C40.3592 25.4439 39.0274 24.3742 37.5069 23.5682C35.4697 22.2742 34.6623 20.6752 34.4608 18.6813C34.2467 16.5616 34.719 14.0207 35.3601 10.9084C35.4283 10.5772 35.3439 10.2329 35.1303 9.97073C34.9167 9.7086 34.5965 9.55648 34.2583 9.55648L25.04 9.55645C24.7019 9.55645 24.3817 9.70857 24.168 9.9707C23.9544 10.2328 23.87 10.5772 23.9382 10.9084C24.0471 11.4369 24.1511 11.949 24.2477 12.4453C23.6877 12.0804 23.076 11.7972 22.4309 11.6062C21.3775 11.2942 20.265 11.237 19.1852 11.4391C18.1054 11.6413 17.089 12.097 16.2198 12.7689C15.3505 13.4407 14.6534 14.3095 14.1856 15.3035C13.7178 16.2976 13.4929 17.3885 13.5293 18.4865C13.5657 19.5845 13.8624 20.6582 14.395 21.619C14.9276 22.5799 15.6808 23.4005 16.5926 24.0133C17.1083 24.3599 17.8072 24.2228 18.1538 23.7072C18.5003 23.1915 18.3632 22.4925 17.8476 22.146C17.2315 21.732 16.7227 21.1775 16.3628 20.5284C16.003 19.8792 15.8026 19.1538 15.778 18.4119C15.7534 17.6701 15.9053 16.9331 16.2214 16.2614C16.5374 15.5898 17.0084 15.0029 17.5957 14.549C18.1829 14.0951 18.8696 13.7872 19.5992 13.6506C20.3288 13.514 21.0803 13.5527 21.792 13.7634C22.5037 13.9742 23.1552 14.351 23.6927 14.8628C24.2035 15.349 24.6062 15.9408 24.854 16.5811C24.9043 17.3248 24.904 18.0233 24.8375 18.6813C24.6361 20.6752 23.8287 22.2742 21.7915 23.5681C20.3009 24.3582 18.9711 25.4035 17.8582 26.6487ZM39.1647 27.5481C35.7182 28.9818 32.3821 31.2693 29.7734 34.7822C27.1168 31.2047 23.7057 28.898 20.1918 27.4699C20.9892 26.7083 21.8926 26.0569 22.8791 25.5381C22.9047 25.5246 22.9299 25.5101 22.9545 25.4946C25.6493 23.7993 26.8092 21.5479 27.076 18.9075C27.1601 18.0751 27.1552 17.2028 27.0884 16.2987C27.0874 16.2702 27.0852 16.2416 27.0819 16.2129C26.9725 14.8097 26.7169 13.3308 26.4158 11.8063L32.8825 11.8063C32.3809 14.3462 32.0053 16.7596 32.2224 18.9075C32.4891 21.5479 33.649 23.7993 36.3439 25.4946C36.3684 25.5101 36.3936 25.5246 36.4193 25.5381C37.4372 26.0734 38.3576 26.7513 39.1647 27.5481Z" fill="#EC0000"/>
<path fill-rule="evenodd" clip-rule="evenodd" d="M26.1127 0.188187C25.1484 0.188187 24.234 0.616346 23.6165 1.35692C22.9991 2.0975 22.7424 3.07402 22.9158 4.02252L23.3922 6.62876C22.7202 6.90202 22.1184 7.34145 21.6488 7.91755C21.5941 7.98468 21.5416 8.05319 21.4913 8.123C20.5256 8.02487 19.5476 8.06493 18.5872 8.24473C17.0014 8.5416 15.5088 9.21093 14.2323 10.1976C12.9558 11.1842 11.9319 12.46 11.245 13.9198C10.5581 15.3796 10.2278 16.9817 10.2812 18.5942C10.3225 19.8401 10.5921 21.0647 11.0733 22.208C8.2518 22.0548 5.70895 22.2626 3.75451 22.6331C1.49421 23.0615 -0.0481118 25.1673 0.225448 27.4516C1.31401 36.541 5.82705 42.8715 10.9457 46.9398C15.4134 50.4909 20.3891 52.3654 24.1079 52.9632C25.7947 53.365 27.8276 53.5169 29.6492 53.5169C31.3288 53.5169 33.1666 53.3877 34.7462 53.0618C38.5487 52.5929 43.8672 50.7025 48.6012 46.9398C53.7198 42.8715 58.2329 36.541 59.3214 27.4516C59.595 25.1674 58.0527 23.0615 55.7923 22.6331C52.5244 22.0137 47.586 21.8447 42.4411 23.0808C41.4515 22.1915 40.3536 21.413 39.1591 20.7665C38.562 20.3723 38.2629 20.0192 38.0894 19.7272C37.904 19.4152 37.7594 18.9993 37.6942 18.3546C37.5395 16.8231 37.8776 14.7948 38.5431 11.5641C38.8085 10.276 38.4803 8.93698 37.6495 7.9176C37.1793 7.34064 36.5763 6.90075 35.9031 6.62758L36.3794 4.02252C36.5528 3.07402 36.2961 2.0975 35.6786 1.35692C35.0611 0.616346 34.1467 0.188187 33.1825 0.188187H26.1127ZM20.1972 16.8449C20.4208 16.8031 20.6511 16.8149 20.8693 16.8795C21.0874 16.9441 21.2871 17.0596 21.4518 17.2165C21.5224 17.2837 21.5848 17.3547 21.6386 17.4267C21.6441 17.7715 21.632 18.0787 21.6041 18.3546C21.539 18.9993 21.3944 19.4152 21.2089 19.7272C21.1675 19.797 21.1082 19.8875 21.0459 19.9754C20.7736 19.9558 20.5651 19.9064 20.3949 19.8462C20.1432 19.7572 19.9295 19.6296 19.6604 19.4487C19.4715 19.3218 19.3156 19.1519 19.2053 18.9529C19.095 18.7539 19.0336 18.5316 19.026 18.3042C19.0185 18.0769 19.0651 17.851 19.1619 17.6451C19.2588 17.4393 19.4032 17.2594 19.5832 17.1203C19.7631 16.9812 19.9736 16.8868 20.1972 16.8449Z" fill="white"/>
<path d="M4.56921 26.9314C6.43783 42.5343 19.8783 48.2718 25.8247 48.7708C30.3794 49.153 36.7327 49.1912 30.3794 37.7927C24.0261 26.3942 10.5254 25.8024 4.56921 26.9314Z" fill="#7CB342"/>
<path d="M4.56921 26.9314C6.43783 42.5343 19.8783 48.2718 25.8247 48.7708C30.3794 49.153 36.7327 49.1912 30.3794 37.7927C24.0262 26.3942 10.5254 25.8024 4.56921 26.9314ZM4.56921 26.9314C5.2334 28.9744 10.6673 35.8501 27.0892 47.0086" stroke="black" stroke-width="3" stroke-linejoin="round"/>
<path d="M54.9776 26.9314C53.109 42.5343 39.6686 48.2718 33.7222 48.7708C29.1674 49.153 22.8141 49.1912 29.1674 37.7927C35.5207 26.3942 49.0214 25.8024 54.9776 26.9314Z" fill="#7CB342"/>
<path d="M54.9776 26.9314C53.109 42.5343 39.6686 48.2718 33.7222 48.7708C29.1674 49.153 22.8141 49.1912 29.1674 37.7927C35.5207 26.3942 49.0214 25.8024 54.9776 26.9314ZM54.9776 26.9314C54.3134 28.9744 48.8796 35.8501 32.4577 47.0086" stroke="black" stroke-width="3" stroke-linejoin="round"/>
<path d="M18.3316 44.3136C19.9564 46.3208 22.1399 47.8011 24.6059 48.5674C27.072 49.3336 32.2263 49.3336 34.6924 48.5674C37.1585 47.8011 39.342 46.3208 40.9667 44.3136C42.5915 42.3064 43.5846 39.8625 43.8204 37.2909C44.0562 34.7193 43.5241 32.1356 42.2915 29.8664C41.0589 27.5972 39.2285 25.7444 36.9429 24.5425C32.1851 21.5493 32.9921 16.8278 34.2583 10.6814L25.04 10.6814C26.3062 16.8278 27.1133 21.5493 22.3554 24.5425C20.0698 25.7444 18.192 27.5972 16.9594 29.8664C15.7267 32.1356 15.2421 34.7193 15.478 37.2909C15.7138 39.8625 16.7068 42.3064 18.3316 44.3136Z" fill="white"/>
<ellipse cx="29.6476" cy="37.6349" rx="14.0824" ry="11.405" fill="#D8D216"/>
<path d="M36.9425 28.0571C41.1029 30.4543 43.0647 34.8022 41.3243 37.7685C39.584 40.7347 34.8005 41.1959 30.6401 38.7987C26.4797 36.4015 24.5179 32.0536 26.2583 29.0874C27.9986 26.1212 32.7821 25.6599 36.9425 28.0571Z" fill="#E3DC46"/>
<path d="M38.4208 31.1772C39.0865 32.1916 39.1358 33.3304 38.5308 33.7206C37.9258 34.1109 36.8957 33.6049 36.2299 32.5904C35.5642 31.5759 35.5149 30.4372 36.1199 30.0469C36.7249 29.6567 37.755 30.1627 38.4208 31.1772Z" fill="white"/>
<path d="M39.595 35.3935C39.7216 35.8353 39.5298 36.2753 39.1666 36.3763C38.8034 36.4772 38.4064 36.2009 38.2798 35.7591C38.1532 35.3172 38.3451 34.8772 38.7083 34.7763C39.0714 34.6753 39.4685 34.9517 39.595 35.3935Z" fill="white"/>
<path fill-rule="evenodd" clip-rule="evenodd" d="M33.1825 3.43806H32.9308L29.7735 3.43802H29.7734H29.5217L29.5217 3.43802L26.3644 3.43806L26.1127 3.43807L27.0154 8.3758L27.2671 8.3758L29.5217 8.37575H29.7734H29.7735L32.0281 8.3758H32.2798L33.1825 3.43806Z" fill="black"/>
<path d="M18.3316 44.3136L17.1657 45.2574L17.1657 45.2574L18.3316 44.3136ZM15.478 37.2909L13.9842 37.4279L15.478 37.2909ZM16.9594 29.8664L18.2775 30.5823L18.2775 30.5823L16.9594 29.8664ZM22.3555 24.5425L23.0536 25.8701C23.0879 25.8521 23.1214 25.8327 23.1542 25.8121L22.3555 24.5425ZM36.9429 24.5425L36.1442 25.8121C36.1769 25.8327 36.2105 25.8521 36.2447 25.8701L36.9429 24.5425ZM25.04 10.6814L25.04 9.18138C24.5891 9.18138 24.1622 9.38422 23.8773 9.73374C23.5924 10.0833 23.4799 10.5424 23.5709 10.984L25.04 10.6814ZM34.2583 10.6814L35.7275 10.9841C35.8184 10.5424 35.7059 10.0833 35.4211 9.73377C35.1362 9.38425 34.7092 9.18141 34.2583 9.18141L34.2583 10.6814ZM24.5483 16.8362C24.8222 17.618 25.6781 18.0297 26.4599 17.7558C27.2418 17.4819 27.6535 16.6261 27.3796 15.8442L24.5483 16.8362ZM24.4684 14.048L25.5027 12.9617L25.5027 12.9617L24.4684 14.048ZM22.1114 12.6848L22.5374 11.2465L22.5374 11.2465L22.1114 12.6848ZM19.3922 12.5448L19.1162 11.0705L19.1162 11.0705L19.3922 12.5448ZM15.2035 15.7825L13.8462 15.1438L13.8462 15.1438L15.2035 15.7825ZM16.3834 24.3246C17.071 24.7867 18.003 24.6039 18.4651 23.9164C18.9272 23.2288 18.7444 22.2968 18.0568 21.8347L16.3834 24.3246ZM25.051 47.1349C22.8683 46.4567 20.9356 45.1465 19.4975 43.3699L17.1657 45.2574C18.9771 47.4952 21.4115 49.1455 24.1609 49.9998L25.051 47.1349ZM19.4975 43.3699C18.0594 41.5933 17.1804 39.4301 16.9717 37.154L13.9842 37.4279C14.2471 40.2949 15.3543 43.0196 17.1657 45.2574L19.4975 43.3699ZM16.9717 37.154C16.7612 34.8585 17.1954 32.5744 18.2775 30.5823L15.6413 29.1504C14.2581 31.6968 13.7231 34.5801 13.9842 37.4279L16.9717 37.154ZM18.2775 30.5823C19.3685 28.5738 21.0306 26.934 23.0536 25.8701L21.6573 23.2148C19.1091 24.5549 17.0155 26.6205 15.6413 29.1504L18.2775 30.5823ZM24.1609 49.9998C25.6062 50.4489 27.6868 50.6421 29.6492 50.6421C31.6116 50.6421 33.6921 50.4489 35.1375 49.9998L34.2473 47.1349C33.2266 47.4521 31.4969 47.6421 29.6492 47.6421C27.8014 47.6421 26.0717 47.4521 25.051 47.1349L24.1609 49.9998ZM35.1375 49.9998C37.8869 49.1455 40.3212 47.4952 42.1326 45.2574L39.8008 43.3699C38.3627 45.1465 36.4301 46.4567 34.2473 47.1349L35.1375 49.9998ZM42.1326 45.2574C43.9441 43.0196 45.0512 40.2949 45.3141 37.4279L42.3267 37.154C42.1179 39.4301 41.239 41.5933 39.8008 43.3699L42.1326 45.2574ZM45.3141 37.4279C45.577 34.5609 44.9839 31.6803 43.6096 29.1504L40.9734 30.5823C42.0645 32.5909 42.5354 34.8778 42.3267 37.154L45.3141 37.4279ZM43.6096 29.1504C42.242 26.6327 40.2013 24.5612 37.6411 23.2148L36.2447 25.8701C38.2557 26.9276 39.8758 28.5616 40.9734 30.5823L43.6096 29.1504ZM25.04 12.1814L34.2583 12.1814L34.2583 9.18141L25.04 9.18138L25.04 12.1814ZM32.7892 10.3788C32.1668 13.3998 31.5872 16.3516 31.8492 18.9452C32.1267 21.6915 33.344 24.0505 36.1442 25.8121L37.7416 23.2728C35.784 22.0413 35.0259 20.543 34.834 18.6436C34.6267 16.5916 35.0836 14.1095 35.7275 10.9841L32.7892 10.3788ZM23.5709 10.984C24.2147 14.1094 24.6717 16.5915 24.4643 18.6436C24.2724 20.543 23.5144 22.0413 21.5567 23.2728L23.1542 25.8121C25.9544 24.0505 27.1717 21.6915 27.4491 18.9452C27.7112 16.3516 27.1315 13.3998 26.5092 10.3787L23.5709 10.984ZM27.3796 15.8442C26.9921 14.7382 26.331 13.7502 25.5027 12.9617L23.4341 15.1344C23.9391 15.6152 24.3272 16.2049 24.5483 16.8362L27.3796 15.8442ZM25.5027 12.9617C24.6641 12.1632 23.6477 11.5753 22.5374 11.2465L21.6855 14.123C22.3403 14.3169 22.9396 14.6636 23.4341 15.1344L25.5027 12.9617ZM22.5374 11.2465C21.427 10.9177 20.2544 10.8574 19.1162 11.0705L19.6682 14.0192C20.3394 13.8936 21.0308 13.9292 21.6855 14.123L22.5374 11.2465ZM19.1162 11.0705C17.978 11.2835 16.9066 11.764 15.9904 12.4721L17.8251 14.8457C18.3653 14.4282 18.997 14.1449 19.6682 14.0192L19.1162 11.0705ZM15.9904 12.4721C15.0742 13.1803 14.3393 14.096 13.8462 15.1438L16.5607 16.4211C16.8515 15.8033 17.2848 15.2633 17.8251 14.8457L15.9904 12.4721ZM13.8462 15.1438C13.3532 16.1916 13.1161 17.3416 13.1545 18.4989L16.1528 18.3995C16.1302 17.7171 16.27 17.039 16.5607 16.4211L13.8462 15.1438ZM13.1545 18.4989C13.1928 19.6563 13.5056 20.788 14.067 21.8009L16.6909 20.3465C16.3599 19.7493 16.1754 19.082 16.1528 18.3995L13.1545 18.4989ZM14.067 21.8009C14.6284 22.8137 15.4223 23.6787 16.3834 24.3246L18.0568 21.8347C17.4901 21.4538 17.0219 20.9438 16.6909 20.3465L14.067 21.8009Z" fill="black"/>
</svg>
